<svg width="567" height="881" viewBox="0 0 567 881" fill="none" xmlns="http://www.w3.org/2000/svg">
<g filter="url(#filter0_d_267_15616)">
<path d="M450.151 171.696C463.847 182.906 459.218 210.792 469.204 224.362C479.532 238.382 507.965 243.106 514.237 258.79C520.579 274.701 502.42 295.987 504.476 312.693C506.521 329.414 529.48 347.5 527.112 364.086C524.771 380.451 498.013 389.423 491.263 404.78C484.752 419.627 496.05 446.28 485.327 459.381C474.603 472.483 446.244 466.676 432.976 475.994C419.268 485.632 415.735 513.637 400.171 519.179C384.381 524.779 362.098 505.835 345.318 507.149C328.523 508.45 311.259 530.443 294.408 527.372C277.782 524.338 267.558 497.398 251.757 490.032C236.482 482.926 210.061 492.976 196.365 481.766C182.669 470.556 187.298 442.67 177.313 429.1C166.984 415.08 138.552 410.356 132.279 394.672C125.937 378.761 144.096 357.476 142.04 340.769C139.995 324.048 117.036 305.962 119.404 289.376C121.745 273.011 148.503 264.039 155.253 248.683C161.764 233.835 150.466 207.182 161.19 194.081C171.913 180.979 200.273 186.786 213.54 177.468C227.248 167.831 230.781 139.825 246.345 134.283C262.135 128.684 284.418 147.627 301.198 146.313C317.993 145.012 335.258 123.019 352.108 126.09C368.735 129.124 378.958 156.065 394.759 163.43C410.034 170.536 436.455 160.486 450.151 171.696Z" fill="#181F28"/>
<path d="M223.362 526.246C230.582 566.588 302.61 581.813 358.866 574.292C415.122 566.77 511.882 511.894 431.171 483.876C391.932 470.261 389.575 501.095 333.32 508.616C277.064 516.138 216.169 485.927 223.362 526.246Z" fill="white"/>
<path d="M252.607 536.509C263.369 517.654 262.486 496.715 250.65 489.735C242.348 484.835 230.85 488.105 221.008 497.018C199.365 484.267 174.078 484.328 164.74 500.693C155.402 517.058 169.884 533.198 191.498 545.925C208.429 555.902 229.023 557.369 240.99 549.203C247.534 545.128 247.84 544.927 252.657 536.505L252.607 536.509Z" fill="#817567"/>
<path d="M670.896 553.233L635.322 559.406C617.946 562.422 606.338 578.102 608.361 595.688C612.688 633.571 628.375 687.431 610.164 698.384C576.965 718.369 514.156 640.065 494.167 623.163L421.074 557.02C389.967 530.702 368.33 470.798 393.551 441.079L441.172 385.606C466.393 355.886 513.224 357.574 544.331 383.891L555.548 401.195C575.778 432.329 604.392 456.561 636.226 475.938C657.896 489.117 684.787 536.895 670.88 553.31L670.896 553.233Z" fill="white"/>
<path d="M825.127 561.281C827.763 525.667 746.7 487.072 687.526 480.291C628.353 473.511 532.852 499.183 608.203 541.587C644.839 562.186 645.982 553.239 705.162 560.07C764.314 566.877 822.546 596.94 825.133 561.331L825.127 561.281Z" fill="white"/>
<path d="M654.74 788.705C607.214 800.259 557.656 729.281 535.186 667.973C512.738 606.639 505.272 492.765 579.445 562.544C615.499 596.477 603.667 599.924 626.115 661.259C648.563 722.593 702.243 777.179 654.718 788.732L654.74 788.705Z" fill="white"/>
<mask id="mask0_267_15616" style="mask-type:luminance" maskUnits="userSpaceOnUse" x="519" y="540" width="155" height="250">
<path d="M654.74 788.705C607.214 800.259 557.656 729.281 535.186 667.973C512.738 606.639 505.272 492.765 579.445 562.544C615.499 596.477 603.667 599.924 626.115 661.259C648.563 722.593 702.243 777.179 654.718 788.732L654.74 788.705Z" fill="white"/>
</mask>
<g mask="url(#mask0_267_15616)">
<path d="M589.494 649.517C557.774 670.577 542.084 701.102 549.543 723.227C545.767 721.039 542.446 718.411 539.712 715.181C521.322 693.269 536.583 655.488 573.81 630.812C611.037 606.136 656.112 603.86 674.502 625.771C677.236 629.001 679.1 632.603 680.406 636.425C658.675 623.783 621.265 628.452 589.517 649.489L589.494 649.517Z" fill="url(#paint0_linear_267_15616)"/>
</g>
<path d="M633.192 467.138C631.501 467.244 629.998 465.968 629.773 464.34C628.584 454.612 620.729 455.448 616.186 460.71L486.079 610.046C481.442 615.366 481.79 623.413 491.572 622.529C492.931 622.424 494.203 623.464 494.34 624.795C495.301 635.148 503.341 634.374 508.001 629.026L638.108 479.691C642.657 474.479 642.412 466.652 633.17 467.165L633.192 467.138Z" fill="#7C7C7C"/>
<mask id="mask1_267_15616" style="mask-type:luminance" maskUnits="userSpaceOnUse" x="222" y="493" width="237" height="84">
<path d="M223.362 526.246C230.582 566.588 302.61 581.813 358.866 574.292C415.122 566.77 507.763 527.07 427.053 499.052C387.813 485.438 389.575 501.095 333.32 508.616C277.064 516.138 216.169 485.927 223.362 526.246Z" fill="white"/>
</mask>
<g mask="url(#mask1_267_15616)">
<path d="M317.109 551.938C324.372 500.932 314.502 455.353 294.668 439.932C298.654 438.636 302.687 438.147 306.666 438.876C333.732 443.79 348.743 496.285 340.224 556.146C331.677 615.983 302.848 660.485 275.783 655.57C271.804 654.841 268.093 652.977 264.665 650.307C287.762 642.721 309.824 602.971 317.109 551.938Z" fill="url(#paint1_linear_267_15616)"/>
</g>
<path d="M496.31 192.419C537.322 192.051 565.543 260.051 568.528 316.691C571.513 373.332 535.355 478.488 492.939 404.375C472.31 368.311 502.197 360.327 499.24 303.709C496.255 247.068 455.326 192.81 496.316 192.469L496.31 192.419Z" fill="white"/>
<path d="M511.845 219.259C495.308 233.297 474.549 236.297 465.478 225.939C459.122 218.661 460.24 206.805 467.166 195.461C450.645 176.569 446.052 151.69 460.402 139.518C474.774 127.319 493.309 138.564 509.83 157.456C522.774 172.247 528.009 192.191 522.156 205.451C519.348 212.629 519.211 212.969 511.817 219.236L511.845 219.259Z" fill="#817567"/>
<mask id="mask2_267_15616" style="mask-type:luminance" maskUnits="userSpaceOnUse" x="478" y="192" width="91" height="233">
<path d="M496.31 192.419C537.322 192.051 565.543 260.05 568.528 316.691C571.513 373.332 549.493 471.647 507.077 397.534C486.447 361.471 502.197 360.326 499.212 303.686C496.227 247.045 455.297 192.786 496.288 192.446L496.31 192.419Z" fill="white"/>
</mask>
<g mask="url(#mask2_267_15616)">
<path d="M538.872 279.782C490.049 296.321 443.418 295.023 424.58 278.386C424.047 282.552 424.314 286.607 425.765 290.367C435.592 316.055 490.003 321.103 547.276 301.734C604.543 282.314 642.989 245.774 633.19 220.109C631.761 216.322 629.2 213.053 625.949 210.166C622.742 234.257 587.724 263.267 538.872 279.782Z" fill="url(#paint2_linear_267_15616)"/>
</g>
<path d="M493.248 318.119C520.39 341.327 509.766 398.111 469.53 444.964C429.295 491.817 374.72 511.003 347.578 487.795C320.437 464.587 350.345 429.544 390.58 382.691C430.816 335.838 466.106 294.911 493.22 318.096L493.248 318.119Z" fill="#636363"/>
<path d="M454.456 337.272C469.09 349.882 459.938 384.81 433.991 415.244C408.072 445.7 375.184 460.119 360.549 447.509C345.915 434.899 365.2 412.145 391.118 381.688C417.037 351.231 439.793 324.639 454.428 337.249L454.456 337.272Z" fill="#3A3A3A"/>
<path d="M531.623 503.683L530.671 506.92C530.188 508.375 529.687 509.679 529.129 510.937L529.008 511.2C528.866 511.489 528.723 511.779 528.603 512.041C528.279 512.724 527.934 513.434 527.561 514.121L540.098 520.187C541.827 521.014 543.607 519.358 542.832 517.596L533.015 495.526L532.99 495.731C532.761 498.431 532.295 501.074 531.645 503.656L531.623 503.683Z" fill="url(#paint3_linear_267_15616)"/>
<path d="M483.522 521.76L496.1 516.306C496.39 516.182 496.595 515.989 496.801 515.796C496.203 514.855 495.655 513.91 495.129 512.939C495.129 512.939 495.101 512.915 495.073 512.892C493.777 510.614 492.762 508.338 491.929 505.897L490.898 502.661C490.45 501.076 490.052 499.487 489.778 497.863C489.733 497.917 489.689 497.971 489.651 498.076L489.607 498.13L481.595 517.024C481.595 517.024 481.595 517.024 481.573 517.051L480.726 519.066C479.994 520.768 481.839 522.548 483.528 521.81L483.522 521.76Z" fill="url(#paint4_linear_267_15616)"/>
<path d="M513.05 456.576C511.547 455.301 509.429 455.237 507.974 456.438C498.479 464.235 492.561 476.134 492.788 489.632C492.869 494.663 493.822 499.55 495.444 504.081L497.971 504.164L512.969 504.571L527.15 504.941C528.637 500.472 529.421 495.653 529.339 490.622C529.141 477.147 522.817 464.932 513.05 456.576ZM515.219 482.63C512.41 485.024 508.065 484.627 505.547 481.709C503.007 478.818 503.219 474.524 506.056 472.153C508.865 469.758 513.21 470.156 515.728 473.074C518.268 475.965 518.056 480.259 515.219 482.63Z" fill="url(#paint5_linear_267_15616)"/>
<path d="M521.413 508.549L497.003 507.883C497.381 508.689 497.781 509.468 498.203 510.22C498.569 510.926 499.052 511.546 499.468 512.248C499.69 512.611 499.913 512.973 500.135 513.335C500.602 514.033 500.974 514.789 501.463 515.46C501.463 515.46 501.463 515.46 501.491 515.483C502.412 516.779 503.428 518.016 504.488 519.199L518.722 519.387C521.561 516.206 523.921 512.632 525.699 508.672L521.464 508.545L521.413 508.549Z" fill="url(#paint6_linear_267_15616)"/>
<path d="M327.728 474.957C340.363 459.521 340.821 439 328.752 429.121C316.683 419.243 296.657 423.749 284.023 439.185C271.389 454.622 270.93 475.143 282.999 485.021C295.068 494.899 315.094 490.394 327.728 474.957Z" fill="#87401A"/>
<path d="M288.943 455.901C294.564 445.308 298.067 453.013 305.129 456.897C312.179 460.796 322.16 455.96 316.539 466.553C310.919 477.146 300.627 482.578 293.562 478.667C286.496 474.756 283.307 466.482 288.943 455.901Z" fill="#632A14"/>
<path d="M461.091 248.96C473.159 258.837 471.669 278.572 460.067 294.796C435.205 329.58 440.202 299.102 428.134 289.225C416.067 279.348 403.732 274.455 416.362 259.024C428.992 243.593 449.023 239.083 461.091 248.96Z" fill="#87401A"/>
<path d="M452.513 285.428C447.641 293.522 444.862 280.649 439.985 274.25C435.092 267.839 425.226 265.209 433.546 259.11C441.866 253.012 452.592 253.258 457.496 259.655C462.388 266.066 457.841 276.589 452.54 285.426L452.513 285.428Z" fill="#632A14"/>
<path d="M450.786 431.135C488.307 385.292 475.419 312.686 422 268.963C368.581 225.241 294.86 226.959 257.338 272.802C219.817 318.645 232.704 391.251 286.123 434.974C339.542 478.696 413.264 476.978 450.786 431.135Z" fill="#A56644"/>
<path d="M312.39 391.736C314.379 391.882 315.758 393.861 315.193 395.732C312.493 404.681 303.902 410.8 293.91 410.06C292.859 409.978 291.825 409.813 290.824 409.577C299.924 408.954 307.366 402.624 309.356 393.921C309.668 392.547 310.952 391.629 312.39 391.736Z" fill="#632A14"/>
<path d="M319.608 397.012C321.598 397.158 322.977 399.137 322.411 401.008C319.712 409.957 311.12 416.076 301.129 415.336C300.078 415.254 299.044 415.089 298.043 414.853C307.142 414.23 314.585 407.899 316.575 399.197C316.886 397.823 318.171 396.905 319.608 397.012Z" fill="#632A14"/>
<path d="M325.975 402.15C327.964 402.296 329.343 404.275 328.778 406.146C326.078 415.095 317.487 421.214 307.495 420.475C306.444 420.392 305.41 420.227 304.409 419.991C313.509 419.368 320.951 413.038 322.941 404.335C323.253 402.961 324.537 402.043 325.975 402.15Z" fill="#632A14"/>
<path d="M367.595 402.498C378.65 388.991 374.394 367.223 358.089 353.878C341.785 340.533 319.605 340.664 308.55 354.171C297.495 367.678 301.751 389.445 318.056 402.79C334.36 416.136 356.54 416.005 367.595 402.498Z" fill="white"/>
<path d="M404.442 394.953L381.291 419.979C377.893 423.665 379.176 429.674 383.808 432.055C399.914 440.352 420.946 436.854 434.364 422.385C447.795 407.901 449.589 386.738 439.942 371.452C437.159 367.059 431.038 366.279 427.637 369.937L404.442 394.953Z" fill="#B52424"/>
<path d="M435.927 420.601C440.567 414.869 443.981 408.183 445.162 401.493C437.073 399.733 427.937 402.636 422.219 409.746C416.585 416.755 415.476 425.716 418.759 433.193C425.149 430.571 431.227 426.405 435.939 420.586L435.927 420.601Z" fill="#FF4B4B"/>
<path d="M357.6 392.679C363.462 385.461 360.801 373.585 351.656 366.154C342.511 358.722 330.345 358.549 324.483 365.767C318.621 372.985 321.283 384.861 330.428 392.293C339.573 399.724 351.738 399.897 357.6 392.679Z" fill="#24A073"/>
<path d="M334.438 377.128C329.916 371.515 323.682 368.955 320.515 371.411C317.347 373.867 318.445 380.409 322.966 386.023C327.488 391.636 333.722 394.196 336.89 391.74C340.057 389.284 338.96 382.742 334.438 377.128Z" fill="white"/>
<path d="M401.603 370.727L396.936 370.189C392.755 369.708 388.742 368.029 385.401 365.343L379.917 360.927C374.727 358.575 370.555 362.307 372.412 367.644L375.564 371.804C378.979 376.325 380.667 381.839 380.311 387.333L380.157 389.881C382.015 395.218 388.509 398.151 391.841 395.166L398.791 388.942L405.74 382.719C409.072 379.734 406.751 373.069 401.561 370.717L401.603 370.727Z" fill="#87401A"/>
<path d="M405.96 373.88C409.371 377.475 407.032 385.114 400.737 390.973C394.442 396.833 386.571 398.656 383.16 395.062C379.749 391.468 388.955 391.832 395.25 385.972C401.545 380.112 402.561 370.272 405.972 373.866L405.96 373.88Z" fill="#753217"/>
<path d="M304.913 327.566C301.978 323.607 296.194 323.346 293.189 326.988C278.779 344.438 277.85 370.442 292.533 390.288C294.091 392.39 295.789 394.29 297.573 396.115C286.798 376.307 289.683 352.415 304.534 336.785C306.889 334.312 307.017 330.43 304.913 327.566Z" fill="#632A14"/>
<path d="M336.698 304.598C332.237 302.503 330.838 296.885 333.814 293.219C348.071 275.644 373.379 269.593 395.735 280.064C398.104 281.176 400.302 282.464 402.444 283.853C380.897 277.205 358.046 284.756 345.66 302.404C343.701 305.201 339.921 306.093 336.698 304.598Z" fill="#632A14"/>
<path d="M398.247 300.157C398.97 302.038 401.265 302.773 402.87 301.681C410.615 296.473 413.948 286.439 410.322 277.053C409.94 276.06 409.484 275.127 408.961 274.213C411.026 283.147 407.153 292.132 399.44 296.588C398.226 297.296 397.723 298.78 398.259 300.143L398.247 300.157Z" fill="#632A14"/>
<path d="M405.37 305.55C406.093 307.43 408.388 308.166 409.994 307.074C417.738 301.865 421.071 291.831 417.445 282.446C417.064 281.453 416.607 280.52 416.084 279.606C418.149 288.54 414.277 297.525 406.564 301.981C405.349 302.689 404.846 304.173 405.382 305.536L405.37 305.55Z" fill="#632A14"/>
<path d="M412.127 310.18C412.85 312.06 415.145 312.796 416.75 311.704C424.495 306.495 427.828 296.461 424.202 287.075C423.82 286.082 423.364 285.15 422.841 284.236C424.906 293.17 421.033 302.155 413.32 306.611C412.106 307.319 411.602 308.803 412.139 310.166L412.127 310.18Z" fill="#632A14"/>
<path d="M411.451 306.335C397.258 290.819 375.485 287.388 362.819 298.671C350.153 309.954 351.391 331.679 365.583 347.195C379.776 362.711 401.549 366.143 414.215 354.859C426.881 343.576 425.643 321.851 411.451 306.335Z" fill="white"/>
<path d="M400.471 319.642C392.365 311.116 380.508 309.115 373.988 315.173C367.468 321.231 368.753 333.054 376.859 341.58C384.965 350.107 396.821 352.108 403.342 346.05C409.862 339.992 408.577 328.169 400.471 319.642Z" fill="#24A073"/>
<path d="M379.615 329.224C376.556 324.105 371.784 321.235 368.956 322.814C366.128 324.393 366.314 329.823 369.373 334.942C372.431 340.062 377.203 342.932 380.032 341.352C382.86 339.773 382.673 334.343 379.615 329.224Z" fill="white"/>
<path d="M374.949 158.666C382.482 164.831 364.244 186.368 351.534 211.894C344.73 225.578 351.612 250.95 340.31 267.492C330.912 281.241 305.026 284.241 293.135 298.769C281.244 313.297 283.419 339.266 271.799 351.196C257.819 365.545 231.572 363.802 219.518 373.189C197.019 390.679 179.512 412.814 171.979 406.648C164.447 400.483 182.684 378.946 195.394 353.42C202.198 339.736 195.316 314.364 206.619 297.822C216.017 284.074 241.903 281.073 253.794 266.545C265.685 252.017 263.509 226.048 275.129 214.118C289.11 199.769 315.357 201.512 327.411 192.125C349.909 174.635 367.416 152.5 374.949 158.666Z" fill="#181F28"/>
<path d="M239.042 331.823C245.608 331.315 247.893 345.972 253.704 355.979C257.413 362.345 271.783 366.181 274.426 375.371C276.619 382.999 266.481 393.274 267.565 402.134C268.648 410.995 281.085 419.521 280.781 427.343C280.428 436.778 267.243 442.735 265.161 449.563C261.883 460.275 263.191 475.007 256.625 475.516C250.059 476.025 247.774 461.368 241.962 451.36C238.253 444.994 223.884 441.158 221.24 431.969C219.048 424.34 229.185 414.065 228.102 405.205C227.019 396.345 214.582 387.819 214.886 379.997C215.239 370.562 228.424 364.604 230.506 357.776C233.784 347.065 232.476 332.332 239.042 331.823Z" fill="#181F28"/>
<path d="M337.777 219.45C338.523 225.555 331.411 239.181 338.533 247.587C343.797 253.792 357.513 250.044 366.936 253.527C374.294 256.243 381.852 269.332 392.065 268.528C402.81 267.695 408.214 253.206 416.109 248.777C425.272 243.636 440.682 245.796 445.942 238.749C453.484 228.634 445.916 214.904 445.163 208.745C444.272 201.452 442.428 193.769 430.105 194.792C423.584 195.338 417.421 208.549 408.144 209.732C400.969 210.642 391.227 199.508 382.56 200.193C375.044 200.775 369.802 213.234 364.139 213.509C355.767 213.925 347.773 202.083 342.897 202.638C333.037 203.756 336.82 211.739 337.753 219.479L337.777 219.45Z" fill="#181F28"/>
<path d="M341.621 484.189C341.609 485.103 341.432 486.003 341.112 486.86C340.472 488.572 339.613 490.057 338.552 491.353C336.241 494.177 333.04 495.884 329.314 496.213C322.754 496.776 316.328 492.829 314.088 486.158C315.286 485.533 316.473 484.828 317.611 484.058C317.909 485.371 318.417 486.613 319.217 487.778C321.349 490.885 325.024 492.605 328.777 492.273C332.681 491.944 335.795 489.412 337.351 485.338C337.531 484.901 337.607 484.404 337.617 483.926C337.678 479.722 335.857 476.141 332.619 474.074C331.607 473.416 330.525 472.968 329.409 472.687C327.715 472.272 325.938 472.301 324.268 472.758C322.625 471.412 323.242 468.733 325.298 468.519C327.407 468.301 329.589 468.555 331.639 469.31C332.696 469.664 333.715 470.158 334.681 470.778C339.153 473.636 341.666 478.513 341.59 484.164L341.621 484.189Z" fill="#FFF75A"/>
<path d="M476.603 299.773C477.453 299.448 478.245 298.978 478.926 298.393C480.302 297.21 481.428 295.895 482.267 294.467C484.129 291.323 484.646 287.711 483.693 284.063C482.005 277.649 476.153 272.908 469.169 273.026C468.99 274.362 468.733 275.732 468.391 277.081C469.726 276.91 471.063 276.983 472.41 277.356C476.035 278.33 478.896 281.23 479.837 284.893C480.852 288.714 479.537 292.524 476.254 295.355C475.907 295.655 475.461 295.921 475.028 296.078C471.127 297.552 467.16 297.028 464.133 294.672C463.181 293.941 462.375 293.063 461.749 292.089C460.789 290.622 460.213 288.936 460.083 287.2C458.264 286.101 455.981 287.586 456.461 289.608C456.975 291.681 457.943 293.665 459.328 295.358C460.01 296.232 460.821 297.042 461.715 297.75C465.896 301.025 471.313 301.764 476.564 299.79L476.603 299.773Z" fill="#FFF75A"/>
</g>
<defs>
<filter id="filter0_d_267_15616" x="118.233" y="125.797" width="748.37" height="711.824" filterUnits="userSpaceOnUse" color-interpolation-filters="sRGB">
<feFlood flood-opacity="0" result="BackgroundImageFix"/>
<feColorMatrix in="SourceAlpha" type="matrix" values="0 0 0 0 0 0 0 0 0 0 0 0 0 0 0 0 0 0 127 0" result="hardAlpha"/>
<feOffset dx="1" dy="2"/>
<feGaussianBlur stdDeviation="1"/>
<feComposite in2="hardAlpha" operator="out"/>
<feColorMatrix type="matrix" values="0 0 0 0 0 0 0 0 0 0 0 0 0 0 0 0 0 0 0.25 0"/>
<feBlend mode="normal" in2="BackgroundImageFix" result="effect1_dropShadow_267_15616"/>
<feBlend mode="normal" in="SourceGraphic" in2="effect1_dropShadow_267_15616" result="shape"/>
</filter>
<linearGradient id="paint0_linear_267_15616" x1="549.641" y1="724.029" x2="648.267" y2="603.531" gradientUnits="userSpaceOnUse">
<stop stop-color="#F9DE64"/>
<stop offset="0.43" stop-color="#FCB74C"/>
<stop offset="0.78" stop-color="#FE9F3E"/>
<stop offset="1" stop-color="#FF9739"/>
</linearGradient>
<linearGradient id="paint1_linear_267_15616" x1="232.432" y1="623.924" x2="354.857" y2="474.348" gradientUnits="userSpaceOnUse">
<stop stop-color="#F9DE64"/>
<stop offset="0.43" stop-color="#FCB74C"/>
<stop offset="0.78" stop-color="#FE9F3E"/>
<stop offset="1" stop-color="#FF9739"/>
</linearGradient>
<linearGradient id="paint2_linear_267_15616" x1="470.828" y1="331.447" x2="592.524" y2="182.763" gradientUnits="userSpaceOnUse">
<stop stop-color="#F9DE64"/>
<stop offset="0.43" stop-color="#FCB74C"/>
<stop offset="0.78" stop-color="#FE9F3E"/>
<stop offset="1" stop-color="#FF9739"/>
</linearGradient>
<linearGradient id="paint3_linear_267_15616" x1="530.499" y1="516.526" x2="541.801" y2="502.717" gradientUnits="userSpaceOnUse">
<stop stop-color="#F9DE64"/>
<stop offset="0.43" stop-color="#FCB74C"/>
<stop offset="0.78" stop-color="#FE9F3E"/>
<stop offset="1" stop-color="#FF9739"/>
</linearGradient>
<linearGradient id="paint4_linear_267_15616" x1="481.289" y1="521.376" x2="496.241" y2="503.108" gradientUnits="userSpaceOnUse">
<stop stop-color="#F9DE64"/>
<stop offset="0.43" stop-color="#FCB74C"/>
<stop offset="0.78" stop-color="#FE9F3E"/>
<stop offset="1" stop-color="#FF9739"/>
</linearGradient>
<linearGradient id="paint5_linear_267_15616" x1="496.885" y1="505.26" x2="527.231" y2="468.184" gradientUnits="userSpaceOnUse">
<stop stop-color="#F9DE64"/>
<stop offset="0.43" stop-color="#FCB74C"/>
<stop offset="0.78" stop-color="#FE9F3E"/>
<stop offset="1" stop-color="#FF9739"/>
</linearGradient>
<linearGradient id="paint6_linear_267_15616" x1="503.781" y1="518.621" x2="517.45" y2="501.921" gradientUnits="userSpaceOnUse">
<stop stop-color="#F9DE64"/>
<stop offset="0.43" stop-color="#FCB74C"/>
<stop offset="0.78" stop-color="#FE9F3E"/>
<stop offset="1" stop-color="#FF9739"/>
</linearGradient>
</defs>
</svg>
