<svg width="452" height="667" viewBox="0 0 452 667" fill="none" xmlns="http://www.w3.org/2000/svg">
<g filter="url(#filter0_d_267_15846)">
<path d="M254.49 280.264L240.366 286.867C226.493 293.354 211.128 296.153 195.881 294.654C175.42 292.647 153.81 285.86 150.97 272.802L139.737 210.954C135.315 190.651 148.181 170.607 168.483 166.185L205.915 158.032C226.218 153.61 246.262 166.476 250.684 186.779L249.826 196.214C247.978 216.525 250.867 237.044 258.662 255.889C263.583 267.789 265.765 277.807 254.49 280.264Z" fill="#E2E2E2"/>
<path d="M30.9458 562.25C32.2866 561.034 33.6689 559.943 35.0763 558.977C65.2469 538.458 90.6042 545.728 103.745 564.789C116.878 583.851 84.4169 586.608 57.5939 611.249C46.3684 621.566 37.7411 637.047 30.6211 651.013C106.102 610.741 97.516 645.741 167.542 643.509C214.951 642.002 217.699 564.015 191.426 525.9C165.152 487.776 111.864 478.633 72.4002 505.472C59.3427 514.35 44.0617 536.909 30.9458 562.25Z" fill="#FE4B20"/>
<mask id="mask0_267_15846" style="mask-type:luminance" maskUnits="userSpaceOnUse" x="1" y="483" width="211" height="180">
<path d="M87.1649 662.563C88.9886 661.597 90.7207 660.573 92.3279 659.474C126.796 636.032 132.017 609.875 119.9 592.296C107.784 574.716 89.4133 605.028 52.564 624.19C37.1414 632.209 17.9632 636.373 1 639.504C76.5223 577.947 38.4572 576.94 74.4737 510.578C98.8567 465.651 175.745 483.563 199.978 518.722C224.211 553.881 207.306 607.235 162.221 637.889C147.306 648.032 118.06 656.709 87.1566 662.571L87.1649 662.563Z" fill="white"/>
</mask>
<g mask="url(#mask0_267_15846)">
<path d="M1 639.495L52.4225 662.562H1V639.495Z" fill="#F9F964"/>
<path d="M1 637.248L57.444 662.564H52.4225L1 639.496V637.248Z" fill="#F9F964"/>
<path d="M1 634.991L62.4738 662.564H57.444L1 637.248V634.991Z" fill="#F9F863"/>
<path d="M1 632.734L67.4953 662.564H62.4738L1 634.991V632.734Z" fill="#F9F663"/>
<path d="M1 630.485L72.5251 662.563H67.4953L1 632.734V630.485Z" fill="#F9F562"/>
<path d="M1 628.229L77.5466 662.563H72.5251L1 630.485V628.229Z" fill="#F9F462"/>
<path d="M1 625.973L82.5764 662.564H77.5466L1 628.229V625.973Z" fill="#F9F261"/>
<path d="M1 623.716L87.5979 662.564H82.5764L1 625.973V623.716Z" fill="#F9F160"/>
<path d="M1 621.467L92.6194 662.563H87.5979L1 623.715V621.467Z" fill="#FAF060"/>
<path d="M1 619.21L97.6492 662.563H92.6194L1 621.467V619.21Z" fill="#FAEE5F"/>
<path d="M1 616.953L102.671 662.563H97.6492L1 619.21V616.953Z" fill="#FAED5F"/>
<path d="M1 614.705L107.701 662.563H102.671L1 616.953V614.705Z" fill="#FAEC5E"/>
<path d="M1 612.448L112.722 662.563H107.701L1 614.705V612.448Z" fill="#FAEA5E"/>
<path d="M1 610.666L1.1749 610.274L117.752 662.563H112.722L1 612.448V610.666Z" fill="#FAE95D"/>
<path d="M1.17484 610.275L2.02423 608.393L122.773 662.563H117.752L1.17484 610.275Z" fill="#FAE85C"/>
<path d="M2.02426 608.392L2.86535 606.519L127.803 662.563H122.773L2.02426 608.392Z" fill="#FAE65C"/>
<path d="M2.86536 606.519L3.70642 604.646L132.825 662.563H127.803L2.86536 606.519Z" fill="#FAE55B"/>
<path d="M3.70645 604.646L4.54754 602.764L137.855 662.564H132.825L3.70645 604.646Z" fill="#FAE45B"/>
<path d="M4.54755 602.763L5.38863 600.89L142.876 662.563H137.855L4.54755 602.763Z" fill="#FAE25A"/>
<path d="M5.38861 600.889L6.22967 599.016L147.898 662.563H142.876L5.38861 600.889Z" fill="#FAE15A"/>
<path d="M6.22971 599.016L7.07079 597.134L152.927 662.563H147.898L6.22971 599.016Z" fill="#FBE059"/>
<path d="M7.0708 597.134L7.91189 595.261L157.949 662.564H152.927L7.0708 597.134Z" fill="#FBDF58"/>
<path d="M7.9119 595.26L8.75296 593.387L162.979 662.563H157.949L7.9119 595.26Z" fill="#FBDD58"/>
<path d="M8.75296 593.386L9.59405 591.504L168 662.563H162.979L8.75296 593.386Z" fill="#FBDC57"/>
<path d="M9.59406 591.505L10.4351 589.631L173.03 662.563H168L9.59406 591.505Z" fill="#FBDB57"/>
<path d="M10.4352 589.631L11.2762 587.757L178.052 662.563H173.03L10.4352 589.631Z" fill="#FBDA56"/>
<path d="M11.2761 587.757L12.1255 585.875L183.081 662.563H178.051L11.2761 587.757Z" fill="#FBD856"/>
<path d="M12.1255 585.875L12.9666 584.001L188.103 662.563H183.081L12.1255 585.875Z" fill="#FBD755"/>
<path d="M12.9666 584.002L13.8077 582.128L193.124 662.563H188.103L12.9666 584.002Z" fill="#FBD655"/>
<path d="M13.8077 582.128L14.6488 580.246L195.872 661.539L195.414 662.564H193.124L13.8077 582.128Z" fill="#FBD554"/>
<path d="M15.4892 578.369L14.6473 580.246L195.877 661.542L196.719 659.665L15.4892 578.369Z" fill="#FBD354"/>
<path d="M16.3313 576.499L15.4894 578.376L196.719 659.672L197.561 657.795L16.3313 576.499Z" fill="#FBD253"/>
<path d="M17.1728 574.623L16.3309 576.5L197.56 657.796L198.402 655.919L17.1728 574.623Z" fill="#FBD152"/>
<path d="M18.0143 572.748L17.1724 574.625L198.402 655.921L199.244 654.044L18.0143 572.748Z" fill="#FCD052"/>
<path d="M18.8598 570.862L18.0179 572.738L199.247 654.034L200.089 652.157L18.8598 570.862Z" fill="#FCCF51"/>
<path d="M19.7013 568.985L18.8594 570.861L200.089 652.157L200.931 650.28L19.7013 568.985Z" fill="#FCCD51"/>
<path d="M20.5428 567.11L19.7009 568.986L200.93 650.282L201.772 648.405L20.5428 567.11Z" fill="#FCCC50"/>
<path d="M21.3849 565.231L20.543 567.107L201.773 648.403L202.614 646.526L21.3849 565.231Z" fill="#FCCB50"/>
<path d="M22.2264 563.354L21.3846 565.23L202.614 646.526L203.456 644.649L22.2264 563.354Z" fill="#FCCA4F"/>
<path d="M23.0679 561.487L22.226 563.363L203.456 644.659L204.297 642.782L23.0679 561.487Z" fill="#FCC94F"/>
<path d="M23.9018 559.608L23.0599 561.484L204.289 642.78L205.131 640.903L23.9018 559.608Z" fill="#FCC84E"/>
<path d="M24.7515 557.733L23.9096 559.609L205.139 640.905L205.981 639.028L24.7515 557.733Z" fill="#FCC74E"/>
<path d="M25.593 555.857L24.7511 557.733L205.981 639.029L206.822 637.152L25.593 555.857Z" fill="#FCC54D"/>
<path d="M26.427 553.978L25.5851 555.854L206.815 637.15L207.656 635.273L26.427 553.978Z" fill="#FCC44D"/>
<path d="M27.2768 552.102L26.4349 553.979L207.664 635.274L208.506 633.397L27.2768 552.102Z" fill="#FCC34C"/>
<path d="M28.114 550.215L27.2722 552.092L208.502 633.387L209.343 631.511L28.114 550.215Z" fill="#FCC24C"/>
<path d="M28.9555 548.339L28.1136 550.216L209.343 631.512L210.185 629.635L28.9555 548.339Z" fill="#FCC14B"/>
<path d="M29.8052 546.463L28.9634 548.34L210.193 629.636L211.035 627.759L29.8052 546.463Z" fill="#FCC04B"/>
<path d="M30.6391 544.593L29.7972 546.47L211.027 627.765L211.869 625.889L30.6391 544.593Z" fill="#FDBF4A"/>
<path d="M31.4806 542.718L30.6387 544.595L211.868 625.89L212.71 624.014L31.4806 542.718Z" fill="#FDBE4A"/>
<path d="M32.3305 540.841L31.4886 542.718L212.718 624.014L213.56 622.137L32.3305 540.841Z" fill="#FDBD4A"/>
<path d="M33.1642 538.962L32.3224 540.839L213.552 622.135L214.394 620.258L33.1642 538.962Z" fill="#FDBC49"/>
<path d="M34.0057 537.087L33.1638 538.964L214.393 620.26L215.235 618.383L34.0057 537.087Z" fill="#FDBA49"/>
<path d="M34.8555 535.21L34.0137 537.087L215.243 618.383L216.085 616.506L34.8555 535.21Z" fill="#FDB948"/>
<path d="M35.6893 533.332L34.8474 535.209L216.077 616.505L216.919 614.628L35.6893 533.332Z" fill="#FDB848"/>
<path d="M36.5308 531.456L35.6889 533.333L216.918 614.629L217.76 612.752L36.5308 531.456Z" fill="#FDB747"/>
<path d="M37.3806 529.589L36.5388 531.466L217.768 612.762L218.61 610.885L37.3806 529.589Z" fill="#FDB647"/>
<path d="M38.2178 527.702L37.376 529.579L218.605 610.875L219.447 608.998L38.2178 527.702Z" fill="#FDB546"/>
<path d="M39.0593 525.826L38.2175 527.703L219.447 608.999L220.289 607.122L39.0593 525.826Z" fill="#FDB446"/>
<path d="M39.9092 523.95L39.0673 525.827L220.297 607.123L221.139 605.246L39.9092 523.95Z" fill="#FDB345"/>
<path d="M40.7431 522.071L39.9012 523.948L221.131 605.244L221.972 603.367L40.7431 522.071Z" fill="#FDB245"/>
<path d="M41.5845 520.196L40.7427 522.072L221.972 603.368L222.814 601.491L41.5845 520.196Z" fill="#FDB145"/>
<path d="M42.4343 518.321L41.5924 520.197L222.822 601.493L223.664 599.616L42.4343 518.321Z" fill="#FDB044"/>
<path d="M42.4294 518.322L43.2705 516.44L224.211 597.609V598.367L223.653 599.616L42.4294 518.322Z" fill="#FEAF44"/>
<path d="M43.2705 516.44L44.1116 514.566L224.211 595.36V597.608L43.2705 516.44Z" fill="#FEAF43"/>
<path d="M44.1116 514.566L44.9527 512.692L224.211 593.103V595.36L44.1116 514.566Z" fill="#FEAE43"/>
<path d="M44.9527 512.693L45.7938 510.811L224.211 590.846V593.103L44.9527 512.693Z" fill="#FEAD43"/>
<path d="M45.7938 510.811L46.6348 508.938L224.211 588.599V590.847L45.7938 510.811Z" fill="#FEAC42"/>
<path d="M46.6349 508.937L47.4759 507.063L224.211 586.342V588.598L46.6349 508.937Z" fill="#FEAB42"/>
<path d="M47.476 507.064L48.317 505.182L224.211 584.085V586.342L47.476 507.064Z" fill="#FEAA41"/>
<path d="M48.317 505.181L49.1581 503.308L224.211 581.836V584.085L48.317 505.181Z" fill="#FEA941"/>
<path d="M49.1581 503.307L49.9992 501.434L224.211 579.579V581.836L49.1581 503.307Z" fill="#FEA841"/>
<path d="M49.9992 501.434L50.8486 499.552L224.211 577.323V579.579L49.9992 501.434Z" fill="#FEA740"/>
<path d="M50.8485 499.551L51.6896 497.678L224.211 575.065V577.322L50.8485 499.551Z" fill="#FEA640"/>
<path d="M51.6896 497.678L52.5307 495.805L224.211 572.818V575.066L51.6896 497.678Z" fill="#FEA63F"/>
<path d="M52.5307 495.805L53.3718 493.923L224.211 570.561V572.818L52.5307 495.805Z" fill="#FEA53F"/>
<path d="M53.3718 493.923L54.2129 492.049L224.211 568.304V570.561L53.3718 493.923Z" fill="#FEA43F"/>
<path d="M54.2129 492.049L55.054 490.167L224.211 566.056V568.304L54.2129 492.049Z" fill="#FEA33E"/>
<path d="M55.054 490.167L55.895 488.293L224.211 563.799V566.055L55.054 490.167Z" fill="#FEA23E"/>
<path d="M55.895 488.294L56.736 486.42L224.211 561.543V563.799L55.895 488.294Z" fill="#FEA23E"/>
<path d="M56.7361 486.419L57.5771 484.537L224.211 559.293V561.542L56.7361 486.419Z" fill="#FEA13D"/>
<path d="M57.5771 484.538L58.4182 482.664L224.211 557.037V559.294L57.5771 484.538Z" fill="#FEA03D"/>
<path d="M58.4182 482.664L59.2593 480.79L224.211 554.78V557.037L58.4182 482.664Z" fill="#FE9F3D"/>
<path d="M59.2593 480.79L60.1004 478.908L224.211 552.532V554.78L59.2593 480.79Z" fill="#FF9F3C"/>
<path d="M60.1004 478.908L60.9498 477.034L224.211 550.275V552.531L60.1004 478.908Z" fill="#FF9E3C"/>
<path d="M60.9498 477.035L61.7909 475.161L224.211 548.019V550.275L60.9498 477.035Z" fill="#FF9D3C"/>
<path d="M61.7909 475.16L62.632 473.278L224.211 545.761V548.018L61.7909 475.16Z" fill="#FF9D3C"/>
<path d="M62.632 473.278L63.4731 471.405L224.211 543.513V545.761L62.632 473.278Z" fill="#FF9C3B"/>
<path d="M63.4731 471.405L64.3142 469.531L224.211 541.256V543.513L63.4731 471.405Z" fill="#FF9B3B"/>
<path d="M64.3142 469.531L65.1553 467.649L224.211 539V541.256L64.3142 469.531Z" fill="#FF9B3B"/>
<path d="M65.1553 467.649L65.9963 465.775L224.211 536.751V538.999L65.1553 467.649Z" fill="#FF9A3A"/>
<path d="M65.9964 465.775L66.0547 465.642H70.7347L224.211 534.494V536.751L65.9964 465.775Z" fill="#FF9A3A"/>
<path d="M75.7562 465.642L224.211 532.237V534.494L70.7347 465.642H75.7562Z" fill="#FF993A"/>
<path d="M80.786 465.642L224.211 529.989V532.237L75.7562 465.642H80.786Z" fill="#FF993A"/>
<path d="M85.8076 465.642L224.211 527.732V529.989L80.786 465.642H85.8076Z" fill="#FF983A"/>
<path d="M90.8374 465.642L224.211 525.475V527.732L85.8076 465.642H90.8374Z" fill="#FF9839"/>
<path d="M95.8588 465.642L224.211 523.227V525.475L90.8373 465.642H95.8588Z" fill="#FF9739"/>
<path d="M100.889 465.642L224.211 520.97V523.227L95.8588 465.642H100.889Z" fill="#FF9739"/>
<path d="M105.91 465.642L224.211 518.713V520.97L100.889 465.642H105.91Z" fill="#FF9739"/>
<path d="M224.211 518.713L105.91 465.642H224.211V518.713Z" fill="#FF9739"/>
</g>
<path d="M92.6778 535.627C93.5189 534.902 94.3683 534.236 95.2343 533.653C113.746 521.062 128.211 523.927 135.023 533.803C141.827 543.68 122.773 546.628 106.018 561.334C99.0067 567.488 93.2857 576.365 88.5057 584.343C134.332 558.911 127.762 578.489 168.7 574.175C196.414 571.252 201.51 528.34 187.903 508.587C174.287 488.835 143.617 486.17 119.401 502.642C111.39 508.088 101.463 521.145 92.6778 535.627Z" fill="#EFF932"/>
<path d="M125.147 421.415C122.507 423.688 118.901 424.471 115.562 423.505L48.6918 404.077C39.7231 401.471 38.6655 389.312 46.8764 385.099L34.4601 391.044C23.9924 396.058 25.2499 411.339 36.3921 414.578L118.56 438.453C120.35 438.978 122.182 439.011 123.973 438.736C125.08 432.149 126.404 425.562 127.937 419.025L125.147 421.423V421.415Z" fill="#C62433"/>
<path d="M48.6835 404.069L115.554 423.497C118.901 424.471 122.507 423.68 125.139 421.407L127.928 419.008C127.962 418.842 127.995 418.684 128.036 418.517C131.392 402.911 135.898 388.663 142.152 373.981L150.646 355.045C155.034 346.009 159.864 337.207 165.111 328.655C164.636 328.78 164.17 328.938 163.703 329.129C163.528 329.204 163.354 329.246 163.179 329.329L47.1096 384.907C47.0097 384.957 46.9514 385.032 46.8598 385.082C38.6489 389.296 39.7148 401.462 48.6752 404.061L48.6835 404.069Z" fill="#FF394C"/>
<path d="M377.629 490.584L338.256 613.107C335.367 622.1 322.901 622.767 319.07 614.139L290.773 550.509C290.098 548.985 289.832 547.336 289.924 545.72C285.485 547.636 281.005 549.459 276.475 551.166L310.609 627.93C315.323 638.531 330.637 637.706 334.184 626.664L379.061 487.003C378.728 487.319 378.403 487.627 378.062 487.944C378.02 488.827 377.895 489.718 377.612 490.592L377.629 490.584Z" fill="#C62433"/>
<path d="M290.773 550.509L319.07 614.139C322.909 622.766 335.367 622.1 338.256 613.107L377.629 490.584C377.912 489.709 378.037 488.827 378.079 487.936C365.879 499.361 352.788 509.77 338.873 519.072L321.069 530.198C312.849 534.953 305.013 538.992 297.094 542.564L295.411 543.347C293.596 544.171 291.747 544.929 289.924 545.72C289.832 547.336 290.09 548.976 290.773 550.509Z" fill="#FF394C"/>
<path d="M445.89 230.007C444.108 218.324 434.198 209.688 422.381 209.521C345.118 208.422 267.889 240.033 213.144 302.856C192.666 326.357 177.011 352.388 165.96 379.753L177.585 389.887C187.154 362.59 201.552 336.474 221.063 312.874C266.865 257.463 331.42 226.718 397.89 222.171C405.176 221.671 410.573 229.016 407.825 235.786C403.336 246.862 396.133 259.278 386.881 272.894C387.064 273.052 387.264 273.177 387.439 273.335C411.064 293.921 413.521 329.754 392.935 353.379C373.507 375.68 340.488 379.095 316.98 362.09C316.788 362.323 316.597 362.556 316.397 362.789C289.282 395.592 267.489 427.827 246.829 450.228L312.3 507.289C337.89 492.599 361.54 473.537 382.018 450.037C436.763 387.214 457.523 306.395 445.865 230.007H445.89Z" fill="#D1D1D1"/>
<path d="M246.845 450.228C267.498 427.827 289.299 395.591 316.413 362.789C316.605 362.556 316.796 362.323 316.996 362.09C315.606 361.082 314.232 360.025 312.907 358.875C289.282 338.29 286.826 302.456 307.411 278.831C327.839 255.389 363.264 252.816 386.889 272.894C396.383 258.92 403.727 246.204 408.183 234.912C410.706 228.525 405.676 221.663 398.823 222.104C332.019 226.426 267.081 257.196 221.063 312.866C201.56 336.466 187.162 362.581 177.585 389.879L246.837 450.228H246.845Z" fill="#EFEFEF"/>
<path d="M307.403 278.831C286.817 302.448 289.282 338.29 312.899 358.875C314.223 360.025 315.589 361.082 316.988 362.09C340.497 379.095 373.515 375.68 392.943 353.379C413.529 329.762 411.064 293.921 387.447 273.335C387.264 273.177 387.072 273.052 386.889 272.894C363.264 252.816 327.839 255.398 307.411 278.831H307.403ZM383.908 345.501C367.678 364.13 339.406 366.07 320.777 349.84C302.148 333.61 300.208 305.338 316.438 286.709C332.669 268.08 360.941 266.14 379.569 282.371C398.198 298.601 400.138 326.873 383.908 345.501Z" fill="#939393"/>
<path d="M316.438 286.709C300.2 305.338 302.14 333.601 320.777 349.84C339.406 366.079 367.669 364.138 383.908 345.501C400.147 326.873 398.206 298.609 379.569 282.37C360.941 266.132 332.677 268.072 316.438 286.709ZM387.48 299.642C390.22 299.633 392.061 307.436 391.578 317.079C391.103 326.714 388.496 334.534 385.748 334.542C383.009 334.542 386.972 327.339 387.455 317.704C387.93 308.069 384.732 299.65 387.48 299.65V299.642Z" fill="#82DAF9"/>
<path d="M385.757 334.543C388.496 334.543 391.111 326.715 391.586 317.08C392.061 307.445 390.229 299.634 387.489 299.642C384.749 299.642 387.939 308.061 387.464 317.696C386.989 327.331 383.017 334.543 385.757 334.534V334.543Z" fill="#A4FBFF"/>
<path d="M246.845 450.228L177.594 389.879L165.968 379.744L165.918 379.694C159.881 393.859 156.209 406.401 153.527 418.85C154.751 413.671 156.084 408.499 157.616 403.378L270.404 501.668L290.04 518.772C290.482 518.581 290.915 518.381 291.356 518.181C298.11 515.141 304.963 511.627 312.391 507.33L312.341 507.28L246.87 450.22L246.845 450.228Z" fill="#FF394C"/>
<path d="M290.023 518.781L270.387 501.676C248.686 511.586 225.702 518.006 202.326 520.879C180.633 501.976 169.582 492.341 147.889 473.437C147.54 449.879 150.762 426.237 157.607 403.386C156.075 408.508 154.743 413.679 153.519 418.859C150.662 430.95 148.614 443.183 147.431 455.467C147.423 455.575 147.415 455.675 147.406 455.775C146.465 465.709 146.049 475.677 146.19 485.637C171.664 507.838 184.639 519.147 210.112 541.34C237.552 537.967 264.533 530.423 290.007 518.797C290.015 518.797 290.032 518.797 290.04 518.781L290.023 518.764V518.781Z" fill="#6B6056"/>
<path d="M147.889 473.437C169.583 492.341 180.633 501.976 202.326 520.879C225.71 517.998 248.686 511.577 270.387 501.676L157.599 403.386C150.754 426.245 147.531 449.887 147.881 473.437H147.889Z" fill="#817567"/>
<path d="M313.432 400.547C313.707 397.957 313.54 395.267 312.899 392.585C312.25 389.904 311.175 387.439 309.743 385.257C305.879 379.303 299.467 375.381 292.388 374.656C289.799 374.382 287.117 374.54 284.436 375.189C281.754 375.839 279.289 376.913 277.107 378.345C271.145 382.209 267.223 388.63 266.498 395.692C266.223 398.282 266.39 400.971 267.031 403.653C267.681 406.334 268.763 408.799 270.187 410.981L261.243 413.138C257.021 414.154 254.423 418.401 255.439 422.631C256.455 426.853 260.71 429.451 264.933 428.435L272.569 426.595L287.858 422.906L295.503 421.066C298.184 420.416 300.641 419.342 302.823 417.909C308.785 414.046 312.707 407.625 313.432 400.555V400.547ZM292.072 406.842C287.142 408.033 282.187 404.91 281.163 399.897C280.23 395.334 283.012 390.753 287.492 389.471C292.422 388.064 297.493 391.053 298.684 396C299.85 400.821 296.885 405.676 292.072 406.834V406.842Z" fill="#939393"/>
<path d="M303.397 378.72C303.397 378.72 303.372 378.704 303.364 378.695C302.29 377.954 301.157 377.305 299.966 376.747C298.784 376.189 297.551 375.731 296.286 375.381C295.02 375.031 293.712 374.781 292.388 374.648C289.799 374.373 287.117 374.531 284.436 375.181C281.754 375.831 279.289 376.905 277.107 378.337C271.145 382.201 267.223 388.622 266.498 395.683C266.223 398.273 266.39 400.963 267.031 403.644C267.681 406.326 268.763 408.791 270.187 410.973L261.243 413.13C257.021 414.146 254.423 418.393 255.439 422.623C256.447 426.82 260.644 429.401 264.841 428.444C270.837 421.049 277.032 412.946 283.553 404.377C282.387 403.186 281.529 401.663 281.171 399.897C280.238 395.334 283.02 390.753 287.5 389.471C289.349 388.946 291.214 389.03 292.896 389.613C293.404 389.787 293.887 390.012 294.345 390.27C297.285 386.465 300.308 382.601 303.406 378.712L303.397 378.72Z" fill="#AAAAAA"/>
<path d="M92.5112 280.972C75.0317 268.78 84.9581 232.172 101.921 207.856C118.884 183.539 168.05 150.929 162.146 194.349C159.281 215.467 144.05 209.771 127.079 234.088C110.116 258.404 109.982 293.163 92.5028 280.972H92.5112Z" fill="#E2E2E2"/>
<path d="M94.5681 265.216C106.093 264.391 115.853 269.396 116.353 276.4C116.703 281.313 112.406 285.901 105.835 288.483C106.751 301.266 100.697 312.941 90.6958 313.657C80.6945 314.373 76.4557 304.147 75.5397 291.364C74.8235 281.346 79.0206 271.528 85.7576 267.806C89.2635 265.674 89.43 265.582 94.5681 265.216Z" fill="#817567"/>
<path d="M252.066 375.747C268.88 356.344 246.92 317.871 223.095 294.021C199.27 270.171 146.857 241.707 162.396 291.281C169.949 315.389 174.412 310.676 198.237 334.526C222.062 358.376 235.253 395.15 252.066 375.739V375.747Z" fill="#E2E2E2"/>
<mask id="mask1_267_15846" style="mask-type:luminance" maskUnits="userSpaceOnUse" x="159" y="263" width="99" height="119">
<path d="M252.066 375.747C268.88 356.344 246.92 317.871 223.095 294.021C199.27 270.171 146.857 241.707 162.396 291.281C169.949 315.389 174.412 310.676 198.237 334.526C222.062 358.376 235.253 395.15 252.066 375.739V375.747Z" fill="white"/>
</mask>
<g mask="url(#mask1_267_15846)">
<path d="M201.394 315.04C218.965 305.013 237.227 304.48 245.979 312.783C245.838 310.568 245.38 308.436 244.488 306.479C238.443 293.171 216.841 291.914 196.23 303.672C175.62 315.431 163.811 335.75 169.857 349.057C170.748 351.023 172.014 352.688 173.521 354.121C172.689 341.296 183.814 325.066 201.385 315.04H201.394Z" fill="#FF394C"/>
</g>
<path d="M259.136 246.42C258.362 246.012 258.037 245.071 258.429 244.28C260.685 239.7 256.955 237.985 253.407 239.075L152.428 270.012C148.822 271.12 146.673 274.726 151.303 276.949C151.945 277.257 152.211 278.048 151.878 278.673C149.33 283.461 153.144 285.26 156.758 284.152L257.737 253.216C261.268 252.133 263.4 248.652 259.136 246.42Z" fill="#7C7C7C"/>
<mask id="mask2_267_15846" style="mask-type:luminance" maskUnits="userSpaceOnUse" x="83" y="172" width="72" height="112">
<path d="M92.5112 280.971C75.0317 268.78 84.9581 232.172 101.921 207.856C118.884 183.539 159.848 149.488 153.952 192.916C151.087 214.035 144.05 209.779 127.079 234.096C110.116 258.412 109.982 293.171 92.5028 280.98L92.5112 280.971Z" fill="white"/>
</mask>
<g mask="url(#mask2_267_15846)">
<path d="M102.596 232.047C128.603 239.9 147.931 254.473 150.537 267.023C152.111 265.466 153.294 263.709 153.893 261.71C157.991 248.136 136.589 229.666 106.093 220.455C75.598 211.245 47.5509 214.793 43.4455 228.367C42.8376 230.365 42.8542 232.48 43.3039 234.654C52.4225 225.652 76.5807 224.203 102.588 232.056L102.596 232.047Z" fill="#FF394C"/>
</g>
<path d="M316.788 123.44C328.305 141.369 305.188 171.44 280.247 187.47C255.298 203.492 197.43 214.926 219.414 177.027C230.107 158.59 242.024 169.658 266.973 153.635C291.922 137.613 305.279 105.519 316.796 123.448L316.788 123.44Z" fill="#E2E2E2"/>
<path d="M308.877 137.23C297.901 133.608 290.789 125.255 292.996 118.593C294.545 113.913 300.258 111.315 307.328 111.423C311.35 99.2484 321.393 90.7627 330.911 93.9105C340.438 97.0583 340.455 108.126 336.433 120.3C333.285 129.835 325.657 137.314 318.012 138.196C313.965 138.837 313.765 138.854 308.877 137.239V137.23Z" fill="#817567"/>
<mask id="mask3_267_15846" style="mask-type:luminance" maskUnits="userSpaceOnUse" x="221" y="118" width="99" height="87">
<path d="M316.788 123.44C328.305 141.369 305.188 171.44 280.247 187.47C255.298 203.492 204.458 219.381 226.443 181.474C237.135 163.037 242.024 169.658 266.964 153.627C291.914 137.605 305.271 105.511 316.788 123.44Z" fill="white"/>
</mask>
<g mask="url(#mask3_267_15846)">
<path d="M288.832 164.844C267.78 147.681 255.456 126.846 257.821 114.254C255.772 115.095 254.015 116.27 252.691 117.885C243.731 128.878 256.488 154.11 281.179 174.238C305.871 194.365 333.16 201.768 342.12 190.776C343.444 189.152 344.235 187.195 344.644 185.022C332.785 189.877 309.893 182.007 288.832 164.852V164.844Z" fill="#FF394C"/>
</g>
<path d="M282.079 349.707C275.175 339.989 259.503 337.158 247.22 345.885C234.937 354.612 219.722 361.865 226.626 371.584C233.529 381.302 243.581 388.272 257.696 378.237C269.979 369.51 288.982 359.425 282.079 349.707Z" fill="#817567"/>
<path d="M242.024 145.408C247.12 162.887 225.635 184.531 194.024 193.757C162.412 202.984 132.658 196.289 127.562 178.809C122.465 161.33 146.024 154.385 177.635 145.166C209.246 135.939 236.927 127.937 242.024 145.408Z" fill="#636363"/>
<path d="M219.248 143.035C221.971 152.511 207.598 165.094 187.153 171.14C166.709 177.186 147.931 174.413 145.208 164.936C142.485 155.459 157.732 150.912 178.176 144.867C198.62 138.821 216.525 133.558 219.248 143.035Z" fill="#3A3A3A"/>
<path d="M254.831 119.359C254.673 111.997 254.948 104.927 253.149 96.6249C251.459 88.847 246.704 77.8962 243.931 70.9428C241.116 63.881 231.09 55.3453 224.811 51.6979C208.014 41.9297 190.826 40.564 167.692 44.6778C144.975 48.7166 129.286 56.0115 116.794 70.5847C111.606 76.6388 105.219 97.4243 105.011 105.777C104.736 116.603 105.685 118.784 108.15 130.151C108.983 134.007 109.949 137.671 111.032 141.169C113.447 148.972 118.368 155.692 124.939 159.922C142.027 170.923 165.419 175.67 189.86 171.323C214.001 167.026 234.179 154.759 246.554 138.812C251.342 132.641 255.006 127.503 254.831 119.359Z" fill="#8DB4DB"/>
<path d="M127.799 152.026C137.951 150.38 145.181 142.889 143.95 135.294C142.718 127.699 133.491 122.876 123.34 124.522C113.189 126.168 105.958 133.659 107.189 141.254C108.421 148.849 117.648 153.672 127.799 152.026Z" fill="#FFB9AB"/>
<path d="M119.467 132.392C125.272 130.277 123.964 134.274 125.33 138.021C126.696 141.761 132.184 143.201 126.388 145.316C120.583 147.432 114.779 146.116 113.413 142.377C112.048 138.638 113.671 134.516 119.476 132.4L119.467 132.392Z" fill="#EE9583"/>
<path d="M251.742 107.318C252.974 114.913 245.621 121.766 235.586 124.048C214.093 128.928 226.484 119.201 225.26 111.607C224.028 104.012 220.98 98.1909 231.131 96.5421C241.282 94.8932 250.509 99.7232 251.742 107.318Z" fill="#FFB9AB"/>
<path d="M235.911 118.111C231.264 119.543 234.62 113.847 234.945 109.883C235.27 105.911 232.389 101.722 237.685 102.155C242.973 102.588 247.003 106.161 246.679 110.124C246.354 114.097 240.991 116.537 235.911 118.102V118.111Z" fill="#EE9583"/>
<path d="M186.491 167.588C216.645 162.699 236.672 131.49 231.223 97.8812C225.773 64.2726 196.911 40.9909 166.757 45.8801C136.603 50.7694 116.577 81.9781 122.026 115.587C127.475 149.195 156.338 172.477 186.491 167.588Z" fill="#FFC6B7"/>
<path d="M186.491 167.588C216.645 162.699 236.672 131.49 231.223 97.8812C225.773 64.2726 196.911 40.9909 166.757 45.8801C136.603 50.7694 116.577 81.9781 122.026 115.587C127.475 149.195 156.338 172.477 186.491 167.588Z" fill="#FFC6B7"/>
<path d="M164.432 129.926C173.312 128.486 179.163 119.005 177.5 108.75C175.837 98.4942 167.29 91.3476 158.41 92.7875C149.53 94.2273 143.68 103.708 145.343 113.964C147.005 124.219 155.552 131.366 164.432 129.926Z" fill="white"/>
<path d="M198.685 127.314C207.418 127.224 214.411 118.736 214.304 108.357C214.197 97.977 207.031 89.6354 198.297 89.7253C189.564 89.8153 182.571 98.3026 182.678 108.682C182.785 119.062 189.951 127.404 198.685 127.314Z" fill="white"/>
<path d="M181.158 139.129L163.678 140.928C161.113 141.195 159.531 143.843 160.489 146.241C163.811 154.56 173.08 160.081 183.206 159.049C193.341 158.016 201.302 150.721 202.859 141.894C203.309 139.354 201.227 137.081 198.662 137.339L181.166 139.121L181.158 139.129Z" fill="#B52424"/>
<mask id="mask4_267_15846" style="mask-type:luminance" maskUnits="userSpaceOnUse" x="173" y="150" width="22" height="10">
<path d="M184.405 158.899C188.153 158.274 191.759 156.892 194.515 154.785C192.017 151.495 187.52 149.622 182.881 150.413C178.31 151.196 174.804 154.169 173.496 158.016C176.844 159.115 180.616 159.532 184.414 158.899H184.405Z" fill="white"/>
</mask>
<g mask="url(#mask4_267_15846)">
<path d="M173.488 158.016L173.729 159.532H173.488V158.016Z" fill="#C62433"/>
<path d="M173.488 155.684L174.112 159.531H173.729L173.488 158.016V155.684Z" fill="#C62433"/>
<path d="M173.488 153.353L174.487 159.532H174.112L173.488 155.684V153.353Z" fill="#C72433"/>
<path d="M173.488 151.012L174.862 159.531H174.487L173.488 153.352V151.012Z" fill="#C82534"/>
<path d="M173.638 149.622L175.245 159.531H174.862L173.488 151.012V149.622H173.638Z" fill="#C82534"/>
<path d="M174.013 149.622L175.62 159.531H175.245L173.638 149.622H174.013Z" fill="#C92534"/>
<path d="M174.396 149.622L176.003 159.531H175.62L174.013 149.622H174.396Z" fill="#CA2635"/>
<path d="M174.77 149.622L176.378 159.531H176.003L174.396 149.622H174.77Z" fill="#CB2635"/>
<path d="M175.145 149.622L176.752 159.531H176.378L174.77 149.622H175.145Z" fill="#CC2636"/>
<path d="M175.528 149.622L177.135 159.531H176.752L175.145 149.622H175.528Z" fill="#CD2736"/>
<path d="M175.903 149.622L177.51 159.531H177.135L175.528 149.622H175.903Z" fill="#CE2736"/>
<path d="M176.286 149.622L177.893 159.531H177.51L175.903 149.622H176.286Z" fill="#CF2737"/>
<path d="M176.661 149.622L178.268 159.531H177.893L176.286 149.622H176.661Z" fill="#D02837"/>
<path d="M177.036 149.622L178.643 159.531H178.268L176.661 149.622H177.036Z" fill="#D12838"/>
<path d="M177.419 149.622L179.026 159.531H178.643L177.035 149.622H177.419Z" fill="#D22838"/>
<path d="M177.793 149.622L179.4 159.531H179.026L177.418 149.622H177.793Z" fill="#D32939"/>
<path d="M178.176 149.622L179.783 159.531H179.4L177.793 149.622H178.176Z" fill="#D42939"/>
<path d="M178.551 149.622L180.158 159.531H179.784L178.176 149.622H178.551Z" fill="#D52939"/>
<path d="M178.926 149.622L180.533 159.531H180.158L178.551 149.622H178.926Z" fill="#D62A3A"/>
<path d="M179.309 149.622L180.916 159.531H180.533L178.926 149.622H179.309Z" fill="#D72A3A"/>
<path d="M179.684 149.622L181.291 159.531H180.916L179.309 149.622H179.684Z" fill="#D82A3B"/>
<path d="M180.067 149.622L181.674 159.531H181.291L179.684 149.622H180.067Z" fill="#D92B3B"/>
<path d="M180.441 149.622L182.049 159.531H181.674L180.067 149.622H180.441Z" fill="#DA2B3C"/>
<path d="M180.816 149.622L182.423 159.531H182.049L180.441 149.622H180.816Z" fill="#DB2C3C"/>
<path d="M181.199 149.622L182.806 159.531H182.423L180.816 149.622H181.199Z" fill="#DC2C3D"/>
<path d="M181.574 149.622L183.181 159.531H182.806L181.199 149.622H181.574Z" fill="#DD2C3D"/>
<path d="M181.957 149.622L183.564 159.531H183.181L181.574 149.622H181.957Z" fill="#DE2D3D"/>
<path d="M182.332 149.622L183.939 159.531H183.564L181.957 149.622H182.332Z" fill="#DF2D3E"/>
<path d="M182.706 149.622L184.314 159.531H183.939L182.332 149.622H182.706Z" fill="#E02E3E"/>
<path d="M183.09 149.622L184.697 159.531H184.314L182.707 149.622H183.09Z" fill="#E12E3F"/>
<path d="M183.464 149.622L185.072 159.531H184.697L183.09 149.622H183.464Z" fill="#E22E3F"/>
<path d="M183.847 149.622L185.446 159.531H185.072L183.464 149.622H183.847Z" fill="#E32F40"/>
<path d="M184.222 149.622L185.829 159.531H185.446L183.847 149.622H184.222Z" fill="#E42F40"/>
<path d="M184.597 149.622L186.204 159.531H185.829L184.222 149.622H184.597Z" fill="#E52F41"/>
<path d="M184.98 149.622L186.587 159.531H186.204L184.597 149.622H184.98Z" fill="#E63041"/>
<path d="M185.355 149.622L186.962 159.531H186.587L184.98 149.622H185.355Z" fill="#E73042"/>
<path d="M185.738 149.622L187.337 159.531H186.962L185.355 149.622H185.738Z" fill="#E83142"/>
<path d="M186.112 149.622L187.72 159.531H187.337L185.738 149.622H186.112Z" fill="#E93142"/>
<path d="M186.487 149.622L188.094 159.531H187.72L186.112 149.622H186.487Z" fill="#EA3143"/>
<path d="M186.87 149.622L188.477 159.531H188.094L186.487 149.622H186.87Z" fill="#EB3243"/>
<path d="M187.245 149.622L188.852 159.531H188.478L186.87 149.622H187.245Z" fill="#EC3244"/>
<path d="M187.628 149.622L189.227 159.531H188.852L187.245 149.622H187.628Z" fill="#EE3344"/>
<path d="M188.003 149.622L189.61 159.531H189.227L187.628 149.622H188.003Z" fill="#EF3345"/>
<path d="M188.377 149.622L189.985 159.531H189.61L188.003 149.622H188.377Z" fill="#F03345"/>
<path d="M188.761 149.622L190.368 159.531H189.985L188.378 149.622H188.761Z" fill="#F13446"/>
<path d="M189.135 149.622L190.743 159.531H190.368L188.761 149.622H189.135Z" fill="#F23446"/>
<path d="M189.518 149.622L191.117 159.531H190.743L189.135 149.622H189.518Z" fill="#F33547"/>
<path d="M189.893 149.622L191.5 159.531H191.117L189.518 149.622H189.893Z" fill="#F43547"/>
<path d="M190.268 149.622L191.875 159.531H191.5L189.893 149.622H190.268Z" fill="#F53548"/>
<path d="M190.651 149.622L192.258 159.531H191.875L190.268 149.622H190.651Z" fill="#F63648"/>
<path d="M191.026 149.622L192.633 159.531H192.258L190.651 149.622H191.026Z" fill="#F73649"/>
<path d="M191.409 149.622L193.008 159.531H192.633L191.026 149.622H191.409Z" fill="#F83749"/>
<path d="M191.784 149.622L193.391 159.531H193.008L191.409 149.622H191.784Z" fill="#F9374A"/>
<path d="M192.158 149.622L193.765 159.531H193.391L191.783 149.622H192.158Z" fill="#FB374A"/>
<path d="M192.541 149.622L194.148 159.531H193.765L192.158 149.622H192.541Z" fill="#FC384B"/>
<path d="M192.916 149.622L194.507 159.448V159.531H194.148L192.541 149.622H192.916Z" fill="#FD384B"/>
<path d="M193.299 149.622L194.507 157.116V159.448L192.916 149.622H193.299Z" fill="#FE394C"/>
<path d="M193.674 149.622L194.507 154.785V157.116L193.299 149.622H193.674Z" fill="#FF394C"/>
<path d="M194.507 154.785L193.674 149.622H194.507V154.785Z" fill="#FF394C"/>
</g>
<path d="M163.955 123.141C168.687 122.357 171.753 117.072 170.803 111.337C169.852 105.602 165.245 101.588 160.513 102.372C155.78 103.157 152.715 108.442 153.665 114.177C154.616 119.912 159.222 123.925 163.955 123.141Z" fill="#181F28"/>
<path d="M160.466 109.827C160.663 106.273 159.155 103.299 157.098 103.185C155.041 103.071 153.213 105.86 153.016 109.414C152.82 112.969 154.328 115.942 156.385 116.056C158.442 116.17 160.27 113.381 160.466 109.827Z" fill="white"/>
<path d="M197.547 120.631C202.131 120.492 205.704 115.677 205.529 109.875C205.354 104.074 201.496 99.483 196.913 99.6214C192.33 99.7598 188.756 104.575 188.931 110.377C189.107 116.178 192.964 120.769 197.547 120.631Z" fill="#181F28"/>
<path d="M194.271 106.664C194.859 103.766 194.017 101.149 192.39 100.819C190.763 100.489 188.967 102.57 188.379 105.469C187.791 108.367 188.633 110.984 190.26 111.314C191.888 111.644 193.683 109.562 194.271 106.664Z" fill="white"/>
<path d="M181.058 135.082L176.253 135.14C173.946 135.165 172.464 131.967 173.588 129.377L175.928 123.981L178.268 118.585C179.392 115.995 182.274 115.962 183.456 118.518L185.929 123.856L188.403 129.194C189.585 131.751 188.186 134.99 185.879 135.015L181.074 135.073L181.058 135.082Z" fill="#EE9583"/>
<path d="M164.144 82.0773C164.386 79.654 162.254 77.6803 159.847 78.0634C148.322 79.8788 139.029 89.2639 137.829 101.414C137.705 102.696 137.705 103.962 137.763 105.211C140.444 94.3437 149.763 86.3909 160.83 85.3916C162.587 85.2334 163.97 83.8344 164.144 82.0773Z" fill="#181F28"/>
<path d="M186.254 83.5095C185.263 81.2861 186.662 78.7379 189.069 78.3381C200.577 76.4228 212.361 82.3853 217.332 93.5359C217.857 94.7184 218.257 95.9175 218.598 97.1167C212.619 87.6483 201.269 83.0515 190.451 85.5914C188.736 85.9911 186.979 85.1001 186.262 83.4929L186.254 83.5095Z" fill="#181F28"/>
<path d="M188.936 131.493C189.01 133.941 185.48 136.032 181.049 136.165C176.619 136.298 172.972 134.424 172.897 131.984C172.822 129.536 176.228 132.659 180.658 132.526C185.088 132.392 188.861 129.053 188.936 131.501V131.493Z" fill="#ED7562"/>
<path d="M230.981 96.5755C230.981 96.5755 233.005 51.1655 208.447 42.3134C190.035 35.6763 179.975 45.5528 179.975 45.5528C179.975 45.5528 169.924 36.684 149.913 40.4147C137.505 42.7297 127.662 59.7262 127.662 59.7262C127.662 59.7262 109.05 68.187 109.408 80.5034C109.766 92.8115 114.396 105.269 115.354 107.168C116.311 109.075 124.214 124.448 124.214 124.448C124.214 124.448 136.764 92.3285 136.947 86.7907C137.13 81.2529 137.263 72.9836 137.263 72.9836C137.263 72.9836 152.777 77.8302 177.31 72.9753C201.852 68.112 211.661 60.484 211.661 60.484C211.661 60.484 224.427 90.9627 230.973 96.5672L230.981 96.5755Z" fill="#7F6D5C"/>
<path d="M191.875 160.914C192.042 162.663 188.602 164.42 184.189 164.836C179.775 165.253 176.07 164.17 175.903 162.421C175.737 160.673 179.251 162.663 183.656 162.246C188.07 161.83 191.7 159.157 191.867 160.906L191.875 160.914Z" fill="#EE9583"/>
<path d="M208.455 53.8387C208.905 55.2793 201.851 58.7769 192.7 61.6416C183.548 64.5146 175.753 65.6721 175.303 64.2314C174.854 62.7908 182.29 62.5409 191.442 59.6679C200.594 56.7949 208.006 52.3897 208.455 53.8303V53.8387Z" fill="#9B7D72"/>
<path d="M120.75 111.382C119.209 111.632 116.694 104.054 115.137 94.4603C113.58 84.867 113.571 76.8809 115.112 76.6311C116.653 76.3812 115.787 83.876 117.336 93.4777C118.893 103.071 122.282 111.132 120.741 111.382H120.75Z" fill="#9B7D72"/>
<path d="M247.153 156.575C249.793 173.821 224.644 191.975 190.984 197.122C157.324 202.268 127.903 192.45 125.272 175.203C122.632 157.957 151.254 176.844 184.913 171.698C218.573 166.551 244.522 139.328 247.153 156.575Z" fill="#7C7C7C"/>
<path d="M169.782 2.09116C168.658 -1.05665 164.145 -0.515359 163.803 2.80732L161.696 23.3763L176.727 21.5776L169.782 2.09116Z" fill="#C62433"/>
<mask id="mask5_267_15846" style="mask-type:luminance" maskUnits="userSpaceOnUse" x="134" y="21" width="74" height="27">
<path d="M207.731 39.8979L206.781 32.0201C205.857 24.3838 184.231 20.6863 176.736 21.5857L161.705 23.3845C154.21 24.2838 134.074 32.9694 134.998 40.6058L135.814 47.3344C143.742 44.4281 152.011 42.1297 160.605 40.5975C176.611 37.7411 192.466 37.6495 207.739 39.9063L207.731 39.8979Z" fill="white"/>
</mask>
<g mask="url(#mask5_267_15846)">
<path d="M134.074 36.6167L135.806 47.3259H134.074V36.6167Z" fill="#FF394C"/>
<path d="M134.074 28.6641L137.097 47.326H135.806L134.074 36.6168V28.6641Z" fill="#FF394C"/>
<path d="M134.074 20.7109L138.388 47.3257H137.097L134.074 28.6637V20.7109Z" fill="#FE394C"/>
<path d="M135.356 20.686L139.67 47.3258H138.388L134.074 20.711V20.686H135.356Z" fill="#FD384B"/>
<path d="M136.647 20.686L140.961 47.3258H139.67L135.356 20.686H136.647Z" fill="#FD384B"/>
<path d="M137.93 20.686L142.252 47.3258H140.961L136.647 20.686H137.93Z" fill="#FC384B"/>
<path d="M139.22 20.686L143.542 47.3258H142.252L137.93 20.686H139.22Z" fill="#FB374A"/>
<path d="M140.511 20.686L144.825 47.3258H143.542L139.22 20.686H140.511Z" fill="#FA374A"/>
<path d="M141.802 20.686L146.115 47.3258H144.825L140.511 20.686H141.802Z" fill="#F93749"/>
<path d="M143.084 20.686L147.406 47.3258H146.116L141.802 20.686H143.084Z" fill="#F83649"/>
<path d="M144.375 20.686L148.697 47.3258H147.406L143.084 20.686H144.375Z" fill="#F73649"/>
<path d="M145.666 20.686L149.98 47.3258H148.697L144.375 20.686H145.666Z" fill="#F63648"/>
<path d="M146.957 20.686L151.27 47.3258H149.98L145.666 20.686H146.957Z" fill="#F53548"/>
<path d="M148.239 20.686L152.561 47.3258H151.27L146.957 20.686H148.239Z" fill="#F43547"/>
<path d="M149.53 20.686L153.852 47.3258H152.561L148.239 20.686H149.53Z" fill="#F33547"/>
<path d="M150.821 20.686L155.134 47.3258H153.852L149.53 20.686H150.821Z" fill="#F23446"/>
<path d="M152.111 20.686L156.425 47.3258H155.134L150.821 20.686H152.111Z" fill="#F13446"/>
<path d="M153.394 20.686L157.716 47.3258H156.425L152.111 20.686H153.394Z" fill="#F03446"/>
<path d="M154.684 20.686L159.006 47.3258H157.716L153.394 20.686H154.684Z" fill="#EF3345"/>
<path d="M155.975 20.686L160.289 47.3258H159.007L154.685 20.686H155.975Z" fill="#EE3345"/>
<path d="M157.266 20.686L161.58 47.3258H160.289L155.975 20.686H157.266Z" fill="#ED3344"/>
<path d="M158.549 20.686L162.871 47.3258H161.58L157.266 20.686H158.549Z" fill="#EC3244"/>
<path d="M159.839 20.686L164.161 47.3258H162.871L158.549 20.686H159.839Z" fill="#EB3243"/>
<path d="M161.13 20.686L165.444 47.3258H164.161L159.839 20.686H161.13Z" fill="#EA3143"/>
<path d="M162.421 20.686L166.734 47.3258H165.444L161.13 20.686H162.421Z" fill="#E93142"/>
<path d="M163.703 20.686L168.025 47.3258H166.734L162.421 20.686H163.703Z" fill="#E83142"/>
<path d="M164.994 20.686L169.316 47.3258H168.025L163.703 20.686H164.994Z" fill="#E73042"/>
<path d="M166.285 20.686L170.598 47.3258H169.316L164.994 20.686H166.285Z" fill="#E63041"/>
<path d="M167.576 20.686L171.889 47.3258H170.598L166.285 20.686H167.576Z" fill="#E52F41"/>
<path d="M168.858 20.686L173.18 47.3258H171.889L167.576 20.686H168.858Z" fill="#E42F40"/>
<path d="M170.149 20.686L174.471 47.3258H173.18L168.858 20.686H170.149Z" fill="#E32F40"/>
<path d="M171.44 20.686L175.753 47.3258H174.471L170.149 20.686H171.44Z" fill="#E22E3F"/>
<path d="M172.73 20.686L177.044 47.3258H175.753L171.44 20.686H172.73Z" fill="#E12E3F"/>
<path d="M174.013 20.686L178.335 47.3258H177.044L172.73 20.686H174.013Z" fill="#E02E3E"/>
<path d="M175.303 20.686L179.625 47.3258H178.335L174.013 20.686H175.303Z" fill="#DF2D3E"/>
<path d="M176.594 20.686L180.908 47.3258H179.625L175.303 20.686H176.594Z" fill="#DE2D3D"/>
<path d="M177.885 20.686L182.199 47.3258H180.908L176.594 20.686H177.885Z" fill="#DD2C3D"/>
<path d="M179.168 20.686L183.49 47.3258H182.199L177.885 20.686H179.168Z" fill="#DC2C3D"/>
<path d="M180.458 20.686L184.78 47.3258H183.489L179.167 20.686H180.458Z" fill="#DB2C3C"/>
<path d="M181.749 20.686L186.063 47.3258H184.78L180.458 20.686H181.749Z" fill="#DA2B3C"/>
<path d="M183.04 20.686L187.353 47.3258H186.063L181.749 20.686H183.04Z" fill="#D92B3B"/>
<path d="M184.322 20.686L188.644 47.3258H187.353L183.04 20.686H184.322Z" fill="#D72A3B"/>
<path d="M185.613 20.686L189.935 47.3258H188.644L184.322 20.686H185.613Z" fill="#D62A3A"/>
<path d="M186.904 20.686L191.217 47.3258H189.935L185.613 20.686H186.904Z" fill="#D52A3A"/>
<path d="M188.194 20.686L192.508 47.3258H191.217L186.904 20.686H188.194Z" fill="#D42939"/>
<path d="M189.477 20.686L193.799 47.3258H192.508L188.194 20.686H189.477Z" fill="#D32939"/>
<path d="M190.768 20.686L195.09 47.3258H193.799L189.477 20.686H190.768Z" fill="#D22838"/>
<path d="M192.059 20.686L196.372 47.3258H195.09L190.768 20.686H192.059Z" fill="#D12838"/>
<path d="M193.349 20.686L197.663 47.3258H196.372L192.058 20.686H193.349Z" fill="#D02837"/>
<path d="M194.632 20.686L198.954 47.3258H197.663L193.349 20.686H194.632Z" fill="#CF2737"/>
<path d="M195.922 20.686L200.244 47.3258H198.954L194.632 20.686H195.922Z" fill="#CE2736"/>
<path d="M197.213 20.686L201.527 47.3258H200.244L195.922 20.686H197.213Z" fill="#CD2636"/>
<path d="M198.504 20.686L202.818 47.3258H201.527L197.213 20.686H198.504Z" fill="#CC2635"/>
<path d="M199.786 20.686L204.108 47.3258H202.818L198.504 20.686H199.786Z" fill="#CA2635"/>
<path d="M201.077 20.686L205.399 47.3258H204.108L199.786 20.686H201.077Z" fill="#C92534"/>
<path d="M202.368 20.686L206.682 47.3258H205.399L201.077 20.686H202.368Z" fill="#C82534"/>
<path d="M203.659 20.686L207.731 45.8102V47.3258H206.682L202.368 20.686H203.659Z" fill="#C72433"/>
<path d="M204.941 20.686L207.731 37.8574V45.8102L203.659 20.686H204.941Z" fill="#C62433"/>
<path d="M207.731 37.8574L204.941 20.686H207.731V37.8574Z" fill="#C62433"/>
</g>
<path d="M113.596 162.646C102.129 164.394 90.3043 149.238 87.1732 128.786C84.0504 108.334 90.8123 90.3377 102.279 88.5806C113.746 86.8319 100.972 104.42 104.095 124.864C107.218 145.316 125.063 160.88 113.596 162.637V162.646Z" fill="#7C7C7C"/>
<path d="M255.572 140.953C267.039 139.204 273.801 121.2 270.678 100.748C267.556 80.2951 255.722 65.139 244.255 66.8878C232.788 68.6366 250.234 81.6109 253.357 102.063C256.48 122.516 244.105 142.702 255.572 140.944V140.953Z" fill="#7C7C7C"/>
<path d="M246.587 71.8757C234.029 51.823 213.352 38.1076 190.118 34.6684C181.899 33.4525 173.371 33.5025 164.761 35.0431C160.139 35.8675 155.692 37.1 151.42 38.6656C128.228 47.1596 110.69 65.9798 103.046 88.9388C98.8401 101.572 97.6243 115.454 100.123 129.544C102.238 141.444 106.61 151.22 112.689 159.032C117.585 165.319 123.606 170.324 130.476 174.104C146.907 183.156 168.2 185.238 190.701 181.224C213.385 177.177 232.788 167.734 245.088 153.361C248.511 149.355 251.384 144.975 253.615 140.22C258.779 129.227 260.577 116.253 257.937 101.388C256.014 90.5627 252.075 80.6196 246.595 71.8674L246.587 71.8757ZM240.025 133.633C228.325 148.089 209.313 159.281 186.629 163.295C163.662 167.359 141.735 163.204 125.755 153.377C119.617 149.596 115.029 143.559 112.805 136.531C111.814 133.383 110.923 130.077 110.166 126.604C107.917 116.361 107.034 114.396 107.351 104.62C107.592 97.0831 113.705 78.2879 118.61 72.7917C130.418 59.5676 145.191 52.8973 166.535 49.1166C188.269 45.2693 204.391 46.4102 220.105 55.1291C225.976 58.3851 235.337 66.0381 237.943 72.392C240.508 78.6543 244.913 88.5058 246.454 95.5176C248.094 103.004 247.795 109.383 247.903 116.028C248.019 123.381 244.547 128.037 240.025 133.633Z" fill="#E2E2E2"/>
<g opacity="0.52">
<path d="M114.063 118.135C109.966 116.378 111.556 103.545 117.602 89.472C123.648 75.3984 131.875 65.4221 135.964 67.1792C140.061 68.9363 130.143 77.1306 124.097 91.2041C118.052 105.278 118.16 119.892 114.063 118.135Z" fill="white"/>
</g>
<path d="M211.986 225.319L210.729 226.576C210.146 227.126 209.571 227.609 208.988 228.058L208.863 228.158C208.73 228.258 208.588 228.358 208.455 228.458C208.122 228.7 207.789 228.941 207.448 229.166L211.736 234.845C212.328 235.628 213.577 235.27 213.66 234.287L214.684 221.904C214.684 221.904 214.643 221.971 214.618 222.004C213.826 223.178 212.952 224.294 211.978 225.327L211.986 225.319Z" fill="#FF394C"/>
<path d="M185.022 222.496L192.258 222.887C192.416 222.895 192.566 222.862 192.708 222.804C192.675 222.237 192.658 221.671 192.658 221.105C192.658 221.088 192.658 221.08 192.658 221.063C192.633 219.714 192.733 218.448 192.966 217.116L193.299 215.392C193.491 214.559 193.716 213.743 193.99 212.936C193.957 212.952 193.915 212.977 193.882 213.002C193.865 213.01 193.857 213.019 193.84 213.027L185.33 219.839C185.33 219.839 185.321 219.856 185.313 219.856L184.405 220.589C183.639 221.205 184.031 222.437 185.013 222.496H185.022Z" fill="#FF394C"/>
<path d="M215.276 199.412C214.901 198.479 213.918 197.963 212.944 198.171C206.548 199.562 200.777 203.65 197.471 209.888C196.231 212.219 195.439 214.668 195.056 217.141L196.206 217.757L203.076 221.413L209.571 224.869C211.403 223.17 212.985 221.138 214.226 218.806C217.541 212.569 217.699 205.507 215.276 199.428V199.412ZM209.688 211.878C207.772 212.319 205.857 211.128 205.416 209.213C204.974 207.298 206.165 205.382 208.081 204.941C209.996 204.5 211.911 205.691 212.353 207.606C212.794 209.521 211.603 211.437 209.688 211.878Z" fill="#FF394C"/>
<path d="M205.999 225.194L194.806 219.248C194.781 219.698 194.765 220.156 194.765 220.605C194.765 221.013 194.823 221.413 194.84 221.821C194.856 222.038 194.856 222.254 194.881 222.471C194.915 222.896 194.906 223.32 194.965 223.745C194.965 223.753 194.965 223.762 194.965 223.77C195.073 224.578 195.231 225.377 195.423 226.16L201.985 229.533C204.108 228.733 206.124 227.634 207.939 226.235L205.99 225.202L205.999 225.194Z" fill="#FF394C"/>
</g>
<defs>
<filter id="filter0_d_267_15846" x="0" y="0" width="452" height="666.563" filterUnits="userSpaceOnUse" color-interpolation-filters="sRGB">
<feFlood flood-opacity="0" result="BackgroundImageFix"/>
<feColorMatrix in="SourceAlpha" type="matrix" values="0 0 0 0 0 0 0 0 0 0 0 0 0 0 0 0 0 0 127 0" result="hardAlpha"/>
<feOffset dx="1" dy="2"/>
<feGaussianBlur stdDeviation="1"/>
<feComposite in2="hardAlpha" operator="out"/>
<feColorMatrix type="matrix" values="0 0 0 0 0 0 0 0 0 0 0 0 0 0 0 0 0 0 0.25 0"/>
<feBlend mode="normal" in2="BackgroundImageFix" result="effect1_dropShadow_267_15846"/>
<feBlend mode="normal" in="SourceGraphic" in2="effect1_dropShadow_267_15846" result="shape"/>
</filter>
</defs>
</svg>
