<svg width="562" height="953" viewBox="0 0 562 953" fill="none" xmlns="http://www.w3.org/2000/svg">
<g filter="url(#filter0_d_267_15531)">
<path d="M-227.501 483.801C-240.592 439.051 -171.352 383.618 -107.349 359.874C-43.3183 336.158 88.4451 337.677 16.5391 410.904C-18.4157 446.481 -36.8028 416.673 -100.864 440.42C-164.895 464.136 -214.47 528.554 -227.532 483.832L-227.501 483.801Z" fill="white"/>
<path d="M-52.3894 689.264L-80.7873 671.324C-108.668 653.713 -130.924 628.664 -144.635 598.393C-163.047 557.823 -173.36 509.075 -150.85 487.312L-41.8408 388.489C-6.86728 354.71 46.4797 353.364 77.3614 385.544L134.249 444.893C165.072 477.077 161.759 530.555 126.783 564.393L107.341 574.713C65.5085 596.852 28.3937 628.081 -0.0319679 666.32C-18.0074 690.488 -35.2499 707.159 -52.3894 689.264Z" fill="white"/>
<path d="M90.561 672.164C123.535 669.416 122.05 660.582 136.712 612.393C151.347 564.176 181.799 414.427 107.91 481.026C77.732 508.204 91.5047 561.974 76.8704 610.191C62.2362 658.408 57.5871 674.911 90.5893 672.192L90.561 672.164Z" fill="white"/>
<path d="M242.013 608.382C241.887 641.269 237.734 655.625 190.567 673.953C143.4 692.281 21.2532 701.207 82.133 622.705C107.017 590.653 136.378 633.17 183.545 614.842C230.712 596.514 242.111 575.467 241.985 608.354L242.013 608.382Z" fill="white"/>
<mask id="mask0_267_15531" style="mask-type:luminance" maskUnits="userSpaceOnUse" x="38" y="508" width="116" height="197">
<path d="M50.4513 704.6C83.425 701.852 122.05 660.582 136.653 612.396C151.287 564.179 177.33 463.508 103.441 530.107C73.2632 557.285 91.4455 561.977 76.8113 610.194C62.1771 658.411 17.4468 707.378 50.4206 704.631L50.4513 704.6Z" fill="white"/>
</mask>
<g mask="url(#mask0_267_15531)">
<path d="M91.3275 607.574C55.2852 608.878 20.4594 623.659 5.93654 642.41C5.61619 639.27 5.95023 635.981 7.14408 632.561C15.1498 609.319 55.9283 589.266 98.1702 587.72C140.44 586.203 168.143 603.823 160.138 627.065C158.944 630.485 156.987 633.823 154.503 637.07C152.761 618.9 127.37 606.27 91.3559 607.602L91.3275 607.574Z" fill="#FF394C"/>
</g>
<path d="M-245.128 727.679C-201.86 742.245 -150.417 671.454 -124.863 609.202C-99.3078 546.949 -83.667 429.472 -157.913 497.681C-194.012 530.836 -183.268 535.034 -208.823 597.286C-234.378 659.539 -288.395 713.114 -245.128 727.679Z" fill="white"/>
<path d="M-102.904 855.409C-57.2253 862.544 -17.1788 785.375 -1.66868 720.66C13.8414 655.946 10.4728 539.153 -52.8196 617.536C-83.5988 655.654 -72.1344 657.988 -87.6445 722.703C-103.155 787.417 -148.553 848.302 -102.904 855.409Z" fill="white"/>
<path d="M-12.5424 879.37C-0.959294 854.332 -12.3632 821.561 -42.8192 809.56C-73.306 797.59 -104.04 778.319 -115.651 803.328C-127.235 828.366 -130.04 855.839 -95.0544 869.625C-64.5677 881.596 -24.154 904.379 -12.5424 879.37Z" fill="#817567"/>
<mask id="mask1_267_15531" style="mask-type:luminance" maskUnits="userSpaceOnUse" x="-123" y="591" width="130" height="265">
<path d="M-102.904 855.409C-57.2253 862.544 -17.1788 785.375 -1.66868 720.66C13.8414 655.946 10.4728 539.153 -52.8196 617.536C-83.5988 655.654 -72.1344 657.988 -87.6445 722.703C-103.155 787.417 -148.553 848.302 -102.904 855.409Z" fill="white"/>
</mask>
<g mask="url(#mask1_267_15531)">
<path d="M-54.322 707.169C-22.6085 725.509 -5.12652 755.095 -10.0984 778.397C-6.78417 775.789 -3.86755 772.787 -1.63662 769.228C13.6548 745.102 -4.12878 708.099 -41.2899 686.573C-78.4509 665.048 -120.98 667.167 -136.272 691.294C-138.503 694.852 -139.98 698.728 -140.842 702.721C-121.57 687.691 -86.0355 688.83 -54.322 707.169Z" fill="#FF394C"/>
</g>
<path d="M19.0273 655.252C18.9848 653.308 20.4688 651.525 22.4555 651.223C33.8941 649.666 33.1863 640.558 27.1692 635.335L-143.802 486.499C-149.904 481.191 -159.329 481.736 -158.651 493.146C-158.564 494.704 -159.831 496.211 -161.4 496.375C-173.595 497.674 -172.955 507.02 -166.825 512.356L4.1465 661.193C10.1352 666.388 19.2881 666.003 18.9988 655.224L19.0273 655.252Z" fill="#7C7C7C"/>
<path d="M190.893 599.417C206.514 579.728 259.599 552.473 271.374 561.988C279.604 568.666 253.507 593.994 244.264 603.555C265.757 620.915 267.067 647.923 253.492 665.036C239.948 682.118 225.857 692.031 204.363 674.671C187.529 661.066 182.141 658.614 176.235 639.142C173.6 624.997 183.979 608.215 190.922 599.445L190.893 599.417Z" fill="#817567"/>
<path d="M188.149 504.534C158.145 534.829 93.1427 518.987 42.986 469.25C-7.14005 419.482 -23.4894 354.631 6.54301 324.364C36.547 294.069 74.0786 331.118 124.235 380.855C174.361 430.623 218.181 474.268 188.149 504.534Z" fill="#636363"/>
<path d="M170.141 458.105C153.827 474.407 114.174 461.643 81.5793 429.545C48.9847 397.447 35.7681 358.218 52.1131 341.885C68.4274 325.583 92.8228 349.437 125.417 381.535C158.012 413.633 186.486 441.772 170.172 458.074L170.141 458.105Z" fill="#3A3A3A"/>
<path d="M249.587 480.767C263.175 470.171 276.717 460.756 290.025 445.956C302.472 432.083 317.038 408.405 326.626 393.785C336.309 378.955 339.844 349.382 338.878 333.269C336.279 290.074 317.509 257.985 281.102 223.093C245.349 188.848 212.24 171.52 169.47 169.965C151.689 169.352 104.893 187.249 89.0379 198.545C68.4521 213.255 65.528 217.968 47.3517 238.194C41.1907 245.039 35.5304 251.889 30.3144 258.689C18.7313 273.848 12.2529 291.914 12.4887 309.39C13.1429 354.832 33.3115 402.542 71.7644 439.398C109.763 475.805 157.751 494.064 202.933 493.467C220.422 493.239 234.572 492.465 249.587 480.767Z" fill="#8DB4DB"/>
<path d="M38.3678 310.967C54.0452 326.494 77.0283 328.708 89.7021 315.911C102.376 303.115 99.9408 280.154 84.2634 264.627C68.5859 249.1 45.6028 246.887 32.929 259.683C20.2553 272.48 22.6903 295.44 38.3678 310.967Z" fill="#FFB9AB"/>
<path d="M64.8232 268.813C75.9793 276.058 66.8606 279.36 61.5535 286.99C56.2464 294.619 60.3928 306.273 49.206 299.059C38.0499 291.815 33.2983 279.807 38.6077 272.118C43.9171 264.429 53.608 261.571 64.7948 268.785L64.8232 268.813Z" fill="#EE9583"/>
<path d="M275.894 466.016C263.223 478.809 241.274 475.479 224.559 461.072C188.764 430.161 222.318 438.297 234.989 425.503C247.659 412.71 254.757 399.184 270.455 414.732C286.153 430.279 288.564 453.223 275.894 466.016Z" fill="#FFB9AB"/>
<path d="M236.061 453.32C227.605 447.153 242.424 445.079 250.281 440.097C258.11 435.088 262.364 424.207 268.113 434.073C273.89 443.967 272.212 456.05 264.355 461.032C256.526 466.041 245.294 460.009 236.061 453.32Z" fill="#EE9583"/>
<path d="M82.0716 435.862C128.634 481.978 211.858 473.443 267.958 416.799C324.058 360.156 331.79 276.853 285.228 230.738C238.666 184.623 155.442 193.157 99.3418 249.801C43.2418 306.444 35.5096 389.747 82.0716 435.862Z" fill="#FFC6B7"/>
<path d="M82.0716 435.862C128.634 481.978 211.858 473.443 267.958 416.799C324.058 360.156 331.79 276.853 285.228 230.738C238.666 184.623 155.442 193.157 99.3418 249.801C43.2418 306.444 35.5096 389.747 82.0716 435.862Z" fill="#FFC6B7"/>
<path d="M138 382.4L130.799 375.023C127.341 371.474 130.55 363.976 136.57 361.532L149.148 356.44L161.725 351.348C167.745 348.904 172.084 353.323 169.523 359.316L164.174 371.813L158.826 384.31C156.264 390.303 148.717 393.382 145.258 389.834L138.057 382.456L138 382.4Z" fill="#EE9583"/>
<path d="M201.007 308.336C206.35 306.632 208.977 300.46 206.443 295.864C194.27 273.806 167.622 263.183 140.938 271.731C138.132 272.634 135.435 273.767 132.821 275.043C157.868 270.704 181.486 282.682 191.604 304.545C193.207 308.036 197.186 309.583 201.036 308.364L201.007 308.336Z" fill="#181F28"/>
<path d="M237.533 318.126C239.563 312.897 245.869 310.674 250.27 313.499C271.315 327.224 280.005 354.729 269.732 380.942C268.651 383.737 267.312 386.338 265.916 388.883C271.921 364.027 261.642 339.488 240.663 327.854C237.315 326.011 236.03 321.915 237.533 318.126Z" fill="#181F28"/>
<path d="M155.731 388.855C151.712 392.913 142.979 390.829 136.193 384.169C129.437 377.478 127.179 368.799 131.229 364.71C135.248 360.652 135.024 370.985 141.78 377.676C148.536 384.367 159.75 384.797 155.76 388.883L155.731 388.855Z" fill="#ED7562"/>
<path d="M270.228 414.507C270.228 414.507 357.943 354.728 344.003 299.196C333.562 257.562 302.328 253.442 302.328 253.442C302.328 253.442 306.413 223.371 274.619 193.417C254.882 174.851 210.855 181.378 210.855 181.378C210.855 181.378 178.816 154.739 156.221 172.613C133.626 190.487 109.211 221.838 106.86 226.199C104.51 230.559 85.5387 265.952 85.5387 265.952C85.5387 265.952 161.184 243 171.788 235.586C182.365 228.143 197.985 216.8 197.985 216.8C197.985 216.8 208.19 250.838 247.727 287.111C287.292 323.413 313.715 329.947 313.715 329.947C313.715 329.947 272.575 395.048 270.202 414.42L270.228 414.507Z" fill="#7F6D5C"/>
<path d="M101.347 435.931C98.2931 438.674 90.7091 435.089 84.4723 427.931C78.2356 420.772 75.6293 412.73 78.7119 410.015C81.766 407.272 82.391 416.236 88.6868 423.392C94.9235 430.55 104.46 433.185 101.376 435.959L101.347 435.931Z" fill="#EE9583"/>
<path d="M322.192 315.086C320.078 317.902 304.775 310.415 288.058 298.338C271.311 286.292 259.487 274.214 261.629 271.427C263.743 268.611 273.448 281.353 290.195 293.399C306.943 305.445 324.393 312.296 322.22 315.114L322.192 315.086Z" fill="#9B7D72"/>
<path d="M105.702 241.619C103.317 239.257 114.364 224.242 130.379 208.073C146.393 191.903 161.301 180.712 163.685 183.074C166.07 185.435 150.954 194.395 134.939 210.565C118.925 226.735 108.086 243.98 105.702 241.619Z" fill="#9B7D72"/>
<path d="M227.243 401.796C246.536 387.063 253.255 362.789 242.251 347.579C231.248 332.368 206.687 331.981 187.395 346.714C168.102 361.447 161.382 385.721 172.386 400.932C183.389 416.142 207.95 416.53 227.243 401.796Z" fill="white"/>
<path d="M213.664 388.069C224.308 379.626 228.112 366.411 222.162 358.553C216.212 350.694 202.76 351.169 192.116 359.612C181.473 368.055 177.668 381.27 183.619 389.128C189.569 396.987 203.021 396.513 213.664 388.069Z" fill="#181F28"/>
<path d="M209.111 362.697C217.099 360.796 223.026 355.686 222.349 351.285C221.672 346.883 214.647 344.857 206.659 346.759C198.671 348.661 192.744 353.77 193.421 358.172C194.098 362.573 201.123 364.599 209.111 362.697Z" fill="white"/>
<path d="M128.863 389.242L106.209 363.799C102.875 360.068 96.6528 360.901 93.6457 365.47C83.3346 381.274 84.381 402.928 97.4859 417.687C110.591 432.445 131.8 435.841 148.438 427.161C153.222 424.659 154.729 418.481 151.396 414.75L128.773 389.276L128.863 389.242Z" fill="white"/>
<path d="M179.227 353.833C166.294 368.083 162.517 387.169 171.237 400.224C179.037 411.936 194.64 415.486 210.218 410.544C202.541 390.361 192.146 371.107 179.199 353.805L179.227 353.833Z" fill="#EE9583"/>
<path d="M121.684 290.092C128.035 283.68 144.461 289.578 158.313 303.298C172.166 317.018 178.253 333.355 171.872 339.798C165.521 346.21 163.535 327.492 149.683 313.772C135.83 300.052 115.334 296.504 121.684 290.092Z" fill="#ED7562"/>
<path d="M176.946 525.838C147.973 554.637 82.7902 535.855 31.3905 483.967C-20.0093 432.079 -38.193 366.638 -9.16059 337.835C19.8127 309.035 20.0199 385.757 71.4173 437.705C122.817 489.593 205.948 497.066 176.974 525.866L176.946 525.838Z" fill="#7C7C7C"/>
<path d="M369.835 173.527C374.327 167.176 367.738 159.975 361.065 164.044L320.002 189.153L342.009 213.035L369.835 173.527Z" fill="#C62433"/>
<path d="M346.242 293.13L359.794 280.413C372.947 268.097 352.984 224.948 342.009 213.035L320.003 189.153C309.028 177.24 267.775 154.055 254.652 166.339L243.059 177.193C258.33 187.04 272.895 198.336 286.423 211.305C311.634 235.415 331.488 263.117 346.242 293.13Z" fill="url(#paint0_linear_267_15531)"/>
<path d="M-0.19434 299.713C-17.6951 282.012 -4.03876 240.006 30.3294 205.872C64.6977 171.739 106.748 158.407 124.249 176.108C141.75 193.809 93.0276 195.993 58.6594 230.126C24.2912 264.26 17.3064 317.414 -0.19434 299.713Z" fill="#7C7C7C"/>
<path d="M216.604 518.726C234.104 536.427 276.155 523.095 310.523 488.962C344.892 454.829 358.548 412.823 341.047 395.122C323.546 377.421 320.916 426.235 286.548 460.369C252.179 494.502 199.044 501.028 216.575 518.698L216.604 518.726Z" fill="#7C7C7C"/>
<path d="M334.634 406.196C356.564 356.062 356.538 300.505 334.106 254.91C326.183 238.779 315.503 223.844 301.915 210.879C294.639 203.918 286.8 197.81 278.573 192.546C233.914 163.717 176.93 159.253 124.5 178.013C95.6532 188.346 68.1876 205.63 44.9077 229.76C25.2809 250.145 12.3962 271.5 5.36677 293.132C-0.320899 310.571 -2.18063 328.119 -0.761194 345.479C2.69768 387.009 25.2462 427.32 60.6594 461.228C96.3871 495.386 138.112 516.278 180.268 517.715C192.014 518.119 203.758 517.048 215.419 514.301C242.371 507.982 268.894 492.955 293.403 467.527C311.248 448.998 324.998 428.131 334.513 406.261L334.634 406.196ZM211.016 481.162C169.436 480.847 124.933 463.156 89.2387 428.909C53.1465 394.267 33.6719 349.944 32.2304 308.08C31.6749 292.005 37.2973 275.484 47.6464 261.742C52.2771 255.59 57.3804 249.415 62.9279 243.19C79.2895 224.909 81.874 220.597 100.571 207.453C114.965 197.348 157.694 181.742 174.047 182.66C213.461 184.879 244.239 201.494 277.802 233.692C311.962 266.481 329.843 296.402 333.045 336.205C334.237 351.069 331.562 378.241 322.904 391.695C314.371 404.966 301.421 426.501 290.206 439.018C278.249 452.396 265.926 460.807 253.648 470.308C240.035 480.817 227.019 481.241 210.928 481.136L211.016 481.162Z" fill="white"/>
<path opacity="0.83" d="M83.6388 238.176C81.8316 228.532 107.802 213.325 141.64 204.254C175.478 195.183 204.318 195.643 206.125 205.287C207.932 214.931 180.276 209.017 146.438 218.088C112.6 227.159 85.4153 247.851 83.6388 238.176Z" fill="white"/>
<path d="M-13.9055 488.256L-11.6397 502.036C-11.5921 502.329 -11.4548 502.588 -11.3175 502.846C-10.2405 502.44 -9.16597 502.093 -8.06294 501.774C-8.06294 501.774 -8.0322 501.743 -8.00152 501.712C-5.4342 500.88 -2.96589 500.318 -0.301066 500.012L3.16243 499.638C4.81856 499.499 6.50077 499.447 8.15002 499.485C8.09325 499.429 8.03648 499.373 7.97971 499.316C7.97971 499.316 7.95127 499.288 7.92288 499.26L-8.68021 487.295C-8.68021 487.295 -8.68024 487.295 -8.70862 487.267L-10.4869 485.997C-12.0075 484.921 -14.1865 486.383 -13.9055 488.256Z" fill="#FF394C"/>
<path d="M42.9303 531.477C44.5402 530.249 45.1543 528.096 44.337 526.366C38.9933 515.183 28.7668 506.772 15.426 504.175C10.4229 503.208 5.4136 503.156 0.521211 503.895L-0.165578 506.405L-4.28494 521.408L-8.19485 535.576C-4.19181 538.006 0.36552 539.82 5.36863 540.787C18.6811 543.356 32.3004 539.541 42.961 531.446L42.9303 531.477ZM16.7304 528.293C15.0914 524.952 16.5538 520.693 20.0484 518.755C23.543 516.816 27.686 517.913 29.325 521.254C30.964 524.596 29.502 528.854 26.0074 530.793C22.5128 532.731 18.3694 531.635 16.7304 528.293Z" fill="#FF394C"/>
<path d="M-10.3032 529.132L-3.57729 504.683C-4.47015 504.903 -5.33446 505.152 -6.19893 505.4C-6.97366 505.614 -7.72464 505.975 -8.50167 506.249C-8.91971 506.387 -9.33785 506.525 -9.72751 506.691C-10.5352 506.996 -11.3404 507.241 -12.1197 507.574C-12.1197 507.574 -12.1197 507.574 -12.1504 507.605C-13.65 508.268 -15.1236 509.017 -16.5709 509.854L-20.3084 524.131C-17.88 527.641 -14.9654 530.773 -11.4986 533.347L-10.3316 529.103L-10.3032 529.132Z" fill="#FF394C"/>
</g>
<defs>
<filter id="filter0_d_267_15531" x="-288.898" y="162.851" width="663.208" height="731.771" filterUnits="userSpaceOnUse" color-interpolation-filters="sRGB">
<feFlood flood-opacity="0" result="BackgroundImageFix"/>
<feColorMatrix in="SourceAlpha" type="matrix" values="0 0 0 0 0 0 0 0 0 0 0 0 0 0 0 0 0 0 127 0" result="hardAlpha"/>
<feOffset dx="1" dy="2"/>
<feGaussianBlur stdDeviation="1"/>
<feComposite in2="hardAlpha" operator="out"/>
<feColorMatrix type="matrix" values="0 0 0 0 0 0 0 0 0 0 0 0 0 0 0 0 0 0 0.25 0"/>
<feBlend mode="normal" in2="BackgroundImageFix" result="effect1_dropShadow_267_15531"/>
<feBlend mode="normal" in="SourceGraphic" in2="effect1_dropShadow_267_15531" result="shape"/>
</filter>
<linearGradient id="paint0_linear_267_15531" x1="255.668" y1="164.462" x2="366.234" y2="273.967" gradientUnits="userSpaceOnUse">
<stop stop-color="#FF394C"/>
<stop offset="0.61" stop-color="#DD2C3D"/>
<stop offset="1" stop-color="#C62433"/>
</linearGradient>
</defs>
</svg>
