<svg width="53" height="49" viewBox="0 0 53 49" fill="none" xmlns="http://www.w3.org/2000/svg">
<g id="Group">
<g id="Group_2">
<g id="Group_3">
<path id="Vector" d="M6.55882 39.1435C10.1812 39.1435 13.1176 36.8558 13.1176 34.0337C13.1176 31.2116 10.1812 28.9238 6.55882 28.9238C2.93648 28.9238 0 31.2116 0 34.0337C0 36.8558 2.93648 39.1435 6.55882 39.1435Z" fill="#FFB9AB"/>
<path id="Vector_2" d="M4.77305 31.5284C6.90808 31.1013 6.22829 32.4749 6.49474 33.9089C6.75778 35.3429 8.58537 36.1863 6.45034 36.6133C4.3153 37.0403 2.36815 36.2219 2.10512 34.7843C1.84208 33.3503 2.63802 31.9518 4.77305 31.5284Z" fill="#EE9583"/>
<path id="Vector_3" d="M52.1691 30.2114C52.1691 33.0332 49.2245 35.0864 45.6103 35.3212C37.8627 35.8265 42.7203 33.0332 42.7203 30.2114C42.7203 27.3896 41.9893 25.1016 45.6103 25.1016C49.2313 25.1016 52.1691 27.3896 52.1691 30.2114Z" fill="#FFB9AB"/>
<path id="Vector_4" d="M46.0552 33.1907C44.3574 33.4363 45.8468 31.5717 46.185 30.1555C46.5232 28.7357 45.758 27.0525 47.5719 27.5187C49.3859 27.9848 50.5849 29.5149 50.2501 30.9347C49.9119 32.3545 47.9101 32.9239 46.0586 33.1943L46.0552 33.1907Z" fill="#EE9583"/>
<path id="Vector_5" d="M26.0857 48.2284C36.8433 48.2284 45.5641 38.1023 45.5641 25.6112C45.5641 13.1202 36.8433 2.99414 26.0857 2.99414C15.3282 2.99414 6.60742 13.1202 6.60742 25.6112C6.60742 38.1023 15.3282 48.2284 26.0857 48.2284Z" fill="#FFC6B7"/>
<path id="Vector_6" d="M26.0857 48.2284C36.8433 48.2284 45.5641 38.1023 45.5641 25.6112C45.5641 13.1202 36.8433 2.99414 26.0857 2.99414C15.3282 2.99414 6.60742 13.1202 6.60742 25.6112C6.60742 38.1023 15.3282 48.2284 26.0857 48.2284Z" fill="#FFC6B7"/>
<path id="Vector_7" d="M20.5378 33.2968C23.7073 33.2968 26.2768 30.2061 26.2768 26.3935C26.2768 22.5809 23.7073 19.4902 20.5378 19.4902C17.3683 19.4902 14.7988 22.5809 14.7988 26.3935C14.7988 30.2061 17.3683 33.2968 20.5378 33.2968Z" fill="white"/>
<path id="Vector_8" d="M39.0974 28.4117C39.6454 24.6461 37.6234 21.204 34.581 20.7236C31.5387 20.2432 28.6282 22.9064 28.0801 26.672C27.5321 30.4376 29.5542 33.8797 32.5965 34.3601C35.6389 34.8405 38.5494 32.1773 39.0974 28.4117Z" fill="white"/>
<path id="Vector_9" d="M25.8397 37.5889L19.6601 37.2152C18.7514 37.1619 18.0545 38.0301 18.2526 38.9517C18.9393 42.1578 21.8497 44.7021 25.4263 44.9227C29.0064 45.1433 32.1867 42.9691 33.2252 39.8662C33.5224 38.9731 32.928 38.0265 32.0227 37.9696L25.8397 37.5889Z" fill="#B52424"/>
<path id="Vector_10" d="M25.8534 44.9409C27.1925 44.9338 28.5247 44.6456 29.6008 44.0442C28.9176 42.7098 27.4589 41.7633 25.8021 41.7775C24.1693 41.7917 22.7823 42.6635 22.1094 43.9801C23.2128 44.5744 24.4972 44.948 25.8568 44.9409H25.8534Z" fill="#FF4B4B"/>
<g id="Group_4">
<path id="Vector_11" d="M20.7662 30.7744C22.4547 30.768 23.8174 29.0342 23.8099 26.9019C23.8024 24.7696 22.4275 23.0463 20.739 23.0528C19.0505 23.0592 17.6877 24.793 17.6952 26.9253C17.7027 29.0575 19.0776 30.7809 20.7662 30.7744Z" fill="#181F28"/>
<path id="Vector_12" d="M20.2864 25.7502C20.5552 24.4736 20.1979 23.3074 19.4884 23.1453C18.7789 22.9832 17.9859 23.8867 17.7171 25.1632C17.4483 26.4398 17.8056 27.606 18.5151 27.7681C19.2246 27.9302 20.0176 27.0267 20.2864 25.7502Z" fill="white"/>
</g>
<g id="Group_5">
<path id="Vector_13" d="M35.9637 28.4069C36.2295 26.2947 35.147 24.405 33.5457 24.1863C31.9445 23.9676 30.4309 25.5027 30.165 27.6149C29.8991 29.7271 30.9817 31.6167 32.5829 31.8355C34.1842 32.0542 35.6978 30.5191 35.9637 28.4069Z" fill="#181F28"/>
<path id="Vector_14" d="M32.2156 26.5855C32.5832 25.5705 32.4376 24.5734 31.8904 24.3583C31.3432 24.1433 30.6016 24.7918 30.234 25.8067C29.8664 26.8217 30.012 27.8189 30.5592 28.0339C31.1064 28.249 31.848 27.6005 32.2156 26.5855Z" fill="white"/>
</g>
<path id="Vector_15" d="M26.034 36.1199L24.3602 35.8601C23.5574 35.7356 23.2226 34.4902 23.7589 33.6184L24.876 31.8L25.993 29.9817C26.5293 29.1099 27.5337 29.2664 27.8001 30.2628L28.3569 32.3409L28.9138 34.419C29.1802 35.4153 28.5107 36.5042 27.7079 36.3797L26.034 36.1199Z" fill="#EE9583"/>
<path id="Vector_16" d="M23.1411 15.9327C23.3597 15.068 22.7312 14.2283 21.8737 14.2247C17.7642 14.2069 14.0032 17.0572 12.9032 21.3877C12.787 21.8468 12.7153 22.3022 12.6641 22.7613C14.2081 18.9823 17.8975 16.648 21.802 16.9362C22.4203 16.9824 22.9805 16.5554 23.1411 15.9327Z" fill="#181F28"/>
<path id="Vector_17" d="M30.741 17.7511C30.5224 16.8864 31.1509 16.0466 32.0084 16.0431C36.1179 16.0253 39.879 18.8755 40.9789 23.2061C41.0951 23.6651 41.1668 24.1206 41.218 24.5796C39.674 20.8006 35.9847 18.4663 32.0801 18.7545C31.4618 18.8008 30.9016 18.3738 30.741 17.7511Z" fill="#181F28"/>
</g>
<path id="Vector_18" d="M28.9717 35.283C28.859 36.1726 27.5165 36.7206 25.969 36.5107C24.4215 36.3007 23.2601 35.4076 23.3728 34.518C23.4855 33.6284 24.4933 34.9592 26.0407 35.1692C27.5882 35.3791 29.0878 34.3934 28.9751 35.283H28.9717Z" fill="#ED7562"/>
<path id="Vector_19" d="M45.5565 25.1031C45.5565 25.1031 49.2561 7.63857 41.2147 2.99131C35.1888 -0.492348 30.6966 3.63182 30.6966 3.63182C30.6966 3.63182 27.7008 -0.16854 20.5339 0.00582139C16.0896 0.116131 11.7102 5.69214 11.7102 5.69214C11.7102 5.69214 4.89521 6.26148 4.32815 10.7415C3.75767 15.2215 4.53311 21.406 4.76199 22.1532C4.98745 22.9005 6.86627 28.932 6.86627 28.932C6.86627 28.932 13.0391 18.0397 13.4148 16.0435C13.7906 14.0508 14.303 11.0617 14.303 11.0617C14.303 11.0617 19.4203 13.727 28.2268 13.4067C37.03 13.0865 40.8731 10.9016 40.8731 10.9016C40.8731 10.9016 43.5957 22.687 45.5565 25.1031Z" fill="#7F6D5C"/>
<path id="Vector_20" d="M28.3367 46.1092C28.2957 46.7533 27.001 47.1874 25.4433 47.0771C23.8856 46.9704 22.6592 46.3619 22.7002 45.7178C22.7412 45.0737 23.8514 46.0025 25.4057 46.1092C26.9634 46.216 28.3777 45.4651 28.3367 46.1092Z" fill="#EE9583"/>
</g>
<path id="Vector_21" d="M40.1344 8.30715C40.2096 8.85514 37.5622 9.70561 34.2144 10.2073C30.8701 10.7091 28.0963 10.6735 28.0211 10.1255C27.946 9.57749 30.5456 9.92266 33.8899 9.42093C37.2342 8.9192 40.0593 7.7556 40.1344 8.30359V8.30715Z" fill="#9B7D72"/>
<path id="Vector_22" d="M6.39788 23.997C5.84789 23.997 5.40039 21.1076 5.40039 17.5386C5.40039 13.9731 5.84789 11.0801 6.39788 11.0801C6.94786 11.0801 6.22366 13.7453 6.22366 17.3108C6.22366 20.8763 6.94786 23.9935 6.39788 23.9935V23.997Z" fill="#9B7D72"/>
</g>
</svg>
