<svg width="38" height="50" viewBox="0 0 38 50" fill="none" xmlns="http://www.w3.org/2000/svg">
<g id="fa:chevron-up" clip-path="url(#clip0_267_16454)">
<path id="Vector" d="M6.08591 48.6478L1.18748 43.6599C0.811434 43.2792 0.623413 42.8285 0.623413 42.3077C0.623413 41.7869 0.811434 41.3361 1.18748 40.9555L16.9515 25L1.18748 9.04447C0.811434 8.66386 0.623413 8.21314 0.623413 7.69231C0.623413 7.17147 0.811434 6.72075 1.18748 6.34014L6.08591 1.35216C6.46196 0.971554 6.91222 0.78125 7.4367 0.78125C7.96117 0.78125 8.41143 0.971554 8.78748 1.35216L30.7859 23.6478C31.162 24.0284 31.35 24.4792 31.35 25C31.35 25.5208 31.162 25.9716 30.7859 26.3522L8.78748 48.6478C8.41143 49.0284 7.96117 49.2188 7.4367 49.2188C6.91222 49.2188 6.46196 49.0284 6.08591 48.6478Z" fill="white"/>
</g>
<defs>
<clipPath id="clip0_267_16454">
<rect width="50" height="38" fill="white" transform="matrix(0 1 -1 0 38 0)"/>
</clipPath>
</defs>
</svg>
