<svg width="53" height="56" viewBox="0 0 53 56" fill="none" xmlns="http://www.w3.org/2000/svg">
<path d="M52.95 27.5781C52.95 29.9086 49.7108 31.7627 49.1589 33.912C48.5897 36.1338 50.4864 39.425 49.4075 41.3723C48.3112 43.3455 44.6147 43.2704 43.0784 44.8733C41.5396 46.4762 41.6117 50.3242 39.7174 51.4662C37.848 52.5926 34.6909 50.6142 32.5555 51.2072C30.4922 51.7821 28.7123 55.1562 26.475 55.1562C24.2377 55.1562 22.4578 51.7821 20.3944 51.2072C18.2615 50.6142 15.1019 52.59 13.2325 51.4662C11.3383 50.3242 11.4103 46.4736 9.87157 44.8733C8.33279 43.2704 4.63871 43.3455 3.54243 41.3723C2.46105 39.425 4.36029 36.1364 3.79102 33.912C3.23914 31.7627 0 29.9086 0 27.5781C0 25.2476 3.23914 23.3935 3.79102 21.2442C4.36029 19.0224 2.46354 15.7312 3.54243 13.7839C4.63871 11.8107 8.33527 11.8858 9.87157 10.2829C11.4103 8.67997 11.3383 4.83199 13.2325 3.69003C15.1019 2.5636 18.259 4.54197 20.3944 3.94898C22.4578 3.37411 24.2377 0 26.475 0C28.7123 0 30.4922 3.37411 32.5555 3.94898C34.6884 4.54197 37.848 2.56619 39.7174 3.69003C41.6117 4.83199 41.5396 8.68256 43.0784 10.2829C44.6172 11.8858 48.3112 11.8107 49.4075 13.7839C50.4889 15.7312 48.5897 19.0198 49.1589 21.2442C49.7108 23.3935 52.95 25.2476 52.95 27.5781Z" fill="#181F28"/>
<path d="M11.6909 40.396C14.327 40.396 16.4639 38.7312 16.4639 36.6775C16.4639 34.6238 14.327 32.959 11.6909 32.959C9.0549 32.959 6.91797 34.6238 6.91797 36.6775C6.91797 38.7312 9.0549 40.396 11.6909 40.396Z" fill="#87401A"/>
<path d="M10.3928 34.8545C11.9465 34.5437 11.4518 35.5433 11.6457 36.5868C11.8371 37.6304 13.1671 38.2441 11.6134 38.5549C10.0597 38.8656 8.64271 38.27 8.45129 37.2239C8.25988 36.1803 8.8391 35.1626 10.3928 34.8545Z" fill="#632A14"/>
<path d="M45.9643 35.1365C45.9643 37.1899 43.8214 38.6841 41.1913 38.855C35.5533 39.2227 39.0883 37.1899 39.0883 35.1365C39.0883 33.083 38.5563 31.418 41.1913 31.418C43.8264 31.418 45.9643 33.083 45.9643 35.1365Z" fill="#87401A"/>
<path d="M41.5178 37.3044C40.2823 37.4831 41.3661 36.1262 41.6122 35.0956C41.8583 34.0624 41.3015 32.8376 42.6215 33.1768C43.9415 33.516 44.8141 34.6295 44.5705 35.6627C44.3244 36.6959 42.8676 37.1102 41.5203 37.307L41.5178 37.3044Z" fill="#632A14"/>
<path d="M26.4715 49.2809C34.3 49.2809 40.6462 41.9121 40.6462 32.8221C40.6462 23.7321 34.3 16.3633 26.4715 16.3633C18.6431 16.3633 12.2969 23.7321 12.2969 32.8221C12.2969 41.9121 18.6431 49.2809 26.4715 49.2809Z" fill="#A56644"/>
<path d="M28.5315 39.2302L28.1959 38.7097C27.8951 38.2436 27.731 37.6946 27.726 37.1301L27.7186 36.2031C27.5247 35.478 26.7938 35.364 26.4035 35.9985L26.2419 36.6666C26.0654 37.3916 25.6428 38.0235 25.0512 38.4455L24.7777 38.6423C24.3875 39.2768 24.6311 40.1831 25.2153 40.2737L26.4334 40.4628L27.6515 40.6518C28.2357 40.7424 28.7229 39.95 28.529 39.225L28.5315 39.2302Z" fill="#87401A"/>
<path d="M28.576 39.9375C28.494 40.5849 27.517 40.9837 26.3909 40.8309C25.2648 40.6781 24.4196 40.0281 24.5016 39.3808C24.5836 38.7334 25.317 39.7019 26.4431 39.8546C27.5692 40.0074 28.6605 39.2901 28.5785 39.9375H28.576Z" fill="#753217"/>
<path d="M47.9882 18.8288C47.9882 20.1106 44.2593 20.0485 40.5851 20.8823C38.6163 21.3303 36.5977 24.1477 33.9601 24.3755C31.7676 24.5646 29.2941 22.1771 26.8131 22.1771C24.3322 22.1771 21.8587 24.5646 19.6661 24.3755C17.0286 24.1477 15.01 21.3277 13.0412 20.8823C9.3695 20.0485 5.64062 20.1106 5.64062 18.8288C5.64062 17.547 9.3695 17.6092 13.0437 16.7754C15.0125 16.3274 17.0311 13.51 19.6686 13.2821C21.8612 13.0931 24.3347 15.4806 26.8156 15.4806C29.2966 15.4806 31.7701 13.0931 33.9626 13.2821C36.6002 13.51 38.6188 16.33 40.5876 16.7754C44.2593 17.6092 47.9882 17.547 47.9882 18.8288Z" fill="#181F28"/>
<path d="M18.9048 19.4211C19.5064 20.0478 18.1988 21.5031 17.6619 22.9299C17.3213 23.8388 18.1317 25.623 17.4133 26.6588C16.8167 27.5185 14.9174 27.3424 14.1021 28.1917C13.2867 29.0411 13.4557 31.0195 12.6304 31.641C11.636 32.3919 9.92324 31.5451 9.05068 31.9025C7.68095 32.4618 6.28385 33.8239 5.68226 33.1972C5.08067 32.5706 6.38826 31.1153 6.92522 29.6885C7.26579 28.7796 6.45538 26.9954 7.17381 25.9596C7.77043 25.0999 9.66967 25.276 10.485 24.4266C11.3004 23.5773 11.1314 21.5989 11.9567 20.9774C12.9511 20.2265 14.6639 21.0732 15.5364 20.7159C16.9062 20.1566 18.3032 18.7945 18.9048 19.4211Z" fill="#181F28"/>
<path d="M38.661 20.1094C38.0992 20.6946 36.1105 21.1063 35.847 22.5331C35.6531 23.5871 37.1844 24.6721 37.6169 25.9228C37.955 26.899 37.249 28.7609 38.1862 29.7345C39.1706 30.76 41.1047 30.1022 42.2184 30.5373C43.511 31.0422 44.58 32.7927 45.7409 32.7409C47.4065 32.6658 48.1771 30.7496 48.7439 30.1592C49.4151 29.46 50.0465 28.6314 48.9104 27.461C48.3088 26.8421 46.4419 27.3159 45.5445 26.4692C44.8509 25.814 45.1741 23.8926 44.3786 23.0666C43.69 22.3493 41.9772 22.8543 41.4751 22.3001C40.7318 21.4818 41.2737 19.6795 40.8089 19.229C39.8692 18.3175 39.3695 19.3688 38.656 20.1094H38.661Z" fill="#181F28"/>
<path d="M11.9095 42.5812C11.815 42.6563 11.7081 42.7132 11.5938 42.7521C11.3651 42.8298 11.1413 42.866 10.9201 42.866C10.4378 42.866 9.99534 42.6822 9.6498 42.33C9.04324 41.7085 8.909 40.7245 9.4037 39.9399C9.56777 40.0098 9.73929 40.072 9.91331 40.1237C9.80393 40.2636 9.71941 40.4189 9.66721 40.5976C9.52799 41.0741 9.65975 41.592 10.0078 41.9467C10.3682 42.317 10.8878 42.4232 11.4347 42.2419C11.4943 42.2238 11.5515 42.1901 11.6012 42.1513C12.0363 41.8069 12.2501 41.3227 12.1904 40.8203C12.173 40.6624 12.1283 40.5148 12.0636 40.3775C11.9642 40.1703 11.8125 39.9917 11.6261 39.8596C11.6261 39.5799 11.9518 39.4194 12.1457 39.611C12.3445 39.8078 12.5011 40.0512 12.5956 40.3231C12.6478 40.4604 12.6826 40.6054 12.7 40.7556C12.7821 41.4496 12.4937 42.1125 11.9095 42.576V42.5812Z" fill="#FFF75A"/>
<path d="M42.0667 40.9551C42.1711 41.0147 42.2855 41.0561 42.4023 41.0769C42.6385 41.1183 42.8672 41.1235 43.0835 41.0898C43.5607 41.0173 43.9734 40.7687 44.2667 40.3673C44.7813 39.6604 44.7764 38.6686 44.1797 37.9669C44.0281 38.0601 43.8665 38.1481 43.7 38.2258C43.8292 38.3475 43.9336 38.4899 44.0082 38.6583C44.2121 39.1088 44.1549 39.6423 43.8591 40.0437C43.5533 40.4657 43.0536 40.6496 42.4893 40.5512C42.4297 40.5408 42.365 40.5175 42.3128 40.4864C41.8355 40.212 41.5571 39.764 41.5447 39.259C41.5397 39.1011 41.5621 38.9457 41.6093 38.8007C41.6789 38.5806 41.8032 38.3812 41.9698 38.2232C41.93 37.9462 41.5869 37.8374 41.4204 38.0549C41.2513 38.2802 41.1295 38.5443 41.0724 38.8266C41.04 38.969 41.0251 39.1192 41.0276 39.2694C41.0425 39.9685 41.4204 40.5823 42.0617 40.9526L42.0667 40.9551Z" fill="#FFF75A"/>
<path d="M18.2241 33.64C18.2937 33.7694 18.1371 33.9792 17.9108 34.0698C16.827 34.4945 15.7978 34.3832 15.4547 33.7384C15.4175 33.671 15.3951 33.5985 15.3752 33.5234C15.8301 34.0258 16.832 34.0543 17.8586 33.6037C18.0202 33.5312 18.1743 33.5493 18.2241 33.6426V33.64Z" fill="#632A14"/>
<path d="M18.3111 34.1404C18.3807 34.2699 18.1892 34.5004 17.9257 34.6117C16.6679 35.1374 15.5119 35.0986 15.1664 34.4538C15.1291 34.3864 15.1067 34.3113 15.0918 34.2362C15.5716 34.7257 16.7051 34.6765 17.8984 34.1301C18.0873 34.042 18.2589 34.0498 18.3086 34.143L18.3111 34.1404Z" fill="#632A14"/>
<path d="M25.2472 29.7012C25.6027 29.1574 25.3616 28.4142 24.7674 28.1941C21.9186 27.1376 18.6397 28.1604 16.8622 30.8898C16.6733 31.1772 16.5167 31.4776 16.375 31.7831C18.3314 29.551 21.4413 28.8699 24.0838 30.0611C24.5039 30.2501 24.9912 30.0974 25.2472 29.7038V29.7012Z" fill="#632A14"/>
<path d="M29.8821 26.9025C29.7205 26.2654 30.1828 25.6491 30.8168 25.6465C33.8396 25.6336 36.6089 27.7311 37.4193 30.9187C37.5039 31.2554 37.5561 31.592 37.5934 31.9287C36.4573 29.1475 33.7402 27.4307 30.869 27.6405C30.414 27.6741 30.0014 27.3608 29.8845 26.8999L29.8821 26.9025Z" fill="#632A14"/>
<path d="M35.5528 32.8715C35.4211 33.1045 35.5379 33.4023 35.7865 33.4774C36.9797 33.8373 38.2998 33.3324 38.9635 32.1671C39.0331 32.0428 39.0903 31.9159 39.1425 31.7891C38.3942 32.7549 37.1339 33.1149 36.0227 32.6954C35.8462 32.6281 35.6498 32.7032 35.5528 32.8715Z" fill="#632A14"/>
<path d="M35.5977 34.0629C35.466 34.2959 35.5828 34.5937 35.8314 34.6688C37.0247 35.0288 38.3447 34.5238 39.0084 33.3585C39.078 33.2342 39.1352 33.1074 39.1874 32.9805C38.4391 33.9463 37.1788 34.3063 36.0676 33.8868C35.8911 33.8195 35.6947 33.8946 35.5977 34.0629Z" fill="#632A14"/>
<path d="M35.6895 35.1449C35.5578 35.378 35.6746 35.6758 35.9232 35.7509C37.1165 36.1108 38.4365 35.6058 39.1002 34.4406C39.1698 34.3163 39.227 34.1894 39.2792 34.0625C38.5309 35.0284 37.2706 35.3883 36.1594 34.9688C35.9829 34.9015 35.7865 34.9766 35.6895 35.1449Z" fill="#632A14"/>
<path d="M36.0726 34.8049C36.4759 32.0335 34.9883 29.5003 32.7499 29.1468C30.5115 28.7934 28.37 30.7535 27.9666 33.5249C27.5633 36.2963 29.0509 38.8295 31.2893 39.183C33.5277 39.5364 35.6693 37.5763 36.0726 34.8049Z" fill="white"/>
<path d="M33.757 34.7938C33.9527 33.2397 33.1567 31.8494 31.9792 31.6886C30.8017 31.5278 29.6885 32.6573 29.4929 34.2114C29.2973 35.7655 30.0933 37.1558 31.2708 37.3166C32.4483 37.4774 33.5614 36.3479 33.757 34.7938Z" fill="#24A073"/>
<path d="M31.2003 33.083C31.7247 32.2784 31.7989 31.378 31.3661 31.072C30.9333 30.7659 30.1574 31.1701 29.633 31.9748C29.1087 32.7794 29.0345 33.6797 29.4673 33.9858C29.9 34.2918 30.676 33.8876 31.2003 33.083Z" fill="white"/>
<path d="M26.5713 41.7678L22.4671 41.5192C21.863 41.4829 21.4006 42.0604 21.5324 42.6741C21.9898 44.8053 23.9238 46.4936 26.3003 46.6412C28.6794 46.7888 30.7924 45.3439 31.481 43.2801C31.6799 42.6871 31.2846 42.0578 30.6805 42.0216L26.5738 41.7678H26.5713Z" fill="white"/>
<path d="M27.8867 34.7812C27.9911 36.9979 29.2863 38.8675 31.1482 39.23C32.8138 39.5537 34.4545 38.58 35.3743 36.9124C33.0002 35.8818 30.4696 35.149 27.8892 34.7812H27.8867Z" fill="#87401A"/>
<path d="M17.5234 34.2256C17.5234 33.1821 19.4326 32.3379 21.7893 32.3379C24.1459 32.3379 26.0551 33.1821 26.0551 34.2256C26.0551 35.2692 24.2951 33.8942 21.9384 33.8942C19.5818 33.8942 17.5234 35.2692 17.5234 34.2256Z" fill="#87401A"/>
</svg>
