<svg width="50" height="50" viewBox="0 0 50 50" fill="none" xmlns="http://www.w3.org/2000/svg">
<g clip-path="url(#clip0_74_3512)">
<path d="M38.2812 0H11.7188C5.24666 0 0 5.24666 0 11.7188V38.2812C0 44.7533 5.24666 50 11.7188 50H38.2812C44.7533 50 50 44.7533 50 38.2812V11.7188C50 5.24666 44.7533 0 38.2812 0Z" fill="#242938"/>
<path d="M6.68945 11.9385L24.8682 5.46875L43.5254 11.8384L40.5102 35.8789L24.8682 44.5312L9.47998 35.9912L6.68945 11.9385Z" fill="#E23237"/>
<path d="M43.5254 11.8384L24.8682 5.46875V44.5312L40.5102 35.8789L43.5254 11.8384Z" fill="#B52E31"/>
<path d="M24.8963 10.0342L13.5681 35.2295L17.7954 35.1439L20.0781 29.4508H30.2099L32.6904 35.1881L36.7211 35.2734L24.8963 10.0342ZM24.9242 18.1226L28.7572 26.1268H21.582L24.9353 18.1226H24.9242Z" fill="white"/>
</g>
<defs>
<clipPath id="clip0_74_3512">
<rect width="50" height="50" fill="white"/>
</clipPath>
</defs>
</svg>
