<svg width="500" height="509" viewBox="0 0 500 509" fill="none" xmlns="http://www.w3.org/2000/svg">
<g filter="url(#filter0_d_267_14117)">
<path d="M244.5 505C383.952 505 497 391.952 497 252.5C497 113.048 383.952 0 244.5 0C105.048 0 -8 113.048 -8 252.5C-8 391.952 105.048 505 244.5 505Z" fill="#8D4E3E"/>
<path d="M214.354 434.947C331.767 434.947 426.949 339.765 426.949 222.353C426.949 104.94 331.767 9.7583 214.354 9.7583C96.9417 9.7583 1.75977 104.94 1.75977 222.353C1.75977 339.765 96.9417 434.947 214.354 434.947Z" fill="#D2664B"/>
<mask id="mask0_267_14117" style="mask-type:luminance" maskUnits="userSpaceOnUse" x="-8" y="0" width="505" height="505">
<path d="M244.5 505C383.952 505 497 391.952 497 252.5C497 113.048 383.952 0 244.5 0C105.048 0 -8 113.048 -8 252.5C-8 391.952 105.048 505 244.5 505Z" fill="white"/>
</mask>
<g mask="url(#mask0_267_14117)">
<path opacity="0.72" d="M-7.99984 150.73C-7.99984 150.73 13.7421 128.283 60.0455 178.816C106.403 229.348 112.15 229.349 160.677 226.963C209.203 224.577 272.911 224.577 251.874 243.012C230.837 261.446 170.057 290.345 169.352 305.581C168.647 320.817 176.617 344.89 185.292 360.939C193.967 376.988 238.156 446.823 170.111 403.447C102.065 360.126 79.6186 352.915 90.4625 377.747C101.306 402.634 129.555 439.557 161.436 455.606C193.317 471.655 208.498 491.716 212.836 499.741C217.173 507.765 15.9107 458.805 -5.83126 401.061C-27.5733 343.264 -7.99984 150.73 -7.99984 150.73Z" fill="#A01F13"/>
<path d="M-7.99996 48.9061C-7.99996 48.9061 97.8905 73.3591 120.663 86.3717C143.489 99.3844 174.394 99.3844 193.967 122.211C213.541 145.037 247.699 175.942 239.566 140.103C231.433 104.264 226.553 92.878 228.18 81.4377C229.807 70.0517 220.047 47.2253 206.98 37.4658C193.967 27.7063 104.343 -8.13281 104.343 -8.13281L-8.05423 48.9061H-7.99996Z" fill="#EE9583"/>
<path d="M179.871 138.748C189.955 145.363 191.799 149.321 193.697 153.659C195.594 157.996 197.221 163.96 190.443 166.4C183.666 168.84 163.008 173.449 151.622 166.4C140.236 159.352 137.796 155.556 129.609 149.321C121.476 143.086 117.41 139.833 117.952 133.326C118.494 126.82 118.494 120.856 129.88 121.398C141.266 121.94 162.466 127.362 179.817 138.748H179.871Z" fill="#E99890"/>
<path d="M302.569 314.42C302.569 314.42 327.022 317.402 330.276 327.432C333.529 337.463 328.649 351.072 314.552 348.09C300.455 345.108 287.659 338.33 284.948 332.366C282.237 326.402 282.237 311.166 302.569 314.474V314.42Z" fill="#A01F13"/>
<path d="M265.645 316.044C268.302 317.291 279.742 327.43 272.152 331.497C264.561 335.563 255.344 332.581 254.53 327.43C253.717 322.279 256.428 311.707 265.645 316.044Z" fill="#A01F13"/>
</g>
</g>
<defs>
<filter id="filter0_d_267_14117" x="-9" y="0" width="509" height="509" filterUnits="userSpaceOnUse" color-interpolation-filters="sRGB">
<feFlood flood-opacity="0" result="BackgroundImageFix"/>
<feColorMatrix in="SourceAlpha" type="matrix" values="0 0 0 0 0 0 0 0 0 0 0 0 0 0 0 0 0 0 127 0" result="hardAlpha"/>
<feOffset dx="1" dy="2"/>
<feGaussianBlur stdDeviation="1"/>
<feComposite in2="hardAlpha" operator="out"/>
<feColorMatrix type="matrix" values="0 0 0 0 0 0 0 0 0 0 0 0 0 0 0 0 0 0 0.25 0"/>
<feBlend mode="normal" in2="BackgroundImageFix" result="effect1_dropShadow_267_14117"/>
<feBlend mode="normal" in="SourceGraphic" in2="effect1_dropShadow_267_14117" result="shape"/>
</filter>
</defs>
</svg>
