<svg width="432" height="805" viewBox="0 0 432 805" fill="none" xmlns="http://www.w3.org/2000/svg">
<g filter="url(#filter0_d_267_15814)">
<path d="M-89.9746 651.004C-69.1 634.205 -51.6299 613.367 -40.5984 592.055L-12.7226 538.317C-8.05694 529.311 -10.9164 522.153 -19.1457 522.381L-20.3811 522.412C-28.5906 522.617 -39.0419 530.085 -43.7075 539.091L-68.0243 586.007C-80.8353 610.71 -101.86 634.695 -126.694 652.924L-158.879 676.554C-167.82 683.113 -172.979 693.243 -170.502 699.384C-167.824 706.062 -157.306 705.252 -147.852 697.626L-89.9744 651.044L-89.9746 651.004Z" fill="#56B751"/>
<path d="M-23.5605 308.354L-23.1517 281.962C-23.0425 274.66 -28.7442 269.277 -35.9757 269.864C-43.8446 270.489 -50.2508 277.882 -49.7598 285.752L-46.7702 333.933C-45.7018 351.309 -38.6218 367.064 -26.7969 378.521L3.05541 407.38C8.05749 412.227 16.4842 411.533 21.881 405.851L22.6946 405.008C28.0914 399.326 28.3948 390.796 23.3928 385.949L-2.65795 360.759C-16.3637 347.485 -23.8546 328.729 -23.5404 308.372L-23.5605 308.354Z" fill="#56B751"/>
<path d="M147.444 462.727L173.558 459.981C180.809 459.211 186.65 464.437 186.7 471.719C186.752 479.643 180.026 486.713 172.175 486.915L124.134 488.218C106.819 488.678 90.554 483.026 78.1537 472.182L46.8931 444.881C41.653 440.304 41.5779 431.801 46.7348 425.907L47.5083 425.029C52.6652 419.135 61.1102 418.058 66.3503 422.634L93.6308 446.468C108.011 459.017 127.286 464.842 147.424 462.71L147.444 462.727Z" fill="#56B751"/>
<path d="M71.4885 397.85L79.4708 386.088C88.0195 376.385 91.7015 365.673 87.7213 362.166C83.7411 358.66 73.5787 363.663 65.03 373.366L53.8891 382.705C30.2814 379.582 -10.8477 404.169 -46.8278 445.009L-61.6245 461.805C-104.467 510.434 -95.9624 533.443 -76.8414 550.288C-57.7204 567.134 -35.164 571.451 7.65906 522.843L22.4558 506.048C58.6739 464.937 77.9005 420.734 71.4286 397.838L71.4885 397.85Z" fill="#6BF178"/>
<path d="M207.07 501.623C210.839 497.345 212.676 483.768 210.05 480.055C207.424 476.342 196.749 468.337 196.749 468.337L217.734 444.517C229.516 431.144 216.258 429.901 208.713 436.57C204.107 440.63 193.565 445.338 186.065 448.407C180.017 450.877 174.19 453.781 168.525 457.227C162.86 460.674 158.998 466.629 158.347 473.014C157.774 478.866 157.304 485.77 157.778 489.587C158.766 497.095 173.955 507.638 183.92 512.618C193.884 517.598 203.302 505.94 207.07 501.663L207.07 501.623Z" fill="#6BF178"/>
<path d="M-67.3326 248.238C-63.564 243.96 -50.3265 240.427 -46.3122 242.564C-42.2978 244.701 -33.0115 254.282 -33.0115 254.282C-33.0115 254.282 -23.8082 243.835 -12.0264 230.462C-0.244634 217.089 2.65896 230.084 -3.00594 238.409C-6.45234 243.49 -9.79431 254.542 -11.8942 262.369C-13.5818 268.68 -15.7285 274.826 -18.4335 280.881C-21.1386 286.935 -26.5599 291.516 -32.8113 292.967C-38.5451 294.273 -45.335 295.609 -49.181 295.62C-56.7538 295.586 -69.1263 281.847 -75.3224 272.589C-81.5185 263.332 -71.1411 252.52 -67.3725 248.243L-67.3326 248.238Z" fill="#6BF178"/>
<path d="M74.0155 377.764C127.479 424.865 220.328 406.854 281.399 337.534C342.469 268.214 348.636 173.836 295.172 126.734C241.708 79.6326 148.859 97.6441 87.7887 166.964C26.718 236.284 20.5515 330.662 74.0155 377.764Z" fill="#6BF178"/>
<path d="M119.466 294.567C142.874 298.007 169.182 271.874 178.227 236.197C187.272 200.52 175.629 168.809 152.221 165.369C128.814 161.929 102.505 188.062 93.4604 223.739C84.4153 259.416 96.0586 291.127 119.466 294.567Z" fill="#11151C"/>
<path d="M223.945 338.689C258.198 325.22 280.807 295.828 274.444 273.041C268.082 250.253 235.156 242.699 200.904 256.168C166.651 269.637 144.042 299.029 150.405 321.817C156.767 344.604 189.693 352.158 223.945 338.689Z" fill="#11151C"/>
<path d="M113.396 210.318C105.833 227.129 104.361 241.946 100.946 240.217C97.5308 238.488 99.44 223.136 107.023 206.343C114.586 189.533 124.958 177.638 128.393 179.344C131.808 181.073 120.979 193.486 113.396 210.318Z" fill="#38455B"/>
<path d="M234.122 316.678C218.399 326.299 203.886 329.627 206.031 332.797C208.176 335.967 223.166 332.138 238.87 322.499C254.593 312.878 265.086 301.089 262.96 297.897C260.815 294.727 249.865 307.034 234.122 316.678Z" fill="#38455B"/>
<path d="M182.687 369.094C165.178 371.104 151.473 367.627 151.889 371.632C152.304 375.596 166.625 378.776 184.114 376.789C201.622 374.779 215.685 368.374 215.27 364.409C214.855 360.444 200.195 367.124 182.687 369.134L182.687 369.094Z" fill="#56B751"/>
<path d="M68.6396 273.138C68.8521 290.76 74.0281 303.917 70.0031 304.01C66.0178 304.098 61.0584 290.292 60.826 272.692C60.6134 255.07 65.1955 240.312 69.1807 240.224C73.166 240.136 68.3871 255.521 68.5997 273.143L68.6396 273.138Z" fill="#56B751"/>
<path d="M89.7336 362.02C94.8334 366.392 102.484 366.015 99.4274 368.96C96.3709 371.946 88.6989 372.025 83.5992 367.652C78.4994 363.279 77.9117 356.083 80.9882 353.115C84.0447 350.13 84.6539 357.664 89.7536 362.037L89.7336 362.02Z" fill="#56B751"/>
<path d="M123.918 320.861C127.087 319.182 128.002 313.933 125.962 309.136C123.923 304.34 119.7 301.814 116.532 303.493C113.363 305.172 112.447 310.422 114.487 315.218C116.527 320.014 120.749 322.541 123.918 320.861Z" fill="#56B751"/>
<path d="M94.1342 356.54C98.8068 360.657 107.425 358.51 113.385 351.746C119.344 344.982 120.387 336.161 115.714 332.045C111.042 327.928 102.423 330.075 96.4639 336.839C90.5047 343.603 89.4616 352.423 94.1342 356.54Z" fill="#11151C"/>
<path d="M132.129 331.065C137.144 332.484 142.236 330.914 143.503 327.559C144.77 324.204 141.731 320.334 136.716 318.915C131.701 317.496 126.609 319.066 125.342 322.421C124.076 325.776 127.114 329.646 132.129 331.065Z" fill="#56B751"/>
<path d="M313.952 205.501C310.738 175.397 298.385 156.677 298.039 154.892C296.269 146.135 322.562 176.897 325.775 207C328.989 237.103 309.29 273.092 309.69 263.928C310.289 249.74 317.185 235.621 313.972 205.518L313.952 205.501Z" fill="#9DFF85"/>
</g>
<defs>
<filter id="filter0_d_267_15814" x="-217.401" y="100.486" width="551.962" height="630.9" filterUnits="userSpaceOnUse" color-interpolation-filters="sRGB">
<feFlood flood-opacity="0" result="BackgroundImageFix"/>
<feColorMatrix in="SourceAlpha" type="matrix" values="0 0 0 0 0 0 0 0 0 0 0 0 0 0 0 0 0 0 127 0" result="hardAlpha"/>
<feOffset dx="1" dy="2"/>
<feGaussianBlur stdDeviation="1"/>
<feComposite in2="hardAlpha" operator="out"/>
<feColorMatrix type="matrix" values="0 0 0 0 0 0 0 0 0 0 0 0 0 0 0 0 0 0 0.25 0"/>
<feBlend mode="normal" in2="BackgroundImageFix" result="effect1_dropShadow_267_15814"/>
<feBlend mode="normal" in="SourceGraphic" in2="effect1_dropShadow_267_15814" result="shape"/>
</filter>
</defs>
</svg>
