<svg width="286" height="256" viewBox="0 0 286 256" fill="none" xmlns="http://www.w3.org/2000/svg">
<g filter="url(#filter0_d_125_3884)">
<path d="M46.3022 28.572L45.7955 28.7646L48.9136 36.9643L49.4202 36.7716L46.3022 28.572Z" fill="#C6BAA3"/>
<path d="M54.4254 28.205L45.6835 28.936L45.7286 29.4761L54.4706 28.7451L54.4254 28.205Z" fill="#C6BAA3"/>
<path d="M57.7358 36.1097L57.4434 36.559L46.2103 29.4412L46.5027 28.9919L57.7358 36.1097Z" fill="#C6BAA3"/>
<path d="M51.2455 32.3154L47.765 37.7715C47.765 37.7715 47.7864 37.7858 47.7935 37.7929C50.7962 39.6829 54.8258 38.77 56.7158 35.7674C58.6058 32.7648 57.6929 28.7352 54.6903 26.8452L51.2455 32.3226V32.3154Z" fill="#9E9E9E"/>
<path d="M46.9449 29.6124L47.708 28.4142C47.0447 28.0005 46.1603 28.2002 45.7467 28.8564C45.333 29.5125 45.5327 30.404 46.1889 30.8177L46.9449 29.6124Z" fill="#F2D697"/>
<path d="M267.31 162.23L266.803 162.423L269.921 170.623L270.428 170.43L267.31 162.23Z" fill="#C6BAA3"/>
<path d="M270.446 169.776L261.704 170.507L261.749 171.047L270.491 170.316L270.446 169.776Z" fill="#C6BAA3"/>
<path d="M258.468 163.111L258.761 162.661L269.994 169.779L269.701 170.229L258.468 163.111Z" fill="#C6BAA3"/>
<path d="M264.959 166.898L268.439 161.442C268.439 161.442 268.418 161.428 268.411 161.42C265.408 159.53 261.378 160.443 259.488 163.446C257.598 166.449 258.511 170.478 261.514 172.368L264.959 166.891V166.898Z" fill="#9E9E9E"/>
<path d="M269.259 169.608L268.496 170.806C269.159 171.22 270.044 171.02 270.457 170.364C270.871 169.701 270.671 168.816 270.015 168.403L269.259 169.608Z" fill="#F2D697"/>
<path d="M1.85967 99.164L1.35303 99.3566L4.47106 107.556L4.9777 107.364L1.85967 99.164Z" fill="#C6BAA3"/>
<path d="M9.96681 98.791L1.22485 99.522L1.27002 100.062L10.012 99.3312L9.96681 98.791Z" fill="#C6BAA3"/>
<path d="M13.2814 106.696L12.9961 107.145L1.75598 100.027L2.0484 99.5781L13.2814 106.696Z" fill="#C6BAA3"/>
<path d="M6.79833 102.902L3.31787 108.358C3.31787 108.358 3.33927 108.372 3.3464 108.379C6.34901 110.269 10.3786 109.356 12.2686 106.354C14.1586 103.351 13.2457 99.3214 10.2431 97.4314L6.79833 102.909V102.902Z" fill="#9E9E9E"/>
<path d="M2.49773 100.199L3.26086 99.0005C2.59758 98.5868 1.7132 98.7865 1.29954 99.4427C0.885879 100.106 1.08558 100.99 1.74173 101.404L2.49773 100.199Z" fill="#F2D697"/>
<path d="M222.867 232.815L222.36 233.008L225.478 241.207L225.985 241.015L222.867 232.815Z" fill="#C6BAA3"/>
<path d="M225.994 240.355L217.252 241.086L217.297 241.626L226.039 240.895L225.994 240.355Z" fill="#C6BAA3"/>
<path d="M214.021 233.697L214.314 233.248L225.547 240.365L225.254 240.815L214.021 233.697Z" fill="#C6BAA3"/>
<path d="M220.504 237.484L223.985 232.028C223.985 232.028 223.963 232.014 223.956 232.007C220.954 230.117 216.924 231.03 215.034 234.032C213.144 237.035 214.057 241.064 217.059 242.954L220.504 237.477V237.484Z" fill="#9E9E9E"/>
<path d="M224.805 240.194L224.042 241.392C224.705 241.806 225.589 241.606 226.003 240.95C226.417 240.287 226.217 239.403 225.561 238.989L224.805 240.194Z" fill="#F2D697"/>
<path d="M24.0223 114.784L203.751 227.963" stroke="#C6BAA3" stroke-width="3" stroke-miterlimit="10"/>
<path d="M68.9402 43.4629L248.662 156.642" stroke="#C6BAA3" stroke-width="3" stroke-miterlimit="10"/>
<path d="M164.846 110.539L146.729 99.1302L108.306 160.145L126.423 171.554L164.846 110.539Z" fill="#9E9E9E"/>
<path d="M185.832 57.5956L162.84 66.3387L163.377 67.752L186.37 59.0089L185.832 57.5956Z" fill="#C6BAA3"/>
<path d="M185.386 57.3558L183.879 57.4818L185.929 81.9947L187.435 81.8687L185.386 57.3558Z" fill="#C6BAA3"/>
<path d="M165.266 91.1124L163.997 90.2922L183.959 58.7827L185.229 59.5957L165.266 91.1124Z" fill="#C6BAA3"/>
<path d="M175.893 72.9113L160.595 63.1546C160.595 63.1546 160.559 63.2117 160.538 63.2473C155.231 71.6703 157.799 82.9675 166.222 88.2738C174.645 93.5801 185.942 91.0125 191.248 82.5895L175.893 72.9184V72.9113Z" fill="#9E9E9E"/>
<path d="M183.489 60.8509L186.855 62.9977C186.855 62.9977 186.862 62.9834 186.869 62.9763C188.032 61.1219 187.468 58.64 185.621 57.4774C183.767 56.3149 181.285 56.8783 180.122 58.7255L183.496 60.8509H183.489Z" fill="#F2D697"/>
<path d="M109.803 202.906L86.8105 211.65L87.348 213.063L110.34 204.32L109.803 202.906Z" fill="#C6BAA3"/>
<path d="M87.1886 188.708L85.6819 188.834L87.7317 213.347L89.2384 213.221L87.1886 188.708Z" fill="#C6BAA3"/>
<path d="M107.888 179.572L109.158 180.392L89.1953 211.908L87.9258 211.088L107.888 179.572Z" fill="#C6BAA3"/>
<path d="M97.2616 197.773L112.56 207.529C112.56 207.529 112.596 207.472 112.617 207.437C117.923 199.014 115.356 187.716 106.933 182.41C98.5097 177.104 87.2125 179.671 81.9062 188.094L97.2616 197.766V197.773Z" fill="#9E9E9E"/>
<path d="M89.6659 209.833L86.2996 207.686C86.2996 207.686 86.2924 207.701 86.2853 207.708C85.1228 209.562 85.6862 212.044 87.5334 213.207C89.3877 214.369 91.8697 213.806 93.0322 211.958L89.6588 209.833H89.6659Z" fill="#F2D697"/>
<path d="M81.376 142.224L75.7995 138.713C74.3163 137.779 72.3567 138.224 71.4227 139.707L67.911 145.284C66.9769 146.767 67.4221 148.726 68.9054 149.66L74.4818 153.172C75.9651 154.106 77.9246 153.661 78.8587 152.178L82.3704 146.601C83.3044 145.118 82.8592 143.158 81.376 142.224Z" fill="#FF394C"/>
<path d="M160.241 191.889L154.665 188.378C153.181 187.444 151.222 187.889 150.288 189.372L146.776 194.948C145.842 196.432 146.287 198.391 147.77 199.325L153.347 202.837C154.83 203.771 156.79 203.326 157.724 201.843L161.235 196.266C162.169 194.783 161.724 192.823 160.241 191.889Z" fill="#FF394C"/>
<path d="M125.832 71.6427L120.255 68.1311C118.772 67.197 116.812 67.6422 115.878 69.1255L112.367 74.7019C111.433 76.1851 111.878 78.1447 113.361 79.0788L118.938 82.5904C120.421 83.5245 122.38 83.0793 123.314 81.596L126.826 76.0196C127.76 74.5364 127.315 72.5768 125.832 71.6427Z" fill="#FF394C"/>
<path d="M204.691 121.297L199.114 117.785C197.631 116.851 195.671 117.296 194.737 118.779L191.226 124.356C190.292 125.839 190.737 127.799 192.22 128.733L197.797 132.244C199.28 133.178 201.239 132.733 202.173 131.25L205.685 125.673C206.619 124.19 206.174 122.231 204.691 121.297Z" fill="#FF394C"/>
<path d="M201.037 113.644L128.302 67.8398C126.489 66.698 124.093 67.2422 122.951 69.0554L115.354 81.1197C114.212 82.9329 114.756 85.3284 116.57 86.4703L189.305 132.274C191.118 133.416 193.514 132.872 194.656 131.058L202.253 118.994C203.395 117.181 202.85 114.785 201.037 113.644Z" fill="white"/>
<path d="M156.589 184.225L83.8533 138.421C82.0401 137.28 79.6445 137.824 78.5027 139.637L70.9055 151.701C69.7636 153.515 70.3079 155.91 72.1211 157.052L144.856 202.856C146.67 203.998 149.065 203.453 150.207 201.64L157.804 189.576C158.946 187.763 158.402 185.367 156.589 184.225Z" fill="white"/>
<path d="M129.357 166.898L111.24 155.489L99.4165 174.264L117.534 185.673L129.357 166.898Z" fill="#E8E8E8"/>
<path d="M173.728 96.4463L155.611 85.0372L143.879 103.668L161.996 115.077L173.728 96.4463Z" fill="#E8E8E8"/>
<path d="M193.371 108.815L185.453 103.828L173.72 122.459L181.638 127.445L193.371 108.815Z" fill="url(#paint0_linear_125_3884)"/>
<path d="M79.7787 161.877L87.6968 166.864L99.429 148.233L91.5109 143.247L79.7787 161.877Z" fill="url(#paint1_linear_125_3884)"/>
<path d="M148.928 179.4L141.01 174.414L129.278 193.044L137.196 198.031L148.928 179.4Z" fill="url(#paint2_linear_125_3884)"/>
<path d="M124.232 91.2864L132.15 96.2727L143.882 77.6423L135.964 72.656L124.232 91.2864Z" fill="url(#paint3_linear_125_3884)"/>
<path d="M183.33 140.199L111.995 95.2768C109.795 93.8915 106.888 94.5518 105.503 96.7517L88.3476 123.994C86.9623 126.194 87.6226 129.1 89.8225 130.486L161.158 175.408C163.357 176.793 166.264 176.133 167.649 173.933L184.805 146.69C186.19 144.491 185.53 141.584 183.33 140.199Z" fill="#FF394C"/>
<path d="M150.941 119.807L143.023 114.821L120.85 150.03L128.769 155.016L150.941 119.807Z" fill="url(#paint4_linear_125_3884)"/>
<path d="M136.659 145.601C142.67 145.601 147.543 140.729 147.543 134.718C147.543 128.707 142.67 123.834 136.659 123.834C130.648 123.834 125.776 128.707 125.776 134.718C125.776 140.729 130.648 145.601 136.659 145.601Z" fill="#01DBFF"/>
<path d="M112.139 130.161C118.15 130.161 123.023 125.288 123.023 119.277C123.023 113.266 118.15 108.393 112.139 108.393C106.128 108.393 101.256 113.266 101.256 119.277C101.256 125.288 106.128 130.161 112.139 130.161Z" fill="#01DBFF"/>
<path d="M161.629 161.328C167.64 161.328 172.512 156.455 172.512 150.444C172.512 144.433 167.64 139.561 161.629 139.561C155.618 139.561 150.745 144.433 150.745 150.444C150.745 156.455 155.618 161.328 161.629 161.328Z" fill="#01DBFF"/>
<path d="M136.674 126.687C138.186 126.687 139.662 127.115 140.946 127.921C144.697 130.282 145.824 135.253 143.463 138.997C141.98 141.351 139.441 142.749 136.652 142.749C135.14 142.749 133.664 142.321 132.38 141.515C130.561 140.374 129.299 138.591 128.828 136.494C128.35 134.404 128.721 132.25 129.862 130.432C131.346 128.078 133.885 126.68 136.674 126.68M136.674 123.834C133.058 123.834 129.52 125.632 127.452 128.92C124.249 134.005 125.776 140.73 130.861 143.933C132.665 145.067 134.669 145.609 136.652 145.609C140.268 145.609 143.806 143.811 145.874 140.523C149.076 135.438 147.55 128.713 142.465 125.51C140.66 124.376 138.656 123.834 136.674 123.834Z" fill="#87F9F9"/>
<path d="M112.146 111.239C113.658 111.239 115.135 111.667 116.418 112.473C120.17 114.834 121.297 119.805 118.936 123.549C117.453 125.903 114.914 127.301 112.125 127.301C110.613 127.301 109.137 126.873 107.853 126.067C104.101 123.706 102.974 118.735 105.335 114.991C106.819 112.637 109.358 111.239 112.146 111.239ZM112.146 108.386C108.53 108.386 104.993 110.184 102.925 113.471C99.7222 118.557 101.249 125.282 106.334 128.484C108.138 129.618 110.142 130.161 112.125 130.161C115.741 130.161 119.278 128.363 121.347 125.075C124.549 119.99 123.023 113.265 117.938 110.062C116.133 108.928 114.129 108.386 112.146 108.386Z" fill="#87F9F9"/>
<path d="M161.636 142.406C163.148 142.406 164.624 142.834 165.908 143.64C167.727 144.781 168.989 146.564 169.46 148.661C169.938 150.751 169.567 152.905 168.426 154.723C166.942 157.077 164.403 158.475 161.614 158.475C160.102 158.475 158.626 158.047 157.342 157.241C155.524 156.1 154.261 154.317 153.791 152.22C153.313 150.13 153.684 147.976 154.825 146.158C156.308 143.804 158.847 142.406 161.636 142.406ZM161.636 139.553C158.02 139.553 154.482 141.351 152.414 144.639C149.212 149.724 150.738 156.449 155.823 159.652C157.628 160.786 159.632 161.328 161.614 161.328C165.23 161.328 168.768 159.53 170.836 156.243C174.039 151.157 172.512 144.432 167.427 141.23C165.623 140.096 163.619 139.553 161.636 139.553Z" fill="#87F9F9"/>
<path d="M265.206 117.086L231.994 169.827L248.801 180.412L282.014 127.671L265.206 117.086Z" fill="#82DAF9"/>
<path d="M277.839 128.627L247.356 177.033L235.667 169.672L266.149 121.267L277.839 128.627ZM282.011 127.679L265.201 117.095L231.987 169.836L248.797 180.42L282.011 127.679Z" fill="#87F9F9"/>
<path d="M242.901 103.042L209.688 155.783L226.496 166.367L259.709 113.626L242.901 103.042Z" fill="#82DAF9"/>
<path d="M255.537 114.584L224.762 163.453L213.072 156.093L243.847 107.224L255.537 114.584ZM259.709 113.636L242.899 103.052L209.685 155.793L226.495 166.377L259.709 113.636Z" fill="#87F9F9"/>
<path d="M220.385 188.258L187.173 240.999L203.98 251.583L237.193 198.842L220.385 188.258Z" fill="#82DAF9"/>
<path d="M233.021 199.798L202.225 248.696L190.535 241.336L221.331 192.438L233.021 199.798ZM237.193 198.85L220.383 188.266L187.169 241.007L203.979 251.591L237.193 198.85Z" fill="#87F9F9"/>
<path d="M198.081 174.21L164.868 226.951L181.676 237.535L214.889 184.794L198.081 174.21Z" fill="#82DAF9"/>
<path d="M210.719 185.748L180.5 233.733L168.811 226.372L199.029 178.388L210.719 185.748ZM214.891 184.807L198.081 174.223L164.867 226.964L181.677 237.548L214.891 184.807Z" fill="#87F9F9"/>
<path d="M101.557 14.0448L68.3445 66.7857L85.1523 77.3701L118.365 24.6292L101.557 14.0448Z" fill="#82DAF9"/>
<path d="M79.2591 0.000356616L46.0464 52.7413L62.8542 63.3257L96.0669 10.5848L79.2591 0.000356616Z" fill="#82DAF9"/>
<path d="M91.8984 11.5326L61.4016 59.9594L49.7121 52.5991L80.2089 4.17227L91.8984 11.5326ZM96.0635 10.584L79.2532 0L46.0391 52.7418L62.8494 63.3258L96.0635 10.584Z" fill="#87F9F9"/>
<path d="M56.747 85.2031L23.5343 137.944L40.3421 148.528L73.5548 95.7875L56.747 85.2031Z" fill="#82DAF9"/>
<path d="M34.439 71.1608L1.22632 123.902L18.0341 134.486L51.2469 81.7453L34.439 71.1608Z" fill="#82DAF9"/>
<path d="M118.38 119.256C119.086 119.826 118.458 121.609 116.982 123.235C115.506 124.861 113.744 125.724 113.038 125.154C112.332 124.583 114.364 124.12 115.841 122.486C117.317 120.86 117.681 118.685 118.38 119.248V119.256Z" fill="#A4FBFF"/>
<path d="M140.996 138.94C141.181 139.824 139.569 140.809 137.401 141.144C135.226 141.472 133.314 141.03 133.129 140.138C132.943 139.254 134.812 140.174 136.98 139.839C139.156 139.511 140.81 138.049 140.996 138.933V138.94Z" fill="#A4FBFF"/>
<path d="M155.538 148.561C154.982 147.848 156.002 146.258 157.806 145.002C159.618 143.754 161.529 143.319 162.085 144.032C162.642 144.746 160.559 144.738 158.747 145.987C156.936 147.235 156.087 149.267 155.538 148.554V148.561Z" fill="#A4FBFF"/>
<path d="M91.8984 11.5326L88.7032 16.6106L77.0138 9.25031L80.2089 4.17227L91.8984 11.5326ZM96.0635 10.584L79.2532 0L72.8344 10.1918L89.6447 20.7758L96.0635 10.584Z" fill="#6B92C9"/>
<path d="M86.4852 20.1267L83.29 25.2048L71.6005 17.8445L74.7957 12.7664L86.4852 20.1267ZM90.6503 19.1782L73.84 8.59418L67.4211 18.7859L84.2315 29.3699L90.6503 19.1782Z" fill="#6B92C9"/>
<path d="M81.079 28.7066L77.8839 33.7847L66.1944 26.4244L69.3895 21.3463L81.079 28.7066ZM85.2513 27.7581L68.441 17.1741L62.0221 27.3658L78.8324 37.9498L85.2513 27.7581Z" fill="#6B92C9"/>
<path d="M75.68 37.2794L72.4848 42.3575L60.7953 34.9971L63.9905 29.9191L75.68 37.2794ZM79.8522 36.3308L63.0419 25.7468L56.623 35.9386L73.4334 46.5226L79.8522 36.3308Z" fill="#6B92C9"/>
<path d="M70.281 45.8593L67.0858 50.9373L55.3963 43.577L58.5915 38.499L70.281 45.8593ZM74.4461 44.9107L57.6358 34.3267L51.2169 44.5185L68.0272 55.1025L74.4461 44.9107Z" fill="#6B92C9"/>
<path d="M64.8749 54.4392L61.6798 59.5172L49.9903 52.1569L53.1854 47.0789L64.8749 54.4392ZM69.0472 53.4906L52.2369 42.9066L45.818 53.0984L62.6283 63.6824L69.0472 53.4906Z" fill="#6B92C9"/>
<path d="M114.2 25.5757L83.7036 74.0025L72.0142 66.6422L102.511 18.2154L114.2 25.5757ZM118.373 24.6271L101.562 14.0431L68.3483 66.7849L85.1586 77.3689L118.373 24.6271Z" fill="#6B92C9"/>
<path d="M114.2 25.5757L111.005 30.6537L99.3158 23.2934L102.511 18.2154L114.2 25.5757ZM118.373 24.6271L101.562 14.0431L95.1436 24.2348L111.954 34.8189L118.373 24.6271Z" fill="#6B92C9"/>
<path d="M108.787 34.1698L105.592 39.2478L93.9025 31.8875L97.0977 26.8095L108.787 34.1698ZM112.959 33.2284L96.1491 22.6443L89.7302 32.8361L106.541 43.4201L112.959 33.2284Z" fill="#6B92C9"/>
<path d="M103.381 42.7497L100.186 47.8278L88.4964 40.4675L91.6915 35.3894L103.381 42.7497ZM107.553 41.8012L90.743 31.2172L84.3241 41.4089L101.134 51.9929L107.553 41.8012Z" fill="#6B92C9"/>
<path d="M97.9821 51.3296L94.7869 56.4077L83.0974 49.0474L86.2926 43.9693L97.9821 51.3296ZM102.154 50.3811L85.344 39.7971L78.9252 49.9888L95.7355 60.5728L102.154 50.3811Z" fill="#6B92C9"/>
<path d="M92.583 59.9024L89.3879 64.9804L77.6984 57.6201L80.8936 52.5421L92.583 59.9024ZM96.7553 58.961L79.945 48.377L73.5261 58.5687L90.3364 69.1527L96.7553 58.961Z" fill="#6B92C9"/>
<path d="M87.1769 68.4823L83.9818 73.5603L72.2923 66.2L75.4874 61.122L87.1769 68.4823ZM91.3492 67.5337L74.5389 56.9497L68.12 67.1415L84.9303 77.7255L91.3492 67.5337Z" fill="#6B92C9"/>
<path d="M69.3823 96.7467L38.586 145.644L26.8965 138.284L57.6928 89.3864L69.3823 96.7467ZM73.5546 95.7981L56.7443 85.2141L23.5302 137.956L40.3405 148.54L73.5546 95.7981Z" fill="#6B92C9"/>
<path d="M69.3824 96.7467L66.1872 101.825L54.4977 94.4644L57.6929 89.3864L69.3824 96.7467ZM73.5546 95.7981L56.7443 85.2141L50.3254 95.4059L67.1358 105.99L73.5546 95.7981Z" fill="#6B92C9"/>
<path d="M63.9692 105.341L60.774 110.419L49.0845 103.059L52.2797 97.9805L63.9692 105.341ZM68.1414 104.392L51.3311 93.8082L44.9122 104L61.7226 114.584L68.1414 104.392Z" fill="#6B92C9"/>
<path d="M58.5702 113.921L55.375 118.999L43.6855 111.638L46.8807 106.56L58.5702 113.921ZM62.7353 112.972L45.925 102.388L39.5061 112.58L56.3164 123.164L62.7353 112.972Z" fill="#6B92C9"/>
<path d="M53.164 122.494L49.9688 127.572L38.2793 120.211L41.4745 115.133L53.164 122.494ZM57.3363 121.545L40.5259 110.961L34.1071 121.153L50.9174 131.737L57.3363 121.545Z" fill="#6B92C9"/>
<path d="M47.765 131.073L44.5699 136.151L32.8804 128.791L36.0756 123.713L47.765 131.073ZM51.9373 130.125L35.127 119.541L28.7081 129.733L45.5184 140.317L51.9373 130.125Z" fill="#6B92C9"/>
<path d="M42.3589 139.653L39.1638 144.731L27.4743 137.371L30.6695 132.293L42.3589 139.653ZM46.5312 138.705L29.7209 128.121L23.302 138.312L40.1123 148.896L46.5312 138.705Z" fill="#6B92C9"/>
<path d="M47.0804 82.6965L17.09 130.317L5.40047 122.957L35.3909 75.3362L47.0804 82.6965ZM51.2455 81.7551L34.4352 71.1711L1.22107 123.913L18.0314 134.497L51.2455 81.7551Z" fill="#6B92C9"/>
<path d="M47.0804 82.6965L43.8852 87.7746L32.1958 80.4143L35.3909 75.3362L47.0804 82.6965ZM51.2455 81.7551L34.4352 71.1711L28.0164 81.3628L44.8267 91.9468L51.2455 81.7551Z" fill="#6B92C9"/>
<path d="M41.6671 91.2978L38.4719 96.3759L26.7824 89.0156L29.9776 83.9375L41.6671 91.2978ZM45.8322 90.3493L29.0219 79.7653L22.603 89.957L39.4133 100.541L45.8322 90.3493Z" fill="#6B92C9"/>
<path d="M36.261 99.8706L33.0658 104.949L21.3764 97.5883L24.5715 92.5103L36.261 99.8706ZM40.4333 98.922L23.623 88.338L17.2041 98.5298L34.0144 109.114L40.4333 98.922Z" fill="#6B92C9"/>
<path d="M30.8621 108.45L27.6669 113.529L15.9774 106.168L19.1726 101.09L30.8621 108.45ZM35.0344 107.502L18.2241 96.9179L11.8052 107.11L28.6155 117.694L35.0344 107.502Z" fill="#6B92C9"/>
<path d="M25.4631 117.03L22.2679 122.108L10.5784 114.748L13.7736 109.67L25.4631 117.03ZM29.6282 116.082L12.8179 105.498L6.39905 115.69L23.2094 126.274L29.6282 116.082Z" fill="#6B92C9"/>
<path d="M20.0569 125.603L16.8618 130.681L5.17227 123.321L8.36744 118.243L20.0569 125.603ZM24.2292 124.655L7.41887 114.071L1 124.262L17.8103 134.846L24.2292 124.655Z" fill="#6B92C9"/>
<path d="M210.719 185.748L207.524 190.826L195.834 183.466L199.029 178.388L210.719 185.748ZM214.891 184.807L198.081 174.223L191.662 184.414L208.472 194.998L214.891 184.807Z" fill="#6B92C9"/>
<path d="M205.306 194.349L202.11 199.427L190.421 192.067L193.616 186.989L205.306 194.349ZM209.478 193.401L192.668 182.817L186.249 193.008L203.059 203.592L209.478 193.401Z" fill="#6B92C9"/>
<path d="M199.907 202.922L196.712 208L185.022 200.64L188.217 195.562L199.907 202.922ZM204.072 201.981L187.262 191.397L180.843 201.588L197.653 212.172L204.072 201.981Z" fill="#6B92C9"/>
<path d="M194.501 211.502L191.305 216.58L179.616 209.22L182.811 204.142L194.501 211.502ZM198.673 210.553L181.862 199.969L175.444 210.161L192.254 220.745L198.673 210.553Z" fill="#6B92C9"/>
<path d="M189.102 220.082L185.906 225.16L174.217 217.8L177.412 212.722L189.102 220.082ZM193.274 219.133L176.464 208.549L170.045 218.741L186.855 229.325L193.274 219.133Z" fill="#6B92C9"/>
<path d="M183.703 228.655L180.507 233.733L168.818 226.372L172.013 221.294L183.703 228.655ZM187.868 227.706L171.057 217.122L164.639 227.314L181.449 237.898L187.868 227.706Z" fill="#6B92C9"/>
<path d="M233.021 199.798L229.826 204.876L218.136 197.516L221.331 192.438L233.021 199.798ZM237.193 198.85L220.383 188.266L213.964 198.457L230.774 209.041L237.193 198.85Z" fill="#6B92C9"/>
<path d="M227.608 208.392L224.413 213.47L212.723 206.11L215.918 201.032L227.608 208.392ZM231.78 207.444L214.97 196.86L208.551 207.052L225.361 217.636L231.78 207.444Z" fill="#6B92C9"/>
<path d="M222.209 216.972L219.013 222.05L207.324 214.69L210.519 209.612L222.209 216.972ZM226.381 216.024L209.571 205.44L203.152 215.631L219.962 226.215L226.381 216.024Z" fill="#6B92C9"/>
<path d="M216.81 225.545L213.614 230.623L201.925 223.263L205.12 218.185L216.81 225.545ZM220.975 224.604L204.164 214.02L197.746 224.211L214.556 234.795L220.975 224.604Z" fill="#6B92C9"/>
<path d="M211.404 234.125L208.208 239.203L196.519 231.843L199.714 226.765L211.404 234.125ZM215.576 233.176L198.766 222.592L192.347 232.784L209.157 243.368L215.576 233.176Z" fill="#6B92C9"/>
<path d="M206.005 242.705L202.809 247.783L191.12 240.423L194.315 235.344L206.005 242.705ZM210.177 241.756L193.367 231.172L186.948 241.364L203.758 251.948L210.177 241.756Z" fill="#6B92C9"/>
<path d="M255.537 114.584L252.342 119.662L240.652 112.302L243.847 107.224L255.537 114.584ZM259.709 113.636L242.899 103.052L236.48 113.243L253.29 123.827L259.709 113.636Z" fill="#6B92C9"/>
<path d="M250.124 123.178L246.929 128.256L235.239 120.896L238.434 115.818L250.124 123.178ZM254.296 122.23L237.486 111.646L231.067 121.837L247.877 132.421L254.296 122.23Z" fill="#6B92C9"/>
<path d="M244.725 131.758L241.53 136.836L229.84 129.476L233.035 124.398L244.725 131.758ZM248.89 130.81L232.08 120.226L225.661 130.417L242.471 141.001L248.89 130.81Z" fill="#6B92C9"/>
<path d="M239.319 140.331L236.123 145.409L224.434 138.049L227.629 132.971L239.319 140.331ZM243.491 139.389L226.681 128.805L220.262 138.997L237.072 149.581L243.491 139.389Z" fill="#6B92C9"/>
<path d="M233.92 148.911L230.724 153.989L219.035 146.629L222.23 141.551L233.92 148.911ZM238.092 147.962L221.282 137.378L214.863 147.57L231.673 158.154L238.092 147.962Z" fill="#6B92C9"/>
<path d="M228.521 157.491L225.325 162.569L213.636 155.208L216.831 150.13L228.521 157.491ZM232.686 156.542L215.875 145.958L209.457 156.15L226.267 166.734L232.686 156.542Z" fill="#6B92C9"/>
<path d="M277.839 128.627L274.644 133.705L262.954 126.345L266.149 121.267L277.839 128.627ZM282.011 127.679L265.201 117.095L258.782 127.286L275.592 137.87L282.011 127.679Z" fill="#6B92C9"/>
<path d="M272.426 137.221L269.23 142.299L257.541 134.939L260.736 129.861L272.426 137.221ZM276.598 136.28L259.788 125.696L253.369 135.888L270.179 146.472L276.598 136.28Z" fill="#6B92C9"/>
<path d="M267.027 145.801L263.831 150.879L252.142 143.519L255.337 138.441L267.027 145.801ZM271.199 144.853L254.389 134.269L247.97 144.46L264.78 155.044L271.199 144.853Z" fill="#6B92C9"/>
<path d="M261.621 154.381L258.425 159.459L246.736 152.099L249.931 147.021L261.621 154.381ZM265.793 153.432L248.982 142.849L242.564 153.04L259.374 163.624L265.793 153.432Z" fill="#6B92C9"/>
<path d="M256.221 162.954L253.026 168.032L241.337 160.672L244.532 155.594L256.221 162.954ZM260.394 162.012L243.583 151.428L237.165 161.62L253.975 172.204L260.394 162.012Z" fill="#6B92C9"/>
<path d="M250.823 171.534L247.627 176.612L235.938 169.251L239.133 164.173L250.823 171.534ZM254.995 170.585L238.184 160.001L231.766 170.193L248.576 180.777L254.995 170.585Z" fill="#6B92C9"/>
<path d="M113.459 174.094L112.945 174.059C112.717 174.03 112.503 174.002 112.296 173.952H112.253C112.204 173.93 112.161 173.923 112.111 173.909C111.997 173.88 111.883 173.852 111.768 173.823L111.326 175.82C111.269 176.098 111.576 176.305 111.804 176.134L114.707 174.044H114.671C114.265 174.094 113.858 174.108 113.452 174.094H113.459Z" fill="#B5B5B5"/>
<path d="M109.03 167.668L110.299 169.323C110.328 169.358 110.363 169.387 110.399 169.408C110.513 169.294 110.634 169.187 110.763 169.08C110.763 169.08 110.763 169.08 110.77 169.073C111.062 168.816 111.355 168.602 111.69 168.403L112.132 168.153C112.346 168.039 112.574 167.939 112.795 167.846C112.781 167.846 112.774 167.839 112.76 167.832C112.76 167.832 112.753 167.832 112.746 167.832L109.664 167.247C109.664 167.247 109.664 167.247 109.657 167.247L109.329 167.183C109.051 167.133 108.859 167.447 109.03 167.675V167.668Z" fill="#B5B5B5"/>
<path d="M119.735 169.972C119.87 169.715 119.799 169.401 119.571 169.23C118.073 168.089 116.098 167.597 114.115 168.039C113.373 168.203 112.688 168.488 112.075 168.866L112.154 169.23L112.639 171.413L113.102 173.481C113.815 173.559 114.557 173.531 115.299 173.367C117.281 172.925 118.858 171.641 119.735 169.972ZM115.962 171.077C115.506 170.742 115.406 170.1 115.748 169.644C116.083 169.187 116.725 169.087 117.182 169.43C117.638 169.765 117.738 170.407 117.396 170.863C117.06 171.32 116.419 171.42 115.962 171.077Z" fill="#B5B5B5"/>
<path d="M112.36 172.761L111.569 169.202C111.462 169.28 111.362 169.366 111.262 169.444C111.169 169.523 111.098 169.608 111.012 169.687C110.97 169.729 110.92 169.772 110.877 169.815C110.791 169.901 110.699 169.979 110.613 170.072C110.456 170.243 110.313 170.428 110.178 170.621L110.67 172.689C111.241 173.003 111.861 173.238 112.503 173.374L112.368 172.753L112.36 172.761Z" fill="#B5B5B5"/>
<path d="M161.943 100.199L161.985 100.705C162 100.933 162 101.154 161.985 101.361V101.404C161.985 101.454 161.978 101.504 161.971 101.547C161.964 101.668 161.957 101.782 161.943 101.896L163.99 102.003C164.275 102.017 164.425 101.675 164.225 101.475L161.686 98.9577V98.9862C161.807 99.3785 161.893 99.7779 161.936 100.184L161.943 100.199Z" fill="#B5B5B5"/>
<path d="M156.33 105.612L157.756 104.093C157.756 104.093 157.806 104.021 157.82 103.979C157.692 103.879 157.564 103.779 157.435 103.672C157.435 103.672 157.435 103.672 157.428 103.665C157.129 103.422 156.865 103.166 156.615 102.866L156.294 102.474C156.144 102.281 156.009 102.074 155.88 101.868C155.88 101.882 155.88 101.889 155.88 101.903C155.88 101.903 155.88 101.91 155.88 101.917L155.802 105.056C155.802 105.056 155.802 105.056 155.802 105.063V105.398C155.788 105.683 156.13 105.826 156.33 105.619V105.612Z" fill="#B5B5B5"/>
<path d="M156.85 94.6784C156.579 94.5857 156.28 94.707 156.144 94.9637C155.267 96.6326 155.096 98.6581 155.859 100.541C156.144 101.247 156.537 101.875 157.007 102.417L157.357 102.274L159.432 101.44L161.393 100.648C161.358 99.9277 161.208 99.2073 160.923 98.5012C160.167 96.6184 158.64 95.2704 156.85 94.6784ZM158.562 98.216C158.305 98.7223 157.685 98.922 157.186 98.6653C156.679 98.4085 156.479 97.788 156.736 97.2888C156.993 96.7824 157.613 96.5827 158.113 96.8395C158.619 97.0962 158.819 97.7167 158.562 98.216Z" fill="#B5B5B5"/>
<path d="M160.809 101.497L157.428 102.859C157.521 102.952 157.621 103.037 157.72 103.116C157.813 103.194 157.913 103.251 158.006 103.323C158.056 103.358 158.106 103.401 158.155 103.437C158.255 103.508 158.348 103.586 158.448 103.658C158.648 103.786 158.847 103.9 159.061 104L161.023 103.18C161.237 102.567 161.372 101.917 161.401 101.254L160.809 101.49V101.497Z" fill="#B5B5B5"/>
</g>
<defs>
<filter id="filter0_d_125_3884" x="0" y="0" width="285.014" height="255.948" filterUnits="userSpaceOnUse" color-interpolation-filters="sRGB">
<feFlood flood-opacity="0" result="BackgroundImageFix"/>
<feColorMatrix in="SourceAlpha" type="matrix" values="0 0 0 0 0 0 0 0 0 0 0 0 0 0 0 0 0 0 127 0" result="hardAlpha"/>
<feOffset dx="1" dy="2"/>
<feGaussianBlur stdDeviation="1"/>
<feComposite in2="hardAlpha" operator="out"/>
<feColorMatrix type="matrix" values="0 0 0 0 0 0 0 0 0 0 0 0 0 0 0 0 0 0 0.25 0"/>
<feBlend mode="normal" in2="BackgroundImageFix" result="effect1_dropShadow_125_3884"/>
<feBlend mode="normal" in="SourceGraphic" in2="effect1_dropShadow_125_3884" result="shape"/>
</filter>
<linearGradient id="paint0_linear_125_3884" x1="176.8" y1="111.385" x2="189.009" y2="119.073" gradientUnits="userSpaceOnUse">
<stop stop-color="#F9F964"/>
<stop offset="0.32" stop-color="#FBD554"/>
<stop offset="0.77" stop-color="#FDA840"/>
<stop offset="1" stop-color="#FF9739"/>
</linearGradient>
<linearGradient id="paint1_linear_125_3884" x1="96.3492" y1="159.307" x2="84.1402" y2="151.619" gradientUnits="userSpaceOnUse">
<stop stop-color="#F9F964"/>
<stop offset="0.32" stop-color="#FBD554"/>
<stop offset="0.77" stop-color="#FDA840"/>
<stop offset="1" stop-color="#FF9739"/>
</linearGradient>
<linearGradient id="paint2_linear_125_3884" x1="132.352" y1="181.966" x2="144.561" y2="189.655" gradientUnits="userSpaceOnUse">
<stop stop-color="#F9F964"/>
<stop offset="0.32" stop-color="#FBD554"/>
<stop offset="0.77" stop-color="#FDA840"/>
<stop offset="1" stop-color="#FF9739"/>
</linearGradient>
<linearGradient id="paint3_linear_125_3884" x1="140.806" y1="88.7103" x2="128.597" y2="81.0219" gradientUnits="userSpaceOnUse">
<stop stop-color="#F9F964"/>
<stop offset="0.32" stop-color="#FBD554"/>
<stop offset="0.77" stop-color="#FDA840"/>
<stop offset="1" stop-color="#FF9739"/>
</linearGradient>
<linearGradient id="paint4_linear_125_3884" x1="129.152" y1="130.664" x2="141.361" y2="138.352" gradientUnits="userSpaceOnUse">
<stop stop-color="#F9F964"/>
<stop offset="0.32" stop-color="#FBD554"/>
<stop offset="0.77" stop-color="#FDA840"/>
<stop offset="1" stop-color="#FF9739"/>
</linearGradient>
</defs>
</svg>
