<svg width="50" height="50" viewBox="0 0 50 50" fill="none" xmlns="http://www.w3.org/2000/svg">
<g clip-path="url(#clip0_74_3536)">
<path d="M38.2812 0H11.7188C5.24666 0 0 5.24666 0 11.7188V38.2812C0 44.7533 5.24666 50 11.7188 50H38.2812C44.7533 50 50 44.7533 50 38.2812V11.7188C50 5.24666 44.7533 0 38.2812 0Z" fill="#242938"/>
<g filter="url(#filter0_d_74_3536)">
<path d="M10.94 35.2693C13.5302 35.2693 15.6299 33.6988 15.6299 31.7616C15.6299 29.8244 13.5302 28.2539 10.94 28.2539C8.34978 28.2539 6.25 29.8244 6.25 31.7616C6.25 33.6988 8.34978 35.2693 10.94 35.2693Z" fill="#357EFC"/>
<path d="M9.66486 30.0416C11.1915 29.7485 10.7055 30.6914 10.896 31.6758C11.0841 32.6602 12.3909 33.2391 10.8642 33.5322C9.33755 33.8253 7.94522 33.2635 7.75714 32.2767C7.56905 31.2898 8.13818 30.3323 9.66486 30.0416Z" fill="#357EFC"/>
<path d="M43.5546 29.1385C43.5546 31.0756 41.449 32.485 38.8647 32.6462C33.3247 32.9931 36.7982 31.0756 36.7982 29.1385C36.7982 27.2015 36.2754 25.6309 38.8647 25.6309C41.4539 25.6309 43.5546 27.2015 43.5546 29.1385Z" fill="#357EFC"/>
<path d="M39.1847 31.1824C37.9707 31.3509 39.0357 30.071 39.2776 29.0988C39.5194 28.1242 38.9722 26.9688 40.2693 27.2888C41.5663 27.6088 42.4237 28.6591 42.1843 29.6337C41.9425 30.6084 40.5111 30.9992 39.1872 31.1848L39.1847 31.1824Z" fill="#357EFC"/>
<path d="M24.9023 41.5055C32.5947 41.5055 38.8305 34.5544 38.8305 25.9798C38.8305 17.4052 32.5947 10.4541 24.9023 10.4541C17.21 10.4541 10.9742 17.4052 10.9742 25.9798C10.9742 34.5544 17.21 41.5055 24.9023 41.5055Z" fill="#CDCDCD"/>
<path d="M24.9023 41.5055C32.5947 41.5055 38.8305 34.5544 38.8305 25.9798C38.8305 17.4052 32.5947 10.4541 24.9023 10.4541C17.21 10.4541 10.9742 17.4052 10.9742 25.9798C10.9742 34.5544 17.21 41.5055 24.9023 41.5055Z" fill="#357EFC"/>
<path d="M24.8657 33.1935L23.6688 33.0152C23.0947 32.9297 22.8554 32.0747 23.2389 31.4763L24.0376 30.2281L24.8364 28.9799C25.2199 28.3814 25.938 28.4889 26.1285 29.1728L26.5267 30.5993L26.9249 32.0259C27.1154 32.7098 26.6366 33.4573 26.0626 33.3718L24.8657 33.1935Z" fill="#357EFC"/>
<path d="M22.7967 20.5153C22.9531 19.9217 22.5036 19.3453 21.8905 19.3428C18.952 19.3306 16.2626 21.2872 15.476 24.26C15.393 24.5751 15.3417 24.8877 15.3051 25.2028C16.4091 22.6087 19.0472 21.0063 21.8392 21.2042C22.2814 21.2359 22.6819 20.9428 22.7967 20.5153Z" fill="#357EFC"/>
<path d="M20.9354 30.8722C23.2018 30.8722 25.0391 28.7505 25.0391 26.1333C25.0391 23.5162 23.2018 21.3945 20.9354 21.3945C18.669 21.3945 16.8317 23.5162 16.8317 26.1333C16.8317 28.7505 18.669 30.8722 20.9354 30.8722Z" fill="#357EFC"/>
<path d="M34.2272 27.5245C34.6191 24.9396 33.1732 22.5768 30.9977 22.247C28.8222 21.9172 26.741 23.7454 26.3492 26.3303C25.9573 28.9152 27.4032 31.2781 29.5787 31.6079C31.7541 31.9377 33.8353 30.1095 34.2272 27.5245Z" fill="#357EFC"/>
<path d="M21.0984 29.1363C22.3058 29.1319 23.2802 27.9417 23.2749 26.478C23.2695 25.0143 22.2863 23.8313 21.0789 23.8357C19.8715 23.8402 18.8971 25.0303 18.9025 26.494C18.9078 27.9578 19.891 29.1408 21.0984 29.1363Z" fill="#357EFC"/>
<path d="M20.62 25.4194C21.1239 24.6772 21.184 23.839 20.7543 23.5473C20.3245 23.2556 19.5677 23.6208 19.0638 24.3631C18.56 25.1053 18.4999 25.9435 18.9296 26.2352C19.3593 26.5269 20.1161 26.1617 20.62 25.4194Z" fill="#357EFC"/>
<path d="M31.9582 27.515C32.1483 26.065 31.3743 24.7679 30.2293 24.6177C29.0843 24.4676 28.002 25.5213 27.8118 26.9713C27.6217 28.4213 28.3958 29.7184 29.5408 29.8685C30.6858 30.0186 31.7681 28.9649 31.9582 27.515Z" fill="#357EFC"/>
<path d="M29.4804 25.9185C29.9896 25.1684 30.0612 24.3288 29.6404 24.0432C29.2196 23.7575 28.4657 24.134 27.9565 24.8841C27.4474 25.6341 27.3757 26.4738 27.7965 26.7594C28.2173 27.0451 28.9712 26.6686 29.4804 25.9185Z" fill="#357EFC"/>
<path d="M17.1102 27.8306C17.7013 29.6089 19.1889 30.8717 20.9378 30.8717C22.8627 30.8717 24.4724 29.3402 24.9145 27.2761C22.3033 27.0538 19.6603 27.2126 17.1102 27.8282V27.8306Z" fill="#357EFC"/>
<path d="M26.2775 27.4277C26.3777 29.4942 27.6381 31.2383 29.4457 31.5779C31.0628 31.8807 32.6578 30.9721 33.5494 29.4161C31.2435 28.4561 28.7837 27.7697 26.2775 27.4302V27.4277Z" fill="#357EFC"/>
<path d="M26.9689 32.619C26.8883 33.2297 25.9283 33.6059 24.8217 33.4617C23.7152 33.3176 22.8847 32.7045 22.9653 32.0938C23.0459 31.4832 23.7665 32.3967 24.873 32.5408C25.9796 32.685 27.0519 32.0083 26.9713 32.619H26.9689Z" fill="#357EFC"/>
<path d="M38.8281 25.6307C38.8281 25.6307 41.4735 13.642 35.7234 10.4518C31.4145 8.06046 28.2024 10.8915 28.2024 10.8915C28.2024 10.8915 26.0602 8.28274 20.9354 8.40243C17.7575 8.47816 14.626 12.3059 14.626 12.3059C14.626 12.3059 9.75284 12.6967 9.34735 15.772C8.93942 18.8474 9.49392 23.0927 9.65758 23.6057C9.82124 24.1187 11.1622 28.259 11.1622 28.259C11.1622 28.259 15.5762 20.782 15.8449 19.4116C16.1136 18.0437 16.48 15.9919 16.48 15.9919C16.48 15.9919 20.1391 17.8214 26.4364 17.6016C32.7311 17.3817 35.4792 15.8819 35.4792 15.8819C35.4792 15.8819 37.426 23.9721 38.8281 25.6307Z" fill="#357EFC"/>
<path d="M26.5121 40.0495C26.4828 40.4917 25.557 40.7897 24.4431 40.714C23.3293 40.6407 22.4524 40.223 22.4817 39.7808C22.511 39.3387 23.3048 39.9763 24.4163 40.0495C25.5277 40.1228 26.5414 39.6074 26.5121 40.0495Z" fill="#357EFC"/>
<path d="M34.9491 14.1009C35.0028 14.4771 33.1097 15.0609 30.7159 15.4053C28.3245 15.7497 26.3411 15.7253 26.2873 15.3491C26.2336 14.9729 28.0925 15.2099 30.4839 14.8655C32.8753 14.5211 34.8953 13.7223 34.9491 14.0985V14.1009Z" fill="#357EFC"/>
<path d="M10.8276 24.8709C10.4343 24.8709 10.1143 22.8874 10.1143 20.4374C10.1143 17.9898 10.4343 16.0039 10.8276 16.0039C11.2208 16.0039 10.703 17.8335 10.703 20.281C10.703 22.7286 11.2208 24.8684 10.8276 24.8684V24.8709Z" fill="#357EFC"/>
<path d="M26.5585 35.9508C26.517 36.3905 25.5838 36.6665 24.4749 36.5639C23.3634 36.4613 22.4963 36.0216 22.5354 35.582C22.5769 35.1423 23.3537 35.7969 24.4627 35.8995C25.5741 36.0021 26.5976 35.5087 26.5585 35.9508Z" fill="#357EFC"/>
<path d="M28.2342 20.904C28.0778 20.3104 28.5273 19.7339 29.1404 19.7315C32.079 19.7193 34.7684 21.6759 35.5549 24.6486C35.638 24.9637 35.6892 25.2764 35.7259 25.5915C34.6218 22.9974 31.9837 21.395 29.1917 21.5928C28.7496 21.6246 28.349 21.3315 28.2342 20.904Z" fill="#357EFC"/>
</g>
<g filter="url(#filter1_d_74_3536)">
<path d="M21.2942 25.5705C21.0945 25.1192 20.9914 24.631 20.9916 24.1374C20.9916 22.237 22.4843 20.6976 24.3259 20.6976C26.1674 20.6976 27.6601 22.2375 27.6601 24.1374C27.6603 24.631 27.5572 25.1192 27.3575 25.5705M24.3259 18.9023V19.4153M29.4555 24.0317H28.9425M19.7092 24.0317H19.1962M27.9525 20.4047L27.5898 20.7674M21.0619 20.7679L20.6992 20.4053M25.617 27.7798C26.1351 27.612 26.3433 27.1376 26.4018 26.6605C26.4193 26.5179 26.3018 26.3994 26.1582 26.3994H22.5187C22.4836 26.3989 22.4488 26.4058 22.4166 26.4197C22.3844 26.4336 22.3555 26.4541 22.3318 26.48C22.3082 26.5059 22.2903 26.5366 22.2793 26.5699C22.2684 26.6032 22.2647 26.6385 22.2684 26.6734C22.3258 27.1494 22.4705 27.4971 23.0193 27.7793M25.617 27.7798L23.0193 27.7793M25.617 27.7798C25.5549 28.7774 25.2666 29.1724 24.3295 29.1611C23.3271 29.1796 23.0963 28.6907 23.0193 27.7793" stroke="#FCB932" stroke-linecap="round" stroke-linejoin="round" shape-rendering="crispEdges"/>
</g>
<g filter="url(#filter2_d_74_3536)">
<path d="M14.5134 28.5735V27.1601C14.5134 26.1067 14.1783 25.5887 13.2331 25.4219C12.6316 25.3078 12.3567 24.8689 12.3567 24.1403C12.3567 23.3678 12.6402 22.9815 13.2331 22.8761C14.1611 22.7006 14.5134 22.1914 14.5134 21.138V19.7334C14.5134 17.4422 15.5874 16.459 17.8386 16.459C18.0964 16.459 18.3112 16.4853 18.4916 16.5468C18.9728 16.696 19.1962 17.0384 19.1962 17.4334C19.1962 17.8811 18.9986 18.1533 18.5861 18.2674C18.4916 18.2937 18.3885 18.3113 18.2768 18.3288C17.2887 18.4342 16.902 18.8555 16.902 20.0319V21.8227C16.902 23.0868 16.1115 23.8418 14.6508 24.0086V24.2895C16.1115 24.4475 16.902 25.2025 16.902 26.4754V28.275C16.902 29.4425 17.2887 29.8727 18.2768 29.978C18.3885 29.9868 18.4916 30.0044 18.5776 30.0307C18.99 30.1448 19.1962 30.417 19.1962 30.8647C19.1962 31.2861 18.9556 31.6372 18.4143 31.7777C18.251 31.8216 18.062 31.8479 17.8386 31.8479C15.5874 31.8479 14.5134 30.8647 14.5134 28.5735Z" fill="#C01ABE"/>
</g>
<g filter="url(#filter3_d_74_3536)">
<path d="M34.1383 28.5735V27.1601C34.1383 26.1067 34.4734 25.5887 35.4186 25.4219C36.02 25.3078 36.295 24.8689 36.295 24.1403C36.295 23.3678 36.0114 22.9815 35.4186 22.8761C34.4906 22.7006 34.1383 22.1914 34.1383 21.138V19.7334C34.1383 17.4422 33.0643 16.459 30.8131 16.459C30.5553 16.459 30.3405 16.4853 30.16 16.5468C29.6789 16.696 29.4555 17.0384 29.4555 17.4334C29.4555 17.8811 29.6531 18.1533 30.0655 18.2674C30.16 18.2937 30.2632 18.3113 30.3749 18.3288C31.363 18.4342 31.7496 18.8555 31.7496 20.0319V21.8227C31.7496 23.0868 32.5401 23.8418 34.0008 24.0086V24.2895C32.5401 24.4475 31.7496 25.2025 31.7496 26.4754V28.275C31.7496 29.4425 31.363 29.8727 30.3749 29.978C30.2632 29.9868 30.16 30.0044 30.0741 30.0307C29.6617 30.1448 29.4555 30.417 29.4555 30.8647C29.4555 31.2861 29.6961 31.6372 30.2374 31.7777C30.4006 31.8216 30.5897 31.8479 30.8131 31.8479C33.0643 31.8479 34.1383 30.8647 34.1383 28.5735Z" fill="#C01ABE"/>
</g>
</g>
<defs>
<filter id="filter0_d_74_3536" x="5.25" y="8.39844" width="41.3046" height="37.1074" filterUnits="userSpaceOnUse" color-interpolation-filters="sRGB">
<feFlood flood-opacity="0" result="BackgroundImageFix"/>
<feColorMatrix in="SourceAlpha" type="matrix" values="0 0 0 0 0 0 0 0 0 0 0 0 0 0 0 0 0 0 127 0" result="hardAlpha"/>
<feOffset dx="1" dy="2"/>
<feGaussianBlur stdDeviation="1"/>
<feComposite in2="hardAlpha" operator="out"/>
<feColorMatrix type="matrix" values="0 0 0 0 0 0 0 0 0 0 0 0 0 0 0 0 0 0 0.25 0"/>
<feBlend mode="normal" in2="BackgroundImageFix" result="effect1_dropShadow_74_3536"/>
<feBlend mode="normal" in="SourceGraphic" in2="effect1_dropShadow_74_3536" result="shape"/>
</filter>
<filter id="filter1_d_74_3536" x="17.6962" y="18.4023" width="15.2593" height="15.2588" filterUnits="userSpaceOnUse" color-interpolation-filters="sRGB">
<feFlood flood-opacity="0" result="BackgroundImageFix"/>
<feColorMatrix in="SourceAlpha" type="matrix" values="0 0 0 0 0 0 0 0 0 0 0 0 0 0 0 0 0 0 127 0" result="hardAlpha"/>
<feOffset dx="1" dy="2"/>
<feGaussianBlur stdDeviation="1"/>
<feComposite in2="hardAlpha" operator="out"/>
<feColorMatrix type="matrix" values="0 0 0 0 0 0 0 0 0 0 0 0 0 0 0 0 0 0 0.25 0"/>
<feBlend mode="normal" in2="BackgroundImageFix" result="effect1_dropShadow_74_3536"/>
<feBlend mode="normal" in="SourceGraphic" in2="effect1_dropShadow_74_3536" result="shape"/>
</filter>
<filter id="filter2_d_74_3536" x="11.3567" y="16.459" width="10.8395" height="19.3887" filterUnits="userSpaceOnUse" color-interpolation-filters="sRGB">
<feFlood flood-opacity="0" result="BackgroundImageFix"/>
<feColorMatrix in="SourceAlpha" type="matrix" values="0 0 0 0 0 0 0 0 0 0 0 0 0 0 0 0 0 0 127 0" result="hardAlpha"/>
<feOffset dx="1" dy="2"/>
<feGaussianBlur stdDeviation="1"/>
<feComposite in2="hardAlpha" operator="out"/>
<feColorMatrix type="matrix" values="0 0 0 0 0 0 0 0 0 0 0 0 0 0 0 0 0 0 0.25 0"/>
<feBlend mode="normal" in2="BackgroundImageFix" result="effect1_dropShadow_74_3536"/>
<feBlend mode="normal" in="SourceGraphic" in2="effect1_dropShadow_74_3536" result="shape"/>
</filter>
<filter id="filter3_d_74_3536" x="28.4554" y="16.459" width="10.8395" height="19.3887" filterUnits="userSpaceOnUse" color-interpolation-filters="sRGB">
<feFlood flood-opacity="0" result="BackgroundImageFix"/>
<feColorMatrix in="SourceAlpha" type="matrix" values="0 0 0 0 0 0 0 0 0 0 0 0 0 0 0 0 0 0 127 0" result="hardAlpha"/>
<feOffset dx="1" dy="2"/>
<feGaussianBlur stdDeviation="1"/>
<feComposite in2="hardAlpha" operator="out"/>
<feColorMatrix type="matrix" values="0 0 0 0 0 0 0 0 0 0 0 0 0 0 0 0 0 0 0.25 0"/>
<feBlend mode="normal" in2="BackgroundImageFix" result="effect1_dropShadow_74_3536"/>
<feBlend mode="normal" in="SourceGraphic" in2="effect1_dropShadow_74_3536" result="shape"/>
</filter>
<clipPath id="clip0_74_3536">
<rect width="50" height="50" fill="white"/>
</clipPath>
</defs>
</svg>
