<svg width="530" height="513" viewBox="0 0 530 513" fill="none" xmlns="http://www.w3.org/2000/svg">
<path opacity="0.24" d="M152 513C360.764 513 530 343.764 530 135C530 -73.7636 360.764 -243 152 -243C-56.7636 -243 -226 -73.7636 -226 135C-226 343.764 -56.7636 513 152 513Z" fill="#F9A607"/>
<path opacity="0.24" d="M152 455.408C328.957 455.408 472.408 311.957 472.408 135C472.408 -41.9569 328.957 -185.409 152 -185.409C-24.9569 -185.409 -168.409 -41.9569 -168.409 135C-168.409 311.957 -24.9569 455.408 152 455.408Z" fill="#F9A607"/>
<path d="M152 399.47C298.061 399.47 416.468 281.063 416.468 135.002C416.468 -11.06 298.061 -129.466 152 -129.466C5.9381 -129.466 -112.468 -11.06 -112.468 135.002C-112.468 281.063 5.9381 399.47 152 399.47Z" fill="#F9A607"/>
<path d="M113.747 299.473C228.158 299.473 320.907 206.724 320.907 92.313C320.907 -22.098 228.158 -114.846 113.747 -114.846C-0.663834 -114.846 -93.4124 -22.098 -93.4124 92.313C-93.4124 206.724 -0.663834 299.473 113.747 299.473Z" fill="#FBD13E"/>
<path d="M66.6267 176.273C142.041 176.273 203.176 115.137 203.176 39.7227C203.176 -35.6916 142.041 -96.827 66.6267 -96.827C-8.78769 -96.827 -69.9231 -35.6916 -69.9231 39.7227C-69.9231 115.137 -8.78769 176.273 66.6267 176.273Z" fill="#FFE580"/>
</svg>
