<svg width="504" height="504" viewBox="0 0 504 504" fill="none" xmlns="http://www.w3.org/2000/svg">
<g filter="url(#filter0_d_267_14232)">
<path d="M153.172 480.048C150.934 479.105 148.735 478.124 146.576 477.103C148.735 478.084 150.934 479.066 153.172 480.009V480.048Z" fill="#01383D"/>
<path d="M144.652 476.2C143.081 475.454 141.549 474.747 140.018 473.961C141.549 474.708 143.12 475.454 144.652 476.2Z" fill="#01383D"/>
<path d="M111.942 457.742C110.332 456.642 108.722 455.542 107.112 454.443C108.722 455.582 110.332 456.681 111.942 457.742Z" fill="#01383D"/>
<path d="M131.536 469.562C129.887 468.659 128.238 467.716 126.589 466.813C128.238 467.756 129.887 468.659 131.536 469.562Z" fill="#01383D"/>
<path d="M172.453 487.313C171.667 487.038 170.882 486.763 170.057 486.527C170.843 486.802 171.628 487.077 172.453 487.313Z" fill="#01383D"/>
<path d="M178.225 489.159C177.4 488.884 176.536 488.649 175.712 488.374C176.536 488.649 177.4 488.924 178.225 489.159Z" fill="#01383D"/>
<path d="M23.8665 327.831C4.7435 286.635 -1.42145 239.548 8.12042 193.326C8.00262 193.012 7.88451 192.658 7.80598 192.344C10.3191 181.741 13.5786 171.216 17.5446 160.809C18.6441 157.942 19.7828 155.036 21.0001 152.169C-19.759 248.031 3.91855 355.164 72.5964 425.185C39.9656 391.922 17.5049 350.294 7.29549 305.446C12.6358 313.065 18.1728 320.526 23.8665 327.831Z" fill="#023A49"/>
<path d="M317.819 429.387C337.845 442.071 358.695 453.382 379.86 464.181C406.523 448.159 430.358 427.109 449.716 401.661C430.554 390.233 411.549 378.53 392.74 366.435C372.596 393.336 346.798 414.66 317.78 429.387H317.819Z" fill="#023A49"/>
<path d="M226.17 452.833C195.895 453.736 164.953 448.277 135.267 435.632C129.73 433.276 124.311 430.684 119.05 427.935C143.748 450.359 169.35 472.036 194.913 493.636C192.204 493.007 189.534 492.34 186.864 491.594C239.364 505.614 293.434 501.686 341.732 482.875C324.808 489.473 307.217 494.225 289.193 497.013C267.714 482.915 246.667 468.227 226.17 452.793V452.833Z" fill="#023A49"/>
<path d="M183.958 490.847C183.055 490.611 182.191 490.336 181.288 490.061C182.191 490.336 183.055 490.572 183.958 490.847Z" fill="#01383D"/>
<path d="M419.167 320.331C438.604 331.837 458.63 342.44 479.166 352.023C479.795 350.648 480.423 349.234 481.012 347.86C490.122 326.457 495.973 304.504 498.879 282.512C477.439 272.734 456.352 262.287 435.541 251.134C434.01 274.344 428.669 297.671 419.167 320.331Z" fill="#023A49"/>
<path d="M24.6124 144.198C25.1621 143.02 25.7121 141.842 26.3011 140.703C33.7618 125.348 42.636 111.053 52.6491 97.9363C52.7669 98.4076 52.8846 98.8788 53.0416 99.3108C64.429 85.4872 77.348 73.3131 91.4448 62.9062C91.0914 61.4138 90.7774 59.8822 90.5417 58.3899C109.311 42.7206 130.162 29.9574 152.426 20.4144C153.33 23.831 154.311 27.1691 155.332 30.5464C179.364 23.0063 204.809 19.629 230.45 20.8856C227.583 14.6807 223.774 8.47587 218.591 2.19244C236.065 -0.124578 253.892 -0.595843 271.759 0.896473C274.625 12.8743 282.91 21.8674 289.507 32.1958C294.533 33.9238 299.52 35.8088 304.468 37.9295C360.973 61.9636 401.968 107.283 422.072 160.535C446.261 171.295 471.038 180.799 493.892 190.931C475.829 116.944 424.311 52.1065 348.84 20.0217C223.539 -33.2697 78.9972 23.5954 23.2775 147.104C23.5916 146.437 23.9057 145.808 24.1805 145.18C24.3376 144.866 24.4553 144.552 24.6124 144.237V144.198Z" fill="#023A49"/>
<path d="M470.763 369.068C470.41 369.735 470.056 370.364 469.703 371.031C470.056 370.403 470.41 369.735 470.763 369.068Z" fill="#01383D"/>
<path d="M464.638 379.789C464.01 380.849 463.342 381.909 462.675 382.97C463.342 381.909 463.97 380.849 464.638 379.789Z" fill="#01383D"/>
<path d="M363.447 473.254C361.916 474 360.423 474.746 358.892 475.492C360.423 474.746 361.955 474 363.447 473.254Z" fill="#01383D"/>
<path d="M457.452 390.979C456.588 392.236 455.724 393.493 454.821 394.75C455.685 393.493 456.588 392.275 457.452 390.979Z" fill="#01383D"/>
<path d="M374.049 467.599C372.635 468.424 371.182 469.209 369.729 469.955C371.182 469.17 372.596 468.385 374.049 467.599Z" fill="#01383D"/>
<path d="M368.748 470.504C367.295 471.289 365.803 472.036 364.35 472.782C365.842 472.036 367.295 471.25 368.748 470.504Z" fill="#01383D"/>
<path d="M358.067 475.885C356.497 476.631 354.887 477.377 353.277 478.084C354.887 477.377 356.457 476.631 358.067 475.885Z" fill="#01383D"/>
<path d="M352.688 478.358C350.999 479.105 349.35 479.812 347.662 480.518C349.35 479.812 351.039 479.105 352.688 478.358Z" fill="#01383D"/>
<path d="M379.311 464.535C377.897 465.359 376.483 466.223 375.07 467.009C376.483 466.184 377.897 465.359 379.311 464.535Z" fill="#01383D"/>
<path d="M478.577 353.359C478.303 353.987 478.028 354.576 477.714 355.205C477.988 354.576 478.303 353.987 478.577 353.359Z" fill="#01383D"/>
<path d="M475.672 359.524C475.593 359.72 475.476 359.917 475.358 360.113C475.436 359.917 475.554 359.72 475.672 359.524Z" fill="#01383D"/>
<path d="M21.039 152.17C22.0599 149.774 23.0811 147.457 24.1806 145.101C23.8664 145.769 23.5524 146.397 23.2775 147.025C22.4922 148.714 21.7458 150.403 21.039 152.131C19.8217 154.997 18.683 157.864 17.5835 160.77C18.683 157.904 19.8217 155.037 21.039 152.17Z" fill="#078272"/>
<path d="M26.3011 140.703C25.7121 141.881 25.1622 143.02 24.6124 144.198C25.1622 143.02 25.7514 141.842 26.3011 140.703Z" fill="#078272"/>
<path d="M53.0416 99.3099C59.6385 122.951 65.4108 146.868 74.2459 170.588C104.992 246.892 168.408 301.794 228.761 356.891C238.382 365.374 248.709 375.663 258.329 384.185C276.903 401.425 296.929 416.152 317.819 429.387C346.837 414.66 372.635 393.335 392.779 366.434C341.889 333.721 292.61 297.945 246.785 255.767C198.722 213.276 147.793 173.965 113.866 115.411C105.188 99.5063 95.6464 81.4414 91.4448 62.9053C77.348 73.3122 64.3898 85.4863 53.0416 99.3099Z" fill="#0CAD83"/>
<path d="M155.332 30.5064C173.12 88.5496 208.814 140.82 249.612 183.429C299.442 236.642 356.339 283.179 419.127 320.291C428.63 297.67 433.97 274.304 435.502 251.094C410.528 237.703 385.868 223.251 361.405 207.424C319.9 180.995 290.724 149.538 258.251 112.309C258.957 113.094 260.332 114.704 257.937 111.916C249.808 102.609 244.468 90.7881 242.505 78.5747C239.285 58.4284 239.246 39.6959 230.411 20.767C204.769 19.5103 179.363 22.8877 155.293 30.4278L155.332 30.5064Z" fill="#0CAD83"/>
<path d="M304.429 37.8908C299.481 35.7702 294.494 33.8852 289.468 32.1572C292.178 36.4378 294.651 40.9147 296.301 45.9807C315.659 105.438 367.334 136.187 422.033 160.496C401.928 107.244 360.934 61.925 304.429 37.8908Z" fill="#0CAD83"/>
<path d="M23.8667 327.832C52.0997 364.001 84.6912 396.753 119.05 427.974C124.312 430.723 129.691 433.315 135.267 435.671C164.953 448.317 195.895 453.775 226.17 452.872C150.149 395.614 82.3743 328.107 32.5053 241.12C23.0419 225.333 16.0916 210.606 8.39531 194.112C8.31678 193.877 8.23849 193.602 8.15996 193.366C-1.38191 239.589 4.78304 286.675 23.906 327.871L23.8667 327.832Z" fill="#0CAD83"/>
<path d="M493.892 190.892C471.077 180.721 446.261 171.256 422.072 160.496C367.373 136.187 315.698 105.437 296.34 45.9801C294.691 40.9533 292.256 36.4372 289.507 32.1566C282.91 21.8282 274.664 12.835 271.759 0.857196C253.892 -0.63512 236.065 -0.163855 218.591 2.15316C223.774 8.4366 227.544 14.6807 230.45 20.8464C239.246 39.8145 239.285 58.5077 242.544 78.654C244.507 90.8674 249.808 102.688 257.976 111.995C260.411 114.784 258.997 113.174 258.29 112.388C290.764 149.618 319.939 181.035 361.444 207.504C385.908 223.291 410.567 237.743 435.541 251.174C456.392 262.327 477.439 272.773 498.879 282.551C502.962 251.566 501.077 220.503 493.852 190.931L493.892 190.892Z" fill="#4ED1B8"/>
<path d="M249.612 183.469C208.814 140.86 173.12 88.5893 155.332 30.5461C154.311 27.1688 153.33 23.8307 152.426 20.4141C130.201 29.957 109.311 42.7203 90.5417 58.3896C90.8166 59.9212 91.1307 61.4135 91.4448 62.9058C95.6464 81.4812 105.188 99.5461 113.866 115.412C147.793 173.966 198.683 213.237 246.785 255.768C292.61 297.946 341.889 333.722 392.779 366.435C411.588 378.531 430.593 390.233 449.756 401.661C449.952 401.387 450.148 401.151 450.345 400.876C451.444 399.423 452.543 397.931 453.604 396.438C453.996 395.889 454.429 395.3 454.821 394.71C455.685 393.454 456.588 392.236 457.452 390.94C457.923 390.234 458.394 389.527 458.865 388.82C459.611 387.681 460.358 386.542 461.104 385.403C461.614 384.578 462.164 383.754 462.675 382.929C463.342 381.869 463.97 380.808 464.638 379.748C465.188 378.845 465.737 377.902 466.287 376.999C466.837 376.057 467.386 375.075 467.936 374.132C468.525 373.072 469.114 372.051 469.703 370.991C470.056 370.362 470.41 369.695 470.763 369.027C472.373 366.082 473.905 363.097 475.397 360.073C475.476 359.877 475.593 359.68 475.711 359.484C476.418 358.07 477.085 356.617 477.753 355.164C478.028 354.536 478.342 353.947 478.617 353.318C478.813 352.886 479.049 352.454 479.245 351.983C458.708 342.362 438.682 331.758 419.245 320.291C356.457 283.18 299.56 236.643 249.73 183.43L249.612 183.469Z" fill="#4ED1B8"/>
<path d="M258.329 384.187C248.709 375.704 238.382 365.415 228.761 356.893C168.369 301.795 104.992 246.894 74.246 170.589C65.4109 146.869 59.6779 122.953 53.0417 99.3115C52.9239 98.8402 52.8062 98.369 52.6492 97.937C42.5968 111.054 33.7619 125.348 26.3012 140.704C25.7515 141.882 25.1623 143.021 24.6125 144.199C24.4555 144.513 24.3377 144.827 24.1806 145.141C23.1204 147.458 22.06 149.815 21.0391 152.21C19.8218 155.077 18.6831 157.944 17.5836 160.811C13.6176 171.218 10.3585 181.782 7.84546 192.346C7.96326 192.66 8.08137 193.013 8.1599 193.327C8.23844 193.563 8.31672 193.838 8.39525 194.074C16.0916 210.568 23.0419 225.294 32.5052 241.082C82.3742 328.068 150.149 395.575 226.17 452.833C246.628 468.267 267.714 482.955 289.193 497.053C307.217 494.265 324.848 489.474 341.732 482.915C341.811 482.915 341.85 482.876 341.929 482.837C343.696 482.13 345.463 481.423 347.23 480.677C347.387 480.638 347.505 480.559 347.662 480.52C349.35 479.813 351.039 479.106 352.688 478.36C352.884 478.281 353.12 478.163 353.316 478.085C354.926 477.378 356.497 476.632 358.107 475.886C358.382 475.768 358.656 475.65 358.892 475.493C360.423 474.747 361.955 474.001 363.447 473.254C363.761 473.097 364.075 472.94 364.35 472.783C365.842 472.037 367.295 471.252 368.748 470.505C369.062 470.309 369.416 470.152 369.73 469.956C371.183 469.17 372.596 468.385 374.049 467.599C374.402 467.403 374.717 467.207 375.07 467.05C376.484 466.225 377.897 465.4 379.311 464.576C379.507 464.458 379.703 464.34 379.9 464.222C358.735 453.422 337.884 442.112 317.858 429.427C296.968 416.193 276.942 401.466 258.369 384.226L258.329 384.187Z" fill="#4ED1B8"/>
<path d="M119.089 427.934C84.691 396.713 52.0995 364 23.9059 327.791C18.2121 320.487 12.6751 313.025 7.33484 305.407C17.5442 350.255 40.0442 391.882 72.6358 425.145C72.6358 425.145 72.6358 425.145 72.6751 425.185C74.3243 426.834 75.9736 428.484 77.6621 430.094C77.8191 430.251 77.9762 430.408 78.1332 430.565C79.7432 432.136 81.4317 433.667 83.0809 435.199C83.1987 435.277 83.2771 435.395 83.3949 435.474C88.7352 440.304 94.3111 444.899 100.123 449.297C100.476 449.572 100.79 449.808 101.144 450.044C102.714 451.222 104.285 452.361 105.856 453.499C106.288 453.814 106.72 454.128 107.152 454.403C108.762 455.542 110.371 456.641 111.981 457.702C112.335 457.937 112.728 458.212 113.081 458.448C117.086 461.079 121.17 463.632 125.371 466.066C125.764 466.302 126.196 466.538 126.589 466.773C128.238 467.716 129.887 468.619 131.536 469.522C132.164 469.876 132.832 470.229 133.46 470.543C134.913 471.329 136.405 472.114 137.897 472.86C138.604 473.214 139.311 473.567 140.018 473.921C141.549 474.667 143.12 475.413 144.652 476.159C145.28 476.473 145.908 476.748 146.576 477.062C148.775 478.083 150.973 479.065 153.172 480.008C155.018 480.793 156.903 481.579 158.788 482.325C159.377 482.56 159.926 482.757 160.515 482.992C161.811 483.503 163.107 484.013 164.403 484.485C165.109 484.76 165.856 484.995 166.562 485.27C167.701 485.702 168.879 486.095 170.018 486.487C170.803 486.762 171.589 487.037 172.413 487.273C173.513 487.626 174.573 487.98 175.672 488.333C176.497 488.608 177.361 488.883 178.185 489.119C179.206 489.433 180.227 489.747 181.288 490.022C182.191 490.297 183.055 490.532 183.958 490.807C184.94 491.082 185.882 491.318 186.864 491.593C189.534 492.3 192.243 493.007 194.913 493.635C169.35 472.036 143.748 450.358 119.05 427.934H119.089Z" fill="#4ED1B8"/>
</g>
<defs>
<filter id="filter0_d_267_14232" x="0" y="0" width="504" height="504" filterUnits="userSpaceOnUse" color-interpolation-filters="sRGB">
<feFlood flood-opacity="0" result="BackgroundImageFix"/>
<feColorMatrix in="SourceAlpha" type="matrix" values="0 0 0 0 0 0 0 0 0 0 0 0 0 0 0 0 0 0 127 0" result="hardAlpha"/>
<feOffset dx="1" dy="2"/>
<feGaussianBlur stdDeviation="1"/>
<feComposite in2="hardAlpha" operator="out"/>
<feColorMatrix type="matrix" values="0 0 0 0 0 0 0 0 0 0 0 0 0 0 0 0 0 0 0.25 0"/>
<feBlend mode="normal" in2="BackgroundImageFix" result="effect1_dropShadow_267_14232"/>
<feBlend mode="normal" in="SourceGraphic" in2="effect1_dropShadow_267_14232" result="shape"/>
</filter>
</defs>
</svg>
