<svg width="405" height="507" viewBox="0 0 405 507" fill="none" xmlns="http://www.w3.org/2000/svg">
<path opacity="0.24" d="M151.5 507C291.504 507 405 393.504 405 253.5C405 113.496 291.504 0 151.5 0C11.4958 0 -102 113.496 -102 253.5C-102 393.504 11.4958 507 151.5 507Z" fill="#F9A607"/>
<path opacity="0.24" d="M151.5 468.377C270.173 468.377 366.377 372.174 366.377 253.5C366.377 134.827 270.173 38.623 151.5 38.623C32.8265 38.623 -63.3773 134.827 -63.3773 253.5C-63.3773 372.174 32.8265 468.377 151.5 468.377Z" fill="#F9A607"/>
<path d="M151.5 430.863C249.454 430.863 328.861 351.455 328.861 253.501C328.861 155.547 249.454 76.1396 151.5 76.1396C53.5458 76.1396 -25.8616 155.547 -25.8616 253.501C-25.8616 351.455 53.5458 430.863 151.5 430.863Z" fill="#F9A607"/>
<path d="M125.846 363.801C202.574 363.801 264.775 301.601 264.775 224.873C264.775 148.145 202.574 85.9443 125.846 85.9443C49.1183 85.9443 -13.0821 148.145 -13.0821 224.873C-13.0821 301.601 49.1183 363.801 125.846 363.801Z" fill="#FBD13E"/>
<path d="M94.2457 281.179C144.821 281.179 185.821 240.18 185.821 189.604C185.821 139.029 144.821 98.0293 94.2457 98.0293C43.6702 98.0293 2.67065 139.029 2.67065 189.604C2.67065 240.18 43.6702 281.179 94.2457 281.179Z" fill="#FFE580"/>
</svg>
