<svg width="38" height="50" viewBox="0 0 38 50" fill="none" xmlns="http://www.w3.org/2000/svg">
<g id="fa:chevron-up" clip-path="url(#clip0_267_16452)">
<path id="Vector" d="M31.9141 1.35217L36.8125 6.34015C37.1885 6.72075 37.3766 7.17147 37.3766 7.69231C37.3766 8.21314 37.1885 8.66386 36.8125 9.04447L21.0484 25L36.8125 40.9555C37.1885 41.3361 37.3766 41.7869 37.3766 42.3077C37.3766 42.8285 37.1885 43.2792 36.8125 43.6599L31.9141 48.6478C31.538 49.0284 31.0878 49.2188 30.5633 49.2188C30.0388 49.2188 29.5885 49.0284 29.2125 48.6478L7.21406 26.3522C6.83801 25.9716 6.64999 25.5208 6.64999 25C6.64999 24.4792 6.83801 24.0284 7.21406 23.6478L29.2125 1.35217C29.5885 0.971558 30.0388 0.78125 30.5633 0.78125C31.0878 0.78125 31.538 0.971558 31.9141 1.35217Z" fill="white"/>
</g>
<defs>
<clipPath id="clip0_267_16452">
<rect width="50" height="38" fill="white" transform="matrix(0 -1 1 0 0 50)"/>
</clipPath>
</defs>
</svg>
