<svg width="59" height="45" viewBox="0 0 59 45" fill="none" xmlns="http://www.w3.org/2000/svg">
<g filter="url(#filter0_d_267_16272)">
<path d="M20.1294 40.1847C28.1855 39.0969 33.7004 29.7886 32.4471 19.394C31.1938 8.99931 23.647 1.45454 15.5909 2.54225C7.53471 3.62996 2.01989 12.9383 3.27316 23.3329C4.52643 33.7276 12.0732 41.2724 20.1294 40.1847Z" fill="#6BF178"/>
<path d="M16.558 30.0944C18.6151 28.3307 18.3932 24.106 16.0623 20.6583C13.7315 17.2107 10.1744 15.8455 8.11727 17.6093C6.06018 19.373 6.2821 23.5976 8.61295 27.0453C10.9438 30.493 14.5009 31.8581 16.558 30.0944Z" fill="#11151C"/>
<path d="M28.0802 24.4843C29.5137 20.5159 28.7437 16.3619 26.3603 15.2061C23.9769 14.0504 20.8826 16.3305 19.4491 20.2989C18.0156 24.2673 18.7857 28.4213 21.1691 29.5771C23.5525 30.7328 26.6467 28.4527 28.0802 24.4843Z" fill="#11151C"/>
<path d="M8.99861 24.2908C9.85671 26.1953 11.0146 27.4277 10.606 27.5916C10.1975 27.7556 9.03067 26.4492 8.17213 24.541C7.31403 22.6365 7.088 20.8539 7.49654 20.69C7.90507 20.526 8.14007 22.3826 9.00194 24.2903L8.99861 24.2908Z" fill="#38455B"/>
<path d="M27.0147 21.987C26.6381 24.0574 25.8111 25.5565 26.2456 25.6072C26.6801 25.6578 27.4982 24.0848 27.8744 22.0107C28.251 19.9402 28.0449 18.155 27.6104 18.1043C27.1758 18.0536 27.3909 19.9129 27.0114 21.9875L27.0147 21.987Z" fill="#38455B"/>
<path d="M27.6281 30.3448C26.4702 31.9955 25.1403 32.9129 25.5093 33.1739C25.8784 33.4349 27.2327 32.4431 28.3873 30.7928C29.5453 29.1421 30.0646 27.4616 29.6956 27.2006C29.3265 26.9395 28.7828 28.6946 27.6248 30.3453L27.6281 30.3448Z" fill="#56B751"/>
<path d="M10.9928 32.8637C12.5053 34.1538 14.0102 34.6884 13.7149 35.0391C13.4196 35.3898 11.8734 34.7897 10.3642 33.4992C8.85182 32.2091 7.95047 30.7204 8.24575 30.3697C8.54103 30.0189 9.4837 31.5732 10.9961 32.8633L10.9928 32.8637Z" fill="#56B751"/>
<path d="M19.1539 31.7402C19.2512 31.3379 18.8795 30.8635 18.3236 30.6807C17.7678 30.4978 17.2383 30.6758 17.141 31.0781C17.0437 31.4805 17.4154 31.9549 17.9713 32.1377C18.5271 32.3205 19.0566 32.1426 19.1539 31.7402Z" fill="#56B751"/>
<path d="M20.6316 31.7871C21.13 31.4604 21.3831 30.906 21.1968 30.549C21.0105 30.192 20.4555 30.1675 19.9571 30.4943C19.4587 30.821 19.2057 31.3753 19.3919 31.7324C19.5782 32.0894 20.1332 32.1139 20.6316 31.7871Z" fill="#56B751"/>
<path d="M19.297 33.6342L16.2694 33.8445C15.8236 33.8747 15.5411 34.3745 15.6942 34.8417C16.2307 36.4712 17.8063 37.607 19.5563 37.4868C21.31 37.3698 22.719 36.0258 23.0277 34.3383C23.1156 33.8535 22.7676 33.3977 22.3217 33.428L19.2937 33.6346L19.297 33.6342Z" fill="#B52424"/>
<path d="M19.7777 37.4824C20.4259 37.3953 21.0555 37.1545 21.5412 36.7697C21.1265 36.1195 20.3564 35.7214 19.5519 35.837C18.7606 35.9508 18.1411 36.4949 17.8969 37.2262C18.4681 37.4653 19.1169 37.575 19.7777 37.4824Z" fill="#FF4B4B"/>
<path d="M23.4123 6.77958C20.6194 4.80514 18.1039 4.46115 17.9252 4.36084C17.0509 3.85666 21.6335 3.90539 24.4265 5.87984C27.2194 7.85428 28.7874 12.2319 28.0397 11.512C26.884 10.3991 26.202 8.75445 23.4091 6.78001L23.4123 6.77958Z" fill="#9DFF85"/>
</g>
<g filter="url(#filter1_d_267_16272)">
<path d="M38.4084 39.7066C46.5073 40.8004 54.0673 33.2606 55.2943 22.8661C56.5213 12.4715 50.9506 3.15834 42.8517 2.06452C34.7529 0.970701 27.1928 8.51044 25.9659 18.905C24.7389 29.2996 30.3096 38.6127 38.4084 39.7066Z" fill="#6BF178"/>
<path d="M38.9764 33.1906L36.3829 32.856C36.0009 32.8046 35.6824 33.1782 35.743 33.5993C35.945 35.0585 37.1018 36.2819 38.6043 36.4769C40.1069 36.6719 41.507 35.7819 42.0303 34.4129C42.1805 34.0202 41.9553 33.577 41.5761 33.5297L38.9797 33.191L38.9764 33.1906Z" fill="white"/>
<path d="M37.2815 29.1029C39.6671 27.9555 40.4176 23.8015 38.9578 19.8248C37.4981 15.848 34.3808 13.5544 31.9953 14.7018C29.6097 15.8491 28.8591 20.0031 30.3189 23.9799C31.7787 27.9566 34.8959 30.2503 37.2815 29.1029Z" fill="#11151C"/>
<path d="M49.8915 26.5793C52.2172 23.1395 52.4175 18.9144 50.3387 17.1424C48.2599 15.3704 44.6893 16.7225 42.3636 20.1623C40.0378 23.6021 39.8375 27.8271 41.9163 29.5991C43.9951 31.3711 47.5657 30.0191 49.8915 26.5793Z" fill="#11151C"/>
<path d="M31.2777 21.4839C31.6695 23.5545 32.5128 25.0557 32.0744 25.1047C31.636 25.1538 30.8013 23.5786 30.41 21.5043C30.0182 19.4337 30.2163 17.6503 30.6547 17.6012C31.0931 17.5522 30.8864 19.4095 31.2811 21.4843L31.2777 21.4839Z" fill="#38455B"/>
<path d="M49.391 23.8011C48.5353 25.7014 47.3733 26.9287 47.7866 27.0941C48.2 27.2595 49.3706 25.9582 50.2267 24.0543C51.0824 22.154 51.3007 20.3733 50.8873 20.2079C50.474 20.0425 50.2471 21.8972 49.3876 23.8007L49.391 23.8011Z" fill="#38455B"/>
<path d="M47.915 32.0449C46.3992 33.3339 44.8886 33.8674 45.1864 34.2184C45.4842 34.5693 47.0362 33.9703 48.5487 32.6808C50.0645 31.3918 50.9656 29.9036 50.6678 29.5527C50.37 29.2017 49.4275 30.7554 47.9117 32.0444L47.915 32.0449Z" fill="#56B751"/>
<path d="M31.0923 30.2857C32.2611 31.9374 33.6003 32.8559 33.2303 33.1166C32.8603 33.3774 31.4962 32.3844 30.3308 30.7332C29.1621 29.0815 28.6349 27.4005 29.005 27.1397C29.375 26.8789 29.9269 28.6345 31.0956 30.2862L31.0923 30.2857Z" fill="#56B751"/>
<path d="M39.3283 31.271C39.5144 30.9141 39.2584 30.3596 38.7566 30.0324C38.2547 29.7052 37.6969 29.7293 37.5108 30.0862C37.3247 30.4431 37.5807 30.9977 38.0826 31.3248C38.5845 31.652 39.1422 31.6279 39.3283 31.271Z" fill="#56B751"/>
<path d="M40.7539 31.6976C41.312 31.5152 41.6842 31.041 41.5852 30.6385C41.4862 30.236 40.9535 30.0576 40.3953 30.24C39.8372 30.4224 39.465 30.8966 39.564 31.2991C39.663 31.7016 40.1958 31.88 40.7539 31.6976Z" fill="#56B751"/>
<path d="M49.7151 8.18271C47.471 5.54446 45.1047 4.55663 44.9548 4.41298C44.2249 3.69736 48.675 4.9376 50.9191 7.57585C53.1632 10.2141 53.6363 14.8595 53.0815 13.968C52.2241 12.59 51.9559 10.8205 49.7118 8.18227L49.7151 8.18271Z" fill="#9DFF85"/>
</g>
<defs>
<filter id="filter0_d_267_16272" x="2.0956" y="2.43799" width="33.5291" height="41.8511" filterUnits="userSpaceOnUse" color-interpolation-filters="sRGB">
<feFlood flood-opacity="0" result="BackgroundImageFix"/>
<feColorMatrix in="SourceAlpha" type="matrix" values="0 0 0 0 0 0 0 0 0 0 0 0 0 0 0 0 0 0 127 0" result="hardAlpha"/>
<feOffset dx="1" dy="2"/>
<feGaussianBlur stdDeviation="1"/>
<feComposite in2="hardAlpha" operator="out"/>
<feColorMatrix type="matrix" values="0 0 0 0 0 0 0 0 0 0 0 0 0 0 0 0 0 0 0.25 0"/>
<feBlend mode="normal" in2="BackgroundImageFix" result="effect1_dropShadow_267_16272"/>
<feBlend mode="normal" in="SourceGraphic" in2="effect1_dropShadow_267_16272" result="shape"/>
</filter>
<filter id="filter1_d_267_16272" x="24.7965" y="1.95898" width="33.6672" height="41.853" filterUnits="userSpaceOnUse" color-interpolation-filters="sRGB">
<feFlood flood-opacity="0" result="BackgroundImageFix"/>
<feColorMatrix in="SourceAlpha" type="matrix" values="0 0 0 0 0 0 0 0 0 0 0 0 0 0 0 0 0 0 127 0" result="hardAlpha"/>
<feOffset dx="1" dy="2"/>
<feGaussianBlur stdDeviation="1"/>
<feComposite in2="hardAlpha" operator="out"/>
<feColorMatrix type="matrix" values="0 0 0 0 0 0 0 0 0 0 0 0 0 0 0 0 0 0 0.25 0"/>
<feBlend mode="normal" in2="BackgroundImageFix" result="effect1_dropShadow_267_16272"/>
<feBlend mode="normal" in="SourceGraphic" in2="effect1_dropShadow_267_16272" result="shape"/>
</filter>
</defs>
</svg>
