<svg width="65" height="59" viewBox="0 0 65 59" fill="none" xmlns="http://www.w3.org/2000/svg">
<g id="Group" filter="url(#filter0_d_267_16179)">
<path id="Vector" d="M40.0102 40.109L42.4341 39.2845C43.4952 38.8567 44.4877 38.4472 45.4186 37.9429L45.6243 37.8886C45.8371 37.7217 46.0338 37.6328 46.2557 37.5004C46.768 37.2174 47.2803 36.9344 47.7926 36.6515L52.4712 45.7622C53.1011 47.037 51.8906 48.4279 50.5743 47.8885L33.9441 41.451L34.1155 41.4058C36.1344 41.1317 38.1077 40.6849 40.0445 40.1L40.0102 40.109Z" fill="white"/>
<path id="Vector_2" d="M53.0976 3.36621L49.107 12.9911C49.0154 13.2 48.8803 13.3834 48.7362 13.5323C48.0415 13.1244 47.3217 12.76 46.5676 12.4048C46.5676 12.4048 46.5676 12.4048 46.5242 12.3793C44.7898 11.5068 43.1101 10.8416 41.2429 10.2998L38.7974 9.65197C37.6226 9.3708 36.3974 9.17684 35.2156 9.00835C35.2842 8.99025 35.3094 8.94659 35.3689 8.89394C35.3689 8.89394 35.4032 8.88489 35.4375 8.87584L49.5072 2.13358C49.5072 2.13358 49.5072 2.13358 49.5415 2.12453L51.0372 1.39745C52.3111 0.802685 53.6382 2.07821 53.1067 3.40078L53.0976 3.36621Z" fill="white"/>
<path id="Vector_3" d="M4.55873 28.1078C3.57892 27.0362 3.52092 25.4259 4.39974 24.3073C10.1442 16.8799 19.016 11.9894 29.1162 11.615C32.8929 11.4683 36.5502 11.9813 39.983 13.0337L40.0706 14.895L40.5273 26.0804L40.9412 36.6859C37.6115 37.9709 34.008 38.7741 30.2313 38.9208C20.1311 39.2952 10.9103 35.0776 4.55873 28.1078ZM24.1156 28.6743C25.8824 26.4715 25.5422 23.236 23.3126 21.4596C21.1172 19.6743 17.9027 20.0052 16.1451 22.2425C14.3783 24.4452 14.7184 27.6808 16.9481 29.4571C19.1435 31.2425 22.358 30.9115 24.1156 28.6743Z" fill="white"/>
<path id="Vector_4" d="M43.5874 32.2556L42.8464 14.0143C43.4612 14.2585 44.0507 14.5464 44.6312 14.7997C45.1773 15.062 45.6297 15.3859 46.1415 15.6573C46.402 15.8102 46.6968 15.9543 46.9573 16.1073C47.4783 16.4132 48.0244 16.6754 48.5545 17.0159C49.5278 17.6458 50.4507 18.3628 51.3485 19.1235L51.6251 29.7654C49.2823 32.0093 46.5991 33.9366 43.6854 35.4075L43.5441 32.2303L43.5874 32.2556Z" fill="white"/>
</g>
<defs>
<filter id="filter0_d_267_16179" x="2.77988" y="1.24707" width="53.4471" height="50.7607" filterUnits="userSpaceOnUse" color-interpolation-filters="sRGB">
<feFlood flood-opacity="0" result="BackgroundImageFix"/>
<feColorMatrix in="SourceAlpha" type="matrix" values="0 0 0 0 0 0 0 0 0 0 0 0 0 0 0 0 0 0 127 0" result="hardAlpha"/>
<feOffset dx="1" dy="2"/>
<feGaussianBlur stdDeviation="1"/>
<feComposite in2="hardAlpha" operator="out"/>
<feColorMatrix type="matrix" values="0 0 0 0 0 0 0 0 0 0 0 0 0 0 0 0 0 0 0.25 0"/>
<feBlend mode="normal" in2="BackgroundImageFix" result="effect1_dropShadow_267_16179"/>
<feBlend mode="normal" in="SourceGraphic" in2="effect1_dropShadow_267_16179" result="shape"/>
</filter>
</defs>
</svg>
