<svg width="330" height="469" viewBox="0 0 330 469" fill="none" xmlns="http://www.w3.org/2000/svg">
<g filter="url(#filter0_dd_267_16732)">
<path d="M29.8538 152.2C12.6797 170.664 33.2581 210.534 58.9514 234.438C84.6447 258.342 149.622 283.826 131.994 235.066C123.42 211.363 107.218 221.736 81.5252 197.832C55.8319 173.928 47.0274 133.758 29.8538 152.2Z" fill="white"/>
<path d="M36.1652 169.908C49.7116 167.99 59.7444 159.767 58.5822 151.547C57.7689 145.779 51.6588 141.539 43.399 140.188C41.2674 125.161 31.3634 113.178 19.607 114.845C7.85053 116.511 5.50601 129.401 7.63807 144.406C9.30446 156.163 16.6183 166.487 25.3379 169.125C29.9129 170.712 30.1319 170.783 36.1867 169.931L36.1652 169.908Z" fill="#817567"/>
<path d="M191.223 374.725L174.273 360.137C165.994 353.012 153.69 353.346 145.765 360.86C128.679 377.034 108.111 404.555 95.5727 399.992C72.7053 391.679 86.988 332.676 87.5598 316.886L91.8005 257.534C92.6976 232.957 113.937 200.358 138.514 201.255L184.601 203.188C209.177 204.085 226.627 226.947 225.73 251.524L221.534 263.298C214.003 284.506 213.166 307.122 215.993 329.457C217.922 344.657 204.744 375.231 191.178 374.747L191.223 374.725Z" fill="white"/>
<path d="M247.456 450.946C266.136 438.924 253.612 386.055 233.867 355.435C214.144 324.815 164.11 289.044 172.516 340.621C176.612 365.692 181.493 362.9 201.215 393.541C220.937 424.161 228.776 463.011 247.434 450.967L247.456 450.946Z" fill="white"/>
<path d="M241.094 367.938C240.269 366.159 239.247 364.31 238.139 362.393C229.27 359.488 217.929 359.047 206.13 361.792C198.116 363.664 190.915 366.785 185 370.637C185.968 371.868 186.978 373.188 188.095 374.664C189.535 376.543 190.95 378.576 192.341 380.697C197.284 378.082 202.857 375.943 208.945 374.541C222.737 371.327 235.871 372.465 245.196 376.833C243.865 373.876 242.513 370.897 241.116 367.939L241.094 367.938Z" fill="#FF394C"/>
<path d="M68.2149 454.817C43.9323 436.56 59.7585 386.578 81.3687 353.061C103.001 319.544 156.522 273.558 150.901 334.779C148.161 364.542 141.833 360.21 120.201 393.727C98.5686 427.244 92.4756 473.073 68.193 454.816L68.2149 454.817Z" fill="white"/>
<mask id="mask0_267_16732" style="mask-type:luminance" maskUnits="userSpaceOnUse" x="55" y="304" width="97" height="155">
<path d="M68.215 454.817C43.9324 436.56 59.7586 386.578 81.3688 353.061C103.001 319.544 156.522 273.558 150.901 334.779C148.162 364.542 141.833 360.21 120.201 393.727C98.5686 427.244 92.4757 473.073 68.1931 454.816L68.215 454.817Z" fill="white"/>
</mask>
<g mask="url(#mask0_267_16732)">
<path d="M111.721 371.965C88.8983 364.755 67.6438 368.683 59.591 380.471C59.201 377.863 59.2067 375.306 59.7402 372.804C63.4188 355.907 88.1017 349.071 114.867 357.548C141.632 366.024 160.36 386.575 156.681 403.472C156.148 405.974 155.091 408.202 153.707 410.246C151.487 395.217 134.566 379.197 111.743 371.965L111.721 371.965Z" fill="#FF394C"/>
</g>
<path d="M219.148 324.736C218.436 323.973 218.481 322.784 219.2 322.071C223.557 317.88 220.076 314.463 215.694 314.267L90.8818 308.158C86.4345 307.939 82.5824 311.103 86.8398 315.417C87.423 316.024 87.4038 317.015 86.7978 317.576C82.0419 321.891 85.5652 325.42 90.0346 325.639L214.847 331.749C219.206 331.966 222.989 328.932 219.126 324.736L219.148 324.736Z" fill="#7C7C7C"/>
<mask id="mask1_267_16732" style="mask-type:luminance" maskUnits="userSpaceOnUse" x="23" y="147" width="104" height="119">
<path d="M29.8539 152.199C12.6798 170.663 33.2582 210.533 58.9515 234.437C84.6448 258.341 140.493 287.526 122.864 238.766C114.29 215.063 107.219 221.735 81.5252 197.831C55.832 173.927 47.0275 133.757 29.8539 152.199Z" fill="white"/>
</mask>
<g mask="url(#mask1_267_16732)">
<path d="M53.7036 206.281C81.8179 190.718 100.553 169.046 100.452 153.882C102.65 155.291 104.467 157.023 105.659 159.184C113.792 173.865 93.6369 200.557 60.6437 218.823C27.6509 237.067 -5.66023 239.967 -13.7928 225.285C-14.9849 223.125 -15.51 220.668 -15.525 218.045C-2.74738 226.184 25.5672 221.842 53.7036 206.281Z" fill="#FF394C"/>
</g>
<path d="M301.851 157.385C318.047 176.718 295.366 215.46 268.46 237.987C241.554 260.515 175.321 282.541 195.49 234.782C205.308 211.547 220.935 222.76 247.84 200.254C274.746 177.727 285.655 138.073 301.829 157.406L301.851 157.385Z" fill="white"/>
<path d="M294.616 174.742C281.202 172.122 271.609 163.385 273.2 155.218C274.326 149.488 280.638 145.6 288.965 144.66C291.877 129.776 302.413 118.323 314.049 120.599C325.706 122.875 327.371 135.866 324.459 150.751C322.182 162.408 314.342 172.327 305.485 174.49C300.831 175.832 300.609 175.894 294.616 174.72L294.616 174.742Z" fill="#817567"/>
<mask id="mask2_267_16732" style="mask-type:luminance" maskUnits="userSpaceOnUse" x="200" y="152" width="108" height="114">
<path d="M301.851 157.384C318.047 176.718 295.366 215.459 268.46 237.987C241.554 260.515 184.232 286.703 204.4 238.944C214.218 215.709 220.935 222.76 247.841 200.232C274.746 177.704 285.655 138.051 301.829 157.384L301.851 157.384Z" fill="white"/>
</mask>
<g mask="url(#mask2_267_16732)">
<path d="M275.195 210.13C247.935 193.115 230.37 170.493 231.26 155.349C228.987 156.649 227.082 158.287 225.785 160.377C216.891 174.616 235.635 202.33 267.597 222.301C299.582 242.25 332.702 246.884 341.596 232.667C342.915 230.577 343.535 228.143 343.696 225.523C330.505 232.98 302.454 227.167 275.195 210.13Z" fill="#FF394C"/>
</g>
<path d="M30.1772 448.082C31.5963 434.05 46.0893 421.991 63.8166 423.791C81.5438 425.59 101.449 424.171 100.008 438.202C98.5891 452.235 92.3191 465.269 71.9085 463.197C54.1813 461.398 28.714 462.114 30.1551 448.082L30.1772 448.082Z" fill="#817567"/>
<path d="M288.684 444.387C287.812 430.31 273.799 417.697 256.015 418.805C238.231 419.913 218.396 417.72 219.29 431.798C220.162 445.874 225.92 459.143 246.396 457.867C264.18 456.758 289.6 458.465 288.706 444.388L288.684 444.387Z" fill="#817567"/>
<path d="M238.409 201.327C237.505 222.862 205.215 238.982 166.285 237.342C127.354 235.703 96.536 216.944 97.44 195.409C98.344 173.874 127.389 175.012 166.32 176.652C205.25 178.291 239.313 179.791 238.41 201.305L238.409 201.327Z" fill="#636363"/>
<path d="M213.771 190.027C213.236 201.675 192.352 210.348 167.138 209.372C141.923 208.418 121.936 198.179 122.471 186.531C123.007 174.884 141.814 175.558 167.028 176.512C192.243 177.465 214.307 178.358 213.772 190.005L213.771 190.027Z" fill="#3A3A3A"/>
<path d="M254.981 163.965C256.361 155.353 258.172 147.19 257.839 137.135C257.516 127.718 254.301 113.97 252.553 105.276C250.763 96.4698 240.905 84.3996 234.38 78.8293C216.886 63.8999 197.176 58.668 169.367 58.5454C142.065 58.4326 122.263 63.6007 104.619 77.9123C97.2963 83.8742 85.4583 106.717 83.4412 116.374C80.8388 128.929 81.4686 131.674 81.9284 145.412C82.0802 150.065 82.4337 154.546 82.9448 158.853C84.1025 168.44 88.4034 177.317 95.156 183.641C112.731 200.07 138.95 210.542 168.323 210.673C197.345 210.797 223.433 200.793 241.219 184.853C248.105 178.684 253.451 173.477 254.981 163.965Z" fill="#8DB4DB"/>
<path d="M102.373 175.143C114.54 175.38 124.546 168.195 124.723 159.094C124.9 149.994 115.181 142.424 103.015 142.188C90.8484 141.951 80.842 149.136 80.6649 158.237C80.4877 167.337 90.2069 174.906 102.373 175.143Z" fill="#FFB9AB"/>
<path d="M96.8588 150.485C104.067 149.259 101.69 153.643 102.481 158.286C103.272 162.929 109.365 165.758 102.157 167.006C94.9488 168.232 88.4792 165.484 87.6665 160.818C86.8538 156.153 89.6284 151.733 96.8369 150.485L96.8588 150.485Z" fill="#EE9583"/>
<path d="M256.169 149.334C255.991 158.432 245.972 164.848 233.819 165.383C207.77 166.506 224.247 157.814 224.425 148.716C224.602 139.618 222.278 132.19 234.46 132.427C246.642 132.664 256.346 140.236 256.169 149.334Z" fill="#FFB9AB"/>
<path d="M235.451 158.539C229.73 159.221 234.848 153.305 236.082 148.745C237.295 144.185 234.845 138.716 240.896 140.332C246.969 141.949 250.904 146.962 249.67 151.522C248.457 156.082 241.68 157.779 235.451 158.539Z" fill="#EE9583"/>
<path d="M167.406 205.719C203.54 206.423 233.468 174.337 234.252 134.054C235.037 93.7712 206.38 60.5453 170.245 59.8419C134.111 59.1385 104.183 91.2241 103.399 131.507C102.615 171.79 131.272 205.016 167.406 205.719Z" fill="#FFC6B7"/>
<path d="M167.406 205.719C203.54 206.423 233.468 174.337 234.252 134.054C235.037 93.7712 206.38 60.5453 170.245 59.8419C134.111 59.1385 104.183 91.2241 103.399 131.507C102.615 171.79 131.272 205.016 167.406 205.719Z" fill="#FFC6B7"/>
<path d="M167.258 171.403L146.53 169.788C143.493 169.552 141.082 172.304 141.685 175.291C143.797 185.668 153.418 194.075 165.41 195.014C177.424 195.953 188.245 189.155 191.92 179.222C192.99 176.356 191.044 173.277 187.986 173.041L167.236 171.403L167.258 171.403Z" fill="#B52424"/>
<path d="M166.841 195.108C171.335 195.195 175.825 194.335 179.476 192.467C177.269 188.105 172.416 184.969 166.863 184.905C161.377 184.842 156.652 187.571 154.323 191.757C157.986 193.745 162.281 195.041 166.841 195.108Z" fill="#FF4B4B"/>
<path d="M167.99 166.658L162.389 165.712C159.687 165.262 158.642 161.209 160.503 158.447L164.362 152.66L168.221 146.873C170.082 144.088 173.443 144.66 174.284 147.894L176.026 154.628L177.768 161.361C178.608 164.595 176.293 168.054 173.591 167.604L167.99 166.658Z" fill="#EE9583"/>
<path d="M161.235 115.179C162.911 112.832 161.873 109.55 159.16 108.527C146.253 103.648 131.186 107.829 122.847 119.633C121.963 120.872 121.232 122.18 120.545 123.511C129.658 113.903 143.903 111.184 155.873 116.639C157.773 117.514 160.012 116.874 161.213 115.179L161.235 115.179Z" fill="#181F28"/>
<path d="M183.146 112.587C181.741 110.069 183.124 106.923 185.915 106.206C199.271 102.741 213.791 108.533 220.818 121.165C221.563 122.502 222.153 123.88 222.678 125.256C214.641 114.72 200.773 110.484 188.286 114.626C186.312 115.271 184.147 114.413 183.124 112.586L183.146 112.587Z" fill="#181F28"/>
<path d="M177.933 164.163C177.503 167.019 172.952 168.716 167.767 167.932C162.581 167.148 158.738 164.186 159.169 161.329C159.599 158.473 162.908 162.813 168.094 163.597C173.279 164.381 178.386 161.285 177.933 164.163Z" fill="#ED7562"/>
<path d="M234.262 132.424C234.262 132.424 246.503 78.714 219.786 63.2084C199.76 51.5794 185.692 62.2141 185.692 62.2141C185.692 62.2141 175.863 49.7699 151.774 49.852C136.831 49.9137 121.765 67.6252 121.765 67.6252C121.765 67.6252 98.5033 71.668 96.3055 86.0819C94.1076 100.496 96.6788 117.845 97.3811 120.261C98.1054 122.677 104.027 142.252 104.027 142.252C104.027 142.252 125.441 107.519 126.843 101.111C128.224 94.7028 130.13 85.1095 130.13 85.1095C130.13 85.1095 147.167 94.0358 176.751 93.5759C206.356 93.1164 219.381 86.3179 219.381 86.3179C219.381 86.3179 227.783 124.496 234.218 132.423L234.262 132.424Z" fill="#7F6D5C"/>
<path d="M175.095 199.038C174.923 201.106 170.533 202.431 165.319 201.977C160.105 201.523 156.002 199.481 156.196 197.414C156.369 195.345 160.033 198.414 165.27 198.846C170.484 199.3 175.29 196.948 175.117 199.038L175.095 199.038Z" fill="#EE9583"/>
<path d="M217.098 77.8984C217.328 79.6659 208.375 82.2463 197.109 83.6357C185.842 85.0472 176.526 84.7336 176.318 82.9666C176.088 81.1991 184.812 82.4929 196.079 81.0814C207.345 79.6699 216.913 76.1098 217.12 77.8989L217.098 77.8984Z" fill="#9B7D72"/>
<path d="M102.795 126.294C100.944 126.258 99.6278 116.911 99.8517 105.411C100.076 93.912 101.755 84.6229 103.605 84.6589C105.456 84.6949 102.843 93.2387 102.619 104.738C102.396 116.237 104.645 126.33 102.795 126.294Z" fill="#9B7D72"/>
<path d="M125.948 136.904C126.037 132.344 134.833 128.791 145.583 129C156.334 129.209 164.985 133.08 164.896 137.662C164.807 142.222 156.884 136.052 146.133 135.842C135.383 135.633 125.859 141.464 125.948 136.904Z" fill="#ED7562"/>
<path d="M176.99 137.897C177.079 133.337 185.875 129.784 196.625 129.993C207.376 130.203 216.027 134.073 215.938 138.655C215.849 143.237 207.926 137.045 197.175 136.836C186.425 136.626 176.901 142.457 176.99 137.897Z" fill="#ED7562"/>
<path d="M239.582 205.581C239.004 226.218 205.861 242.013 165.598 240.877C125.336 239.741 93.1521 222.079 93.7526 201.42C94.3306 180.782 123.645 208.833 163.93 209.992C204.192 211.128 240.182 184.943 239.604 205.581L239.582 205.581Z" fill="#7C7C7C"/>
<path d="M182.247 9.3438C181.618 5.45294 176.247 5.10611 175.137 8.91904L168.333 32.4108L186.207 33.5081L182.247 9.3438Z" fill="#C62433"/>
<path d="M218.412 61.3952L218.969 52.018C219.52 42.9272 195.121 34.056 186.207 33.5078L168.333 32.4106C159.419 31.8624 134.138 37.7172 133.587 46.7859L133.1 54.7982C142.94 53.0945 153.051 52.1674 163.386 52.2143C182.624 52.2802 201.094 55.5267 218.412 61.3952Z" fill="url(#paint0_linear_267_16732)"/>
<path d="M82.8014 184.347C69.0797 183.948 58.5193 163.798 59.216 139.328C59.9127 114.858 71.5978 95.3399 85.3195 95.7392C99.0411 96.1385 80.4484 113.891 79.7517 138.362C79.055 162.832 96.523 184.747 82.8014 184.347Z" fill="#7C7C7C"/>
<path d="M252.683 189.175C266.405 189.575 278.09 170.056 278.786 145.586C279.483 121.116 268.923 100.966 255.201 100.567C241.479 100.168 259.03 118.977 258.333 143.447C257.636 167.917 238.939 188.798 252.661 189.175L252.683 189.175Z" fill="#7C7C7C"/>
<path d="M256.863 106.88C246.505 80.8724 225.327 60.5161 199.011 51.6076C189.706 48.4514 179.757 46.6931 169.4 46.6678C163.847 46.6479 158.395 47.1367 153.109 48.0696C124.32 53.0406 99.9005 71.2311 86.145 96.3506C78.5814 110.175 74.2172 126.068 74.1298 143.013C74.0718 157.314 77.0715 169.625 82.5112 180.001C86.888 188.372 92.8326 195.452 100.013 201.321C117.216 215.341 141.564 222.272 168.602 222.38C195.861 222.47 220.456 215.61 237.811 201.469C242.648 197.53 246.922 193.052 250.524 187.987C258.862 176.293 263.711 161.556 263.794 143.707C263.848 130.706 261.38 118.273 256.84 106.946L256.863 106.88ZM236.142 177.372C219.445 191.724 194.962 200.723 167.682 200.589C140.094 200.448 115.442 190.977 98.9164 176.133C92.5703 170.434 88.5171 162.421 87.4071 153.783C86.9094 149.917 86.5912 145.878 86.4308 141.665C85.9889 129.272 85.3761 126.792 87.8223 115.468C89.7108 106.756 100.8 86.1681 107.67 80.8144C124.228 67.9142 142.83 63.2958 168.479 63.4204C194.591 63.5541 213.121 68.3002 229.563 81.7767C235.701 86.8105 244.987 97.7015 246.662 105.646C248.317 113.479 251.359 125.879 251.656 134.37C251.987 143.434 250.279 150.805 249.004 158.559C247.58 167.148 242.553 171.833 236.098 177.393L236.142 177.372Z" fill="white"/>
<path opacity="0.83" d="M92.7773 132.622C88.3823 129.716 92.9419 115.105 102.976 100.007C113.011 84.9079 124.685 75.0419 129.08 77.9483C133.475 80.8547 120.195 88.3093 110.161 103.408C100.126 118.507 97.1719 135.55 92.7773 132.622Z" fill="white"/>
<path d="M161.524 283.793L159.548 284.548C158.638 284.861 157.796 285.109 156.955 285.313L156.778 285.354C156.578 285.394 156.379 285.434 156.202 285.475C155.738 285.576 155.251 285.677 154.764 285.755L156.654 293.968C156.918 295.097 158.435 295.325 159.006 294.3L166.11 281.414L165.999 281.478C164.571 282.376 163.079 283.14 161.546 283.794L161.524 283.793Z" fill="#FF394C"/>
<path d="M133.783 267.694L141.398 271.633C141.572 271.724 141.748 271.75 141.924 271.775C142.157 271.141 142.411 270.529 142.687 269.917C142.687 269.917 142.688 269.895 142.688 269.873C143.312 268.408 144.043 267.078 144.928 265.773L146.129 264.078C146.739 263.274 147.372 262.493 148.069 261.758C148.025 261.757 147.981 261.756 147.914 261.777L147.87 261.776L135.378 265.015C135.378 265.015 135.378 265.015 135.356 265.014L134.027 265.363C132.897 265.649 132.735 267.189 133.761 267.716L133.783 267.694Z" fill="#FF394C"/>
<path d="M177.618 257.418C177.663 256.229 176.867 255.2 175.704 254.957C168.132 253.355 159.925 254.98 153.324 260.119C150.862 262.032 148.813 264.306 147.2 266.765L148.146 267.996L153.8 275.268L159.154 282.138C161.949 281.178 164.643 279.754 167.105 277.841C173.705 272.724 177.29 265.169 177.618 257.418ZM165.552 268.18C163.268 267.739 161.769 265.528 162.232 263.245C162.673 260.962 164.884 259.462 167.167 259.926C169.45 260.367 170.95 262.578 170.487 264.861C170.046 267.144 167.835 268.643 165.552 268.18Z" fill="#FF394C"/>
<path d="M155.126 280.759L145.924 268.922C145.673 269.402 145.443 269.883 145.235 270.363C145.028 270.8 144.909 271.261 144.724 271.72C144.631 271.96 144.538 272.201 144.445 272.442C144.282 272.923 144.052 273.382 143.911 273.864C143.911 273.864 143.911 273.864 143.91 273.886C143.628 274.806 143.411 275.749 143.239 276.693L148.703 283.521C151.389 283.684 154.082 283.472 156.738 282.84L155.148 280.782L155.126 280.759Z" fill="#FF394C"/>
</g>
<defs>
<filter id="filter0_dd_267_16732" x="2.93268" y="0.235352" width="326.778" height="467.18" filterUnits="userSpaceOnUse" color-interpolation-filters="sRGB">
<feFlood flood-opacity="0" result="BackgroundImageFix"/>
<feColorMatrix in="SourceAlpha" type="matrix" values="0 0 0 0 0 0 0 0 0 0 0 0 0 0 0 0 0 0 127 0" result="hardAlpha"/>
<feOffset dx="1" dy="2"/>
<feGaussianBlur stdDeviation="1"/>
<feComposite in2="hardAlpha" operator="out"/>
<feColorMatrix type="matrix" values="0 0 0 0 0 0 0 0 0 0 0 0 0 0 0 0 0 0 0.25 0"/>
<feBlend mode="normal" in2="BackgroundImageFix" result="effect1_dropShadow_267_16732"/>
<feColorMatrix in="SourceAlpha" type="matrix" values="0 0 0 0 0 0 0 0 0 0 0 0 0 0 0 0 0 0 127 0" result="hardAlpha"/>
<feOffset dy="-2"/>
<feGaussianBlur stdDeviation="2"/>
<feComposite in2="hardAlpha" operator="out"/>
<feColorMatrix type="matrix" values="0 0 0 0 0 0 0 0 0 0 0 0 0 0 0 0 0 0 0.25 0"/>
<feBlend mode="normal" in2="effect1_dropShadow_267_16732" result="effect2_dropShadow_267_16732"/>
<feBlend mode="normal" in="SourceGraphic" in2="effect2_dropShadow_267_16732" result="shape"/>
</filter>
<linearGradient id="paint0_linear_267_16732" x1="133.299" y1="45.7225" x2="219.081" y2="47.3923" gradientUnits="userSpaceOnUse">
<stop stop-color="#FF394C"/>
<stop offset="0.61" stop-color="#DD2C3D"/>
<stop offset="1" stop-color="#C62433"/>
</linearGradient>
</defs>
</svg>
