<svg width="645" height="645" viewBox="0 0 645 645" fill="none" xmlns="http://www.w3.org/2000/svg">
<g filter="url(#filter0_d_125_4049)">
<path d="M321.5 641C498.507 641 642 497.507 642 320.5C642 143.493 498.507 0 321.5 0C144.493 0 1 143.493 1 320.5C1 497.507 144.493 641 321.5 641Z" fill="#0068E5"/>
<mask id="mask0_125_4049" style="mask-type:luminance" maskUnits="userSpaceOnUse" x="1" y="0" width="641" height="642">
<path d="M321.5 641C498.507 641 642 497.507 642 320.5C642 143.493 498.507 0 321.5 0C144.493 0 1 143.493 1 320.5C1 497.507 144.493 641 321.5 641Z" fill="white"/>
</mask>
<g mask="url(#mask0_125_4049)">
<path d="M245.51 343.418C245.51 343.418 245.912 357.662 243.155 360.821C240.398 363.98 236.837 364.784 235.631 369.552C234.425 374.319 233.678 381.843 233.276 388.161C232.874 394.479 231.323 404.761 228.911 406.771C226.498 408.781 219.433 409.126 215.872 412.285C212.311 415.444 209.956 420.211 209.956 420.211L208.003 436.409C208.003 436.409 204.04 439.568 202.087 445.139C200.134 450.653 201.685 452.663 198.124 453.065C194.563 453.468 186.637 454.674 186.637 454.674C186.637 454.674 193.759 460.59 192.151 464.151C190.542 467.712 182.674 472.077 182.674 472.077C182.674 472.077 180.721 473.283 178.711 476.04C176.758 478.797 174.747 479.199 174.747 479.199L176.7 487.93L173.943 495.052C173.943 495.052 171.99 500.221 173.943 501.772C175.896 503.323 180.261 503.725 179.112 506.942C177.906 510.101 174.747 516.017 177.504 518.429C180.261 520.842 184.224 526.758 187.785 527.504C191.346 528.251 202.432 531.467 197.665 532.673C192.897 533.88 183.822 536.235 180.663 534.282C177.504 532.329 162.054 523.598 159.699 519.233C157.344 514.868 155.333 508.148 154.931 504.587C154.529 501.026 155.333 495.512 152.978 491.146C150.623 486.781 148.211 485.23 146.66 480.463C145.11 475.696 142.697 457.144 142.697 451.974C142.697 446.805 141.893 443.244 140.342 433.767C138.734 424.289 137.987 402.119 137.987 402.119C137.987 402.119 135.23 393.388 130.865 390.631C126.5 387.874 116.219 379.948 115.012 377.191C113.806 374.434 107.086 359.787 105.133 356.628C103.18 353.469 97.609 351.861 96.4028 346.749C95.1966 341.58 96.4028 336.066 96.4028 336.066V326.991C96.4028 326.991 101.572 320.27 103.927 317.513C106.282 314.756 106.684 307.634 106.684 303.671C106.684 299.708 110.245 291.782 103.525 291.379C96.8048 290.977 90.4866 291.379 87.6722 287.416C84.9152 283.453 79.746 282.247 77.7932 275.929C75.8403 269.611 75.0359 268.002 67.5117 265.245C59.9874 262.488 63.9508 258.123 54.8757 256.17C45.8007 254.218 40.6311 260.938 33.5089 247.842C26.3867 234.804 25.1803 231.645 24.0316 227.279C22.8829 222.914 18.8625 221.363 18.5178 213.437C18.1158 205.511 18.1156 203.96 16.5648 200.801C15.014 197.642 11.7975 185.752 12.6016 202.754C13.4058 219.755 15.7607 215.792 16.1627 218.606C16.5648 221.363 20.9301 236.814 16.9669 233.253C13.0038 229.692 7.89192 217.056 6.28367 211.082C4.67543 205.166 2.32061 192.07 3.5268 188.509C4.73298 184.948 2.72263 176.62 3.12469 167.143C3.52676 157.666 10.2469 146.178 14.6122 140.262C18.9774 134.346 22.9405 133.14 25.6975 125.615C28.4545 118.091 25.2954 112.577 29.2586 107.006C33.2218 101.434 40.3441 99.8836 37.5871 93.9675C34.8301 88.0515 32.073 84.8925 33.2218 81.3314C34.428 77.7702 32.8196 78.5744 27.7077 75.4153C22.5383 72.2563 24.9508 70.246 17.4265 69.4993C9.90224 68.7526 5.93898 72.2563 0.827061 75.4153C-4.34229 78.5744 -6.69719 81.3313 -14.2215 82.1355C-21.7458 82.9396 -23.2967 82.9396 -31.223 84.0883C-39.1494 85.2945 -54.1979 86.8453 -42.3084 83.2842C-30.4189 79.7231 -25.3069 77.7702 -21.7458 76.9661C-18.1846 76.1619 -17.3806 75.0132 -15.0257 71.4521C-12.6708 67.891 -9.10955 59.1605 -5.9505 58.4138C-2.79145 57.6097 4.33089 57.6097 7.08788 56.0589C9.84487 54.5081 9.04045 50.1429 11.4528 48.9367C13.8652 47.7305 16.2204 47.7305 18.5753 45.7777C20.9303 43.8248 20.1835 40.2636 25.2954 38.6554C30.4073 37.0472 40.7459 35.0943 47.4661 35.8984C54.1863 36.7026 65.6736 39.0575 65.6736 39.0575C65.6736 39.0575 75.1511 43.0206 76.3572 45.3756C77.5634 47.7305 87.0403 48.1326 88.6485 47.7305C90.2568 47.3284 97.3791 45.7776 101.285 46.9264C105.191 48.0751 111.164 51.6937 116.735 53.2445C122.249 54.8528 124.26 54.4507 126.213 56.8056C128.166 59.1605 136.494 59.5626 136.494 59.5626L150.336 59.9647C150.336 59.9647 159.067 61.1709 161.422 63.1237C163.777 65.0766 169.75 67.891 171.703 71.4521C173.656 75.0132 178.021 76.6214 172.909 79.3784C167.797 82.1354 166.189 79.7805 162.226 78.1723C158.263 76.564 149.59 74.6112 145.627 76.564C141.663 78.5169 140.859 79.7231 136.896 81.7334C132.933 83.7437 130.176 85.6965 129.774 89.2576C129.372 92.8188 132.933 95.5758 134.943 96.782C136.953 97.9882 140.457 103.904 142.066 105.512C143.674 107.121 148.383 107.121 148.383 109.476C148.383 111.831 147.177 118.206 147.177 118.206C147.177 118.206 161.02 123.72 161.422 117.402C161.824 111.084 161.02 109.878 164.581 106.719C168.142 103.56 166.936 100.4 170.497 95.6332C174.058 90.8659 174.058 90.1193 176.413 88.511C178.768 86.9028 182.329 84.5478 185.89 85.3519C189.451 86.1561 194.621 90.5213 193.012 92.8762C191.404 95.2311 196.171 105.512 200.135 100.803C204.098 96.0927 206.453 84.9499 208.061 92.8762C209.669 100.803 205.304 101.951 206.855 107.523C208.405 113.094 217.538 114.243 216.332 119.814C215.126 125.386 211.564 122.571 211.162 127.339C210.76 132.106 217.078 134.059 213.919 136.816C210.76 139.573 205.591 141.985 204.04 143.536C202.489 145.087 191.002 151.462 187.039 152.266C183.075 153.07 174.403 152.266 174.403 152.266C174.403 152.266 166.074 152.668 162.513 153.875C158.952 155.081 159.756 155.828 156.999 159.044C154.242 162.26 154.242 161.801 148.671 164.213C143.157 166.568 141.549 168.981 139.596 170.933C137.643 172.886 133.278 178.458 131.669 180.411C130.061 182.364 127.706 186.327 125.351 189.141C122.996 191.956 120.182 193.104 117.827 195.459C115.472 197.814 113.462 200.227 113.462 200.227C113.462 200.227 109.9 205.741 109.498 208.957C109.096 212.174 109.499 214.873 108.292 217.687C107.086 220.502 105.133 221.249 105.133 221.249C105.133 221.249 101.572 212.518 99.9639 209.761C98.3556 207.004 97.207 204.592 93.6459 204.247C90.0848 203.902 86.9256 202.294 80.2054 203.845C73.4853 205.396 74.6915 203.845 68.718 206.602C62.8019 209.359 59.2407 212.518 59.2407 212.518C59.2407 212.518 54.8757 219.64 54.4736 222.397C54.0716 225.154 53.6694 231.472 53.6694 231.472C53.6694 231.472 53.2674 236.24 54.0715 238.193L55.6796 242.156L58.8386 244.109C58.8386 244.109 62.802 245.717 65.9611 242.156C69.1201 238.595 66.7651 238.193 72.2791 235.838C77.793 233.483 77.4486 232.277 81.7563 233.081C86.0641 233.885 86.5234 235.838 86.5234 235.838C86.5234 235.838 82.5605 243.362 81.7563 247.325C80.9522 251.288 79.4012 256.4 79.4012 256.4C79.4012 256.4 84.1686 259.559 87.7297 260.765C91.2908 261.972 93.6459 263.12 93.6459 263.12C93.6459 263.12 92.0375 268.29 92.4396 272.597C92.8417 276.963 93.6459 280.524 93.6459 280.524C93.6459 280.524 96.0008 283.683 99.3896 283.683H104.731L109.498 285.636C109.498 285.636 114.266 290.403 116.621 286.44C118.976 282.477 120.584 280.524 127.304 278.514C134.024 276.503 138.792 276.905 138.792 276.905L145.914 281.673C145.914 281.673 158.205 283.051 160.158 285.521C162.111 287.991 163.719 291.15 163.719 291.15C163.719 291.15 163.719 295.917 170.44 297.87C177.16 299.823 185.488 302.637 185.488 302.637C185.488 302.637 191.404 303.039 192.61 306.6C193.816 310.162 195.769 314.527 195.769 314.527C195.769 314.527 194.965 320.041 200.135 322.453C205.304 324.808 208.865 324.061 211.622 327.22C214.379 330.379 217.538 333.538 223.109 333.538C228.681 333.538 232.586 334.343 233.391 335.491C234.195 336.64 240.111 342.212 245.682 343.82L245.51 343.418Z" fill="#3DD865"/>
<path d="M349.529 17.863C352.343 23.4344 341.832 14.0147 336.491 24.1237C331.149 34.2326 332.642 29.1782 331.436 33.3137C330.23 37.4492 329.081 42.7908 329.081 42.7908L321.959 48.4196L316.905 51.6936C316.905 51.6936 318.398 57.6097 318.398 58.8158C318.398 60.022 314.262 63.2959 314.262 63.2959C314.262 63.2959 305.072 66.2826 300.305 66.857C295.538 67.4314 293.757 66.5698 289.909 68.9248C286.061 71.2797 283.361 72.4859 283.361 72.4859C283.361 72.4859 278.307 73.4049 274.746 76.047C271.184 78.6891 268.829 79.8953 267.049 81.9631C265.268 84.0308 261.133 90.0042 261.133 90.0042C261.133 90.0042 257.284 99.4814 253.436 95.0588C249.588 90.5786 247.807 89.4298 247.807 89.4298C247.807 89.4298 243.672 81.7333 243.672 78.4594C243.672 75.1855 242.466 71.3371 244.246 68.9822C246.027 66.6272 244.246 67.7761 249.875 63.9278C255.504 60.0795 257.916 61.86 256.423 57.0927C254.93 52.3254 257.916 52.9572 257.916 52.9572L251.656 49.1089C251.656 49.1089 253.436 45.2606 253.724 42.5611C254.011 39.8615 253.436 33.9455 251.369 33.9455C249.301 33.9455 248.095 35.4388 243.672 34.2326C239.192 33.0264 236.262 31.8777 236.262 31.8777L234.482 27.3976C234.482 27.3976 235.688 26.4786 241.892 24.4109C248.095 22.3431 247.233 23.2047 253.149 20.5626C259.065 17.863 256.423 18.2076 262.339 16.4271C268.255 14.6465 269.461 12.5788 275.09 13.1531C280.719 13.7275 284.28 14.9337 290.254 14.0721C296.227 13.2106 303.292 11.3726 303.292 11.3726C303.292 11.3726 316.675 7.81147 321.097 9.30484C325.52 10.7982 328.22 13.7849 328.22 13.7849C328.22 13.7849 348.093 14.9911 349.586 17.9204L349.529 17.863Z" fill="#3DD865"/>
<path d="M207.946 43.3652C204.902 43.078 212.713 49.9131 212.713 49.9131C212.713 49.9131 219.548 53.187 219.836 55.5419C220.123 57.8968 218.342 60.3092 218.342 61.8025C218.342 63.2959 221.616 64.7893 222.822 66.5699C224.029 68.3504 221.616 71.3372 221.616 71.3372C221.616 71.3372 218.687 71.9116 215.528 69.8438C212.369 67.7761 212.369 65.0765 210.588 68.6376C208.808 72.1987 207.027 71.6244 209.669 75.7599C212.311 79.8953 211.162 82.5949 211.162 82.5949C211.162 82.5949 203.466 75.7599 203.753 80.5272C204.04 85.2944 203.179 85.8688 203.179 85.8688C203.179 85.8688 197.837 79.0338 194.276 77.5404C190.715 76.047 188.015 75.1854 188.015 75.1854C188.015 75.1854 179.687 72.1987 184.741 68.3504C189.796 64.5021 194.851 68.0632 191.289 60.3092C187.728 52.5552 186.235 51.6936 186.235 51.6936C186.235 51.6936 181.755 52.8997 177.332 54.9675C172.909 57.0352 168.142 60.3092 166.361 61.5153C164.581 62.7215 160.445 65.9955 154.472 65.6508C148.556 65.3636 149.705 66.5699 144.076 64.617C138.447 62.6641 126.557 58.8159 124.202 58.8159C121.847 58.8159 117.655 56.4609 117.655 56.4609C117.655 56.4609 117.08 51.4064 119.148 48.4196C121.216 45.4329 124.49 41.2975 124.49 41.2975C124.49 41.2975 129.544 36.8174 134.598 36.8174C139.653 36.8174 141.721 38.5979 149.417 34.7496C157.114 30.9013 161.594 27.3402 161.594 27.3402C161.594 27.3402 169.291 24.3535 174.345 24.3535C179.4 24.3535 189.509 24.9278 196.918 22.5729C204.328 20.2179 211.162 17.2312 211.162 17.2312C211.162 17.2312 230.462 13.9573 236.378 13.9573C242.294 13.9573 238.158 12.4639 247.061 14.2445C255.964 16.025 281.466 14.2445 269.634 19.0118C257.802 23.7791 233.448 20.5052 223.052 23.7791C212.656 27.053 208.233 24.3534 208.808 31.4757C209.382 38.5979 228.394 45.1458 207.889 43.3652H207.946Z" fill="#3DD865"/>
<path d="M543.151 41.815L542.691 41.2974C542.691 41.2974 542.863 41.585 543.151 41.815Z" fill="#3DD865"/>
<path d="M324.429 171.106C322.649 168.98 323.74 170.761 324.429 171.106V171.106Z" fill="#3DD865"/>
<path d="M780.711 101.262C774.795 92.3591 764.112 88.7979 768.821 81.1013C773.589 73.4047 775.944 71.6242 775.944 71.6242V59.7346L770.027 53.8186L781.285 49.6831C781.285 49.6831 771.808 44.3415 764.054 42.5609C756.357 40.7804 745.674 33.0838 739.701 35.4387C733.785 37.7936 709.431 40.1486 709.431 40.1486C709.431 40.1486 698.174 34.8643 689.845 35.4387C681.517 36.0131 675.026 37.2192 675.026 37.2192H659.001C659.001 37.2192 657.795 37.7936 655.44 40.206C653.085 42.5609 645.331 44.9733 645.331 44.9733L635.222 43.7671C635.222 43.7671 629.881 38.9998 626.32 38.9998C622.758 38.9998 621.552 40.7804 621.552 40.7804C621.552 40.7804 621.552 41.9866 616.785 42.5609C612.017 43.1353 615.579 40.206 604.321 42.5609C593.063 44.9159 607.308 38.9998 598.405 42.5609C589.502 46.1221 587.147 46.6964 587.147 46.6964L593.063 36.5874C593.063 36.5874 597.199 33.0263 591.283 31.8201C585.367 30.6139 589.502 28.259 577.038 28.259H564.574C564.574 28.259 561.588 36.0131 558.658 35.3813C555.672 34.7495 552.742 29.4078 548.549 37.1618C545.562 42.7332 543.782 42.446 543.035 41.8142L549.698 49.6257C549.698 49.6257 555.04 57.3223 550.904 58.5285C546.769 59.7347 537.866 60.309 533.099 60.309C528.331 60.309 521.841 58.5285 512.938 58.5285C504.036 58.5285 503.461 56.7479 499.9 59.7346C496.339 62.7214 493.352 63.2958 489.791 65.0764C486.23 66.8569 478.533 66.8569 478.533 66.8569L465.495 61.5152H460.728C460.728 61.5152 444.703 62.7214 442.348 62.0896C439.993 61.5152 433.445 53.1868 423.968 59.7346C414.491 66.2825 426.955 59.7347 407.369 70.9924C387.783 82.2501 393.124 78.689 393.124 78.689C393.124 78.689 380.66 76.9085 379.454 88.1662C378.248 99.4239 380.028 101.204 380.028 101.204L400.189 95.8627C400.189 95.8627 407.885 82.1926 412.078 85.7537C416.214 89.3148 417.42 99.4239 415.065 105.914C412.71 112.462 410.929 115.391 400.246 119.584C389.563 123.72 388.357 117.804 387.782 123.72C387.208 129.636 389.563 130.842 389.563 130.842C389.563 130.842 378.305 130.842 373.538 132.623C368.771 134.403 358.719 137.964 358.719 137.964C358.719 137.964 346.255 132.048 353.952 141.525C361.648 151.003 360.5 145.661 361.074 149.222C361.649 152.783 361.649 155.138 361.074 157.55C360.5 159.905 358.719 162.318 358.719 162.318C358.719 162.318 349.816 146.867 337.353 158.757C324.889 170.646 324.888 168.234 324.888 170.646C324.888 171.163 324.659 171.22 324.429 171.048C325.118 171.852 326.21 173.173 327.875 175.356L335.572 185.465C335.572 185.465 337.352 189.026 342.12 190.232C345.106 190.979 343.269 193.334 340.569 195.631C338.099 197.699 336.548 200.571 335.744 203.672C335.342 205.281 333.849 207.578 330.23 210.967C320.121 220.444 321.902 218.664 320.121 220.444C318.341 222.225 312.999 227.566 312.999 227.566C312.999 227.566 309.438 232.334 307.657 237.675C305.877 243.017 307.083 250.139 307.083 250.139C307.083 250.139 308.117 253.126 306.681 262.029L305.302 270.932C305.302 270.932 310.07 275.699 312.425 279.834C314.78 283.97 313.631 284.602 316.56 289.943C319.547 295.285 319.547 296.491 323.682 298.272C327.818 300.052 330.23 302.407 330.23 302.407C330.23 302.407 325.463 302.407 338.559 303.613C351.597 304.82 349.242 304.188 351.597 304.82C353.952 305.394 357.513 305.394 357.513 305.394C357.513 305.394 362.855 298.272 366.99 298.272C371.126 298.272 376.467 301.258 376.467 301.258C376.467 301.258 374.687 302.465 380.028 305.394C385.37 308.381 385.37 297.697 390.137 308.381C394.905 319.064 399.04 316.709 394.905 319.064C390.769 321.419 382.441 320.27 386.576 324.98C390.712 329.747 400.82 337.444 402.027 339.799C403.233 342.154 401.452 343.934 401.452 347.495C401.452 351.057 402.659 354.618 402.659 354.618C402.659 354.618 403.865 356.398 402.659 361.74C401.453 367.082 400.304 368.862 400.304 371.849C400.304 374.836 399.729 375.41 399.729 380.177C399.729 384.945 401.969 389.654 403.233 394.996C404.497 400.338 406.852 407.46 406.852 407.46C406.852 407.46 415.18 426.472 416.329 432.388C417.535 438.304 421.096 445.426 421.096 445.426H428.793C428.793 445.426 440.682 445.426 447.173 441.865C453.72 438.304 457.282 432.962 459.636 430.607C461.991 428.252 463.198 423.485 463.198 421.13C463.198 418.775 462.623 417.569 466.184 414.582C469.745 411.595 471.526 406.254 471.526 406.254C471.526 406.254 466.184 399.706 476.293 390.803C486.402 381.9 485.77 385.461 487.551 380.12C489.331 374.778 492.318 356.973 492.318 356.973C492.318 356.973 488.757 347.495 488.757 341.522C488.757 335.548 489.331 331.413 492.893 327.278C496.454 323.142 498.809 319.581 503.002 314.239C507.137 308.898 514.259 307.117 515.465 304.762C516.671 302.407 523.794 293.504 525.574 288.163C525.574 288.163 525.574 288.048 525.574 287.99C527.47 282.132 521.726 276.675 515.925 278.628C513.627 279.432 511.33 280.064 509.492 280.409C502.944 281.615 494.041 280.983 492.893 278.054C491.686 275.067 490.538 271.506 489.906 266.796C489.332 262.029 486.345 252.552 484.564 250.197C482.784 247.842 478.648 240.088 476.236 235.952C473.881 231.817 470.894 224.695 467.907 222.282C464.921 219.927 463.772 212.805 463.772 212.805C463.772 212.805 474.455 217.572 475.661 219.927C476.867 222.282 483.99 234.172 487.551 239.513C491.112 244.855 499.441 251.403 500.015 255.538C500.589 259.674 497.66 267.428 500.589 268.577C503.519 269.725 521.382 262.029 527.872 259.1C534.42 256.113 543.897 253.183 545.103 250.197C546.309 247.21 546.309 244.855 545.677 239.513C545.103 234.172 545.678 235.952 542.691 232.391C539.704 228.83 537.349 219.353 530.801 224.063C524.253 228.83 522.473 234.172 521.324 228.198C520.118 222.282 517.763 216.941 515.982 214.528C514.202 212.173 511.215 208.612 513.628 207.98C515.983 207.406 520.175 214.528 522.53 215.103C524.885 215.677 524.311 215.103 532.007 216.883C539.704 218.664 537.349 221.65 547.458 222.799C557.567 224.005 560.496 219.812 567.618 224.58C574.741 229.347 573.535 228.141 577.096 231.702C580.657 235.263 588.353 237.044 588.353 237.044C588.353 237.044 588.353 235.837 592.489 246.521C596.624 257.204 600.186 260.191 601.966 266.681C603.747 273.229 606.102 280.351 606.102 280.351C606.102 280.351 619.14 292.241 619.14 279.145C619.14 266.049 610.811 266.107 618.565 258.985C626.262 251.862 630.455 253.643 631.604 246.521C632.81 239.398 638.726 233.482 638.726 233.482C638.726 233.482 651.764 227.566 652.97 234.689C654.176 241.811 664.86 244.166 665.434 253.7C666.009 263.235 671.35 260.248 673.763 255.481C676.118 250.714 683.24 273.861 683.24 277.422C683.24 280.983 681.459 285.75 683.24 291.666C685.02 297.582 686.801 305.911 686.801 305.911C686.801 305.911 677.898 307.691 683.24 317.8C688.581 327.909 700.471 339.167 700.471 339.167C700.471 339.167 707.593 341.522 717.702 346.289C727.811 351.057 732.521 356.398 741.424 356.973C750.327 357.547 755.094 359.328 741.424 349.85C727.754 340.373 707.593 329.058 707.593 329.058C707.593 329.058 696.91 314.814 695.129 302.924C693.349 291.035 694.555 289.886 690.994 285.119C687.433 280.351 685.652 269.668 691.568 273.229C697.484 276.79 715.921 292.241 714.715 277.996C713.509 263.752 707.019 257.204 705.813 255.424C704.606 253.643 691.568 241.753 704.607 239.398C717.645 237.044 728.96 229.29 728.96 229.29C728.96 229.29 742.63 204.362 736.082 197.24C729.534 190.117 723.044 189.543 724.824 178.86C726.605 168.176 730.74 157.493 736.082 166.396C741.424 175.299 756.874 177.653 753.313 171.163C749.752 164.615 741.309 156.919 749.982 148.016C758.655 139.113 760.435 127.224 757.449 120.101C754.462 112.979 754.462 109.992 744.411 105.282C734.359 100.573 727.811 89.2574 727.811 89.2574L744.411 80.929C744.411 80.929 747.397 67.259 752.107 73.8068C756.874 80.3547 750.901 84.4901 763.365 93.3929C775.829 102.296 786.512 109.992 780.596 101.09L780.711 101.262Z" fill="#3DD865"/>
<path d="M585.768 646.169C587.721 644.217 600.128 630.489 600.128 630.489C600.128 630.489 601.449 615.44 617.761 610.214C634.131 604.987 632.81 606.308 639.989 603.034C647.169 599.76 676.577 614.119 658.312 595.854C639.989 577.532 647.226 581.495 647.226 581.495C647.226 581.495 640.736 572.994 624.998 571.673C609.26 570.352 612.592 568.399 596.854 569.031C581.173 569.663 584.447 567.71 568.767 567.078C553.086 566.447 555.671 564.436 545.907 567.078C536.085 569.721 536.774 568.399 528.274 571.673C519.773 574.947 517.82 574.947 510.64 577.532C503.461 580.174 497.544 580.174 497.544 580.174V571.673C497.544 571.673 484.449 569.031 477.958 565.757C471.411 562.483 464.231 565.068 459.004 565.757C453.777 566.447 447.919 565.757 440.682 568.399C433.445 571.041 440.05 568.399 425.633 571.673C411.216 574.947 421.038 574.315 411.274 574.947C401.452 575.579 402.773 572.994 394.272 575.579C385.772 578.221 390.999 576.211 381.177 578.221C371.355 580.174 376.582 574.947 366.817 579.542C356.996 584.137 375.318 577.589 353.09 585.401C330.862 593.27 333.504 591.259 333.504 591.259C333.504 591.259 320.408 593.902 320.408 597.118C320.408 600.334 323.682 603.666 323.682 603.666C323.682 603.666 327.588 608.893 320.408 611.535C313.228 614.177 315.181 613.488 304.728 614.177C294.274 614.809 291.632 614.809 291.632 614.809C291.632 614.809 267.278 611.535 261.822 610.214C256.365 608.893 256.365 605.159 256.365 605.159C256.365 605.159 274.688 597.807 271.069 591.891C267.451 586.033 260.903 580.806 260.903 580.806C260.903 580.806 256.825 580.174 261.822 574.258C266.819 568.399 269.404 563.804 264.866 559.209C260.271 554.614 255.734 556.567 255.734 556.567C255.734 556.567 251.828 564.436 249.186 568.342C246.544 572.248 246.544 574.89 246.544 574.89C246.544 574.89 260.903 580.748 247.176 585.975C233.448 591.202 226.9 591.202 221.673 591.834C216.447 592.466 217.078 590.513 206.625 595.108C196.171 599.703 184.397 599.243 173.943 601.081C163.489 602.919 157.573 604.24 157.573 604.24C157.573 604.24 146.488 606.193 141.204 612.741C135.977 619.289 119.607 637.554 119.607 637.554L124.202 656.508C124.202 656.508 168.027 681.321 171.243 683.963C174.46 686.605 579.163 673.51 579.163 673.51L585.711 646.055L585.768 646.169Z" fill="#3DD865"/>
</g>
</g>
<defs>
<filter id="filter0_d_125_4049" x="0" y="0" width="645" height="645" filterUnits="userSpaceOnUse" color-interpolation-filters="sRGB">
<feFlood flood-opacity="0" result="BackgroundImageFix"/>
<feColorMatrix in="SourceAlpha" type="matrix" values="0 0 0 0 0 0 0 0 0 0 0 0 0 0 0 0 0 0 127 0" result="hardAlpha"/>
<feOffset dx="1" dy="2"/>
<feGaussianBlur stdDeviation="1"/>
<feComposite in2="hardAlpha" operator="out"/>
<feColorMatrix type="matrix" values="0 0 0 0 0 0 0 0 0 0 0 0 0 0 0 0 0 0 0.25 0"/>
<feBlend mode="normal" in2="BackgroundImageFix" result="effect1_dropShadow_125_4049"/>
<feBlend mode="normal" in="SourceGraphic" in2="effect1_dropShadow_125_4049" result="shape"/>
</filter>
</defs>
</svg>
