<svg width="28" height="25" viewBox="0 0 28 25" fill="none" xmlns="http://www.w3.org/2000/svg">
<path d="M11.1803 7.1965L10.0774 7.48429C9.59237 7.63995 9.13843 7.78973 8.70879 7.98356L8.61566 8.00102C8.5158 8.06829 8.42557 8.10138 8.32278 8.15302C8.08614 8.26212 7.84951 8.37121 7.61287 8.4803L5.82981 4.28358C5.59132 3.69718 6.17379 3.11868 6.74085 3.40074L13.9173 6.79664L13.8397 6.81119C12.9344 6.86765 12.0437 7.00226 11.1648 7.19941L11.1803 7.1965Z" fill="white"/>
<path d="M4.18151 23.0889L6.26451 18.9441C6.31195 18.8543 6.37784 18.7772 6.44666 18.7158C6.74191 18.9193 7.04976 19.1044 7.37313 19.2865C7.37313 19.2865 7.37315 19.2865 7.3916 19.2992C8.13354 19.7427 8.85788 20.0923 9.66951 20.3933L10.7345 20.7599C11.247 20.9228 11.7848 21.0485 12.3041 21.1615C12.2731 21.1673 12.2605 21.1859 12.2324 21.2073C12.2324 21.2073 12.2168 21.2102 12.2013 21.2131L5.73595 23.7523C5.73595 23.7523 5.73595 23.7523 5.72043 23.7552L5.03276 24.0297C4.44789 24.2527 3.89983 23.6434 4.17857 23.0733L4.18151 23.0889Z" fill="white"/>
<path d="M26.5342 13.6712C26.9346 14.1787 26.9083 14.8956 26.4819 15.3639C23.6912 18.4764 19.5937 20.3612 15.0967 20.2011C13.415 20.1442 11.8076 19.7982 10.3173 19.22L10.3386 18.3907L10.4972 13.4091L10.6562 8.68651C12.1762 8.22352 13.8022 7.98333 15.484 8.04022C19.981 8.20038 23.939 10.3711 26.5342 13.6712ZM17.8684 12.7877C17.0128 13.7087 17.0592 15.1564 17.9919 16.0172C18.909 16.881 20.3471 16.8379 21.1998 15.9012C22.0555 14.9802 22.0091 13.5325 21.0764 12.6717C20.1593 11.808 18.7212 11.8511 17.8684 12.7877Z" fill="white"/>
<path d="M9.33779 10.568L9.07736 18.6918C8.81228 18.5635 8.5598 18.4166 8.31024 18.2854C8.07621 18.1512 7.88581 17.9928 7.6673 17.8558C7.55658 17.7794 7.43032 17.7059 7.31959 17.6296C7.09815 17.4769 6.86413 17.3428 6.63976 17.1745C6.22792 16.8633 5.84127 16.5152 5.46721 16.1484L5.68827 11.414C6.8011 10.4933 8.05482 9.72422 9.39615 9.16527L9.35622 10.5806L9.33779 10.568Z" fill="white"/>
</svg>
