<svg width="597" height="624" viewBox="0 0 597 624" fill="none" xmlns="http://www.w3.org/2000/svg">
<path d="M299.94 517.524C414.957 517.524 508.197 424.284 508.197 309.267C508.197 194.25 414.957 101.01 299.94 101.01C184.923 101.01 91.6832 194.25 91.6832 309.267C91.6832 424.284 184.923 517.524 299.94 517.524Z" fill="#A86F48"/>
<path d="M90.8031 294.325C91.4286 295.159 92.0309 295.97 92.6332 296.804C92.6332 296.804 92.6332 296.804 92.6332 296.781C92.0078 295.947 91.4054 295.136 90.8031 294.348V294.325Z" fill="#E0DB99"/>
<path d="M508.452 297.847C508.545 299.376 508.591 300.905 508.661 302.41C508.614 300.881 508.545 299.352 508.452 297.847Z" fill="#B0877D"/>
<path d="M508.66 303.128C508.707 304.819 508.73 306.51 508.753 308.224C508.753 306.533 508.707 304.842 508.66 303.128Z" fill="#B0877D"/>
<path d="M508.081 292.448C508.197 293.931 508.313 295.39 508.383 296.873C508.29 295.39 508.197 293.931 508.081 292.448Z" fill="#B0877D"/>
<path d="M475.766 421.827C476.855 420.136 477.921 418.445 478.94 416.73C477.897 418.445 476.855 420.136 475.766 421.827Z" fill="#B0877D"/>
<path d="M102.502 373.899C101.204 369.914 100.023 365.883 98.9805 361.853C100.023 365.906 101.204 369.914 102.502 373.899Z" fill="#B0877D"/>
<path d="M121.081 415.062C120.015 413.279 118.996 411.472 118 409.642C118.996 411.449 120.038 413.255 121.081 415.062Z" fill="#B0877D"/>
<path d="M124.254 420.206C123.327 418.723 122.401 417.24 121.52 415.758C122.401 417.264 123.327 418.746 124.254 420.206Z" fill="#B0877D"/>
<path d="M104.471 379.62C103.846 377.882 103.243 376.122 102.664 374.361C103.243 376.122 103.846 377.859 104.471 379.62Z" fill="#B0877D"/>
<path d="M114.548 403.063C113.806 401.581 113.088 400.121 112.37 398.639C113.065 400.121 113.806 401.604 114.548 403.063Z" fill="#B0877D"/>
<path d="M436.292 467.162C434.392 468.807 432.469 470.382 430.524 471.934C432.469 470.382 434.392 468.784 436.292 467.162Z" fill="#B0877D"/>
<path d="M150.546 164.761C149.643 165.687 148.786 166.614 147.906 167.564C148.786 166.614 149.666 165.687 150.546 164.761Z" fill="#B0877D"/>
<path d="M132.709 185.865C134.447 183.502 136.253 181.163 138.107 178.869C129.813 189.178 122.632 200.089 116.586 211.463C117.072 212.181 117.559 212.922 118.069 213.64C122.122 204.467 126.987 195.595 132.686 187.116C132.686 186.699 132.686 186.282 132.709 185.865Z" fill="#B0877D"/>
<path d="M151.033 164.297C152.03 163.255 153.049 162.235 154.068 161.216C154.091 161.193 154.115 161.17 154.138 161.146C153.072 162.189 152.053 163.255 151.011 164.297H151.033Z" fill="#B0877D"/>
<path d="M389.035 497.811C389.197 497.718 389.382 497.648 389.544 497.556C389.359 497.648 389.197 497.718 389.011 497.787L389.035 497.811Z" fill="#B0877D"/>
<path d="M479.032 416.569C480.978 413.349 482.832 410.083 484.569 406.794C484.847 406.284 485.102 405.774 485.357 405.265C483.364 409.087 481.256 412.863 479.032 416.593V416.569Z" fill="#B0877D"/>
<path d="M140.91 175.487C140.076 176.483 139.219 177.503 138.408 178.522C139.242 177.503 140.076 176.483 140.91 175.487Z" fill="#B0877D"/>
<path d="M106.95 386.222C108.456 390.044 110.1 393.82 111.861 397.55C110.1 393.82 108.479 390.021 106.95 386.222Z" fill="#B0877D"/>
<path d="M491.495 325.992C477.063 318.394 462.168 311.027 447.574 303.29C445.697 319.529 441.528 335.559 435.064 350.825C448.477 356.153 461.774 361.875 474.631 368.894C481.511 373.296 488.739 377.35 495.874 381.496C493.65 387.519 491.148 393.45 488.345 399.287C497.449 380.292 503.518 360.161 506.53 339.66C508.059 329.305 508.777 318.834 508.73 308.386C508.753 317.514 508.198 326.641 507.039 335.722C502.105 332.061 496.939 328.772 491.472 326.015L491.495 325.992Z" fill="#B7866E"/>
<path d="M403.374 490.374C398.996 492.853 394.571 495.169 390.077 497.324C394.571 495.192 399.019 492.876 403.374 490.374Z" fill="#B0877D"/>
<path d="M423.737 477.17C421.721 478.653 419.659 480.112 417.598 481.502C419.659 480.089 421.721 478.653 423.737 477.17Z" fill="#B0877D"/>
<path d="M355.514 436.769C369.946 443.765 384.842 449.973 400.316 455.371C402.031 455.996 403.675 456.159 405.274 456.112C417.829 455.672 430.362 457.572 442.292 461.463C442.385 461.487 442.454 461.51 442.547 461.533C442.918 461.185 443.311 460.838 443.682 460.49C454.384 450.344 463.766 439.34 471.851 427.688C457.674 412.33 442.385 398.94 423.273 392.338C419.821 391.203 416.323 390.021 412.802 388.84C407.382 395.836 401.382 402.507 394.757 408.785C382.734 420.16 369.506 429.472 355.514 436.723V436.769Z" fill="#B7866E"/>
<path d="M429.667 472.629C427.767 474.135 425.845 475.617 423.922 477.03C425.868 475.594 427.767 474.135 429.667 472.629Z" fill="#B0877D"/>
<path d="M147.188 168.328C146.354 169.255 145.52 170.158 144.686 171.108C145.52 170.181 146.354 169.255 147.188 168.328Z" fill="#B0877D"/>
<path d="M416.764 482.08C412.617 484.883 408.401 487.501 404.093 489.979C408.378 487.524 412.617 484.883 416.764 482.08Z" fill="#B0877D"/>
<path d="M154.068 457.316C153.674 456.923 153.28 456.552 152.91 456.158C153.303 456.552 153.697 456.923 154.068 457.316Z" fill="#B0877D"/>
<path d="M190.669 486.25C189.812 485.718 188.955 485.162 188.098 484.629C188.955 485.185 189.812 485.718 190.669 486.25Z" fill="#B0877D"/>
<path d="M149.273 452.43C147.837 450.924 146.447 449.395 145.08 447.843C146.447 449.372 147.837 450.901 149.273 452.43Z" fill="#B0877D"/>
<path d="M135.837 436.747C134.563 435.125 133.335 433.48 132.13 431.812C133.335 433.48 134.586 435.125 135.837 436.747Z" fill="#B0877D"/>
<path d="M199.31 491.324C198.198 490.698 197.11 490.073 195.998 489.447C197.086 490.096 198.198 490.721 199.31 491.324Z" fill="#B0877D"/>
<path d="M178.067 477.749C177.372 477.239 176.677 476.729 176.006 476.22C176.7 476.729 177.395 477.239 178.067 477.749Z" fill="#B0877D"/>
<path d="M182.214 480.691C181.473 480.181 180.731 479.671 180.013 479.139C180.754 479.671 181.473 480.181 182.214 480.691Z" fill="#B0877D"/>
<path d="M173.967 474.691C173.318 474.181 172.647 473.695 171.998 473.162C172.647 473.672 173.295 474.181 173.967 474.691Z" fill="#B0877D"/>
<path d="M165.952 468.204C165.372 467.718 164.793 467.208 164.214 466.722C164.793 467.231 165.372 467.718 165.952 468.204Z" fill="#B0877D"/>
<path d="M161.991 464.776C161.458 464.29 160.902 463.826 160.369 463.34C160.902 463.826 161.435 464.313 161.991 464.776Z" fill="#B0877D"/>
<path d="M92.6797 296.78C92.6797 296.78 92.6797 296.78 92.6566 296.757C92.6566 296.757 92.6566 296.757 92.6566 296.78C91.4751 316.378 93.0737 336.092 97.4288 355.365C93.0737 336.115 91.5215 316.378 92.7029 296.78H92.6797Z" fill="#B0877D"/>
<path d="M213.835 119.843C194.839 128.53 176.863 140.252 160.624 154.985C160.67 154.939 160.717 154.916 160.74 154.869C169.079 147.317 177.882 140.553 187.033 134.599C187.033 134.854 187.033 135.132 187.033 135.387C199.519 127.858 212.723 122.067 226.321 117.99C225.927 117.017 225.557 116.021 225.163 115.048C241.518 108.724 258.498 104.531 275.663 102.492C276.775 105.249 277.864 108.029 278.976 110.739C291.184 110.948 303.369 112.453 315.299 115.233C313.122 110.484 310.875 105.805 308.466 101.172C319.863 101.612 331.214 102.956 342.403 105.249C346.944 113.218 351.09 121.418 354.959 129.804C371.846 138.491 387.599 150.12 401.405 164.715C423.644 188.204 437.984 216.304 444.539 245.747C466.384 260.712 489.087 274.31 507.989 291.869C504.214 246.396 485.519 201.826 451.697 166.104C405.923 117.758 342.473 96.1912 280.968 101.913C257.965 104.067 235.217 110.021 213.789 119.843H213.835Z" fill="#B7866E"/>
<path d="M227.549 449.162C200.816 441.378 175.658 427.016 154.601 406.167C160.137 415.642 165.975 425.024 172.183 434.359C200.584 475.408 236.213 506.218 284.397 516.874C254.977 514.604 225.973 506.126 199.518 491.462C230.745 508.79 265.563 517.5 300.427 517.523C300.566 517.523 300.682 517.523 300.821 517.523C276.752 496.582 251.803 473.231 227.525 449.162H227.549Z" fill="#B7866E"/>
<path d="M154.161 161.124C154.161 161.124 154.114 161.17 154.091 161.193C155.18 160.128 156.269 159.062 157.381 158.02C158.493 156.954 159.628 155.912 160.786 154.869C160.74 154.915 160.693 154.939 160.67 154.985C159.558 155.981 158.469 156.977 157.404 158.02C156.338 159.062 155.249 160.081 154.207 161.124H154.161Z" fill="#C4AFA9"/>
<path d="M367.815 161.217C377.22 188.228 396.934 209.054 419.497 227.192C427.536 233.817 435.991 239.887 444.562 245.748C438.006 216.304 423.667 188.205 401.428 164.715C387.622 150.144 371.869 138.492 354.982 129.805C359.707 140.044 363.97 150.538 367.792 161.194L367.815 161.217Z" fill="#C19287"/>
<path d="M154.624 406.168C175.681 427.017 200.839 441.379 227.572 449.163C187.032 408.948 148.346 366.763 118.718 330.51C118.532 330.278 118.324 330 118.115 329.745C128.076 356.223 140.215 381.45 154.624 406.145V406.168Z" fill="#C19287"/>
<path d="M289.424 396.994C310.55 412.329 332.442 425.557 355.537 436.769C369.529 429.518 382.757 420.206 394.78 408.832C401.405 402.554 407.428 395.882 412.825 388.886C339.275 364.03 255.787 329.212 248.49 241.878C245.409 199.463 241.795 156.514 226.367 118.036C212.769 122.113 199.542 127.905 187.079 135.433C188.422 182.83 189.372 227.678 203.387 271.993C218.607 322.216 244.158 366.254 289.424 397.017V396.994Z" fill="#C19287"/>
<path d="M118.069 213.64C123.142 221.076 128.424 228.535 133.868 236.041C132.501 219.987 132.316 203.632 132.71 187.115C127.011 195.594 122.123 204.466 118.092 213.64H118.069Z" fill="#C19287"/>
<path d="M292.203 160.984C292.574 214.473 294.705 271.715 338.974 305.212C368.533 327.011 402.123 337.713 435.064 350.802C441.528 335.536 445.697 319.528 447.574 303.266C400.594 278.34 356.904 249.43 342.912 195.547C335.546 167.911 327.021 140.807 315.346 115.256C303.415 112.476 291.23 110.993 279.022 110.762C279.532 112.013 280.041 113.287 280.574 114.515C285.694 129.41 291.717 145.255 292.203 160.938V160.984Z" fill="#C19287"/>
<path d="M284.397 516.875C236.213 506.242 200.584 475.409 172.183 434.36C165.975 425.024 160.137 415.619 154.601 406.168C140.169 381.473 128.03 356.246 118.092 329.768C111.838 321.915 101.367 308.34 92.6567 296.804C91.4752 316.402 93.0506 336.115 97.3825 355.389C97.4288 355.551 97.4518 355.69 97.4982 355.852C97.9383 357.798 98.4016 359.744 98.9112 361.667C98.9112 361.736 98.9344 361.783 98.9576 361.852C100 365.906 101.182 369.914 102.479 373.898C102.525 374.06 102.595 374.223 102.641 374.385C103.22 376.145 103.822 377.883 104.448 379.643C104.564 379.944 104.656 380.245 104.772 380.547C105.421 382.307 106.069 384.068 106.764 385.805C106.811 385.944 106.88 386.083 106.927 386.222C108.432 390.044 110.077 393.82 111.838 397.55C112 397.898 112.185 398.268 112.347 398.616C113.042 400.098 113.784 401.581 114.525 403.04C114.733 403.457 114.942 403.851 115.15 404.268C115.984 405.89 116.818 407.488 117.699 409.086C117.791 409.272 117.884 409.457 118 409.642C118.996 411.449 120.038 413.256 121.081 415.063C121.22 415.295 121.359 415.526 121.498 415.758C122.378 417.264 123.305 418.746 124.231 420.206C124.532 420.669 124.833 421.132 125.135 421.619C125.969 422.893 126.802 424.167 127.66 425.441C127.961 425.904 128.285 426.368 128.586 426.808C129.629 428.337 130.694 429.843 131.783 431.348C131.899 431.487 131.992 431.65 132.107 431.789C133.312 433.456 134.563 435.101 135.814 436.723C136.138 437.14 136.463 437.534 136.764 437.927C137.713 439.132 138.686 440.337 139.659 441.518C140.076 442.028 140.516 442.537 140.933 443.047C141.883 444.182 142.856 445.294 143.829 446.406C144.246 446.869 144.64 447.333 145.057 447.796C146.424 449.348 147.837 450.877 149.25 452.383C150.455 453.657 151.659 454.884 152.887 456.112C153.281 456.506 153.674 456.877 154.045 457.271C154.879 458.104 155.736 458.938 156.57 459.749C157.056 460.213 157.543 460.653 158.029 461.116C158.794 461.834 159.558 462.552 160.346 463.27C160.879 463.757 161.412 464.243 161.968 464.707C162.709 465.355 163.427 466.027 164.168 466.652C164.747 467.162 165.327 467.649 165.906 468.135C166.624 468.737 167.319 469.34 168.037 469.942C168.662 470.452 169.265 470.938 169.89 471.448C170.585 472.004 171.28 472.56 171.975 473.116C172.624 473.625 173.272 474.135 173.944 474.645C174.616 475.154 175.288 475.664 175.959 476.173C176.654 476.683 177.349 477.193 178.021 477.702C178.67 478.166 179.319 478.629 179.967 479.092C180.709 479.625 181.427 480.135 182.168 480.644C182.77 481.061 183.396 481.478 183.998 481.895C184.786 482.428 185.573 482.961 186.361 483.471C186.917 483.841 187.473 484.189 188.052 484.559C188.909 485.115 189.766 485.648 190.623 486.181C191.11 486.482 191.596 486.783 192.083 487.061C193.033 487.64 193.982 488.22 194.932 488.775C195.28 488.984 195.627 489.169 195.974 489.378C197.063 490.003 198.175 490.652 199.287 491.254C199.357 491.3 199.449 491.347 199.519 491.37C225.95 506.034 254.954 514.512 284.397 516.782V516.875Z" fill="#B7866E"/>
<path d="M525.016 393.334V393.287C521.773 388.515 505.117 369.404 501.41 364.215C498.376 373.666 494.692 385.874 490.407 394.863C509.194 426.53 537.965 469.224 549.942 499.802C556.428 517.245 560.505 532.882 562.197 546.596L561.247 569.043C561.108 572.263 560.413 575.483 558.791 578.263C558.791 578.263 558.791 578.31 558.768 578.31C555.872 583.197 551.703 585.838 547.394 586.742C516.491 593.853 466.083 568.279 429.111 545.507C416.254 537.376 403.189 528.62 390.147 519.4C386.742 516.898 383.475 514.489 380.232 512.056L379.792 511.732C379.537 511.547 379.282 511.338 379.004 511.153L378.078 510.435C286.783 441.402 190.507 342.555 120.362 245.863C114.895 238.334 109.498 230.666 104.309 223.068L101.946 219.593C100.927 218.087 99.9076 216.582 98.8883 215.076L97.6373 213.176C76.1166 179.725 60.1786 149.958 48.8044 122.067C41.6232 104.415 37.106 89.0561 34.9979 75.1337L34.9516 74.8093C33.6775 64.9409 32.8437 55.2577 36.8977 45.0418L37.8241 43.0959C39.5615 39.9686 42.2255 37.4899 45.7003 35.7061L47.4609 34.9417C57.4684 31.2815 67.3368 32.3471 76.6029 33.7602L76.9041 33.8066C90.9887 36.2158 106.394 41.15 124.023 48.8409C154.277 62.3695 196.554 92.5772 227.92 114.028C236.676 110.461 247.796 108.052 256.923 105.619C186.152 49.4432 111.745 4.20117 67.7307 0.378878C39.5384 -2.26198 16.7436 9.01957 6.6435 30.5634C-15.41 77.983 17.8557 166.243 100.278 279.036L103.313 283.182C103.591 283.53 103.845 283.9 104.123 284.248L106.579 287.514C115.498 299.328 125.297 312.046 131.111 319.32L131.69 320.061C161.018 355.922 199.264 397.619 239.271 437.279C264.15 461.95 288.543 484.698 311.755 504.875C315.184 507.863 318.589 510.782 321.994 513.678L326.581 517.384C372.078 554.032 416.509 582.943 458.693 603.305C516.074 629.227 554.482 630.756 579.547 608.123C604.334 583.058 614.782 525.446 524.993 393.264L525.016 393.334Z" fill="#DDD372"/>
</svg>
