<svg width="265" height="487" viewBox="0 0 265 487" fill="none" xmlns="http://www.w3.org/2000/svg">
<g filter="url(#filter0_d_267_16834)">
<path d="M173.163 421.075C176.312 404.014 175.852 386.449 171.836 371.405L161.743 333.444C160.049 327.085 155.297 324.836 151.134 328.461L150.508 329.004C146.345 332.61 144.338 340.695 146.032 347.054L154.855 380.187C159.496 397.636 159.551 418.245 155.002 437.69L149.108 462.894C147.469 469.893 149.421 477.008 153.51 478.927C157.949 481.021 163.032 476.136 164.451 468.4L173.181 421.095L173.163 421.075Z" fill="#56B751"/>
<path d="M182.316 477.047C182.445 469.564 176.054 462.197 167.231 461.945C158.409 461.673 148.721 459.56 148.592 467.043C148.463 474.527 150.765 481.836 160.914 482.146C169.736 482.418 182.206 484.531 182.335 477.047H182.316Z" fill="#56B751"/>
<path d="M132.199 421.075C135.349 404.014 134.888 386.449 130.873 371.405L120.78 333.444C119.085 327.085 114.333 324.836 110.171 328.461L109.545 329.004C105.382 332.61 103.374 340.695 105.069 347.054L113.891 380.187C118.533 397.636 118.588 418.245 114.039 437.69L108.145 462.894C106.506 469.893 108.458 477.008 112.547 478.927C116.986 481.021 122.069 476.136 123.487 468.4L132.218 421.095L132.199 421.075Z" fill="#56B751"/>
<path d="M141.353 477.047C141.482 469.564 135.091 462.197 126.269 461.945C117.446 461.673 107.758 459.56 107.629 467.043C107.5 474.527 109.802 481.836 119.951 482.146C128.774 482.418 141.243 484.531 141.372 477.047H141.353Z" fill="#56B751"/>
<path d="M51.1032 226.58L39.2601 213.61C35.9816 210.023 30.5666 209.849 27.0855 213.222C23.2912 216.886 23.3465 223.207 27.196 226.813L50.7532 248.895C59.2441 256.863 70.1111 261.478 81.4753 261.982L110.135 263.222C114.942 263.436 118.994 259.5 119.197 254.44L119.233 253.684C119.436 248.624 115.697 244.358 110.89 244.145L85.8773 243.059C72.7081 242.478 60.2572 236.584 51.1216 226.58H51.1032Z" fill="#56B751"/>
<path d="M210.258 228.384L222.543 215.898C225.95 212.428 231.365 212.466 234.718 215.976C238.364 219.795 238.107 226.096 234.128 229.547L209.816 250.699C201.048 258.318 190.034 262.525 178.652 262.564L149.974 262.68C145.167 262.699 141.244 258.609 141.225 253.548V252.792C141.207 247.732 145.093 243.603 149.9 243.583L174.931 243.486C188.119 243.428 200.772 238.019 210.239 228.384H210.258Z" fill="#56B751"/>
<path d="M141.262 229.372L140.027 220.26C140.027 211.904 137.044 205.138 133.378 205.138C129.713 205.138 126.729 211.904 126.729 220.26L125.219 229.546C111.552 238.116 101.459 267.604 101.459 302.773V317.236C101.459 359.113 116.378 366.635 133.986 366.635C151.594 366.635 165.261 359.093 165.261 317.236V302.773C165.261 267.371 155.039 237.728 141.225 229.391L141.262 229.372Z" fill="#6BF178"/>
<path d="M250.06 192.4L259.122 175.63C260.853 172.412 259.804 168.321 256.746 166.499C253.689 164.676 249.802 165.781 248.071 168.999L237.554 188.445L234.294 169.523C233.668 165.878 230.352 163.474 226.89 164.133C223.427 164.792 221.143 168.282 221.769 171.927L226.227 197.732C220.498 197.926 215.783 202.675 215.544 208.802L215.489 210.178C215.249 216.169 219.357 221.229 224.845 222.121C227.903 227.627 233.244 231.64 239.709 232.435C250.668 233.773 260.596 225.514 261.866 213.978C262.898 204.595 257.87 196.026 250.079 192.4H250.06Z" fill="#6BF178"/>
<path d="M12.9401 192.4L3.87818 175.63C2.14684 172.412 3.19671 168.321 6.25418 166.499C9.31166 164.676 13.1979 165.781 14.9293 168.999L25.4463 188.445L28.7063 169.523C29.3325 165.878 32.6479 163.474 36.1106 164.133C39.5733 164.792 41.8572 168.282 41.2309 171.927L36.7736 197.732C42.5018 197.926 47.217 202.675 47.4564 208.802L47.5117 210.178C47.7511 216.169 43.6437 221.229 38.155 222.121C35.0975 227.627 29.7562 231.64 23.2913 232.435C12.3323 233.773 2.40466 225.514 1.13378 213.978C0.102341 204.595 5.13064 196.026 12.9217 192.4H12.9401Z" fill="#6BF178"/>
<path d="M134.263 216.17C183.497 216.17 223.408 167.779 223.408 108.085C223.408 48.3913 183.497 0 134.263 0C85.029 0 45.1171 48.3913 45.1171 108.085C45.1171 167.779 85.029 216.17 134.263 216.17Z" fill="#6BF178"/>
<path d="M133.581 178.249L117.741 178.326C115.421 178.326 113.763 180.691 114.408 183.057C116.655 191.219 124.483 197.287 133.655 197.248C142.846 197.209 150.619 191.064 152.792 182.863C153.418 180.497 151.742 178.171 149.421 178.171L133.563 178.229L133.581 178.249Z" fill="white"/>
<path d="M119.833 156.419C133.54 148.089 135.243 124.182 123.637 103.021C112.03 81.8603 91.509 71.4592 77.8015 79.7896C64.094 88.1199 62.3908 112.027 73.9974 133.188C85.6039 154.349 106.125 164.75 119.833 156.419Z" fill="#11151C"/>
<path d="M194.158 133.181C205.764 112.02 204.061 88.1132 190.354 79.7828C176.646 71.4525 156.125 81.8536 144.518 103.014C132.912 124.175 134.615 148.082 148.323 156.413C162.03 164.743 182.551 154.342 194.158 133.181Z" fill="#11151C"/>
<path d="M78.1971 118.167C81.9545 129.547 87.9589 137.36 85.3987 137.981C82.8385 138.601 76.8157 130.342 73.0768 118.962C69.3194 107.581 69.2641 97.3834 71.8243 96.7436C74.3844 96.1232 74.4397 106.767 78.1971 118.167Z" fill="#38455B"/>
<path d="M189.371 118.167C185.614 129.547 179.61 137.36 182.17 137.981C184.73 138.601 190.753 130.342 194.492 118.962C198.249 107.581 198.304 97.3834 195.744 96.7436C193.184 96.1232 193.129 106.767 189.371 118.167Z" fill="#38455B"/>
<path d="M186.664 165.55C178.505 174.003 169.811 178.171 171.855 179.936C173.881 181.68 182.759 177.105 190.919 168.671C199.078 160.219 203.443 151.106 201.417 149.362C199.391 147.617 194.842 157.117 186.682 165.569L186.664 165.55Z" fill="#56B751"/>
<path d="M83.7032 167.74C91.8626 176.193 100.556 180.362 98.5117 182.126C96.4856 183.871 87.608 179.295 79.4485 170.862C71.2891 162.409 66.9239 153.297 68.95 151.552C70.976 149.807 75.5254 159.307 83.6848 167.76L83.7032 167.74Z" fill="#56B751"/>
<path d="M134.163 167.264C135.038 165.096 133.115 162.16 129.867 160.706C126.619 159.252 123.276 159.83 122.4 161.998C121.524 164.166 123.447 167.102 126.695 168.556C129.943 170.01 133.287 169.431 134.163 167.264Z" fill="#56B751"/>
<path d="M143.042 168.707C146.291 167.253 148.214 164.317 147.338 162.149C146.462 159.982 143.119 159.403 139.871 160.857C136.623 162.311 134.699 165.247 135.575 167.415C136.451 169.583 139.794 170.161 143.042 168.707Z" fill="#56B751"/>
<path d="M179.609 30.1663C164.193 16.944 149.237 13.144 148.243 12.4267C143.325 8.93695 171.008 12.6205 186.424 25.8428C201.841 39.065 208.066 64.9279 204.088 60.3137C197.917 53.1791 195.044 43.3885 179.628 30.1663H179.609Z" fill="#9DFF85"/>
</g>
<defs>
<filter id="filter0_d_267_16834" x="0" y="0" width="265" height="486.626" filterUnits="userSpaceOnUse" color-interpolation-filters="sRGB">
<feFlood flood-opacity="0" result="BackgroundImageFix"/>
<feColorMatrix in="SourceAlpha" type="matrix" values="0 0 0 0 0 0 0 0 0 0 0 0 0 0 0 0 0 0 127 0" result="hardAlpha"/>
<feOffset dx="1" dy="2"/>
<feGaussianBlur stdDeviation="1"/>
<feComposite in2="hardAlpha" operator="out"/>
<feColorMatrix type="matrix" values="0 0 0 0 0 0 0 0 0 0 0 0 0 0 0 0 0 0 0.25 0"/>
<feBlend mode="normal" in2="BackgroundImageFix" result="effect1_dropShadow_267_16834"/>
<feBlend mode="normal" in="SourceGraphic" in2="effect1_dropShadow_267_16834" result="shape"/>
</filter>
</defs>
</svg>
