<svg width="338" height="338" viewBox="0 0 338 338" fill="none" xmlns="http://www.w3.org/2000/svg">
<g filter="url(#filter0_d_125_3870)">
<path d="M167.946 333.77C260.081 333.77 334.77 259.081 334.77 166.946C334.77 74.812 260.081 0.122437 167.946 0.122437C75.812 0.122437 1.1225 74.812 1.1225 166.946C1.1225 259.081 75.812 333.77 167.946 333.77Z" fill="#7C421E"/>
<path d="M159.015 290.336C238.648 290.336 303.204 225.78 303.204 146.147C303.204 66.5133 238.648 1.95764 159.015 1.95764C79.3813 1.95764 14.8256 66.5133 14.8256 146.147C14.8256 225.78 79.3813 290.336 159.015 290.336Z" fill="#BB8E6F"/>
<g opacity="0.69">
<mask id="mask0_125_3870" style="mask-type:luminance" maskUnits="userSpaceOnUse" x="1" y="0" width="334" height="334">
<path d="M167.824 333.648C259.958 333.648 334.648 258.958 334.648 166.824C334.648 74.6896 259.958 0 167.824 0C75.6897 0 1 74.6896 1 166.824C1 258.958 75.6897 333.648 167.824 333.648Z" fill="white"/>
</mask>
<g mask="url(#mask0_125_3870)">
<path d="M140.478 17.6184C153.263 34.5027 156.995 37.6838 176.02 28.0181C195.046 18.3525 213.153 12.1739 223.002 12.7856C232.852 13.3974 236.339 -8.87029 194.984 -17.5571C153.63 -26.244 127.57 -35.1143 119.923 -23.0628C112.276 -11.0114 140.478 17.6796 140.478 17.6796V17.6184Z" fill="#D1AC8A"/>
<path d="M124.083 143.7C126.407 146.33 128.732 149.022 130.873 151.836C141.089 164.744 145.8 166.518 162.99 157.77C182.015 148.104 200.123 141.926 209.972 142.537C219.821 143.149 223.308 120.881 181.954 112.195C140.661 103.447 114.539 94.6374 106.893 106.689C100.897 116.11 116.803 135.625 124.022 143.761L124.083 143.7Z" fill="#D1AC8A"/>
<path d="M287.175 88.4587C288.093 95.7997 279.223 100.204 273.962 94.9433C270.108 91.0892 264.663 87.4799 256.771 84.6047C226.551 73.532 198.778 75.7955 170.148 76.0402C141.518 76.2849 120.78 76.285 102.06 60.3795C83.3409 44.474 76.6727 28.8744 59.9108 23.2463C43.1489 17.6182 34.5844 16.2724 19.9024 17.4347C5.22045 18.597 12.9898 4.95506 33.0552 -0.428331C53.1205 -5.81172 87.2561 -4.34353 105.486 14.1925C123.716 32.7284 139.805 49.8574 154.059 53.3443C168.313 56.8313 198.778 47.8386 209.422 46.5539C220.005 45.2081 249.063 49.6127 259.28 54.8737C266.682 58.6665 284.545 67.1698 287.175 88.5199V88.4587Z" fill="#D1AC8A"/>
<path d="M136.379 282.077C135.645 282.077 75.9997 264.031 75.2657 263.97C64.0095 262.501 46.5135 283.668 7.05573 245.311C-35.1549 204.324 -28.9763 123.451 -18.8213 102.407C-8.60511 81.3626 9.19686 52.0598 29.6293 45.6976C50.0617 39.3354 75.6938 45.2694 75.5714 74.878C75.4491 104.487 76.5503 142.782 96.4321 157.586C116.314 172.391 145.311 191.844 169.169 174.715C192.966 157.586 216.396 150.735 215.234 166.701C214.071 182.729 213.093 204.079 210.584 220.658C208.627 233.566 160.972 282.995 136.379 282.077Z" fill="#D1AC8A"/>
</g>
</g>
</g>
<defs>
<filter id="filter0_d_125_3870" x="0" y="0" width="337.77" height="337.77" filterUnits="userSpaceOnUse" color-interpolation-filters="sRGB">
<feFlood flood-opacity="0" result="BackgroundImageFix"/>
<feColorMatrix in="SourceAlpha" type="matrix" values="0 0 0 0 0 0 0 0 0 0 0 0 0 0 0 0 0 0 127 0" result="hardAlpha"/>
<feOffset dx="1" dy="2"/>
<feGaussianBlur stdDeviation="1"/>
<feComposite in2="hardAlpha" operator="out"/>
<feColorMatrix type="matrix" values="0 0 0 0 0 0 0 0 0 0 0 0 0 0 0 0 0 0 0.25 0"/>
<feBlend mode="normal" in2="BackgroundImageFix" result="effect1_dropShadow_125_3870"/>
<feBlend mode="normal" in="SourceGraphic" in2="effect1_dropShadow_125_3870" result="shape"/>
</filter>
</defs>
</svg>
