<svg width="877" height="1204" viewBox="0 0 877 1204" fill="none" xmlns="http://www.w3.org/2000/svg">
<g filter="url(#filter0_d_267_14168)">
<path d="M563.689 995.237C345.76 995.237 169.095 815.93 169.095 594.743C169.095 373.556 345.76 194.249 563.689 194.249C781.617 194.249 958.283 373.556 958.283 594.743C958.283 815.93 781.617 995.237 563.689 995.237Z" fill="#A86F48"/>
<path d="M168.613 572.78C168.437 575.72 168.349 578.661 168.218 581.556C168.305 578.616 168.437 575.676 168.613 572.78Z" fill="#B0877D"/>
<path d="M168.218 582.938C168.13 586.19 168.086 589.442 168.042 592.738C168.042 589.486 168.13 586.234 168.218 582.938Z" fill="#B0877D"/>
<path d="M169.314 562.4C169.095 565.252 168.875 568.058 168.744 570.909C168.919 568.058 169.095 565.252 169.314 562.4Z" fill="#B0877D"/>
<path d="M230.545 811.206C228.482 807.954 226.463 804.702 224.532 801.405C226.507 804.702 228.482 807.954 230.545 811.206Z" fill="#B0877D"/>
<path d="M305.338 898.388C308.937 901.551 312.58 904.58 316.267 907.565C312.58 904.58 308.937 901.507 305.338 898.388Z" fill="#B0877D"/>
<path d="M846.753 316.847C848.464 318.629 850.088 320.411 851.756 322.238C850.088 320.411 848.42 318.629 846.753 316.847Z" fill="#B0877D"/>
<path d="M880.549 357.431C877.257 352.887 873.834 348.388 870.323 343.978C886.036 363.802 899.643 384.784 911.099 406.658C910.177 408.039 909.255 409.464 908.29 410.845C900.609 393.204 891.391 376.142 880.593 359.837C880.593 359.035 880.593 358.233 880.549 357.431Z" fill="#B0877D"/>
<path d="M845.83 315.956C843.943 313.951 842.011 311.991 840.08 310.031C840.036 309.987 839.992 309.942 839.948 309.897C841.967 311.902 843.898 313.951 845.874 315.956H845.83Z" fill="#B0877D"/>
<path d="M394.879 957.326C394.571 957.148 394.22 957.014 393.913 956.836C394.264 957.014 394.571 957.148 394.923 957.281L394.879 957.326Z" fill="#B0877D"/>
<path d="M224.356 801.093C220.669 794.901 217.157 788.62 213.865 782.294C213.339 781.314 212.856 780.334 212.373 779.354C216.148 786.704 220.142 793.966 224.356 801.138V801.093Z" fill="#B0877D"/>
<path d="M865.012 337.474C866.592 339.389 868.216 341.349 869.753 343.31C868.172 341.349 866.592 339.389 865.012 337.474Z" fill="#B0877D"/>
<path d="M200.741 626.907C228.086 612.295 256.31 598.129 283.962 583.25C287.517 614.478 295.418 645.306 307.664 674.664C282.25 684.91 257.056 695.914 232.695 709.412C219.659 717.876 205.965 725.672 192.446 733.646C196.659 745.229 201.4 756.634 206.711 767.86C189.461 731.33 177.961 692.617 172.255 653.191C169.358 633.278 167.998 613.142 168.086 593.05C168.042 610.602 169.095 628.155 171.29 645.618C180.639 638.579 190.427 632.253 200.785 626.952L200.741 626.907Z" fill="#B7866E"/>
<path d="M367.709 943.026C376.005 947.793 384.388 952.248 392.903 956.391C384.388 952.293 375.961 947.838 367.709 943.026Z" fill="#B0877D"/>
<path d="M329.127 917.633C332.945 920.484 336.852 923.291 340.758 925.964C336.852 923.246 332.945 920.484 329.127 917.633Z" fill="#B0877D"/>
<path d="M458.392 839.94C431.047 853.394 402.824 865.333 373.503 875.713C370.255 876.916 367.139 877.228 364.111 877.138C340.321 876.292 316.575 879.945 293.97 887.429C293.795 887.474 293.663 887.518 293.487 887.563C292.785 886.895 292.039 886.226 291.337 885.558C271.058 866.046 253.282 844.885 237.963 822.477C264.825 792.941 293.795 767.192 330.006 754.495C336.546 752.313 343.174 750.041 349.846 747.769C360.117 761.222 371.484 774.052 384.038 786.125C406.818 807.999 431.881 825.907 458.392 839.851V839.94Z" fill="#B7866E"/>
<path d="M317.891 908.902C321.49 911.798 325.133 914.649 328.776 917.366C325.09 914.604 321.49 911.798 317.891 908.902Z" fill="#B0877D"/>
<path d="M853.117 323.708C854.698 325.49 856.278 327.227 857.858 329.054C856.278 327.272 854.698 325.49 853.117 323.708Z" fill="#B0877D"/>
<path d="M342.339 927.078C350.196 932.468 358.184 937.502 366.348 942.269C358.228 937.547 350.196 932.468 342.339 927.078Z" fill="#B0877D"/>
<path d="M840.081 879.455C840.827 878.698 841.573 877.985 842.276 877.228C841.529 877.985 840.783 878.698 840.081 879.455Z" fill="#B0877D"/>
<path d="M770.731 935.096C772.355 934.072 773.979 933.003 775.604 931.978C773.979 933.047 772.355 934.072 770.731 935.096Z" fill="#B0877D"/>
<path d="M849.166 870.055C851.888 867.159 854.522 864.219 857.111 861.234C854.522 864.175 851.888 867.115 849.166 870.055Z" fill="#B0877D"/>
<path d="M874.625 839.896C877.039 836.777 879.365 833.614 881.647 830.407C879.365 833.614 876.995 836.777 874.625 839.896Z" fill="#B0877D"/>
<path d="M754.359 944.853C756.466 943.65 758.529 942.447 760.636 941.244C758.573 942.492 756.466 943.694 754.359 944.853Z" fill="#B0877D"/>
<path d="M794.609 918.747C795.926 917.767 797.243 916.787 798.516 915.807C797.199 916.787 795.882 917.767 794.609 918.747Z" fill="#B0877D"/>
<path d="M786.751 924.405C788.156 923.425 789.561 922.445 790.921 921.42C789.517 922.445 788.156 923.425 786.751 924.405Z" fill="#B0877D"/>
<path d="M802.376 912.866C803.605 911.886 804.878 910.95 806.107 909.926C804.878 910.906 803.649 911.886 802.376 912.866Z" fill="#B0877D"/>
<path d="M817.563 900.393C818.661 899.457 819.758 898.477 820.855 897.542C819.758 898.522 818.661 899.457 817.563 900.393Z" fill="#B0877D"/>
<path d="M825.069 893.8C826.079 892.864 827.132 891.973 828.142 891.038C827.132 891.973 826.122 892.909 825.069 893.8Z" fill="#B0877D"/>
<path d="M726.838 230.467C762.83 247.173 796.891 269.715 827.66 298.048C827.572 297.959 827.484 297.914 827.44 297.825C811.639 283.302 794.959 270.294 777.622 258.845C777.622 259.335 777.622 259.869 777.622 260.359C753.964 245.881 728.945 234.744 703.18 226.903C703.927 225.032 704.629 223.116 705.375 221.245C674.387 209.084 642.213 201.02 609.689 197.1C607.582 202.401 605.519 207.747 603.412 212.959C580.281 213.36 557.194 216.256 534.589 221.602C538.715 212.469 542.972 203.47 547.537 194.561C525.942 195.407 504.434 197.991 483.234 202.401C474.631 217.726 466.775 233.496 459.445 249.623C427.447 266.329 397.6 288.692 371.44 316.758C329.303 361.931 302.134 415.968 289.712 472.59C248.322 501.369 205.307 527.519 169.491 561.287C176.645 473.837 212.067 388.125 276.15 319.431C362.881 226.458 483.103 184.983 599.637 195.986C643.223 200.129 686.325 211.578 726.926 230.467H726.838Z" fill="#B7866E"/>
<path d="M700.854 863.774C751.506 848.806 799.173 821.185 839.072 781.091C828.581 799.312 817.521 817.354 805.757 835.307C751.945 914.248 684.438 973.498 593.142 993.99C648.885 989.624 703.839 973.32 753.964 945.12C694.797 978.443 628.826 995.193 562.768 995.238C562.505 995.238 562.285 995.238 562.022 995.238C607.626 954.965 654.899 910.06 700.898 863.774H700.854Z" fill="#B7866E"/>
<path d="M839.904 309.853C839.904 309.853 839.992 309.942 840.036 309.987C837.973 307.937 835.91 305.888 833.803 303.883C831.696 301.834 829.546 299.829 827.351 297.825C827.439 297.914 827.527 297.958 827.571 298.047C829.678 299.963 831.741 301.879 833.76 303.883C835.779 305.888 837.842 307.848 839.817 309.853H839.904Z" fill="#C4AFA9"/>
<path d="M435.084 310.031C417.263 361.975 379.911 402.025 337.16 436.906C321.929 449.647 305.908 461.319 289.668 472.59C302.089 415.968 329.259 361.931 371.395 316.758C397.555 288.737 427.402 266.329 459.4 249.623C450.446 269.314 442.37 289.494 435.127 309.987L435.084 310.031Z" fill="#C19287"/>
<path d="M839.028 781.091C799.13 821.185 751.462 848.805 700.81 863.774C777.622 786.437 850.923 705.314 907.061 635.595C907.412 635.149 907.807 634.615 908.203 634.125C889.329 685.044 866.329 733.558 839.028 781.047V781.091Z" fill="#C19287"/>
<path d="M583.615 763.45C543.585 792.941 502.107 818.378 458.346 839.94C431.835 825.996 406.772 808.088 383.992 786.214C371.438 774.141 360.027 761.311 349.8 747.857C489.159 700.057 647.347 633.1 661.173 465.15C667.011 383.581 673.858 300.988 703.091 226.992C728.856 234.833 753.918 245.97 777.532 260.448C774.987 351.595 773.187 437.842 746.632 523.064C717.794 619.646 669.381 704.333 583.615 763.494V763.45Z" fill="#C19287"/>
<path d="M578.349 309.586C577.647 412.449 573.609 522.529 489.73 586.947C433.723 628.868 370.079 649.449 307.664 674.619C295.417 645.261 287.517 614.478 283.962 583.205C372.976 535.27 455.757 479.673 482.268 376.053C496.226 322.906 512.379 270.784 534.5 221.646C557.105 216.301 580.193 213.449 603.324 213.004C602.358 215.41 601.393 217.86 600.383 220.221C590.683 248.866 579.271 279.337 578.349 309.497V309.586Z" fill="#C19287"/>
<path d="M593.142 993.99C684.438 973.542 751.945 914.247 805.758 835.306C817.521 817.353 828.582 799.267 839.072 781.091C866.417 733.602 889.417 685.088 908.247 634.168C920.098 619.066 939.937 592.961 956.441 570.775C958.679 608.464 955.694 646.375 947.486 683.439C947.398 683.751 947.355 684.019 947.267 684.33C946.433 688.073 945.555 691.815 944.59 695.512C944.59 695.646 944.546 695.735 944.502 695.869C942.527 703.665 940.288 711.372 937.83 719.034C937.742 719.346 937.61 719.658 937.523 719.97C936.425 723.355 935.284 726.696 934.099 730.082C933.88 730.661 933.704 731.24 933.485 731.82C932.256 735.205 931.027 738.591 929.71 741.932C929.622 742.199 929.49 742.467 929.403 742.734C926.55 750.085 923.433 757.346 920.097 764.518C919.79 765.187 919.439 765.899 919.132 766.568C917.815 769.419 916.41 772.27 915.006 775.076C914.611 775.878 914.216 776.636 913.821 777.438C912.241 780.556 910.66 783.63 908.992 786.704C908.817 787.06 908.641 787.417 908.422 787.773C906.534 791.248 904.559 794.723 902.584 798.197C902.321 798.643 902.058 799.088 901.795 799.534C900.127 802.429 898.371 805.281 896.615 808.087C896.044 808.978 895.474 809.869 894.903 810.805C893.323 813.255 891.743 815.705 890.119 818.155C889.548 819.046 888.934 819.937 888.363 820.784C886.388 823.724 884.369 826.62 882.306 829.515C882.087 829.783 881.911 830.094 881.691 830.362C879.409 833.569 877.039 836.732 874.669 839.851C874.054 840.652 873.44 841.41 872.869 842.167C871.069 844.484 869.226 846.8 867.382 849.072C866.592 850.052 865.759 851.032 864.969 852.012C863.169 854.195 861.326 856.334 859.482 858.472C858.692 859.363 857.946 860.254 857.156 861.145C854.566 864.13 851.888 867.07 849.211 869.966C846.928 872.416 844.646 874.777 842.32 877.138C841.574 877.895 840.828 878.608 840.125 879.365C838.545 880.969 836.921 882.573 835.341 884.132C834.419 885.023 833.498 885.87 832.576 886.761C831.127 888.142 829.679 889.523 828.187 890.904C827.177 891.839 826.167 892.775 825.114 893.666C823.709 894.913 822.349 896.205 820.944 897.408C819.847 898.388 818.75 899.323 817.652 900.259C816.292 901.417 814.975 902.575 813.614 903.734C812.429 904.714 811.288 905.649 810.103 906.629C808.786 907.698 807.469 908.768 806.153 909.837C804.924 910.817 803.695 911.797 802.422 912.777C801.149 913.757 799.876 914.737 798.603 915.717C797.286 916.697 795.97 917.677 794.697 918.658C793.468 919.548 792.238 920.439 791.009 921.33C789.605 922.355 788.244 923.335 786.84 924.315C785.699 925.117 784.513 925.919 783.372 926.721C781.88 927.745 780.388 928.77 778.895 929.75C777.842 930.463 776.788 931.131 775.691 931.844C774.067 932.913 772.443 933.938 770.819 934.962C769.897 935.541 768.975 936.121 768.054 936.655C766.254 937.769 764.454 938.883 762.655 939.952C761.997 940.353 761.338 940.709 760.68 941.11C758.617 942.313 756.51 943.56 754.403 944.719C754.271 944.808 754.096 944.897 753.964 944.941C703.883 973.141 648.929 989.446 593.142 993.811V993.99Z" fill="#B7866E"/>
<path d="M137.229 756.411V756.322C143.374 747.145 174.933 710.392 181.956 700.413C187.706 718.589 194.685 742.066 202.805 759.351C167.208 820.25 112.693 902.353 90.0006 961.158C77.7107 994.703 69.9854 1024.77 66.7812 1051.15L68.5811 1094.31C68.8444 1100.51 70.1614 1106.7 73.2339 1112.04C73.2339 1112.04 73.2339 1112.13 73.2778 1112.13C78.7644 1121.53 86.6647 1126.61 94.8286 1128.35C153.381 1142.03 248.892 1092.84 318.944 1049.05C343.305 1033.42 368.06 1016.58 392.771 998.846C399.223 994.035 405.412 989.402 411.557 984.724L412.392 984.1C412.874 983.744 413.357 983.343 413.884 982.986L415.64 981.605C588.62 848.85 771.037 658.76 903.944 472.813C914.303 458.335 924.529 443.589 934.361 428.977L938.838 422.294C940.77 419.399 942.701 416.503 944.632 413.607L947.002 409.954C987.778 345.626 1017.98 288.381 1039.53 234.744C1053.13 200.798 1061.69 171.262 1065.69 144.488L1065.78 143.864C1068.19 124.886 1069.77 106.265 1062.09 86.6188L1060.33 82.8767C1057.04 76.8626 1051.99 72.0959 1045.41 68.6656L1042.07 67.1955C1023.11 60.1568 1004.41 62.206 986.857 64.9235L986.286 65.0126C959.6 69.6457 930.411 79.1346 897.009 93.9248C839.685 119.941 759.581 178.033 700.151 219.285C683.559 212.425 662.491 207.792 645.197 203.114C779.289 95.0831 920.272 8.07917 1003.67 0.728612C1057.08 -4.34996 1100.28 17.3453 1119.41 58.7758C1161.2 149.967 1098.17 319.698 941.998 536.607L936.249 544.581C935.722 545.249 935.239 545.962 934.713 546.63L930.06 552.912C913.161 575.632 894.595 600.089 883.578 614.077L882.48 615.503C826.913 684.465 754.446 764.653 678.643 840.92C631.503 888.365 585.284 932.112 541.304 970.914C534.808 976.661 528.355 982.274 521.903 987.842L513.213 994.97C427.008 1065.45 342.822 1121.04 262.893 1160.2C154.172 1210.05 81.3975 1212.99 33.9058 1169.47C-13.0592 1121.27 -32.8545 1010.47 137.273 756.277L137.229 756.411Z" fill="#DDD372"/>
</g>
<defs>
<filter id="filter0_d_267_14168" x="6.10352e-05" y="0" width="1135" height="1204" filterUnits="userSpaceOnUse" color-interpolation-filters="sRGB">
<feFlood flood-opacity="0" result="BackgroundImageFix"/>
<feColorMatrix in="SourceAlpha" type="matrix" values="0 0 0 0 0 0 0 0 0 0 0 0 0 0 0 0 0 0 127 0" result="hardAlpha"/>
<feOffset dx="1" dy="2"/>
<feGaussianBlur stdDeviation="1"/>
<feComposite in2="hardAlpha" operator="out"/>
<feColorMatrix type="matrix" values="0 0 0 0 0 0 0 0 0 0 0 0 0 0 0 0 0 0 0.25 0"/>
<feBlend mode="normal" in2="BackgroundImageFix" result="effect1_dropShadow_267_14168"/>
<feBlend mode="normal" in="SourceGraphic" in2="effect1_dropShadow_267_14168" result="shape"/>
</filter>
</defs>
</svg>
