<svg width="239" height="465" viewBox="0 0 239 465" fill="none" xmlns="http://www.w3.org/2000/svg">
<g filter="url(#filter0_d_267_16805)">
<path d="M174.388 401.879C177.44 385.596 176.994 368.831 173.103 354.473L163.322 318.242C161.68 312.173 157.075 310.027 153.042 313.487L152.435 314.005C148.401 317.447 146.456 325.163 148.098 331.232L156.647 362.855C161.145 379.508 161.198 399.178 156.79 417.737L151.078 441.791C149.49 448.471 151.382 455.262 155.344 457.094C159.646 459.092 164.572 454.429 165.946 447.046L174.406 401.897L174.388 401.879Z" fill="#56B751"/>
<path d="M183.241 455.299C183.366 448.157 177.173 441.125 168.623 440.885C160.074 440.626 150.686 438.609 150.561 445.751C150.436 452.894 152.667 459.869 162.501 460.166C171.051 460.425 183.134 462.441 183.259 455.299H183.241Z" fill="#56B751"/>
<path d="M134.694 401.879C137.746 385.596 137.299 368.831 133.408 354.473L123.628 318.242C121.986 312.173 117.381 310.027 113.347 313.487L112.74 314.005C108.706 317.447 106.761 325.163 108.403 331.232L116.952 362.855C121.45 379.508 121.504 399.178 117.095 417.737L111.384 441.791C109.795 448.471 111.687 455.262 115.649 457.094C119.951 459.092 124.877 454.429 126.251 447.046L134.711 401.897L134.694 401.879Z" fill="#56B751"/>
<path d="M143.546 455.299C143.671 448.157 137.478 441.125 128.928 440.885C120.379 440.626 110.991 438.609 110.866 445.751C110.741 452.894 112.972 459.869 122.806 460.166C131.356 460.425 143.439 462.441 143.564 455.299H143.546Z" fill="#56B751"/>
<path d="M56.0893 216.251L44.6128 203.872C41.4358 200.448 36.1884 200.282 32.8151 203.501C29.1383 206.999 29.1918 213.031 32.9221 216.473L55.7502 237.548C63.9782 245.153 74.5088 249.557 85.5212 250.038L113.293 251.222C117.952 251.426 121.878 247.67 122.075 242.84L122.11 242.119C122.307 237.289 118.683 233.218 114.025 233.015L89.787 231.979C77.0254 231.424 64.9599 225.798 56.1071 216.251H56.0893Z" fill="#56B751"/>
<path d="M38.2231 214.363C49.3069 209.385 55.9286 199.708 53.0194 192.732C50.9847 187.829 44.7913 185.571 37.4378 186.385C32.119 173.636 20.8745 165.458 11.2721 169.769C1.65185 174.08 -1.82858 187.903 3.49023 200.652C7.64889 210.625 15.9841 216.99 24.0337 217.194C28.2994 217.49 33.2969 216.583 38.2409 214.381L38.2231 214.363Z" fill="#6BF178"/>
<path d="M202.249 282.992L209.781 298.276C211.87 302.513 216.849 304.234 220.972 302.162C225.47 299.904 227.094 294.131 224.488 289.709L208.514 262.693C202.749 252.942 193.914 245.577 183.491 241.821L157.236 232.366C152.827 230.774 148.026 233.198 146.491 237.75L146.259 238.435C144.724 243.005 147.062 247.983 151.453 249.574L174.37 257.827C186.436 262.175 196.413 271.187 202.232 282.973L202.249 282.992Z" fill="#56B751"/>
<path d="M220.669 290.597C212.012 288.858 203.856 293.502 202.464 300.959C201.482 306.196 204.088 311.433 208.728 314.689C206.176 328.326 209.103 341.279 216.617 342.778C224.131 344.295 232.288 334.47 234.84 320.832C236.839 310.156 234.787 300.312 230.2 295.815C227.844 293.28 224.524 291.356 220.669 290.579V290.597Z" fill="#6BF178"/>
<path d="M143.457 218.916L142.261 210.219C142.261 202.244 139.37 195.786 135.818 195.786C132.266 195.786 129.375 202.244 129.375 210.219L127.911 219.082C114.668 227.261 104.887 255.405 104.887 288.971V302.774C104.887 342.742 119.344 349.922 136.407 349.922C153.47 349.922 166.714 342.724 166.714 302.774V288.971C166.714 255.183 156.808 226.891 143.421 218.934L143.457 218.916Z" fill="#6BF178"/>
<path d="M136.693 206.316C184.402 206.316 223.079 160.131 223.079 103.158C223.079 46.1854 184.402 0 136.693 0C88.9829 0 50.3066 46.1854 50.3066 103.158C50.3066 160.131 88.9829 206.316 136.693 206.316Z" fill="#6BF178"/>
<path d="M122.702 149.29C135.985 141.339 137.636 118.521 126.388 98.3254C115.141 78.1293 95.2553 68.2024 81.9721 76.153C68.689 84.1036 67.0386 106.921 78.2858 127.117C89.5331 147.313 109.419 157.24 122.702 149.29Z" fill="#11151C"/>
<path d="M194.706 127.114C205.953 106.918 204.303 84.1006 191.02 76.15C177.737 68.1994 157.851 78.1263 146.604 98.3224C135.356 118.518 137.007 141.336 150.29 149.286C163.573 157.237 183.459 147.31 194.706 127.114Z" fill="#11151C"/>
<path d="M82.362 112.78C86.0031 123.641 91.8216 131.099 89.3407 131.691C86.8598 132.283 81.0234 124.4 77.4002 113.539C73.7591 102.677 73.7056 92.9439 76.1865 92.3333C78.6674 91.7411 78.7209 101.9 82.362 112.78Z" fill="#38455B"/>
<path d="M190.095 112.78C186.454 123.641 180.635 131.099 183.116 131.691C185.597 132.283 191.434 124.4 195.057 113.539C198.698 102.677 198.751 92.9439 196.27 92.3333C193.79 91.7411 193.736 101.9 190.095 112.78Z" fill="#38455B"/>
<path d="M187.453 158.004C179.546 166.071 171.122 170.05 173.103 171.734C175.066 173.399 183.669 169.032 191.576 160.983C199.483 152.915 203.713 144.219 201.75 142.553C199.786 140.888 195.378 149.955 187.471 158.022L187.453 158.004Z" fill="#56B751"/>
<path d="M87.681 160.094C95.5878 168.161 104.012 172.14 102.031 173.823C100.068 175.489 91.4649 171.122 83.5581 163.073C75.6512 155.005 71.4212 146.308 73.3845 144.643C75.3478 142.978 79.7564 152.044 87.6632 160.112L87.681 160.094Z" fill="#56B751"/>
<path d="M136.602 159.659C137.451 157.59 135.587 154.787 132.44 153.4C129.292 152.012 126.052 152.564 125.204 154.633C124.355 156.702 126.219 159.504 129.366 160.892C132.514 162.28 135.754 161.728 136.602 159.659Z" fill="#56B751"/>
<path d="M145.2 160.984C148.347 159.596 150.211 156.794 149.362 154.725C148.514 152.656 145.274 152.104 142.126 153.492C138.979 154.88 137.115 157.682 137.964 159.751C138.812 161.82 142.052 162.372 145.2 160.984Z" fill="#56B751"/>
<path d="M135.907 169.771L118.023 168.697C115.399 168.531 113.383 171.047 113.954 173.693C115.935 182.927 124.359 190.254 134.711 190.883C145.081 191.512 154.273 185.258 157.272 176.321C158.128 173.749 156.415 171.029 153.791 170.862L135.907 169.771Z" fill="#B52424"/>
<path d="M135.961 190.939C139.834 190.939 143.689 190.088 146.794 188.349C144.813 184.5 140.601 181.78 135.8 181.817C131.07 181.854 127.054 184.37 125.109 188.164C128.304 189.884 132.016 190.939 135.943 190.939H135.961Z" fill="#FF4B4B"/>
<path d="M180.242 28.7913C165.303 16.1718 150.81 12.545 149.847 11.8603C145.081 8.52969 171.907 12.0454 186.846 24.6649C201.785 37.2844 207.818 61.9683 203.963 57.5645C197.984 50.7551 195.199 41.4108 180.26 28.7913H180.242Z" fill="#9DFF85"/>
</g>
<defs>
<filter id="filter0_d_267_16805" x="0" y="0" width="238.605" height="464.623" filterUnits="userSpaceOnUse" color-interpolation-filters="sRGB">
<feFlood flood-opacity="0" result="BackgroundImageFix"/>
<feColorMatrix in="SourceAlpha" type="matrix" values="0 0 0 0 0 0 0 0 0 0 0 0 0 0 0 0 0 0 127 0" result="hardAlpha"/>
<feOffset dx="1" dy="2"/>
<feGaussianBlur stdDeviation="1"/>
<feComposite in2="hardAlpha" operator="out"/>
<feColorMatrix type="matrix" values="0 0 0 0 0 0 0 0 0 0 0 0 0 0 0 0 0 0 0.25 0"/>
<feBlend mode="normal" in2="BackgroundImageFix" result="effect1_dropShadow_267_16805"/>
<feBlend mode="normal" in="SourceGraphic" in2="effect1_dropShadow_267_16805" result="shape"/>
</filter>
</defs>
</svg>
