<svg width="804" height="804" viewBox="0 0 804 804" fill="none" xmlns="http://www.w3.org/2000/svg">
<g filter="url(#filter0_d_267_14145)">
<path d="M401 800C621.914 800 801 620.914 801 400C801 179.086 621.914 0 401 0C180.086 0 1 179.086 1 400C1 620.914 180.086 800 401 800Z" fill="#781D06"/>
<path d="M353.244 689.027C539.244 689.027 690.027 538.244 690.027 352.244C690.027 166.244 539.244 15.4607 353.244 15.4607C167.244 15.4607 16.4606 166.244 16.4606 352.244C16.4606 538.244 167.244 689.027 353.244 689.027Z" fill="#B22D0C"/>
<mask id="mask0_267_14145" style="mask-type:luminance" maskUnits="userSpaceOnUse" x="1" y="0" width="800" height="800">
<path d="M401 800C621.914 800 801 620.914 801 400C801 179.086 621.914 0 401 0C180.086 0 1 179.086 1 400C1 620.914 180.086 800 401 800Z" fill="white"/>
</mask>
<g mask="url(#mask0_267_14145)">
<path opacity="0.72" d="M0.999894 238.78C0.999894 238.78 35.4426 203.221 108.794 283.272C182.232 363.324 191.337 363.324 268.21 359.545C345.084 355.765 446.007 355.765 412.681 384.969C379.355 414.172 283.07 459.953 281.953 484.088C280.837 508.224 293.462 546.36 307.205 571.784C320.948 597.208 390.95 707.837 283.156 639.124C175.361 570.496 139.801 559.072 156.98 598.411C174.158 637.835 218.908 696.328 269.413 721.752C319.918 747.176 343.967 778.956 350.839 791.668C357.71 804.38 38.878 726.82 4.43527 635.344C-30.0075 543.783 0.999894 238.78 0.999894 238.78Z" fill="#DB481C"/>
<path d="M0.999855 77.4748C0.999855 77.4748 168.747 116.212 204.822 136.826C240.982 157.441 289.941 157.441 320.948 193.601C351.955 229.762 406.067 278.72 393.183 221.945C380.299 165.171 372.569 147.133 375.146 129.01C377.723 110.973 362.262 74.8122 341.562 59.3516C320.948 43.891 178.968 -12.8838 178.968 -12.8838L0.913879 77.4748H0.999855Z" fill="#DB481C"/>
<path d="M298.616 219.798C314.592 230.277 317.512 236.547 320.519 243.419C323.525 250.29 326.101 259.738 315.365 263.603C304.628 267.468 271.904 274.769 253.866 263.603C235.829 252.437 231.964 246.425 218.994 236.547C206.11 226.67 199.668 221.516 200.527 211.209C201.386 200.902 201.386 191.454 219.423 192.313C237.461 193.172 271.045 201.761 298.53 219.798H298.616Z" fill="#DB481C"/>
<path d="M643.043 356.281C646.136 375.091 643.473 381.533 640.467 388.405C637.46 395.276 632.221 403.608 622.086 398.282C611.95 392.957 584.465 373.889 580.428 353.017C576.391 332.145 578.28 325.188 576.82 309.04C575.36 292.892 574.759 284.647 583.005 278.291C591.25 271.935 598.122 265.493 609.717 279.407C621.313 293.322 637.718 323.814 643.043 356.281Z" fill="#DB481C"/>
<path d="M492.99 498.089C492.99 498.089 531.728 502.813 536.881 518.703C542.035 534.593 534.304 556.152 511.972 551.428C489.64 546.704 469.37 535.967 465.075 526.519C460.781 517.071 460.781 492.935 492.99 498.175V498.089Z" fill="#DB481C"/>
<path d="M434.498 500.666C438.707 502.641 456.83 518.703 444.805 525.145C432.78 531.587 418.179 526.863 416.89 518.703C415.602 510.543 419.896 493.794 434.498 500.666Z" fill="#DB481C"/>
</g>
</g>
<defs>
<filter id="filter0_d_267_14145" x="0" y="0" width="804" height="804" filterUnits="userSpaceOnUse" color-interpolation-filters="sRGB">
<feFlood flood-opacity="0" result="BackgroundImageFix"/>
<feColorMatrix in="SourceAlpha" type="matrix" values="0 0 0 0 0 0 0 0 0 0 0 0 0 0 0 0 0 0 127 0" result="hardAlpha"/>
<feOffset dx="1" dy="2"/>
<feGaussianBlur stdDeviation="1"/>
<feComposite in2="hardAlpha" operator="out"/>
<feColorMatrix type="matrix" values="0 0 0 0 0 0 0 0 0 0 0 0 0 0 0 0 0 0 0.25 0"/>
<feBlend mode="normal" in2="BackgroundImageFix" result="effect1_dropShadow_267_14145"/>
<feBlend mode="normal" in="SourceGraphic" in2="effect1_dropShadow_267_14145" result="shape"/>
</filter>
</defs>
</svg>
