<svg width="29" height="26" viewBox="0 0 29 26" fill="none" xmlns="http://www.w3.org/2000/svg">
<path d="M17.4086 17.3094L18.4963 16.9685C18.9732 16.7896 19.4194 16.618 19.8391 16.4036L19.9313 16.3816C20.0278 16.3096 20.1163 16.2722 20.2165 16.2156C20.4476 16.0952 20.6786 15.9748 20.9097 15.8544L22.8938 19.9599C23.1604 20.5341 22.6066 21.1401 22.0266 20.8858L14.6942 17.8412L14.771 17.8229C15.6725 17.7227 16.5556 17.5452 17.4239 17.3057L17.4086 17.3094Z" fill="white"/>
<path d="M23.63 1.09677L21.7501 5.33759C21.707 5.42958 21.6449 5.50976 21.5792 5.57446C21.2744 5.38543 20.958 5.2155 20.6262 5.04926C20.6262 5.04926 20.6262 5.04924 20.6071 5.03743C19.8446 4.6304 19.1042 4.3162 18.2789 4.05491L17.1975 3.74021C16.6776 3.60239 16.1344 3.50285 15.6102 3.41511C15.6409 3.4078 15.6526 3.38863 15.6797 3.36585C15.6797 3.36585 15.695 3.36219 15.7104 3.35853L22.0453 0.509421C22.0453 0.509421 22.0453 0.509423 22.0606 0.505765L22.7342 0.198284C23.3076 -0.052694 23.8845 0.529334 23.6337 1.11225L23.63 1.09677Z" fill="white"/>
<path d="M1.75933 11.585C1.33479 11.0975 1.32635 10.3801 1.72956 9.89172C4.36641 6.64788 8.36784 4.56688 12.8673 4.5092C14.5498 4.48462 16.1721 4.75239 17.6886 5.25783L17.7075 6.08719L17.7902 11.0706L17.86 15.7953C16.3642 16.3314 14.7516 16.65 13.0691 16.6746C8.56964 16.7322 4.51113 14.7556 1.75933 11.585ZM10.4576 12.048C11.2678 11.0867 11.1513 9.64292 10.178 8.82827C9.22016 8.00995 7.78588 8.12259 6.97946 9.0994C6.16936 10.0607 6.28583 11.5045 7.25906 12.3192C8.21693 13.1375 9.65123 13.0248 10.4576 12.048Z" fill="white"/>
<path d="M19.0857 13.8524L18.9527 5.72556C19.2237 5.84088 19.483 5.97538 19.7386 6.09437C19.9788 6.21701 20.1767 6.36604 20.4016 6.49234C20.5158 6.56323 20.6455 6.63054 20.7598 6.70143C20.9884 6.8432 21.2286 6.96582 21.4609 7.12307C21.8873 7.41393 22.2903 7.74299 22.6817 8.09124L22.69 12.8308C21.6231 13.8042 20.4081 14.6331 19.0953 15.2563L19.0667 13.8407L19.0857 13.8524Z" fill="white"/>
</svg>
