<svg width="478" height="478" viewBox="0 0 478 478" fill="none" xmlns="http://www.w3.org/2000/svg">
<g filter="url(#filter0_d_125_3857)">
<path d="M238 474C368.892 474 475 367.891 475 237C475 106.109 368.892 0 238 0C107.109 0 1 106.109 1 237C1 367.891 107.109 474 238 474Z" fill="#723B02"/>
<path d="M201.101 437.101C311.614 437.101 401.202 347.513 401.202 237C401.202 126.487 311.614 36.8989 201.101 36.8989C90.5884 36.8989 1 126.487 1 237C1 347.513 90.5884 437.101 201.101 437.101Z" fill="#AF6406"/>
<mask id="mask0_125_3857" style="mask-type:luminance" maskUnits="userSpaceOnUse" x="1" y="0" width="474" height="474">
<path d="M238 474C368.892 474 475 367.891 475 237C475 106.109 368.892 0 238 0C107.109 0 1 106.109 1 237C1 367.891 107.109 474 238 474Z" fill="white"/>
</mask>
<g mask="url(#mask0_125_3857)">
<g opacity="0.75">
<path d="M44.1604 37.9104C44.1604 37.9104 109.48 85.2141 143.97 94.222C178.509 103.23 233.279 116.718 273.839 109.251C314.35 101.737 386.413 67.969 433.717 63.4409C481.021 58.961 526.783 74.6647 526.783 74.6647L542.535 118.982C542.535 118.982 431.453 106.216 381.885 115.995C332.366 125.774 311.315 128.375 301.585 131.217C291.854 134.059 285.062 146.776 327.838 140.032C370.614 133.288 412.667 131.217 412.667 131.217C412.667 131.217 380.392 158.819 329.331 165.563C278.27 172.307 222.007 183.579 203.991 176.064C185.975 168.549 206.255 155.784 222.778 151.304C239.3 146.824 225.042 140.032 172.487 136.275C119.933 132.518 15.5952 86.7555 15.5952 86.7555L44.1124 37.9585L44.1604 37.9104Z" fill="#ECA435"/>
<path d="M29.5171 360.028C29.5171 360.028 94.8366 407.332 129.327 416.34C163.865 425.348 218.635 438.835 259.195 431.369C299.707 423.854 371.77 390.087 419.074 385.558C466.377 381.079 512.14 396.782 512.14 396.782L527.891 441.099C527.891 441.099 416.81 428.334 367.242 438.113C317.674 447.891 296.672 450.493 286.941 453.335C277.211 456.177 270.419 468.894 313.194 462.15C355.97 455.406 398.023 453.335 398.023 453.335C398.023 453.335 365.749 480.937 314.688 487.68C263.627 494.424 207.363 505.696 189.348 498.182C171.332 490.667 191.612 477.902 208.134 473.422C224.657 468.942 210.398 462.15 157.844 458.393C105.29 454.635 0.951721 408.873 0.951721 408.873L29.4689 360.076L29.5171 360.028Z" fill="#ECA435"/>
<path d="M-25.687 158C-25.687 158 14.102 151.256 41.1258 168.501C68.1496 185.746 95.9441 207.519 95.9441 207.519C95.9441 207.519 144.741 226.306 183.037 230.015C221.333 233.724 276.873 234.495 276.873 234.495C276.873 234.495 317.385 223.994 262.615 219.466C207.797 214.986 173.306 208.194 163.528 203.714C153.749 199.234 162.757 191.719 195.802 196.199C228.847 200.679 298.647 217.972 344.409 211.951C390.219 205.93 502.023 169.175 502.023 169.175L514.789 229.967C514.789 229.967 316.614 283.244 211.554 275.777C106.445 268.262 25.4221 240.516 -4.63639 215.708C-34.6468 190.948 -25.6388 157.903 -25.6388 157.903L-25.687 158Z" fill="#ECA435"/>
<path d="M-18.8953 257.521C-18.8953 257.521 63.6693 294.323 109.48 307.04C155.29 319.806 213.818 343.843 287.374 330.307C360.931 316.819 434.488 300.296 481.791 282.281L529.095 264.265C529.095 264.265 507.322 334.835 505.828 337.821C504.335 340.808 334.678 343.072 291.132 348.323C247.585 353.573 216.804 361.088 235.591 365.568C254.377 370.048 324.899 393.362 283.617 395.578C242.335 397.794 167.285 399.335 80.192 395.578L-6.9008 391.821L5.09381 366.29C5.09381 366.29 222.777 386.57 152.978 369.277C83.1785 352.032 -18.8953 333.245 -18.8953 333.245V252.945V257.424V257.521Z" fill="#ECA435"/>
</g>
</g>
</g>
<defs>
<filter id="filter0_d_125_3857" x="0" y="0" width="478" height="478" filterUnits="userSpaceOnUse" color-interpolation-filters="sRGB">
<feFlood flood-opacity="0" result="BackgroundImageFix"/>
<feColorMatrix in="SourceAlpha" type="matrix" values="0 0 0 0 0 0 0 0 0 0 0 0 0 0 0 0 0 0 127 0" result="hardAlpha"/>
<feOffset dx="1" dy="2"/>
<feGaussianBlur stdDeviation="1"/>
<feComposite in2="hardAlpha" operator="out"/>
<feColorMatrix type="matrix" values="0 0 0 0 0 0 0 0 0 0 0 0 0 0 0 0 0 0 0.25 0"/>
<feBlend mode="normal" in2="BackgroundImageFix" result="effect1_dropShadow_125_3857"/>
<feBlend mode="normal" in="SourceGraphic" in2="effect1_dropShadow_125_3857" result="shape"/>
</filter>
</defs>
</svg>
