<svg width="624" height="819" viewBox="0 0 624 819" fill="none" xmlns="http://www.w3.org/2000/svg">
<g filter="url(#filter0_d_267_15695)">
<path d="M442.583 500.638L410.209 508.416C401.253 510.573 396.51 519.208 399.553 527.835C402.847 537.228 413.938 542.715 423.395 539.649L481.295 520.897C502.18 514.146 519.15 500.578 529.345 482.577L555.002 437.152C559.314 429.538 555.757 419.487 547.08 414.693L545.788 413.966C537.111 409.172 526.592 411.478 522.28 419.093L499.883 458.734C488.073 479.597 467.568 494.607 442.598 500.608L442.583 500.638Z" fill="#56B751"/>
<path d="M424.016 528.819C424.276 505.651 412.155 485.612 396.921 484.036C386.221 482.91 376.849 491.197 372.121 504.267C344.277 501.389 319.791 512.662 319.564 532.733C319.322 552.834 341.689 571.443 369.533 574.321C391.313 576.577 410.019 568.5 417.199 555.205C421.349 548.333 423.916 539.124 424.065 528.806L424.016 528.819Z" fill="#6BF178"/>
<path d="M688.414 317.521L722.771 319.036C732.296 319.456 739.659 312.706 739.351 303.884C739.021 294.262 729.824 286.204 719.522 286.48L656.542 288.26C633.81 288.901 612.853 296.891 597.159 310.878L557.639 346.114C550.997 352.027 551.375 362.31 558.412 369.09L559.469 370.112C566.54 376.908 577.632 377.594 584.26 371.711L618.754 340.953C636.921 324.763 661.86 316.383 688.365 317.534L688.414 317.521Z" fill="#56B751"/>
<path d="M521.353 356.757L504.416 350.719C489.813 343.346 475.542 342.219 472.538 348.168C469.534 354.117 478.914 364.931 493.518 372.305L508.51 382.951C512.285 412.696 555.549 455.101 617.013 486.135L642.29 498.897C715.477 535.851 740.851 518.272 755.282 489.691C769.713 461.11 767.733 432.271 694.58 395.335L669.303 382.572C607.433 351.333 547.248 341.768 521.357 356.834L521.353 356.757Z" fill="#6BF178"/>
<path d="M492.557 356.438C532.908 276.522 481.046 169.036 376.721 116.36C272.395 63.685 155.112 85.7678 114.762 165.684C74.4113 245.599 126.273 353.086 230.598 405.761C334.924 458.436 452.207 436.353 492.557 356.438Z" fill="#6BF178"/>
<path d="M376.3 327.147C372.976 297.546 332.59 273.685 286.095 273.852C239.601 274.019 204.604 298.15 207.929 327.751C211.253 357.352 251.64 381.213 298.134 381.046C344.629 380.879 379.625 356.748 376.3 327.147Z" fill="#11151C"/>
<path d="M396.593 186.035C369.124 148.523 325.946 130.191 300.153 145.09C274.36 159.989 275.719 202.477 303.189 239.989C330.658 277.501 373.836 295.833 399.629 280.934C425.422 266.035 424.063 223.548 396.593 186.035Z" fill="#11151C"/>
<path d="M275.329 360.962C298.298 364.905 316.874 362.054 315.86 366.757C314.846 371.46 295.475 373.948 272.522 369.975C249.553 366.031 231.685 357.122 232.665 352.402C233.679 347.699 252.326 357.001 275.329 360.962Z" fill="#38455B"/>
<path d="M366.443 180.506C383.253 196.648 391.987 213.289 395.17 209.68C398.352 206.072 388.854 189.008 372.029 172.897C355.219 156.755 337.442 147.667 334.226 151.258C331.043 154.866 349.6 164.348 366.443 180.506Z" fill="#38455B"/>
<path d="M447.02 226.743C455.105 247.446 455.265 265.235 460.024 263.474C464.734 261.725 464.014 243.277 455.962 222.591C447.876 201.888 435.529 186.761 430.819 188.51C426.109 190.259 438.983 206.026 447.069 226.73L447.02 226.743Z" fill="#56B751"/>
<path d="M366.466 395.798C387.926 390.013 402.336 379.58 403.744 384.455C405.133 389.284 389.86 399.656 368.434 405.459C346.974 411.244 327.471 410.289 326.082 405.46C324.693 400.632 345.024 401.63 366.484 395.845L366.466 395.798Z" fill="#56B751"/>
<path d="M407.042 313.45C403.972 310.115 397.264 310.646 392.061 314.635C386.857 318.625 385.128 324.562 388.199 327.896C391.269 331.231 397.977 330.7 403.18 326.711C408.384 322.722 410.113 316.784 407.042 313.45Z" fill="#56B751"/>
<path d="M416.743 300.274C416.864 293.719 413.309 288.006 408.802 287.515C404.296 287.024 400.545 291.94 400.425 298.496C400.304 305.051 403.859 310.764 408.365 311.255C412.871 311.746 416.622 306.83 416.743 300.274Z" fill="#56B751"/>
<path d="M424.974 323.965L407.883 352.929C405.359 357.17 408.262 362.875 413.59 364.365C432.173 369.583 452.716 362.246 462.623 345.488C472.546 328.7 468.867 307.52 455.038 294.235C451.053 290.421 444.623 290.777 442.099 295.018L424.974 323.965Z" fill="#B52424"/>
<path d="M463.782 343.446C467.057 336.959 468.759 329.714 468.201 322.904C459.478 322.664 450.934 327.205 446.942 335.281C443.009 343.238 444.221 352.291 449.521 359.057C455.374 355.297 460.446 350.053 463.767 343.476L463.782 343.446Z" fill="#FF4B4B"/>
<path d="M204.316 119.356C168.573 132.712 149.675 153.635 147.606 154.616C137.476 159.519 166.602 117.835 202.345 104.479C238.088 91.1229 288.39 103.84 277.066 106.226C259.54 109.946 240.074 105.97 204.331 119.326L204.316 119.356Z" fill="#9DFF85"/>
</g>
<defs>
<filter id="filter0_d_267_15695" x="100.07" y="87.7354" width="896.112" height="542.696" filterUnits="userSpaceOnUse" color-interpolation-filters="sRGB">
<feFlood flood-opacity="0" result="BackgroundImageFix"/>
<feColorMatrix in="SourceAlpha" type="matrix" values="0 0 0 0 0 0 0 0 0 0 0 0 0 0 0 0 0 0 127 0" result="hardAlpha"/>
<feOffset dx="1" dy="2"/>
<feGaussianBlur stdDeviation="1"/>
<feComposite in2="hardAlpha" operator="out"/>
<feColorMatrix type="matrix" values="0 0 0 0 0 0 0 0 0 0 0 0 0 0 0 0 0 0 0.25 0"/>
<feBlend mode="normal" in2="BackgroundImageFix" result="effect1_dropShadow_267_15695"/>
<feBlend mode="normal" in="SourceGraphic" in2="effect1_dropShadow_267_15695" result="shape"/>
</filter>
</defs>
</svg>
