<svg width="475" height="475" viewBox="0 0 475 475" fill="none" xmlns="http://www.w3.org/2000/svg">
<path d="M237.492 474.937C368.642 474.937 474.961 368.619 474.961 237.469C474.961 106.318 368.642 0 237.492 0C106.342 0 0.0231934 106.318 0.0231934 237.469C0.0231934 368.619 106.342 474.937 237.492 474.937Z" fill="#9B7A31"/>
<path d="M202.906 440.374C314.968 440.374 405.811 349.53 405.811 237.468C405.811 125.407 314.968 34.5625 202.906 34.5625C90.8439 34.5625 0 125.407 0 237.468C0 349.53 90.8439 440.374 202.906 440.374Z" fill="#C9AA6D"/>
<g style="mix-blend-mode:multiply" opacity="0.8">
<path d="M365.527 36.9945C349.613 26.8018 332.424 18.4158 314.216 12.2075C267.7 24.5315 217.361 25.2497 173.857 8.17676C162.112 11.4431 150.738 15.5897 139.804 20.5239C209.161 54.5539 294.433 65.0478 365.527 36.9945Z" fill="#C17816"/>
<path d="M283.892 249.468C374.399 268.718 386.214 249.839 474.636 249.468C474.845 245.345 474.961 241.198 474.961 237.005C474.961 216.874 472.436 197.346 467.733 178.675C418.599 185.323 368.886 186.134 318.64 182.474C300.27 181.385 284.216 180.366 265.476 177.586C248.171 175.014 230.797 173.045 213.353 171.841C148.189 167.416 83.4651 157.895 21.984 137.162C15.3124 151.525 10.0539 166.675 6.3474 182.427C46.3541 196.813 87.4262 205.245 130.19 215.369C155.625 221.345 258.48 243.468 283.915 249.445L283.892 249.468Z" fill="#C17816"/>
<path d="M185.509 444.219C155.672 439.748 126.576 434.513 97.6658 428.93C136.885 457.562 185.185 474.473 237.469 474.473C270.781 474.473 302.448 467.57 331.22 455.176C304.139 453.439 276.966 450.52 249.816 447.207C228.875 444.219 207.933 447.207 185.509 444.219Z" fill="#C17816"/>
<path d="M192.991 424.784C231.886 429.278 270.757 433.749 309.652 436.76C326.748 438.706 343.867 439.54 360.963 439.841C368.052 435.509 374.909 430.807 381.488 425.78C377.48 425.409 373.473 425.085 369.465 424.807C256.812 415.309 144.158 402.105 38.1998 366.222C44.6398 376.136 51.8211 385.542 59.6278 394.368C103.202 408.035 147.17 420.128 192.968 424.807L192.991 424.784Z" fill="#C17816"/>
<path d="M415.009 394.669C430.645 377.063 443.734 357.141 453.648 335.458C417.001 334.508 380.399 332.539 344.076 330.547C224.404 324.848 110.175 285.212 0.0696564 240.109C0.370807 264.109 4.26257 287.274 11.189 309.05C106.746 342.871 202.767 363.743 305.205 385.889C342.686 393.395 379.056 394.878 415.032 394.669H415.009Z" fill="#C17816"/>
<path d="M446.699 124.629C436.274 105.263 423.232 87.518 408.059 71.835C380.423 78.5993 353.898 84.0663 326.1 88.2361C246.782 101.881 158.243 92.8692 91.9207 49.3877C79.8747 58.7465 68.7321 69.2636 58.7014 80.7305C90.0211 94.2591 122.499 105.054 157.085 112.143C254.588 132.111 352.091 139.154 446.699 124.583V124.629Z" fill="#C17816"/>
</g>
</svg>
