<svg width="50" height="50" viewBox="0 0 50 50" fill="none" xmlns="http://www.w3.org/2000/svg">
<g clip-path="url(#clip0_74_3592)">
<path d="M38.2812 0H11.7188C5.24666 0 0 5.24666 0 11.7188V38.2812C0 44.7533 5.24666 50 11.7188 50H38.2812C44.7533 50 50 44.7533 50 38.2812V11.7188C50 5.24666 44.7533 0 38.2812 0Z" fill="#242938"/>
<path d="M24.8592 5.66406C14.9427 5.66406 15.562 9.96445 15.562 9.96445L15.573 14.4196H25.0361V15.7573H11.8143C11.8143 15.7573 5.46875 15.0376 5.46875 25.0434C5.46875 35.0492 11.0073 34.6945 11.0073 34.6945H14.3127V30.0514C14.3127 30.0514 14.1346 24.5129 19.7629 24.5129H29.1484C29.1484 24.5129 34.4217 24.598 34.4217 19.4165V10.8488C34.4217 10.8488 35.2223 5.66406 24.8592 5.66406ZM19.6412 8.65996C20.5828 8.65996 21.3438 9.42092 21.3438 10.3624C21.3438 11.3039 20.5828 12.0649 19.6412 12.0649C18.6997 12.0649 17.9388 11.3039 17.9388 10.3624C17.9388 9.42092 18.6997 8.65996 19.6412 8.65996Z" fill="url(#paint0_linear_74_3592)"/>
<path d="M25.1408 44.523C35.0572 44.523 34.4381 40.2228 34.4381 40.2228L34.4269 35.7676H24.9639V34.4299H38.1857C38.1857 34.4299 44.5312 35.1496 44.5312 25.1437C44.5312 15.1379 38.9928 15.4928 38.9928 15.4928H35.6873V20.1359C35.6873 20.1359 35.8654 25.6744 30.2371 25.6744H20.8515C20.8515 25.6744 15.5782 25.5891 15.5782 30.7707V39.3383C15.5782 39.3383 14.7776 44.523 25.1408 44.523ZM30.3588 41.5271C29.4172 41.5271 28.6562 40.7662 28.6562 39.8248C28.6562 38.8832 29.4172 38.1223 30.3588 38.1223C31.3002 38.1223 32.0613 38.8832 32.0613 39.8248C32.0613 40.7662 31.3002 41.5271 30.3588 41.5271Z" fill="url(#paint1_linear_74_3592)"/>
</g>
<defs>
<linearGradient id="paint0_linear_74_3592" x1="9.22266" y1="9.15937" x2="28.5807" y2="28.3242" gradientUnits="userSpaceOnUse">
<stop stop-color="#387EB8"/>
<stop offset="1" stop-color="#366994"/>
</linearGradient>
<linearGradient id="paint1_linear_74_3592" x1="21.1047" y1="21.4658" x2="41.893" y2="41.1176" gradientUnits="userSpaceOnUse">
<stop stop-color="#FFE052"/>
<stop offset="1" stop-color="#FFC331"/>
</linearGradient>
<clipPath id="clip0_74_3592">
<rect width="50" height="50" fill="white"/>
</clipPath>
</defs>
</svg>
