<svg width="673" height="1004" viewBox="0 0 673 1004" fill="none" xmlns="http://www.w3.org/2000/svg">
<g filter="url(#filter0_d_125_4080)">
<path d="M170.025 1000C446.154 1000 670 776.142 670 500C670 223.858 446.154 0 170.025 0C-106.104 0 -329.951 223.858 -329.951 500C-329.951 776.142 -106.104 1000 170.025 1000Z" fill="#9B7A31"/>
<path d="M97.2055 927.226C333.145 927.226 524.411 735.95 524.411 500C524.411 264.049 333.145 72.7729 97.2055 72.7729C-138.734 72.7729 -330 264.049 -330 500C-330 735.95 -138.734 927.226 97.2055 927.226Z" fill="#C9AA6D"/>
<g style="mix-blend-mode:multiply" opacity="0.8">
<path d="M439.595 77.895C406.088 56.4337 369.898 38.7768 331.562 25.7049C233.625 51.6536 127.641 53.1657 36.0445 17.218C11.3164 24.0954 -12.6313 32.8263 -35.6523 43.2155C110.375 114.867 289.909 136.962 439.595 77.895Z" fill="#C17816"/>
<path d="M267.717 525.266C458.274 565.798 483.149 526.046 669.317 525.266C669.756 516.584 670 507.853 670 499.024C670 456.638 664.684 415.52 654.783 376.207C551.334 390.206 446.666 391.913 340.877 384.206C302.2 381.914 268.4 379.768 228.942 373.915C192.509 368.5 155.929 364.355 119.202 361.818C-17.9971 352.502 -154.27 332.455 -283.714 288.801C-297.761 319.042 -308.832 350.941 -316.636 384.109C-232.405 414.398 -145.93 432.153 -55.8941 453.468C-2.34097 466.052 214.213 512.633 267.766 525.217L267.717 525.266Z" fill="#C17816"/>
<path d="M60.5776 935.323C-2.24249 925.909 -63.5017 914.886 -124.371 903.131C-41.7976 963.418 59.895 999.024 169.976 999.024C240.113 999.024 306.786 984.489 367.362 958.394C310.346 954.736 253.135 948.59 195.972 941.615C151.881 935.323 107.79 941.615 60.5776 935.323Z" fill="#C17816"/>
<path d="M76.3308 894.401C158.221 903.864 240.063 913.277 321.953 919.618C357.948 923.715 393.991 925.471 429.986 926.105C444.911 916.984 459.348 907.083 473.199 896.498C464.761 895.718 456.324 895.035 447.886 894.45C210.701 874.452 -26.4835 846.65 -249.573 771.096C-236.014 791.972 -220.894 811.775 -204.457 830.359C-112.715 859.136 -20.1429 884.597 76.282 894.45L76.3308 894.401Z" fill="#C17816"/>
<path d="M543.775 830.992C576.697 793.922 604.253 751.975 625.128 706.321C547.969 704.321 470.907 700.175 394.431 695.98C142.468 683.981 -98.0338 600.526 -329.854 505.56C-329.219 556.091 -321.026 604.867 -306.442 650.716C-105.252 721.929 96.9134 765.876 312.589 812.505C391.504 828.309 468.079 831.43 543.824 830.992H543.775Z" fill="#C17816"/>
<path d="M610.497 262.414C588.549 221.637 561.09 184.275 529.143 151.254C470.956 165.496 415.111 177.008 356.583 185.787C189.583 214.516 3.17122 195.542 -136.467 103.99C-161.829 123.696 -185.289 145.84 -206.408 169.984C-140.466 198.469 -72.086 221.198 0.732574 236.124C206.02 278.168 411.306 292.996 610.497 262.316V262.414Z" fill="#C17816"/>
</g>
</g>
<defs>
<filter id="filter0_d_125_4080" x="-331" y="0" width="1004" height="1004" filterUnits="userSpaceOnUse" color-interpolation-filters="sRGB">
<feFlood flood-opacity="0" result="BackgroundImageFix"/>
<feColorMatrix in="SourceAlpha" type="matrix" values="0 0 0 0 0 0 0 0 0 0 0 0 0 0 0 0 0 0 127 0" result="hardAlpha"/>
<feOffset dx="1" dy="2"/>
<feGaussianBlur stdDeviation="1"/>
<feComposite in2="hardAlpha" operator="out"/>
<feColorMatrix type="matrix" values="0 0 0 0 0 0 0 0 0 0 0 0 0 0 0 0 0 0 0.25 0"/>
<feBlend mode="normal" in2="BackgroundImageFix" result="effect1_dropShadow_125_4080"/>
<feBlend mode="normal" in="SourceGraphic" in2="effect1_dropShadow_125_4080" result="shape"/>
</filter>
</defs>
</svg>
