<svg width="298" height="492" viewBox="0 0 298 492" fill="none" xmlns="http://www.w3.org/2000/svg">
<g filter="url(#filter0_d_267_16640)">
<path d="M270.951 149.07C270.951 157.377 256.607 164.009 254.161 171.655C251.716 179.3 260.044 191.331 255.263 198.271C250.482 205.212 234.045 205.035 227.215 210.764C220.384 216.493 220.715 230.219 212.32 234.296C204.035 238.306 190.044 231.255 180.592 233.37C171.14 235.485 163.56 247.472 153.667 247.472C143.774 247.472 135.864 235.419 126.742 233.37C117.29 231.255 103.299 238.306 95.0141 234.296C86.6194 230.219 86.95 216.493 80.1196 210.764C73.3113 205.057 56.9404 205.322 52.0711 198.271C47.2017 191.22 55.6845 179.587 53.1727 171.655C50.6609 163.723 36.3833 157.377 36.3833 149.07C36.3833 140.764 50.727 134.132 53.1727 126.486C55.7066 118.554 49.0966 108.617 53.8778 101.677C58.7252 94.6259 73.3113 93.1056 80.1196 87.399C86.9279 81.6923 86.6194 67.9435 95.0141 63.8673C103.299 59.8573 117.29 66.9079 126.742 64.7927C135.886 62.7436 143.774 50.6914 153.667 50.6914C163.56 50.6914 171.47 62.7436 180.592 64.7927C190.044 66.9079 204.035 59.8573 212.32 63.8673C220.715 67.9435 220.384 81.6703 227.215 87.399C234.023 93.1056 242.594 97.6005 247.441 104.651C252.289 111.702 251.628 118.576 254.161 126.508C256.607 134.176 270.951 140.786 270.951 149.093V149.07Z" fill="#181F28"/>
<g filter="url(#filter1_d_267_16640)">
<path d="M85.8042 278.076C72.2317 287.925 89.8144 348.362 82.3891 364.403L42.8391 383.858C35.2156 387.604 28.87 394.126 25.3887 402.542C22.3922 409.747 22.8108 414.352 32.5055 420.015C47.0475 428.498 56.3236 421.689 56.3236 421.689L106.626 403.776C123.151 397.893 131.149 380.289 132.691 360.987C136.635 311.566 115.461 256.571 85.7822 278.098L85.8042 278.076Z" fill="white"/>
<path d="M57.4251 461.152C67.252 454.608 69.7638 435.77 60.4217 418.716C51.0795 401.662 43.1916 381.281 33.3647 387.825C23.5378 394.369 16.5972 405.386 27.3275 424.973C36.6696 442.027 47.5762 467.696 57.4251 461.152Z" fill="#817567"/>
<mask id="mask0_267_16640" style="mask-type:luminance" maskUnits="userSpaceOnUse" x="23" y="273" width="111" height="152">
<path d="M85.8042 278.077C72.2316 287.926 89.8143 348.363 82.3891 364.404L42.8391 383.859C35.2155 387.605 28.87 394.127 25.3887 402.543C22.3921 409.748 22.8107 414.353 32.5054 420.016C47.0475 428.499 56.3235 421.69 56.3235 421.69L106.626 403.777C123.151 397.894 130.995 380.29 132.691 360.988C136.283 320.667 115.461 256.572 85.7822 278.099L85.8042 278.077Z" fill="white"/>
</mask>
<g mask="url(#mask0_267_16640)">
<path d="M143.356 374.891L132.097 371.3C113.06 365.241 92.5245 362.773 73.2012 364.315C62.8896 365.153 53.8779 365.549 53.922 364.161L59.6728 354.202C59.7389 351.095 63.7048 349.024 68.5742 349.553L77.9825 349.112C98.099 348.187 119.229 351.36 138.288 358.388C144.766 360.768 149.525 362.927 149.503 363.985C149.437 367.091 148.269 375.398 143.4 374.869L143.356 374.891Z" fill="url(#paint0_linear_267_16640)"/>
</g>
<path d="M127.094 293.456C122.71 313.33 162.282 354.246 166.204 374.671L147.982 424.246C144.479 433.809 143.553 444.803 145.911 455.181C147.916 464.083 150.979 467.894 161.621 465.074C177.595 460.866 180.547 447.227 180.547 447.227L207.759 390.271C216.704 371.564 214.457 346.953 202.008 330.67C174.797 295.086 136.657 249.984 127.094 293.412V293.456Z" fill="white"/>
<path d="M204.652 482.061C208.221 468.092 198.967 449.033 181.847 441.299C164.727 433.566 146.726 421.645 143.157 435.615C139.587 449.584 140.887 465.205 160.563 474.085C177.683 481.819 201.082 496.03 204.652 482.061Z" fill="#817567"/>
<mask id="mask1_267_16640" style="mask-type:luminance" maskUnits="userSpaceOnUse" x="117" y="276" width="97" height="190">
<path d="M117.62 294.424C113.235 314.298 163.251 353.496 166.204 374.67L147.982 424.245C144.479 433.808 143.553 444.802 145.911 455.18C147.916 464.081 150.979 467.893 161.621 465.073C177.595 460.864 180.547 447.226 180.547 447.226L207.759 390.27C216.704 371.563 214.457 346.952 202.008 330.669C174.797 295.085 127.183 250.952 117.62 294.38V294.424Z" fill="white"/>
</mask>
<g mask="url(#mask1_267_16640)">
<path d="M225.848 365.483L214.06 365.527C194.142 365.615 173.078 370.22 153.689 378.813C143.333 383.396 134.277 387.076 134.145 385.511L138.86 372.445C138.574 369.008 142.385 365.285 147.343 364.139L156.817 360.305C177.088 352.109 198.813 348.099 218.863 349.068C225.672 349.399 230.717 350.082 230.828 351.249C231.114 354.687 230.827 364.315 225.848 365.461V365.483Z" fill="url(#paint1_linear_267_16640)"/>
</g>
<path d="M24.3749 294.602C7.56344 275.807 28.9139 236.345 55.0675 212.946C81.2211 189.546 146.682 165.332 128.108 213.739C119.075 237.271 103.078 226.585 76.9246 249.984C50.7709 273.384 41.1864 313.374 24.3749 294.602Z" fill="white"/>
<path d="M31.0293 277.019C44.5357 279.201 54.4067 287.617 53.0847 295.814C52.1593 301.565 45.9679 305.685 37.6833 306.874C35.2597 321.857 25.1243 333.645 13.4025 331.75C1.68078 329.855 -0.412424 316.922 2.01125 301.961C3.90612 290.239 11.4195 280.06 20.1888 277.592C24.7938 276.094 25.0141 276.028 31.0513 276.997L31.0293 277.019Z" fill="#817567"/>
<path d="M180.856 323.818L158.823 319.543C150.406 312.581 144.897 324.589 133.991 323.818C112.398 322.298 109.556 325.933 96.9307 321.637C73.9058 313.771 75.999 302.313 76.2634 286.493L79.348 227.069C79.7667 202.48 100.368 169.474 124.957 169.893L171.073 170.928C195.662 171.347 213.553 193.865 213.135 218.454L209.169 230.308C202.052 251.659 201.655 274.287 204.916 296.563C207.142 311.722 194.384 324.06 180.834 323.818H180.856Z" fill="white"/>
<mask id="mask2_267_16640" style="mask-type:luminance" maskUnits="userSpaceOnUse" x="18" y="183" width="105" height="117">
<path d="M24.3749 294.602C7.56346 275.808 28.9139 236.346 55.0675 212.946C81.2212 189.547 137.627 161.454 119.052 209.862C110.019 233.393 103.078 226.585 76.9246 249.985C50.771 273.384 41.1864 313.375 24.3749 294.602Z" fill="white"/>
</mask>
<g mask="url(#mask2_267_16640)">
<path d="M49.2727 240.995C77.0788 257.101 95.3886 279.135 94.992 294.294C97.2174 292.927 99.0682 291.231 100.302 289.094C108.719 274.574 89.087 247.495 56.4555 228.59C23.8241 209.707 -9.42432 206.16 -17.8411 220.68C-19.075 222.817 -19.6478 225.263 -19.7139 227.885C-6.78026 219.997 21.4445 224.888 49.2727 240.995Z" fill="url(#paint2_linear_267_16640)"/>
</g>
<path d="M267.091 153.014C285.534 170.196 267.836 211.449 243.902 237.119C219.989 262.796 156.966 292.812 171.097 242.929C177.967 218.667 194.86 227.856 218.787 202.207C242.7 176.529 248.647 135.832 267.083 153.035L267.091 153.014Z" fill="white"/>
<path d="M262.048 171.127C248.41 170.182 237.807 162.682 238.377 154.407C238.788 148.591 244.573 143.944 252.7 141.998C253.757 126.863 262.793 114.198 274.634 115.022C286.475 115.847 289.736 128.537 288.687 143.651C287.856 155.513 281.309 166.323 272.793 169.556C268.331 171.464 268.115 171.554 262.048 171.127Z" fill="#817567"/>
<mask id="mask3_267_16640" style="mask-type:luminance" maskUnits="userSpaceOnUse" x="178" y="148" width="97" height="124">
<path d="M267.09 153.015C285.533 170.196 267.836 211.449 243.902 237.119C219.989 262.797 166.33 295.868 180.46 245.986C187.33 221.723 194.853 227.877 218.787 202.207C242.7 176.53 248.647 135.833 267.083 153.036L267.09 153.015Z" fill="white"/>
</mask>
<g mask="url(#mask3_267_16640)">
<path d="M247.128 208.644C217.979 195.117 197.746 174.839 196.775 159.715C194.663 161.279 192.989 163.131 191.946 165.384C184.884 180.602 206.89 205.807 241.086 221.672C275.282 237.537 308.725 238.049 315.795 222.81C316.837 220.558 317.162 218.086 317.001 215.472C304.819 224.513 276.27 222.192 247.121 208.665L247.128 208.644Z" fill="url(#paint3_linear_267_16640)"/>
</g>
<path d="M204.674 317.031C208.905 312.294 205.402 308.615 201.039 308.46L77.1011 304.406C72.6723 304.252 68.9267 307.843 73.2452 312.536C73.8401 313.175 73.8401 314.277 73.2452 314.916C68.5962 319.786 72.1656 323.619 76.6163 323.773L200.554 327.828C204.895 327.96 208.574 324.545 204.674 319.984C203.969 319.147 203.969 317.846 204.674 317.031Z" fill="#7C7C7C"/>
<path d="M219.877 188.18C219.392 209.729 187.422 226.474 148.467 225.593C109.512 224.712 78.3346 206.556 78.8194 185.008C79.3041 163.459 108.366 164.032 147.321 164.913C186.276 165.795 220.362 166.632 219.877 188.158V188.18Z" fill="#636363"/>
<path d="M195.024 177.384C194.715 189.039 174.004 198.117 148.776 197.632C123.547 197.169 103.365 187.321 103.673 175.665C103.982 164.009 122.798 164.318 148.026 164.78C173.255 165.243 195.332 165.706 195.024 177.362V177.384Z" fill="#3A3A3A"/>
<path d="M236.381 152.311C237.548 143.916 239.157 135.962 238.65 126.201C238.165 117.058 234.772 103.771 232.921 95.3547C231.026 86.8277 221.222 75.3042 214.766 69.9942C197.492 55.8267 178.256 51.1116 151.244 51.5302C124.715 51.9268 105.568 57.3251 88.7127 71.5807C81.7061 77.5077 70.6453 99.9156 68.8606 109.346C66.5692 121.574 67.2302 124.24 67.9353 137.593C68.1776 142.109 68.5963 146.472 69.1691 150.614C70.4691 159.913 74.8317 168.439 81.5079 174.455C98.8702 190.076 124.561 199.771 153.094 199.33C181.275 198.89 206.437 188.688 223.425 172.868C229.991 166.743 235.103 161.587 236.403 152.311H236.381Z" fill="#181F28"/>
<path d="M84.7024 157.377C96.3722 157.377 105.832 150.294 105.832 141.557C105.832 132.82 96.3722 125.737 84.7024 125.737C73.0326 125.737 63.5724 132.82 63.5724 141.557C63.5724 150.294 73.0326 157.377 84.7024 157.377Z" fill="#87401A"/>
<path d="M78.9294 133.803C85.8258 132.481 83.6224 136.733 84.4818 141.184C85.3411 145.634 91.224 148.235 84.3496 149.557C77.4531 150.879 71.1957 148.345 70.3363 143.894C69.477 139.443 72.055 135.125 78.9514 133.825L78.9294 133.803Z" fill="#632A14"/>
<path d="M236.512 135.013C236.512 143.739 227.016 150.106 215.382 150.833C190.396 152.398 206.062 143.761 206.062 135.013C206.062 126.266 203.704 119.193 215.382 119.193C227.06 119.193 236.512 126.266 236.512 135.013Z" fill="#87401A"/>
<path d="M216.814 144.224C211.35 144.995 216.153 139.222 217.233 134.816C218.313 130.431 215.845 125.209 221.706 126.663C227.567 128.118 231.423 132.833 230.343 137.239C229.263 141.624 222.808 143.387 216.836 144.224H216.814Z" fill="#632A14"/>
<path d="M150.164 195.165C184.845 195.165 212.959 163.825 212.959 125.165C212.959 86.5052 184.845 55.165 150.164 55.165C115.483 55.165 87.3687 86.5052 87.3687 125.165C87.3687 163.825 115.483 195.165 150.164 195.165Z" fill="#A56644"/>
<path d="M159.286 152.42L157.787 150.217C156.443 148.234 155.738 145.898 155.716 143.497V139.553C154.813 136.468 151.574 135.983 149.855 138.671L149.128 141.514C148.357 144.598 146.484 147.286 143.862 149.071L142.65 149.908C140.932 152.596 142.011 156.452 144.589 156.849L149.987 157.664L155.386 158.479C157.986 158.876 160.145 155.505 159.263 152.42H159.286Z" fill="#87401A"/>
<path d="M159.484 155.417C159.131 158.171 154.791 159.867 149.811 159.206C144.832 158.545 141.086 155.791 141.439 153.037C141.791 150.283 145.052 154.403 150.032 155.064C155.011 155.725 159.858 152.662 159.484 155.417Z" fill="#753217"/>
<path d="M210.161 68.892C210.161 74.3342 228.955 70.831 212.694 74.3784C203.969 76.2733 195.024 88.2594 183.346 89.2289C173.629 90.0441 162.679 79.8868 151.684 79.8868C140.689 79.8868 129.739 90.0441 120.022 89.2289C108.344 88.2594 99.575 73.6293 90.6735 74.3784C85.8702 74.775 82.7855 69.6192 84.7024 70.3463C89.7921 72.2852 82.1686 65.4769 98.4293 61.9295C107.154 60.0346 108.675 54.4601 120.352 53.4686C130.069 52.6534 140.689 51.3975 151.662 51.3975C162.635 51.3975 175.392 54.35 185.109 55.1652C196.786 56.1347 197.007 63.9565 205.732 65.8514C221.993 69.3987 210.139 63.4497 210.139 68.892H210.161Z" fill="#181F28"/>
<path d="M116.651 68.165C119.317 70.8311 113.522 77.0224 111.142 83.0816C109.622 86.9374 113.236 94.539 110.041 98.9456C107.397 102.603 98.98 101.854 95.3665 105.468C91.7531 109.081 92.5022 117.498 88.8447 120.142C84.438 123.337 76.8585 119.745 72.9806 121.243C66.8994 123.623 60.73 129.418 58.064 126.752C55.398 124.086 61.1927 117.894 63.5724 111.835C65.0927 107.979 61.4792 100.378 64.674 95.9712C67.318 92.3136 75.7348 93.0627 79.3483 89.4493C82.9618 85.8358 82.2126 77.4191 85.8701 74.7751C90.2768 71.5802 97.8563 75.1717 101.734 73.6734C107.815 71.2938 113.985 65.499 116.651 68.165Z" fill="#181F28"/>
<path d="M204.168 71.0958C201.678 73.5856 192.864 75.3262 191.697 81.4074C190.837 85.8802 197.624 90.5073 199.54 95.8173C201.039 99.9816 197.91 107.892 202.052 112.034C206.415 116.396 214.986 113.598 219.921 115.449C225.65 117.608 230.387 125.034 235.521 124.813C242.902 124.505 246.317 116.352 248.829 113.841C251.804 110.866 254.602 107.341 249.578 102.361C246.912 99.7172 238.65 101.744 234.662 98.1308C231.577 95.3326 230.718 90.8818 227.192 87.3564C224.152 84.3158 218.864 82.7515 216.638 80.3939C213.355 76.9127 215.757 69.2451 213.686 67.3282C209.522 63.4503 207.318 67.9231 204.145 71.0739L204.168 71.0958Z" fill="#181F28"/>
<path d="M85.6498 166.676C85.2312 166.984 84.7465 167.249 84.2618 167.403C83.2482 167.733 82.2567 167.888 81.2873 167.888C79.15 167.888 77.189 167.094 75.6687 165.618C72.9806 162.974 72.3857 158.788 74.5891 155.461C75.3162 155.747 76.0653 156.034 76.8365 156.254C76.3517 156.849 75.9772 157.51 75.7568 158.281C75.1399 160.308 75.7128 162.512 77.2551 164.01C78.8635 165.596 81.155 166.037 83.5787 165.266C83.8431 165.178 84.1075 165.045 84.3058 164.869C86.2448 163.415 87.1701 161.344 86.9057 159.207C86.8176 158.546 86.6413 157.907 86.3329 157.334C85.8922 156.452 85.2312 155.681 84.394 155.13C84.394 153.941 85.8261 153.258 86.6854 154.073C87.5667 154.91 88.2718 155.946 88.6904 157.091C88.9108 157.664 89.087 158.303 89.1531 158.92C89.5057 161.873 88.2277 164.693 85.6498 166.676Z" fill="#FFF75A"/>
<path d="M219.26 159.758C219.723 160.022 220.23 160.198 220.736 160.264C221.772 160.441 222.786 160.463 223.755 160.308C225.87 160 227.699 158.942 228.999 157.246C231.268 154.249 231.246 150.019 228.602 147.022C227.919 147.419 227.214 147.793 226.487 148.124C227.06 148.631 227.523 149.248 227.853 149.975C228.757 151.892 228.492 154.161 227.192 155.88C225.848 157.664 223.623 158.458 221.133 158.039C220.869 157.995 220.582 157.907 220.34 157.775C218.225 156.607 216.991 154.69 216.947 152.553C216.947 151.87 217.035 151.231 217.233 150.614C217.542 149.666 218.093 148.829 218.842 148.146C218.665 146.978 217.145 146.493 216.418 147.441C215.669 148.388 215.118 149.512 214.876 150.724C214.743 151.319 214.677 151.98 214.677 152.619C214.743 155.593 216.418 158.193 219.26 159.78V159.758Z" fill="#FFF75A"/>
<path d="M220.825 193.139C220.648 213.19 188.766 229.186 149.613 228.833C110.459 228.481 78.8856 211.934 79.0619 191.861C79.2381 171.811 108.256 198.493 147.387 198.846C186.541 199.199 220.979 173.067 220.803 193.139H220.825Z" fill="#7C7C7C"/>
<path d="M161.445 3.58611C160.762 -0.181599 155.518 -0.401944 154.526 3.29967L148.357 26.2584L165.741 26.9856L161.445 3.58611Z" fill="#F98130"/>
<path d="M197.536 53.4688L197.91 44.347C198.263 35.5117 174.401 27.3373 165.741 26.9847L148.357 26.2576C139.676 25.905 115.241 32.0524 114.888 40.8878L114.58 48.6655C124.12 46.8147 133.925 45.7351 143.95 45.5809C162.635 45.2945 180.658 48.0926 197.58 53.4688H197.536Z" fill="url(#paint4_linear_267_16640)"/>
<path d="M68.1334 175.468C54.8031 175.358 44.161 155.968 44.3814 132.194C44.6017 108.42 55.5743 89.2292 68.9045 89.3393C82.2347 89.4495 64.4978 107.076 64.2995 130.85C64.0792 154.624 81.4636 175.578 68.1334 175.468Z" fill="#7C7C7C"/>
<path d="M233.252 176.967C246.582 177.077 257.577 157.908 257.775 134.112C257.995 110.338 247.353 90.9486 234.023 90.8384C220.693 90.7282 238.099 108.641 237.879 132.437C237.659 156.211 219.9 176.857 233.23 176.967H233.252Z" fill="#7C7C7C"/>
<path d="M235.763 96.9199C225.209 71.8459 204.255 52.4785 178.52 44.3041C169.421 41.4178 159.726 39.8975 149.679 40.0517C144.281 40.1398 139.015 40.7127 133.881 41.7042C106.009 47.0804 82.6311 65.2138 69.7416 89.8692C62.6468 103.442 58.7029 118.953 58.9673 135.412C59.1656 149.315 62.3384 161.213 67.8027 171.194C72.2094 179.237 78.1143 186.023 85.209 191.575C102.197 204.861 125.971 211.141 152.235 210.722C178.719 210.304 202.471 203.165 219.084 189.108C223.711 185.186 227.765 180.757 231.18 175.755C239.068 164.232 243.497 149.844 243.233 132.482C243.034 119.835 240.39 107.826 235.785 96.8978L235.763 96.9199ZM216.947 165.796C201.017 180.052 177.375 189.262 150.891 189.636C124.076 190.011 99.9494 181.286 83.6226 167.184C77.3431 161.764 73.2449 154.075 72.0331 145.68C71.4822 141.934 71.0856 138.012 70.8653 133.936C70.2043 121.906 69.5653 119.504 71.7246 108.465C73.3771 99.9605 83.7769 79.7558 90.3649 74.4237C106.207 61.5783 124.186 56.7309 149.106 56.3784C174.488 56.0038 192.578 60.2783 208.794 73.0577C214.854 77.8389 224.063 88.2387 225.87 95.9284C227.633 103.508 230.806 115.494 231.268 123.734C231.753 132.526 230.233 139.709 229.153 147.288C227.941 155.661 223.138 160.31 216.969 165.818L216.947 165.796Z" fill="white"/>
<path opacity="0.83" d="M76.8584 125.034C72.5399 122.28 76.7042 108.002 86.1565 93.1515C95.6089 78.301 106.78 68.4741 111.098 71.2283C115.417 73.9824 102.66 81.4518 93.2072 96.3023C83.7549 111.153 81.199 127.766 76.8584 125.012V125.034Z" fill="white"/>
<path d="M114.713 127.633C115.021 128.184 114.338 129.087 113.324 129.462C108.521 131.268 103.96 130.784 102.418 128.051C102.264 127.765 102.154 127.456 102.065 127.126C104.092 129.263 108.521 129.395 113.082 127.457C113.809 127.148 114.492 127.214 114.713 127.611V127.633Z" fill="#632A14"/>
<path d="M115.109 129.748C115.417 130.299 114.558 131.291 113.39 131.753C107.816 134.001 102.682 133.825 101.162 131.092C101.007 130.806 100.897 130.497 100.831 130.167C102.968 132.238 107.992 132.04 113.28 129.704C114.117 129.33 114.888 129.352 115.109 129.748Z" fill="#632A14"/>
<path d="M145.868 110.866C147.432 108.552 146.374 105.379 143.73 104.454C131.105 99.9589 116.541 104.322 108.675 115.933C107.838 117.167 107.155 118.445 106.516 119.723C115.197 110.226 128.99 107.318 140.712 112.386C142.563 113.201 144.744 112.54 145.868 110.866Z" fill="#632A14"/>
<path d="M166.424 98.9453C165.697 96.2352 167.768 93.6132 170.566 93.5912C183.985 93.5251 196.257 102.471 199.849 116.043C200.223 117.475 200.466 118.908 200.62 120.34C195.574 108.508 183.544 101.193 170.787 102.096C168.76 102.228 166.931 100.906 166.424 98.9453Z" fill="#632A14"/>
<path d="M191.587 124.35C190.992 125.342 191.521 126.62 192.622 126.928C197.91 128.448 203.771 126.311 206.724 121.354C207.032 120.825 207.296 120.296 207.517 119.745C204.19 123.865 198.615 125.386 193.68 123.601C192.909 123.315 192.027 123.645 191.609 124.35H191.587Z" fill="#632A14"/>
<path d="M191.785 129.418C191.19 130.409 191.719 131.687 192.821 131.995C198.109 133.516 203.97 131.379 206.922 126.421C207.231 125.892 207.495 125.363 207.715 124.812C204.388 128.933 198.814 130.453 193.878 128.668C193.107 128.382 192.226 128.712 191.807 129.418H191.785Z" fill="#632A14"/>
<path d="M192.182 134.044C191.587 135.036 192.115 136.314 193.217 136.622C198.505 138.143 204.366 136.005 207.318 131.048C207.627 130.519 207.891 129.99 208.112 129.439C204.785 133.56 199.21 135.08 194.275 133.295C193.504 133.009 192.622 133.339 192.204 134.044H192.182Z" fill="#632A14"/>
<path d="M193.865 132.636C195.654 120.833 189.058 110.046 179.133 108.541C169.207 107.036 159.71 115.384 157.921 127.187C156.132 138.99 162.728 149.777 172.653 151.282C182.579 152.787 192.076 144.439 193.865 132.636Z" fill="white"/>
<path d="M183.625 132.506C184.494 125.883 180.963 119.958 175.739 119.272C170.514 118.587 165.575 123.402 164.706 130.026C163.838 136.65 167.369 142.575 172.593 143.26C177.818 143.945 182.757 139.13 183.625 132.506Z" fill="#24A073"/>
<path d="M172.283 125.272C174.607 121.849 174.932 118.016 173.009 116.71C171.086 115.405 167.643 117.122 165.319 120.545C162.995 123.968 162.671 127.801 164.594 129.107C166.517 130.412 169.959 128.695 172.283 125.272Z" fill="white"/>
<path d="M151.75 162.247L133.55 161.19C130.884 161.035 128.813 163.481 129.408 166.103C131.435 175.181 140.006 182.364 150.56 183.003C161.114 183.62 170.478 177.472 173.541 168.703C174.422 166.169 172.66 163.503 169.994 163.349L151.772 162.269L151.75 162.247Z" fill="white"/>
<path d="M157.567 132.502C158.03 141.932 163.781 149.908 172.021 151.451C179.402 152.839 186.695 148.675 190.749 141.58C180.218 137.195 169.003 134.066 157.545 132.502H157.567Z" fill="#87401A"/>
<path d="M111.627 130.145C111.627 125.694 120.088 122.103 130.554 122.103C140.998 122.103 149.481 125.694 149.481 130.145C149.481 134.596 141.681 128.735 131.237 128.735C120.793 128.735 111.649 134.596 111.649 130.145H111.627Z" fill="#87401A"/>
<path d="M151.287 276.866L149.613 277.527C148.841 277.791 148.114 278.011 147.387 278.188L147.233 278.232C147.057 278.276 146.902 278.298 146.726 278.342C146.33 278.43 145.911 278.518 145.492 278.584L147.167 285.635C147.409 286.604 148.709 286.781 149.194 285.899L155.209 274.772L155.099 274.839C153.887 275.61 152.609 276.293 151.287 276.866Z" fill="url(#paint5_linear_267_16640)"/>
<path d="M127.293 263.226L133.881 266.553C134.035 266.62 134.189 266.664 134.343 266.664C134.542 266.113 134.762 265.584 134.982 265.055C134.982 265.055 134.982 265.033 134.982 265.011C135.511 263.733 136.128 262.609 136.877 261.464L137.891 259.988C138.398 259.282 138.948 258.621 139.543 257.982C139.499 257.982 139.455 257.982 139.411 257.982C139.411 257.982 139.389 257.982 139.367 257.982L128.637 260.869C128.637 260.869 128.637 260.869 128.615 260.869L127.469 261.177C126.5 261.442 126.367 262.764 127.271 263.204L127.293 263.226Z" fill="url(#paint6_linear_267_16640)"/>
<path d="M164.926 254.038C164.97 253.025 164.265 252.121 163.251 251.923C156.707 250.601 149.678 252.077 144.038 256.528C141.923 258.203 140.182 260.164 138.816 262.301L139.631 263.336L144.545 269.55L149.194 275.411C151.595 274.574 153.909 273.318 156.002 271.665C161.643 267.192 164.661 260.67 164.882 254.016L164.926 254.038ZM154.636 263.381C152.675 263.006 151.375 261.111 151.728 259.15C152.102 257.189 153.997 255.889 155.958 256.242C157.919 256.616 159.219 258.511 158.866 260.472C158.492 262.433 156.597 263.733 154.636 263.381Z" fill="url(#paint7_linear_267_16640)"/>
<path d="M145.757 274.309L137.736 264.195C137.516 264.614 137.34 265.033 137.142 265.451C136.965 265.826 136.855 266.222 136.723 266.619C136.657 266.817 136.569 267.038 136.503 267.236C136.348 267.655 136.172 268.051 136.062 268.448C136.062 268.448 136.062 268.448 136.062 268.47C135.842 269.263 135.643 270.078 135.511 270.893L140.27 276.71C142.584 276.82 144.897 276.622 147.167 276.071L145.779 274.309H145.757Z" fill="url(#paint8_linear_267_16640)"/>
</g>
</g>
<defs>
<filter id="filter0_d_267_16640" x="0.117188" y="0.638672" width="291.754" height="491.323" filterUnits="userSpaceOnUse" color-interpolation-filters="sRGB">
<feFlood flood-opacity="0" result="BackgroundImageFix"/>
<feColorMatrix in="SourceAlpha" type="matrix" values="0 0 0 0 0 0 0 0 0 0 0 0 0 0 0 0 0 0 127 0" result="hardAlpha"/>
<feOffset dx="1" dy="2"/>
<feGaussianBlur stdDeviation="1"/>
<feComposite in2="hardAlpha" operator="out"/>
<feColorMatrix type="matrix" values="0 0 0 0 0 0 0 0 0 0 0 0 0 0 0 0 0 0 0.25 0"/>
<feBlend mode="normal" in2="BackgroundImageFix" result="effect1_dropShadow_267_16640"/>
<feBlend mode="normal" in="SourceGraphic" in2="effect1_dropShadow_267_16640" result="shape"/>
</filter>
<filter id="filter1_d_267_16640" x="0.117188" y="0.638672" width="291.754" height="491.323" filterUnits="userSpaceOnUse" color-interpolation-filters="sRGB">
<feFlood flood-opacity="0" result="BackgroundImageFix"/>
<feColorMatrix in="SourceAlpha" type="matrix" values="0 0 0 0 0 0 0 0 0 0 0 0 0 0 0 0 0 0 127 0" result="hardAlpha"/>
<feOffset dx="1" dy="2"/>
<feGaussianBlur stdDeviation="1"/>
<feComposite in2="hardAlpha" operator="out"/>
<feColorMatrix type="matrix" values="0 0 0 0 0 0 0 0 0 0 0 0 0 0 0 0 0 0 0.25 0"/>
<feBlend mode="normal" in2="BackgroundImageFix" result="effect1_dropShadow_267_16640"/>
<feBlend mode="normal" in="SourceGraphic" in2="effect1_dropShadow_267_16640" result="shape"/>
</filter>
<linearGradient id="paint0_linear_267_16640" x1="53.9" y1="361.936" x2="149.459" y2="361.936" gradientUnits="userSpaceOnUse">
<stop stop-color="#F9DE64"/>
<stop offset="0.43" stop-color="#FCB74C"/>
<stop offset="0.78" stop-color="#FE9F3E"/>
<stop offset="1" stop-color="#FF9739"/>
</linearGradient>
<linearGradient id="paint1_linear_267_16640" x1="134.145" y1="367.422" x2="230.894" y2="367.422" gradientUnits="userSpaceOnUse">
<stop stop-color="#F9DE64"/>
<stop offset="0.43" stop-color="#FCB74C"/>
<stop offset="0.78" stop-color="#FE9F3E"/>
<stop offset="1" stop-color="#FF9739"/>
</linearGradient>
<linearGradient id="paint2_linear_267_16640" x1="-19.6918" y1="253.025" x2="102.263" y2="253.025" gradientUnits="userSpaceOnUse">
<stop stop-color="#F9DE64"/>
<stop offset="0.43" stop-color="#FCB74C"/>
<stop offset="0.78" stop-color="#FE9F3E"/>
<stop offset="1" stop-color="#FF9739"/>
</linearGradient>
<linearGradient id="paint3_linear_267_16640" x1="186.829" y1="180.284" x2="315.525" y2="223.882" gradientUnits="userSpaceOnUse">
<stop stop-color="#F9DE64"/>
<stop offset="0.43" stop-color="#FCB74C"/>
<stop offset="0.78" stop-color="#FE9F3E"/>
<stop offset="1" stop-color="#FF9739"/>
</linearGradient>
<linearGradient id="paint4_linear_267_16640" x1="114.558" y1="39.8522" x2="197.91" y2="39.8522" gradientUnits="userSpaceOnUse">
<stop stop-color="#F9DE64"/>
<stop offset="0.43" stop-color="#FCB74C"/>
<stop offset="0.78" stop-color="#FE9F3E"/>
<stop offset="1" stop-color="#FF9739"/>
</linearGradient>
<linearGradient id="paint5_linear_267_16640" x1="145.492" y1="280.633" x2="155.209" y2="280.633" gradientUnits="userSpaceOnUse">
<stop stop-color="#F9DE64"/>
<stop offset="0.43" stop-color="#FCB74C"/>
<stop offset="0.78" stop-color="#FE9F3E"/>
<stop offset="1" stop-color="#FF9739"/>
</linearGradient>
<linearGradient id="paint6_linear_267_16640" x1="126.698" y1="262.323" x2="139.565" y2="262.323" gradientUnits="userSpaceOnUse">
<stop stop-color="#F9DE64"/>
<stop offset="0.43" stop-color="#FCB74C"/>
<stop offset="0.78" stop-color="#FE9F3E"/>
<stop offset="1" stop-color="#FF9739"/>
</linearGradient>
<linearGradient id="paint7_linear_267_16640" x1="138.838" y1="263.447" x2="164.926" y2="263.447" gradientUnits="userSpaceOnUse">
<stop stop-color="#F9DE64"/>
<stop offset="0.43" stop-color="#FCB74C"/>
<stop offset="0.78" stop-color="#FE9F3E"/>
<stop offset="1" stop-color="#FF9739"/>
</linearGradient>
<linearGradient id="paint8_linear_267_16640" x1="135.511" y1="270.475" x2="147.167" y2="270.475" gradientUnits="userSpaceOnUse">
<stop stop-color="#F9DE64"/>
<stop offset="0.43" stop-color="#FCB74C"/>
<stop offset="0.78" stop-color="#FE9F3E"/>
<stop offset="1" stop-color="#FF9739"/>
</linearGradient>
</defs>
</svg>
