<svg width="294" height="92" viewBox="0 0 294 92" fill="none" xmlns="http://www.w3.org/2000/svg">
<g filter="url(#filter0_d_652_1864)">
<path d="M93.5875 35.6466C91.1984 35.6466 88.6828 36.2207 86.55 37.5241C86.3375 36.5328 85.6547 35.9069 84.8016 35.9069H83.8203C82.2422 35.9069 81.0906 37.3155 81.0906 39.2448V59.6397C81.0906 61.5172 82.2422 62.9259 83.8203 62.9259C85.3984 62.9259 86.55 61.5172 86.55 59.6397V46.3897C86.55 42.9466 89.6641 41.8 92.0531 41.8C94.8688 41.8 96.3609 43.8345 96.3609 47.1724V59.6397C96.3609 61.4655 97.5125 62.9259 99.0063 62.9259C100.5 62.9259 101.736 61.5172 101.736 59.6397V47.1724C101.736 40.9121 99.2625 35.6448 93.5891 35.6448L93.5875 35.6466Z" fill="url(#paint0_linear_652_1864)"/>
<path d="M172.106 46.3914C170.57 46.2862 166.775 46.0776 166.775 43.6276C166.775 41.3845 170.273 40.9672 171.68 40.9672C174.197 40.9672 175.178 42.3241 175.945 43.6793C176.158 44.0448 176.33 44.3569 176.5 44.6707C176.67 45.0362 176.884 45.2966 177.097 45.5569C177.523 46.0793 178.078 46.4431 178.845 46.4431C180.039 46.4431 181.405 45.4517 181.405 43.8345C181.405 43.4172 181.319 43.1035 181.192 42.7397C179.444 37.8362 175.945 35.6448 171.68 35.6448C167.414 35.6448 161.528 37.731 161.528 43.9914C161.528 50.2517 166.903 52.1293 171.253 52.3897C171.638 52.3897 172.148 52.4414 172.789 52.4948C173.386 52.6 174.069 52.7035 174.666 52.9121C175.945 53.2776 176.969 53.9552 176.969 55.2069C176.969 57.2414 172.959 57.6069 171.68 57.6069C168.481 57.6069 167.158 56.3552 166.263 55.0517C166.006 54.7379 165.794 54.4259 165.623 54.1121C165.411 53.8517 165.197 53.5379 164.984 53.3293C164.516 52.8069 164.003 52.4948 163.192 52.4948C161.87 52.4948 160.591 53.6431 160.591 55.3121C160.591 55.7293 160.633 56.0431 160.761 56.4069C162.509 61.5707 167.5 63.1362 171.681 63.1362C175.863 63.1362 182.345 61.2069 182.345 54.8431C182.345 48.1655 176.502 46.6017 172.108 46.3931L172.106 46.3914Z" fill="url(#paint1_linear_652_1864)"/>
<path d="M197.692 38.6707C197.692 37.1586 196.711 35.9069 195.431 35.9069H192.147V32.6724C192.147 30.7431 190.995 29.3862 189.375 29.3862C187.755 29.3862 186.645 30.7948 186.645 32.6724V35.9069H183.403C182.123 35.9069 181.1 37.1069 181.1 38.6707C181.1 40.2345 182.081 41.4345 183.403 41.4345H186.645V59.6397C186.645 61.5172 187.839 62.9259 189.375 62.9259C190.911 62.9259 192.147 61.569 192.147 59.6397V41.4345H195.431C196.753 41.4345 197.692 40.2345 197.692 38.6707Z" fill="url(#paint2_linear_652_1864)"/>
<path d="M217.922 35.9069H217.155C216.898 35.9069 216.6 35.9069 216.344 35.9586C215.875 36.1155 215.448 36.3759 215.234 37.1069C213.272 35.8035 210.927 35.4379 208.666 35.4379C201.755 35.4379 196.936 41.0707 196.936 49.469C196.936 57.8672 201.756 63.3966 208.666 63.3966C210.927 63.3966 213.316 63.2914 215.277 61.8845C215.489 62.4586 216.13 62.9276 216.642 62.9276H217.922C219.458 62.9276 220.652 61.519 220.652 59.6414V39.2466C220.652 37.3172 219.542 35.9086 217.922 35.9086V35.9069ZM209.988 57.6069C205.808 57.6069 202.694 54.6328 202.694 49.469C202.694 44.3052 205.808 41.2793 209.988 41.2793C214.167 41.2793 215.363 45.1397 215.363 49.5207C215.363 53.9017 213.997 57.6052 209.988 57.6052V57.6069Z" fill="url(#paint3_linear_652_1864)"/>
<path d="M242.414 52.7552C241.689 52.7552 241.177 53.069 240.75 53.5379C240.494 53.7466 240.281 54.0603 240.067 54.3207C239.855 54.6345 239.683 54.8948 239.428 55.2069C238.447 56.4586 237.083 57.6586 234.181 57.6586C229.745 57.6586 227.911 54.4759 227.911 49.469C227.911 44.4621 229.703 40.9672 234.181 40.9672C237.253 40.9672 238.489 42.4793 239.342 43.9931C239.598 44.3586 239.769 44.7241 239.939 45.0879C240.152 45.4535 240.366 45.7655 240.578 46.0793C241.047 46.6535 241.602 47.019 242.455 47.019C243.734 47.019 245.184 45.8707 245.184 44.15C245.184 43.681 245.056 43.2638 244.928 42.8983C242.966 37.5259 238.786 35.4397 234.178 35.4397C226.714 35.4397 222.148 40.2914 222.148 49.4707C222.148 58.65 226.712 63.3983 234.178 63.3983C238.145 63.3983 243.136 61.6776 245.013 56.9828C245.141 56.6172 245.269 56.2 245.269 55.7828C245.269 54.0086 243.777 52.7569 242.411 52.7569L242.414 52.7552Z" fill="url(#paint4_linear_652_1864)"/>
<path d="M264.32 53.069C262.998 50.5138 261.591 47.9569 260.183 45.3483L263.936 41.6448C264.277 41.2276 265.045 40.55 265.684 39.819C266.367 39.0879 266.922 38.2535 266.922 37.5759C266.922 36.1672 265.556 35.9069 264.703 35.9069C263.978 35.9069 263.295 35.9069 262.57 36.1155C261.759 36.3241 261.034 36.7414 260.352 37.3155C259.413 38.15 258.559 39.1414 257.622 40.0276C255.873 41.8017 254.167 43.5224 252.375 45.2431V27.6121C252.375 25.7862 251.181 24.4293 249.645 24.4293C248.109 24.4293 246.916 25.7862 246.916 27.6121V59.6397C246.916 61.5172 248.067 62.9259 249.645 62.9259C251.223 62.9259 252.375 61.5172 252.375 59.6397V53.1707C253.484 52.1276 254.55 50.9793 255.659 49.9362L261.375 60.1603C262.314 61.7776 263.934 62.9241 265.598 62.9241C266.708 62.9241 267.944 62.4017 267.944 60.7862C267.944 60.2121 267.773 59.5862 267.559 59.1172C266.62 56.9793 265.341 55.1 264.317 53.0655L264.32 53.069Z" fill="url(#paint5_linear_652_1864)"/>
<path d="M279.85 46.3914C278.314 46.2862 274.519 46.0776 274.519 43.6276C274.519 41.3845 278.017 40.9672 279.423 40.9672C281.941 40.9672 282.922 42.3241 283.689 43.6793C283.902 44.0448 284.073 44.3569 284.244 44.6707C284.414 45.0362 284.628 45.2966 284.841 45.5569C285.267 46.0793 285.822 46.4431 286.589 46.4431C287.783 46.4431 289.148 45.4517 289.148 43.8345C289.148 43.4172 289.063 43.1035 288.936 42.7397C287.188 37.8362 283.689 35.6448 279.423 35.6448C275.158 35.6448 269.272 37.731 269.272 43.9914C269.272 50.2517 274.647 52.1293 278.997 52.3897C279.381 52.3897 279.892 52.4414 280.533 52.4948C281.13 52.6 281.813 52.7035 282.409 52.9121C283.689 53.2776 284.713 53.9552 284.713 55.2069C284.713 57.2414 280.703 57.6069 279.423 57.6069C276.225 57.6069 274.902 56.3552 274.006 55.0517C273.75 54.7379 273.538 54.4259 273.367 54.1121C273.155 53.8517 272.941 53.5379 272.728 53.3293C272.259 52.8069 271.747 52.4948 270.936 52.4948C269.614 52.4948 268.334 53.6431 268.334 55.3121C268.334 55.7293 268.377 56.0431 268.505 56.4069C270.253 61.5707 275.244 63.1362 279.425 63.1362C283.606 63.1362 290.089 61.2069 290.089 54.8431C290.089 48.1655 284.245 46.6017 279.852 46.3931L279.85 46.3914Z" fill="url(#paint6_linear_652_1864)"/>
<path d="M156.516 52.9638C155.791 52.9638 155.236 53.2776 154.809 53.6948C154.553 53.9552 154.341 54.1638 154.127 54.4776C153.914 54.7379 153.658 55.0517 153.444 55.3121C152.462 56.5121 151.013 57.6586 147.77 57.6586C144.528 57.6586 142.311 55.6759 141.798 51.6604H155.022C157.495 51.6604 159.884 49.9397 159.884 46.7052C159.884 46.2879 159.842 45.8707 159.756 45.5052C158.22 38.3069 153.955 35.4379 148.069 35.4379C140.561 35.4379 135.869 40.1328 135.869 49.469C135.869 58.8052 140.305 63.3966 147.77 63.3966C151.95 63.3966 157.112 61.9362 159.117 56.8759C159.245 56.5621 159.33 56.1448 159.33 55.781C159.33 54.0604 157.794 52.9638 156.514 52.9638H156.516ZM148.069 40.9672C151.395 40.9672 153.528 42.6879 154.381 46.6H141.841C142.608 42.7397 144.827 40.9672 148.069 40.9672Z" fill="url(#paint7_linear_652_1864)"/>
<path d="M107.273 25.631C105.908 25.631 104.416 26.3621 104.416 28.2914V29.0741C104.416 31.1604 105.567 32.5172 107.273 32.5172C108.98 32.5172 110.173 31.1604 110.173 29.0741C110.173 26.9879 109.022 25.631 107.273 25.631Z" fill="url(#paint8_linear_652_1864)"/>
<path d="M107.273 35.9069C105.653 35.9069 104.544 37.3155 104.544 39.2448V59.6397C104.544 61.569 105.695 62.9259 107.273 62.9259C108.852 62.9259 110.003 61.569 110.003 59.6397V39.2448C110.003 37.3155 108.894 35.9069 107.273 35.9069Z" fill="url(#paint9_linear_652_1864)"/>
<path d="M125.367 35.6466C122.978 35.6466 120.463 36.2207 118.33 37.5241C118.117 36.5328 117.434 35.9069 116.581 35.9069H115.6C114.022 35.9069 112.87 37.3155 112.87 39.2448V59.6397C112.87 61.5172 114.022 62.9259 115.6 62.9259C117.178 62.9259 118.33 61.5172 118.33 59.6397V46.3897C118.33 42.9466 121.444 41.8 123.833 41.8C126.648 41.8 128.141 43.8345 128.141 47.1724V59.6397C128.141 61.4655 129.292 62.9259 130.786 62.9259C132.28 62.9259 133.516 61.5172 133.516 59.6397V47.1724C133.516 40.9121 131.042 35.6448 125.369 35.6448L125.367 35.6466Z" fill="url(#paint10_linear_652_1864)"/>
</g>
<g filter="url(#filter1_d_652_1864)">
<path d="M66.1515 58.15C66.5547 54.9741 67.1078 51.9535 66.9312 48.2586C66.764 44.7983 65.6031 39.7586 64.9609 36.5759C64.3094 33.3448 60.9437 28.9776 58.7281 26.9707C52.8 21.6017 46.1922 19.8172 36.9187 19.9741C27.814 20.1293 21.239 22.1707 15.4515 27.5655C13.0469 29.8086 9.24841 38.3 8.63904 41.8724C7.84841 46.5086 8.07966 47.5138 8.32341 52.5707C8.40623 54.2862 8.54998 55.931 8.74998 57.5069C9.19841 61.0293 10.6922 64.2621 12.9844 66.5379C18.9484 72.4569 27.7609 76.1259 37.5578 75.9603C47.2359 75.7966 55.8719 71.9259 61.6984 65.9345C63.9531 63.6172 65.7062 61.6621 66.1515 58.1483V58.15Z" fill="#8DB4DB"/>
<path d="M16.5625 64.0966C20.6209 64.0966 23.9109 61.3802 23.9109 58.0293C23.9109 54.6785 20.6209 51.9621 16.5625 51.9621C12.5041 51.9621 9.21405 54.6785 9.21405 58.0293C9.21405 61.3802 12.5041 64.0966 16.5625 64.0966Z" fill="#FFB9AB"/>
<path d="M14.5625 55.0552C16.9562 54.55 16.1953 56.1793 16.4906 57.8828C16.7859 59.5862 18.8344 60.5862 16.4406 61.0914C14.0469 61.5966 11.8672 60.6259 11.5703 58.9224C11.275 57.219 12.1687 55.5621 14.5625 55.0552Z" fill="#EE9583"/>
<path d="M67.6781 53.4931C67.6781 56.8431 64.3797 59.2793 60.3297 59.5603C51.6469 60.1621 57.0906 56.8448 57.0906 53.4931C57.0906 50.1414 56.2703 47.4259 60.3297 47.4259C64.389 47.4259 67.6781 50.1414 67.6781 53.4931Z" fill="#FFB9AB"/>
<path d="M60.8281 57.0276C58.9266 57.3207 60.5953 55.1069 60.9719 53.4224C61.3484 51.7379 60.4922 49.7379 62.525 50.2931C64.5594 50.8483 65.9031 52.6638 65.525 54.3465C65.1484 56.031 62.9031 56.7086 60.8266 57.0276H60.8281Z" fill="#EE9583"/>
<path d="M38.4453 74.8776C50.5007 74.8776 60.2734 62.8564 60.2734 48.0276C60.2734 33.1987 50.5007 21.1776 38.4453 21.1776C26.39 21.1776 16.6172 33.1987 16.6172 48.0276C16.6172 62.8564 26.39 74.8776 38.4453 74.8776Z" fill="#FFC6B7"/>
<path d="M38.4453 74.8776C50.5007 74.8776 60.2734 62.8564 60.2734 48.0276C60.2734 33.1987 50.5007 21.1776 38.4453 21.1776C26.39 21.1776 16.6172 33.1987 16.6172 48.0276C16.6172 62.8564 26.39 74.8776 38.4453 74.8776Z" fill="#FFC6B7"/>
<path d="M38.8359 60.4914L36.9375 60.4586C36.0266 60.4431 35.4781 59.0328 35.9484 57.919L36.9297 55.5983L37.9109 53.2776C38.3812 52.1638 39.5203 52.1828 39.9594 53.3121L40.8766 55.6655L41.7937 58.019C42.2328 59.1483 41.6453 60.5397 40.7344 60.5241L38.8359 60.4914Z" fill="#EE9583"/>
<path d="M37.4766 42.4569C37.9516 41.5345 37.5 40.3724 36.5719 40.0983C32.125 38.7793 27.2656 40.8621 24.8844 45.4862C24.6328 45.9741 24.4297 46.4776 24.25 46.9862C26.9625 43.1379 31.6 41.6259 35.7516 43.1897C36.4094 43.4379 37.1344 43.1259 37.4781 42.4586L37.4766 42.4569Z" fill="#181F28"/>
<path d="M43.525 38.9724C43.1156 38.0121 43.6469 36.8931 44.5922 36.6966C49.1172 35.7603 53.8172 38.25 55.8687 43.0621C56.0859 43.5707 56.2531 44.0897 56.3969 44.6121C53.9625 40.5431 49.4422 38.6431 45.1953 39.8483C44.5219 40.0397 43.8219 39.6672 43.525 38.9724Z" fill="#181F28"/>
<path d="M41.9828 59.0259C41.9859 60.0914 40.5703 60.9586 38.8219 60.9638C37.0734 60.969 35.6547 60.1104 35.6516 59.0448C35.6484 57.9793 36.9578 59.3793 38.7062 59.3741C40.4547 59.369 41.9797 57.9604 41.9812 59.0259H41.9828Z" fill="#ED7562"/>
<path d="M60.2688 47.4259C60.2688 47.4259 63.9938 28.0448 54.9844 22.5276C48.2313 18.3914 43.6172 21.9379 43.6172 21.9379C43.6172 21.9379 40.2609 17.4259 32.2297 17.6345C27.25 17.7638 22.3406 24.3862 22.3406 24.3862C22.3406 24.3862 14.7047 25.0621 14.0672 30.3793C13.4297 35.6966 14.2984 43.0397 14.5531 43.9259C14.8078 44.8121 16.9125 51.9724 16.9125 51.9724C16.9125 51.9724 23.8297 39.0397 24.2516 36.6724C24.6734 34.3052 25.2469 30.7604 25.2469 30.7604C25.2469 30.7604 30.9828 33.9259 40.85 33.5448C50.7172 33.1655 55.0219 30.569 55.0219 30.569C55.0219 30.569 58.0719 44.5621 60.2688 47.4293V47.4259Z" fill="#7F6D5C"/>
<path d="M40.9687 72.3621C40.9234 73.1259 39.4719 73.6414 37.7266 73.5138C35.9828 73.3862 34.6047 72.6638 34.6516 71.9C34.6969 71.1362 35.9406 72.2379 37.6844 72.3655C39.4281 72.4931 41.0141 71.5983 40.9687 72.3621Z" fill="#EE9583"/>
<path d="M54.1906 27.4845C54.275 28.1345 51.3062 29.1448 47.5578 29.7431C43.8094 30.3397 40.7016 30.2966 40.6172 29.6466C40.5328 28.9966 43.4437 29.4069 47.1922 28.8103C50.9406 28.2138 54.1047 26.8345 54.1906 27.4862V27.4845Z" fill="#9B7D72"/>
<path d="M16.3859 46.1121C15.7687 46.1121 15.2687 42.6793 15.2687 38.4466C15.2687 34.2121 15.7687 30.781 16.3859 30.781C17.0031 30.781 16.1906 33.9448 16.1906 38.1776C16.1906 42.4121 17.0031 46.1121 16.3859 46.1121Z" fill="#9B7D72"/>
<path d="M52.9817 51.3433C53.596 46.8723 51.3307 42.7856 47.9222 42.2155C44.5137 41.6453 41.2526 44.8076 40.6384 49.2786C40.0241 53.7496 42.2894 57.8362 45.6979 58.4064C49.1064 58.9765 52.3675 55.8143 52.9817 51.3433Z" fill="white"/>
<path d="M49.4686 51.3519C49.7665 48.8452 48.5541 46.6028 46.7608 46.3433C44.9674 46.0838 43.2721 47.9056 42.9742 50.4122C42.6764 52.9189 43.8887 55.1613 45.6821 55.4208C47.4755 55.6803 49.1708 53.8585 49.4686 51.3519Z" fill="#181F28"/>
<path d="M45.5712 48.5786C46.369 47.2818 46.4815 45.8304 45.8225 45.3368C45.1634 44.8431 43.9825 45.4942 43.1847 46.791C42.387 48.0878 42.2745 49.5392 42.9335 50.0328C43.5925 50.5264 44.7734 49.8754 45.5712 48.5786Z" fill="white"/>
<path d="M38.525 62.5931L32.275 62.1931C31.3562 62.1345 30.65 63.0655 30.8515 64.0552C31.5469 67.4914 34.4922 70.2172 38.1094 70.4535C41.7328 70.6897 44.9469 68.3621 45.9969 65.0345C46.2984 64.0776 45.6969 63.0638 44.7797 63.0035L38.5265 62.5948L38.525 62.5931Z" fill="white"/>
<path d="M40.525 51.3241C40.6828 54.8983 42.6562 57.9138 45.4891 58.5C48.025 59.0241 50.525 57.4517 51.9219 54.7621C48.3094 53.1 44.4547 51.9155 40.525 51.3259V51.3241Z" fill="#EE9583"/>
<path d="M24.7484 50.431C24.7484 48.7483 27.6562 47.3862 31.2422 47.3862C34.8297 47.3862 37.7359 48.75 37.7359 50.431C37.7359 52.1138 35.0562 49.8966 31.4687 49.8966C27.8812 49.8966 24.7469 52.1138 24.7469 50.431H24.7484Z" fill="#ED7562"/>
<path d="M62.4875 73.6138C62.425 81.2121 51.4812 87.2638 38.0437 87.131C24.6062 86.9966 13.7625 80.7293 13.825 73.1293C13.8875 65.531 23.8453 75.6431 37.2828 75.7776C50.7203 75.9121 62.55 66.0155 62.4875 73.6138Z" fill="#7C7C7C"/>
<path d="M42.0984 1.81207C41.8609 0.382763 40.0672 0.300005 39.7234 1.70345L37.6031 10.3983L43.5734 10.6724L42.0969 1.81035L42.0984 1.81207Z" fill="#C62433"/>
<path d="M54.4937 20.7086L54.6203 17.2535C54.7437 13.9069 46.55 10.8103 43.5734 10.6741L37.6031 10.4C34.6266 10.2638 26.2344 12.5948 26.1109 15.9414L26.0031 18.8914C29.2766 18.1948 32.6422 17.7828 36.0859 17.7224C42.5 17.6103 48.6844 18.6741 54.4922 20.7086H54.4937Z" fill="url(#paint11_linear_652_1864)"/>
<path d="M10.0703 66.9207C5.49218 66.8759 1.84061 59.5345 1.91405 50.5259C1.98749 41.5172 5.7578 34.25 10.3359 34.2948C14.9141 34.3397 8.82655 41.0121 8.75312 50.0207C8.67968 59.0293 14.6469 66.9655 10.0687 66.9207H10.0703Z" fill="#7C7C7C"/>
<path d="M66.7547 67.4845C71.3328 67.5293 75.1031 60.2638 75.1765 51.2534C75.25 42.2448 71.5984 34.9034 67.0203 34.8586C62.4422 34.8138 68.4203 41.6034 68.3453 50.6138C68.2719 59.6224 62.175 67.4397 66.7531 67.4845H66.7547Z" fill="#7C7C7C"/>
<path d="M67.6141 37.1638C63.989 27.669 56.7984 20.331 47.9625 17.2345C44.8375 16.1397 41.5094 15.5672 38.0578 15.6276C36.2047 15.6603 34.3937 15.881 32.6328 16.2569C23.0609 18.2948 15.0391 25.1621 10.6125 34.5C8.17655 39.6379 6.82655 45.519 6.91093 51.7535C6.98124 57.0172 8.06874 61.5241 9.9453 65.3052C11.4562 68.35 13.4844 70.9207 15.9219 73.0259C21.7531 78.0603 29.9172 80.4397 38.9344 80.2828C48.0266 80.1241 56.1828 77.4172 61.8812 72.0948C63.4672 70.6138 64.8625 68.9293 66.0344 67.0397C68.7406 62.6741 70.2594 57.2224 70.1703 50.6483C70.1062 45.8603 69.1969 41.3103 67.6141 37.1672V37.1638ZM61.1578 63.2534C55.6859 68.6535 47.5734 72.1397 38.4812 72.2845C29.2766 72.431 20.9969 69.119 15.3906 63.7793C13.2359 61.7276 11.8312 58.8103 11.4094 55.6345C11.2203 54.2138 11.0844 52.7293 11.0062 51.1828C10.7766 46.6224 10.5578 45.7155 11.3 41.5362C11.8703 38.3138 15.4375 30.6603 17.6969 28.6379C23.1328 23.7759 29.3094 21.9362 37.8625 21.8C46.5734 21.6621 52.7828 23.2741 58.3547 28.1172C60.4375 29.9276 63.6 33.8672 64.2141 36.781C64.8187 39.65 65.9109 44.1948 66.0687 47.3155C66.2375 50.6466 65.7172 53.3707 65.3391 56.2345C64.9219 59.4017 63.2734 61.1638 61.1578 63.2534Z" fill="#E5E5E5"/>
<path opacity="0.83" d="M13.0609 47.8155C11.5766 46.7741 13.0047 41.3673 16.2484 35.7397C19.4937 30.1121 23.3266 26.3948 24.8109 27.4362C26.2953 28.4776 21.9156 31.3086 18.6703 36.9362C15.425 42.5638 14.5437 48.8552 13.0609 47.8138V47.8155Z" fill="white"/>
</g>
<defs>
<filter id="filter0_d_652_1864" x="80.0906" y="24.4293" width="212.998" height="42.969" filterUnits="userSpaceOnUse" color-interpolation-filters="sRGB">
<feFlood flood-opacity="0" result="BackgroundImageFix"/>
<feColorMatrix in="SourceAlpha" type="matrix" values="0 0 0 0 0 0 0 0 0 0 0 0 0 0 0 0 0 0 127 0" result="hardAlpha"/>
<feOffset dx="1" dy="2"/>
<feGaussianBlur stdDeviation="1"/>
<feComposite in2="hardAlpha" operator="out"/>
<feColorMatrix type="matrix" values="0 0 0 0 0 0 0 0 0 0 0 0 0 0 0 0 0 0 0.25 0"/>
<feBlend mode="normal" in2="BackgroundImageFix" result="effect1_dropShadow_652_1864"/>
<feBlend mode="normal" in="SourceGraphic" in2="effect1_dropShadow_652_1864" result="shape"/>
</filter>
<filter id="filter1_d_652_1864" x="0.912964" y="0.694267" width="77.2647" height="90.4389" filterUnits="userSpaceOnUse" color-interpolation-filters="sRGB">
<feFlood flood-opacity="0" result="BackgroundImageFix"/>
<feColorMatrix in="SourceAlpha" type="matrix" values="0 0 0 0 0 0 0 0 0 0 0 0 0 0 0 0 0 0 127 0" result="hardAlpha"/>
<feOffset dx="1" dy="2"/>
<feGaussianBlur stdDeviation="1"/>
<feComposite in2="hardAlpha" operator="out"/>
<feColorMatrix type="matrix" values="0 0 0 0 0 0 0 0 0 0 0 0 0 0 0 0 0 0 0.25 0"/>
<feBlend mode="normal" in2="BackgroundImageFix" result="effect1_dropShadow_652_1864"/>
<feBlend mode="normal" in="SourceGraphic" in2="effect1_dropShadow_652_1864" result="shape"/>
</filter>
<linearGradient id="paint0_linear_652_1864" x1="91.225" y1="30.5069" x2="91.4514" y2="53.2858" gradientUnits="userSpaceOnUse">
<stop stop-color="#F29AC2"/>
<stop offset="0.41" stop-color="#F9617D"/>
<stop offset="0.73" stop-color="#FF394C"/>
</linearGradient>
<linearGradient id="paint1_linear_652_1864" x1="171.939" y1="32.0224" x2="171.342" y2="56.018" gradientUnits="userSpaceOnUse">
<stop stop-color="#F9F964"/>
<stop offset="0.44" stop-color="#FBC84E"/>
<stop offset="0.91" stop-color="#FF9739"/>
</linearGradient>
<linearGradient id="paint2_linear_652_1864" x1="189.452" y1="25.5914" x2="189.341" y2="46.4896" gradientUnits="userSpaceOnUse">
<stop stop-color="#F9F964"/>
<stop offset="0.44" stop-color="#FBC84E"/>
<stop offset="0.91" stop-color="#FF9739"/>
</linearGradient>
<linearGradient id="paint3_linear_652_1864" x1="208.559" y1="27.8362" x2="209.008" y2="54.0021" gradientUnits="userSpaceOnUse">
<stop stop-color="#F9F964"/>
<stop offset="0.15" stop-color="#FAE55B"/>
<stop offset="0.53" stop-color="#FCBB48"/>
<stop offset="0.82" stop-color="#FEA03D"/>
<stop offset="1" stop-color="#FF9739"/>
</linearGradient>
<linearGradient id="paint4_linear_652_1864" x1="233.119" y1="29.181" x2="234.077" y2="54.6712" gradientUnits="userSpaceOnUse">
<stop stop-color="#F9F964"/>
<stop offset="0.2" stop-color="#FADE58"/>
<stop offset="0.55" stop-color="#FCB747"/>
<stop offset="0.83" stop-color="#FE9F3C"/>
<stop offset="1" stop-color="#FF9739"/>
</linearGradient>
<linearGradient id="paint5_linear_652_1864" x1="257.527" y1="18.481" x2="257.344" y2="58.8757" gradientUnits="userSpaceOnUse">
<stop stop-color="#F9F964"/>
<stop offset="0.2" stop-color="#FADE58"/>
<stop offset="0.55" stop-color="#FCB747"/>
<stop offset="0.83" stop-color="#FE9F3C"/>
<stop offset="1" stop-color="#FF9739"/>
</linearGradient>
<linearGradient id="paint6_linear_652_1864" x1="279.147" y1="25.5138" x2="279.242" y2="62.4793" gradientUnits="userSpaceOnUse">
<stop stop-color="#F9F964"/>
<stop offset="0.2" stop-color="#FADE58"/>
<stop offset="0.55" stop-color="#FCB747"/>
<stop offset="0.83" stop-color="#FE9F3C"/>
<stop offset="1" stop-color="#FF9739"/>
</linearGradient>
<linearGradient id="paint7_linear_652_1864" x1="147.311" y1="25.9535" x2="148.131" y2="52.4369" gradientUnits="userSpaceOnUse">
<stop stop-color="#F29AC2"/>
<stop offset="0.41" stop-color="#F9617D"/>
<stop offset="0.73" stop-color="#FF394C"/>
</linearGradient>
<linearGradient id="paint8_linear_652_1864" x1="107.222" y1="25.8121" x2="107.393" y2="32.1647" gradientUnits="userSpaceOnUse">
<stop stop-color="#F29AC2"/>
<stop offset="0.01" stop-color="#F298BF"/>
<stop offset="0.25" stop-color="#F76F8E"/>
<stop offset="0.46" stop-color="#FB516A"/>
<stop offset="0.63" stop-color="#FE3F54"/>
<stop offset="0.73" stop-color="#FF394C"/>
</linearGradient>
<linearGradient id="paint9_linear_652_1864" x1="107.313" y1="34.3293" x2="107.267" y2="48.931" gradientUnits="userSpaceOnUse">
<stop stop-color="#F29AC2"/>
<stop offset="0.01" stop-color="#F298BF"/>
<stop offset="0.25" stop-color="#F76F8E"/>
<stop offset="0.46" stop-color="#FB516A"/>
<stop offset="0.63" stop-color="#FE3F54"/>
<stop offset="0.73" stop-color="#FF394C"/>
</linearGradient>
<linearGradient id="paint10_linear_652_1864" x1="123.006" y1="30.5069" x2="123.233" y2="53.2858" gradientUnits="userSpaceOnUse">
<stop stop-color="#F29AC2"/>
<stop offset="0.41" stop-color="#F9617D"/>
<stop offset="0.73" stop-color="#FF394C"/>
</linearGradient>
<linearGradient id="paint11_linear_652_1864" x1="26.0047" y1="15.55" x2="54.6234" y2="15.55" gradientUnits="userSpaceOnUse">
<stop stop-color="#FF394C"/>
<stop offset="0.61" stop-color="#DD2C3D"/>
<stop offset="1" stop-color="#C62433"/>
</linearGradient>
</defs>
</svg>
