<svg width="240" height="240" viewBox="0 0 240 240" fill="none" xmlns="http://www.w3.org/2000/svg">
<path opacity="0.24" d="M119 174C149.376 174 174 149.376 174 119C174 88.6243 149.376 64 119 64C88.6243 64 64 88.6243 64 119C64 149.376 88.6243 174 119 174Z" fill="#F9A607"/>
<path opacity="0.24" d="M119 174C149.376 174 174 149.376 174 119C174 88.6243 149.376 64 119 64C88.6243 64 64 88.6243 64 119C64 149.376 88.6243 174 119 174Z" fill="#F9A607"/>
<path d="M119 174C149.376 174 174 149.376 174 119C174 88.6243 149.376 64 119 64C88.6243 64 64 88.6243 64 119C64 149.376 88.6243 174 119 174Z" fill="#F9A607"/>
<path d="M111.044 153.205C134.838 153.205 154.126 133.917 154.126 110.123C154.126 86.3297 134.838 67.0413 111.044 67.0413C87.251 67.0413 67.9626 86.3297 67.9626 110.123C67.9626 133.917 87.251 153.205 111.044 153.205Z" fill="#FBD13E"/>
<path d="M101.246 127.584C116.929 127.584 129.643 114.87 129.643 99.1861C129.643 83.5026 116.929 70.7886 101.246 70.7886C85.5621 70.7886 72.8481 83.5026 72.8481 99.1861C72.8481 114.87 85.5621 127.584 101.246 127.584Z" fill="#FFE580"/>
</svg>
