<svg width="240" height="240" viewBox="0 0 240 240" fill="none" xmlns="http://www.w3.org/2000/svg">
<path d="M120 200C164.183 200 200 164.183 200 120C200 75.8172 164.183 40 120 40C75.8172 40 40 75.8172 40 120C40 164.183 75.8172 200 120 200Z" fill="#F9A607" fill-opacity="0.24"/>
<path d="M120 174C150.376 174 175 149.376 175 119C175 88.6243 150.376 64 120 64C89.6243 64 65 88.6243 65 119C65 149.376 89.6243 174 120 174Z" fill="#F9A607"/>
<path d="M112.044 153.205C135.838 153.205 155.126 133.917 155.126 110.123C155.126 86.3297 135.838 67.0413 112.044 67.0413C88.251 67.0413 68.9626 86.3297 68.9626 110.123C68.9626 133.917 88.251 153.205 112.044 153.205Z" fill="#FBD13E"/>
<path d="M102.246 127.584C117.929 127.584 130.643 114.87 130.643 99.1861C130.643 83.5026 117.929 70.7886 102.246 70.7886C86.5621 70.7886 73.8481 83.5026 73.8481 99.1861C73.8481 114.87 86.5621 127.584 102.246 127.584Z" fill="#FFE580"/>
</svg>
