<svg width="38" height="42" viewBox="0 0 38 42" fill="none" xmlns="http://www.w3.org/2000/svg">
<path d="M12.1524 25.7569L12.6607 27.3309C12.9264 28.0207 13.181 28.6659 13.4975 29.2723L13.5305 29.4057C13.6362 29.5448 13.6916 29.6728 13.775 29.8174C13.9526 30.1512 14.1303 30.485 14.3079 30.8188L8.37576 33.7498C7.54599 34.1439 6.65963 33.348 7.02126 32.5031L11.3463 21.8249L11.3738 21.9361C11.5306 23.243 11.7994 24.5221 12.1579 25.7791L12.1524 25.7569Z" fill="#1F2B33"/>
<path d="M35.7563 34.5792L29.5788 31.905C29.4448 31.8437 29.3277 31.7547 29.233 31.66C29.5034 31.2154 29.746 30.7541 29.983 30.2705C29.983 30.2705 29.983 30.2705 29.9999 30.2427C30.5809 29.1311 31.0274 28.0527 31.3961 26.852L31.8391 25.2787C32.0325 24.5227 32.1701 23.7332 32.2907 22.9715C32.3017 23.016 32.3297 23.0327 32.3631 23.0716C32.3631 23.0716 32.3686 23.0939 32.3741 23.1161L36.5885 32.2723C36.5885 32.2723 36.5885 32.2723 36.594 32.2945L37.0487 33.268C37.4201 34.0969 36.5829 34.9414 35.7338 34.5848L35.7563 34.5792Z" fill="#1F2B33"/>
<path d="M20.2602 2.97651C20.9622 2.35432 22.003 2.33299 22.7168 2.91188C27.4572 6.69702 30.5275 12.477 30.6681 19.0052C30.7251 21.4463 30.357 23.8037 29.6428 26.0106L28.4396 26.0485L21.2096 26.2315L14.3546 26.3926C13.5578 24.2289 13.0751 21.8931 13.0181 19.4519C12.8775 12.9237 15.6943 7.00965 20.2602 2.97651ZM19.6984 15.6041C21.1036 16.7674 23.1971 16.5801 24.3669 15.1576C25.5422 13.7573 25.3606 11.6775 23.933 10.5197C22.5278 9.35639 20.4343 9.54366 19.2645 10.9662C18.0892 12.3665 18.2708 14.4463 19.6984 15.6041Z" fill="#1F2B33"/>
<path d="M17.1896 28.1468L28.9804 27.8508C28.8165 28.2455 28.6246 28.6235 28.4552 28.9959C28.2803 29.346 28.0665 29.635 27.8861 29.9629C27.7847 30.1297 27.6887 30.3187 27.5873 30.4854C27.3844 30.8189 27.2095 31.169 26.9843 31.508C26.5676 32.1305 26.0953 32.7195 25.5949 33.2918L18.7177 33.3639C17.2917 31.828 16.0736 30.0754 15.1526 28.1785L17.2064 28.119L17.1896 28.1468Z" fill="#1F2B33"/>
</svg>
