<svg width="240" height="240" viewBox="0 0 240 240" fill="none" xmlns="http://www.w3.org/2000/svg">
<path opacity="0.24" d="M120 190C158.66 190 190 158.66 190 120C190 81.3401 158.66 50 120 50C81.3401 50 50 81.3401 50 120C50 158.66 81.3401 190 120 190Z" fill="#FF394C"/>
<path opacity="0.24" d="M120 205C166.944 205 205 166.944 205 120C205 73.0558 166.944 35 120 35C73.0558 35 35 73.0558 35 120C35 166.944 73.0558 205 120 205Z" fill="#FF394C"/>
<path d="M120 190C158.66 190 190 158.66 190 120C190 81.3401 158.66 50 120 50C81.3401 50 50 81.3401 50 120C50 158.66 81.3401 190 120 190Z" fill="#FF394C"/>
<path d="M109.875 163.533C140.158 163.533 164.706 138.984 164.706 108.702C164.706 78.4192 140.158 53.8703 109.875 53.8703C79.5924 53.8703 55.0435 78.4192 55.0435 108.702C55.0435 138.984 79.5924 163.533 109.875 163.533Z" fill="#FF6271"/>
<path d="M97.4033 130.925C117.364 130.925 133.546 114.744 133.546 94.7827C133.546 74.8219 117.364 58.6404 97.4033 58.6404C77.4425 58.6404 61.261 74.8219 61.261 94.7827C61.261 114.744 77.4425 130.925 97.4033 130.925Z" fill="#FF8591"/>
</svg>
