<svg width="111" height="45" viewBox="0 0 111 45" fill="none" xmlns="http://www.w3.org/2000/svg">
<path fill-rule="evenodd" clip-rule="evenodd" d="M20.27 0C9.22433 0 0.27002 8.95429 0.27002 20V24.28C0.27002 35.3257 9.22433 44.28 20.27 44.28H91C102.046 44.28 111 35.3257 111 24.28V20C111 8.9543 102.046 0 91 0H20.27ZM78.8833 28.7378L79.9938 29.03L79.9782 29.0271C80.8632 29.2277 81.7601 29.3659 82.6718 29.4259L82.7499 29.4408L75.5176 32.8107C74.9461 33.0907 74.3602 32.5096 74.6012 31.9238L76.4024 27.7317L77.117 28.0619C77.148 28.0775 77.1778 28.0914 77.2072 28.1051C77.2757 28.1371 77.3414 28.1677 77.4118 28.2151L77.5056 28.233C77.938 28.4286 78.3951 28.5802 78.8833 28.7378ZM72.9652 13.1014L75.0578 17.2566C75.1055 17.3467 75.1717 17.4241 75.241 17.4858C75.5386 17.2833 75.8489 17.0993 76.1748 16.9184L76.1934 16.9057C76.9413 16.4649 77.6713 16.1178 78.4891 15.8199L79.5622 15.4571C80.0786 15.2962 80.6204 15.1725 81.1436 15.0614C81.1207 15.0571 81.1078 15.046 81.0915 15.0318C81.0855 15.0267 81.079 15.0211 81.0714 15.0153L81.0401 15.0094L74.5316 12.4437L74.516 12.4407L73.8237 12.1634C73.235 11.938 72.6822 12.5455 72.9622 13.117L72.9652 13.1014ZM95.4164 20.9174C95.8452 21.3876 95.8708 22.105 95.4668 22.6112C92.8488 25.9031 88.8595 28.0597 84.33 28.2025C82.6361 28.2529 80.9987 28.0063 79.4684 27.5371L79.3144 22.8112L79.161 17.8263L79.1407 16.9965C80.6424 16.4237 82.2618 16.0837 83.9557 16.0333C88.4851 15.8905 92.6096 17.7924 95.4164 20.9174ZM86.8662 20.2308C85.9258 21.0884 85.8771 22.5368 86.7377 23.4616C87.5954 24.4021 89.0437 24.4508 89.9686 23.5901C90.909 22.7325 90.9577 21.2841 90.0971 20.3593C89.2394 19.4188 87.7911 19.3701 86.8662 20.2308ZM78.1426 25.6493L77.8908 17.52C77.7188 17.602 77.552 17.6917 77.3879 17.78C77.2971 17.8288 77.2072 17.8772 77.1176 17.9236C76.9827 17.9999 76.8622 18.0841 76.7425 18.1677L76.7424 18.1678L76.7424 18.1678C76.6528 18.2304 76.5638 18.2927 76.4695 18.351C76.4137 18.3889 76.354 18.4262 76.2943 18.4634C76.2346 18.5007 76.1748 18.5379 76.119 18.5759C76.0303 18.6363 75.9396 18.6937 75.8483 18.7515L75.8482 18.7516C75.7098 18.8392 75.57 18.9277 75.4337 19.0286C75.0185 19.3384 74.6287 19.6852 74.2514 20.0508L74.468 24.7886C75.5876 25.7141 76.8493 26.4886 78.1996 27.053L78.1612 25.6367L78.1426 25.6493ZM45.8325 17.1797C45.8325 17.8359 46.3638 18.3594 47.0513 18.3594C47.7388 18.3594 48.27 17.8359 48.27 17.1797C48.27 16.5156 47.7388 16 47.0513 16C46.3638 16 45.8325 16.5156 45.8325 17.1797ZM45.9106 26.75C45.9106 27.4922 46.3403 27.9375 47.0513 27.9375C47.7544 27.9375 48.1919 27.4922 48.1919 26.75V20.4219C48.1919 19.6797 47.7544 19.2266 47.0513 19.2266C46.3403 19.2266 45.9106 19.6797 45.9106 20.4219V26.75ZM19.27 26.5391C19.27 27.3203 19.7075 27.7734 20.4497 27.7734H25.8091C26.4575 27.7734 26.8794 27.4062 26.8794 26.7969C26.8794 26.1875 26.4497 25.8203 25.8091 25.8203H21.6294V22.9766H25.606C26.1997 22.9766 26.5903 22.6328 26.5903 22.0703C26.5903 21.5078 26.1919 21.1641 25.606 21.1641H21.6294V18.4531H25.8091C26.4497 18.4531 26.8794 18.0859 26.8794 17.4766C26.8794 16.8672 26.4575 16.5 25.8091 16.5H20.4497C19.7075 16.5 19.27 16.9531 19.27 17.7266V26.5391ZM28.2466 26.75C28.2466 27.5312 28.7231 27.9375 29.3872 27.9375C30.0591 27.9375 30.5278 27.5312 30.5278 26.75V22.9688C30.5278 21.8828 31.1763 21.1328 32.1997 21.1328C33.2231 21.1328 33.7388 21.7578 33.7388 22.8516V26.75C33.7388 27.5312 34.2075 27.9375 34.8794 27.9375C35.5435 27.9375 36.02 27.5312 36.02 26.75V22.375C36.02 20.4141 34.9731 19.2422 33.1138 19.2422C31.8247 19.2422 30.981 19.8125 30.5356 20.8516H30.4888V20.3828C30.4888 19.6641 30.0356 19.2266 29.3481 19.2266C28.6606 19.2266 28.2466 19.6641 28.2466 20.375V26.75ZM40.9341 27.9375C40.0591 27.9375 39.5903 27.5859 39.2856 26.7734L37.106 20.9297C37.0356 20.7266 36.981 20.4844 36.981 20.25C36.981 19.6328 37.4731 19.2266 38.1216 19.2266C38.6763 19.2266 39.0435 19.5234 39.2153 20.1406L40.9106 25.7578H40.9575L42.6528 20.1172C42.8091 19.5156 43.1919 19.2266 43.7231 19.2266C44.356 19.2266 44.8325 19.6641 44.8325 20.2422C44.8325 20.4531 44.7778 20.6875 44.7075 20.8828L42.5278 26.7734C42.2388 27.5781 41.7622 27.9375 40.9341 27.9375ZM52.1919 27.9062C50.5981 27.9062 49.3872 26.875 49.3872 25.3672C49.3872 23.8438 50.5591 22.9609 52.6528 22.8359L54.7622 22.7109V22.1562C54.7622 21.375 54.2153 20.9219 53.356 20.9219C52.6606 20.9219 52.2388 21.1484 51.731 21.8047C51.481 22.0859 51.1919 22.2266 50.8247 22.2266C50.27 22.2266 49.8716 21.8672 49.8716 21.3516C49.8716 21.1719 49.9106 21.0078 49.9888 20.8359C50.3794 19.8359 51.7231 19.2188 53.4575 19.2188C55.606 19.2188 57.0044 20.3281 57.0044 22.0156V26.7891C57.0044 27.5469 56.5435 27.9375 55.895 27.9375C55.2778 27.9375 54.8481 27.5938 54.8013 26.9219V26.4922H54.7544C54.2856 27.3828 53.2388 27.9062 52.1919 27.9062ZM52.9419 26.2578C53.9419 26.2578 54.7622 25.6094 54.7622 24.7031V24.0938L52.9966 24.2031C52.145 24.2656 51.6606 24.6484 51.6606 25.2422C51.6606 25.8672 52.1763 26.2578 52.9419 26.2578ZM58.481 26.75C58.481 27.5078 58.9341 27.9375 59.6216 27.9375C60.3169 27.9375 60.7622 27.5078 60.7622 26.75V23.0312C60.7622 22.0391 61.1294 21.4531 62.1685 21.4375C62.6138 21.4297 62.9419 21.3281 63.1606 21.1406C63.3794 20.9531 63.4888 20.6797 63.4888 20.3203C63.4888 19.9297 63.3794 19.6484 63.1606 19.4766C62.9966 19.3359 62.7544 19.2656 62.4497 19.2656C61.6138 19.2656 60.9263 19.8828 60.7075 20.9219H60.6606V20.375C60.6606 19.6484 60.2231 19.2266 59.5825 19.2266C58.9263 19.2266 58.481 19.6484 58.481 20.375V26.75Z" fill="white"/>
</svg>
