<svg width="200" height="200" viewBox="0 0 200 200" fill="none" xmlns="http://www.w3.org/2000/svg">
<g id="Group">
<path id="C" opacity="0.24" d="M100 184C146.392 184 184 146.392 184 100C184 53.6081 146.392 16 100 16C53.6081 16 16 53.6081 16 100C16 146.392 53.6081 184 100 184Z" fill="#F97807"/>
<path id="B" opacity="0.24" d="M100 200C155.228 200 200 155.228 200 100C200 44.7715 155.228 0 100 0C44.7715 0 0 44.7715 0 100C0 155.228 44.7715 200 100 200Z" fill="#F97807"/>
<g id="A">
<path d="M100.042 184.042C146.434 184.042 184.042 146.434 184.042 100.042C184.042 53.6501 146.434 16.042 100.042 16.042C53.6501 16.042 16.042 53.6501 16.042 100.042C16.042 146.434 53.6501 184.042 100.042 184.042Z" fill="#F97807"/>
<path d="M87.8919 152.282C124.231 152.282 153.69 122.823 153.69 86.4841C153.69 50.1451 124.231 20.6864 87.8919 20.6864C51.5528 20.6864 22.0941 50.1451 22.0941 86.4841C22.0941 122.823 51.5528 152.282 87.8919 152.282Z" fill="#FF8D28"/>
<path d="M72.9261 113.151C96.8791 113.151 116.297 93.7333 116.297 69.7802C116.297 45.8272 96.8791 26.4095 72.9261 26.4095C48.9731 26.4095 29.5553 45.8272 29.5553 69.7802C29.5553 93.7333 48.9731 113.151 72.9261 113.151Z" fill="#FFA759"/>
</g>
</g>
</svg>
