<svg width="240" height="240" viewBox="0 0 240 240" fill="none" xmlns="http://www.w3.org/2000/svg">
<g id="Group">
<path id="C" opacity="0.24" d="M120 240C186.274 240 240 186.274 240 120C240 53.7258 186.274 0 120 0C53.7258 0 0 53.7258 0 120C0 186.274 53.7258 240 120 240Z" fill="#F97807"/>
<path id="B" opacity="0.24" d="M120 220C175.228 220 220 175.228 220 120C220 64.7715 175.228 20 120 20C64.7715 20 20 64.7715 20 120C20 175.228 64.7715 220 120 220Z" fill="#F97807"/>
<g id="A">
<path d="M120.042 204.042C166.434 204.042 204.042 166.434 204.042 120.042C204.042 73.6501 166.434 36.042 120.042 36.042C73.6501 36.042 36.042 73.6501 36.042 120.042C36.042 166.434 73.6501 204.042 120.042 204.042Z" fill="#F97807"/>
<path d="M107.892 172.282C144.231 172.282 173.69 142.823 173.69 106.484C173.69 70.1451 144.231 40.6864 107.892 40.6864C71.5528 40.6864 42.0941 70.1451 42.0941 106.484C42.0941 142.823 71.5528 172.282 107.892 172.282Z" fill="#FF8D28"/>
<path d="M92.9261 133.151C116.879 133.151 136.297 113.733 136.297 89.7802C136.297 65.8272 116.879 46.4095 92.9261 46.4095C68.9731 46.4095 49.5553 65.8272 49.5553 89.7802C49.5553 113.733 68.9731 133.151 92.9261 133.151Z" fill="#FFA759"/>
</g>
</g>
</svg>
