<svg width="169" height="169" viewBox="0 0 169 169" fill="none" xmlns="http://www.w3.org/2000/svg">
<g id="Group">
<path id="C" opacity="0.24" d="M84 168C130.392 168 168 130.392 168 84C168 37.6081 130.392 0 84 0C37.6081 0 0 37.6081 0 84C0 130.392 37.6081 168 84 168Z" fill="#F97807"/>
<path id="B" opacity="0.24" d="M84 168C130.392 168 168 130.392 168 84C168 37.6081 130.392 0 84 0C37.6081 0 0 37.6081 0 84C0 130.392 37.6081 168 84 168Z" fill="#F97807"/>
<g id="A">
<path d="M84.042 168.042C130.434 168.042 168.042 130.434 168.042 84.042C168.042 37.6501 130.434 0.0419922 84.042 0.0419922C37.6501 0.0419922 0.0419922 37.6501 0.0419922 84.042C0.0419922 130.434 37.6501 168.042 84.042 168.042Z" fill="#F97807"/>
<path d="M71.8919 136.282C108.231 136.282 137.69 106.823 137.69 70.4841C137.69 34.1451 108.231 4.6864 71.8919 4.6864C35.5528 4.6864 6.09409 34.1451 6.09409 70.4841C6.09409 106.823 35.5528 136.282 71.8919 136.282Z" fill="#FF8D28"/>
<path d="M56.9261 97.151C80.8791 97.151 100.297 77.7333 100.297 53.7802C100.297 29.8272 80.8791 10.4095 56.9261 10.4095C32.9731 10.4095 13.5553 29.8272 13.5553 53.7802C13.5553 77.7333 32.9731 97.151 56.9261 97.151Z" fill="#FFA759"/>
</g>
</g>
</svg>
