<svg width="407" height="19" viewBox="0 0 407 19" fill="none" xmlns="http://www.w3.org/2000/svg">
<path d="M2.03841 8.45898H390.355" stroke="white" stroke-width="2" stroke-linecap="round"/>
<path d="M393.442 13.2775L392.594 13.0608C392.221 12.9435 391.872 12.8307 391.542 12.6846L391.47 12.6715C391.393 12.6208 391.324 12.5958 391.245 12.5569C391.063 12.4747 390.881 12.3925 390.699 12.3103L389.329 15.4773C389.146 15.9198 389.594 16.3561 390.03 16.143L395.547 13.5781L395.488 13.5671C394.791 13.5249 394.106 13.4237 393.431 13.2753L393.442 13.2775Z" fill="white"/>
<path d="M388.054 1.28969L389.658 4.41609C389.694 4.48383 389.745 4.54196 389.798 4.58829C390.025 4.43459 390.262 4.29485 390.51 4.15733C390.51 4.15733 390.51 4.15732 390.524 4.14771C391.095 3.81284 391.651 3.54874 392.275 3.32137L393.094 3.0443C393.488 2.92126 393.902 2.8262 394.301 2.74073C394.277 2.73635 394.268 2.72234 394.246 2.70617C394.246 2.70617 394.234 2.70398 394.222 2.70179L389.249 0.788588C389.249 0.788588 389.249 0.788589 389.237 0.7864L388.709 0.579552C388.259 0.411584 387.837 0.871482 388.052 1.3015L388.054 1.28969Z" fill="white"/>
<path d="M405.246 8.38638C405.554 8.00334 405.534 7.46245 405.206 7.10928C403.058 4.76212 399.907 3.34162 396.449 3.46423C395.156 3.50781 393.92 3.76947 392.774 4.20634L392.791 4.83203L392.915 8.59044L393.039 12.1535C394.208 12.5022 395.458 12.6828 396.751 12.6392C400.209 12.5166 403.252 10.8773 405.246 8.38638ZM398.583 9.05638C397.925 8.36184 397.96 7.26955 398.677 6.61972C399.382 5.9677 400.488 5.99965 401.144 6.70598C401.802 7.40053 401.767 8.49282 401.05 9.14265C400.345 9.79467 399.239 9.76272 398.583 9.05638Z" fill="white"/>
<path d="M392.024 10.7344L391.821 4.60521C391.617 4.70212 391.423 4.81304 391.231 4.91214C391.051 5.01343 390.905 5.13304 390.737 5.23652C390.652 5.29416 390.555 5.34967 390.47 5.4073C390.299 5.52258 390.12 5.62385 389.947 5.75092C389.631 5.98585 389.333 6.2487 389.046 6.52558L389.218 10.0975C390.074 10.7917 391.038 11.3715 392.07 11.7927L392.039 10.7248L392.024 10.7344Z" fill="white"/>
<ellipse cx="2.03841" cy="9.45898" rx="1.0192" ry="1" fill="white"/>
<ellipse cx="1.0192" cy="8.45898" rx="1.0192" ry="1" fill="white"/>
<ellipse cx="2.03841" cy="7.45898" rx="1.0192" ry="1" fill="white"/>
<ellipse cx="1.0192" cy="6.45898" rx="1.0192" ry="1" fill="white"/>
<ellipse cx="1.0192" cy="7.45898" rx="1.0192" ry="1" fill="white"/>
<ellipse cx="1.0192" cy="9.45898" rx="1.0192" ry="1" fill="white"/>
<ellipse cx="1.0192" cy="10.459" rx="1.0192" ry="1" fill="white"/>
<ellipse cx="3.05761" cy="9.45898" rx="1.0192" ry="1" fill="white"/>
<ellipse cx="3.05761" cy="7.45898" rx="1.0192" ry="1" fill="white"/>
</svg>
