<svg width="290" height="19" viewBox="0 0 290 19" fill="none" xmlns="http://www.w3.org/2000/svg">
<path d="M2.99268 10L272.993 8" stroke="white" stroke-width="2" stroke-linecap="round"/>
<path d="M277.03 12.8185L276.198 12.6018C275.832 12.4845 275.489 12.3717 275.165 12.2256L275.095 12.2125C275.019 12.1618 274.951 12.1368 274.874 12.0979C274.695 12.0157 274.516 11.9335 274.338 11.8513L272.994 15.0183C272.814 15.4608 273.254 15.8971 273.682 15.6841L279.095 13.1191L279.036 13.1081C278.353 13.0659 277.681 12.9647 277.018 12.8163L277.03 12.8185Z" fill="white"/>
<path d="M271.743 0.830709L273.316 3.95711C273.352 4.02485 273.402 4.08297 273.454 4.12931C273.677 3.97561 273.909 3.83587 274.153 3.69835C274.153 3.69835 274.153 3.69834 274.167 3.68873C274.726 3.35386 275.273 3.08975 275.885 2.86239L276.688 2.58532C277.075 2.46228 277.48 2.36721 277.872 2.28175C277.849 2.27737 277.839 2.26336 277.818 2.24718C277.818 2.24718 277.806 2.24499 277.795 2.2428L272.916 0.329604C272.916 0.329604 272.916 0.329605 272.904 0.327415L272.385 0.120567C271.944 -0.0474005 271.53 0.412498 271.741 0.842516L271.743 0.830709Z" fill="white"/>
<path d="M288.611 7.9274C288.913 7.54435 288.893 7.00346 288.571 6.65029C286.465 4.30313 283.372 2.88263 279.98 3.00525C278.711 3.04882 277.498 3.31049 276.374 3.74736L276.39 4.37304L276.512 8.13146L276.634 11.6945C277.781 12.0432 279.008 12.2238 280.277 12.1802C283.669 12.0576 286.655 10.4183 288.611 7.9274ZM282.074 8.5974C281.428 7.90286 281.462 6.81057 282.166 6.16074C282.857 5.50872 283.942 5.54066 284.586 6.247C285.232 6.94154 285.197 8.03384 284.494 8.68367C283.802 9.33568 282.717 9.30374 282.074 8.5974Z" fill="white"/>
<path d="M275.638 10.2754L275.439 4.14622C275.239 4.24313 275.048 4.35406 274.86 4.45316C274.684 4.55445 274.54 4.67406 274.375 4.77754C274.292 4.83517 274.196 4.89068 274.113 4.94832C273.946 5.06359 273.769 5.16487 273.6 5.29194C273.29 5.52686 272.998 5.78971 272.716 6.06659L272.885 9.6385C273.725 10.3327 274.671 10.9125 275.683 11.3337L275.652 10.2658L275.638 10.2754Z" fill="white"/>
<circle cx="2" cy="11" r="1" fill="white"/>
<circle cx="1" cy="10" r="1" fill="white"/>
<circle cx="2" cy="9" r="1" fill="white"/>
<circle cx="1" cy="8" r="1" fill="white"/>
<circle cx="1" cy="9" r="1" fill="white"/>
<circle cx="1" cy="11" r="1" fill="white"/>
<circle cx="1" cy="12" r="1" fill="white"/>
<circle cx="3" cy="11" r="1" fill="white"/>
<circle cx="3" cy="9" r="1" fill="white"/>
</svg>
