<svg width="358" height="19" viewBox="0 0 358 19" fill="none" xmlns="http://www.w3.org/2000/svg">
<path d="M2 8.72949H342" stroke="white" stroke-width="2" stroke-linecap="round"/>
<path d="M345.03 13.548L344.197 13.3313C343.831 13.214 343.489 13.1012 343.165 12.9551L343.094 12.942C343.019 12.8913 342.951 12.8663 342.873 12.8274C342.695 12.7452 342.516 12.663 342.338 12.5808L340.994 15.7478C340.814 16.1903 341.254 16.6266 341.682 16.4135L347.095 13.8486L347.036 13.8376C346.353 13.7954 345.681 13.6942 345.018 13.5458L345.03 13.548Z" fill="white"/>
<path d="M339.743 1.5602L341.316 4.6866C341.352 4.75434 341.402 4.81246 341.454 4.8588C341.676 4.7051 341.909 4.56536 342.153 4.42784C342.153 4.42784 342.153 4.42783 342.166 4.41822C342.726 4.08335 343.272 3.81925 343.885 3.59188L344.688 3.31481C345.075 3.19177 345.48 3.09671 345.872 3.01124C345.849 3.00686 345.839 2.99285 345.818 2.97668C345.818 2.97668 345.806 2.97449 345.795 2.9723L340.916 1.0591C340.916 1.0591 340.916 1.0591 340.904 1.05691L340.385 0.850059C339.944 0.682092 339.53 1.14199 339.741 1.57201L339.743 1.5602Z" fill="white"/>
<path d="M356.611 8.65689C356.913 8.27384 356.893 7.73296 356.571 7.37979C354.464 5.03263 351.372 3.61213 347.979 3.73474C346.711 3.77832 345.498 4.03998 344.374 4.47685L344.39 5.10253L344.512 8.86095L344.634 12.424C345.781 12.7727 347.008 12.9533 348.276 12.9097C351.669 12.7871 354.655 11.1478 356.611 8.65689ZM350.074 9.32689C349.428 8.63235 349.462 7.54006 350.165 6.89023C350.857 6.23821 351.942 6.27015 352.586 6.97649C353.232 7.67103 353.197 8.76333 352.494 9.41316C351.802 10.0652 350.717 10.0332 350.074 9.32689Z" fill="white"/>
<path d="M343.638 11.0049L343.439 4.87571C343.239 4.97262 343.048 5.08355 342.86 5.18265C342.684 5.28394 342.54 5.40355 342.375 5.50703C342.292 5.56467 342.196 5.62018 342.113 5.67781C341.946 5.79309 341.769 5.89436 341.6 6.02143C341.29 6.25635 340.998 6.5192 340.716 6.79609L340.885 10.368C341.724 11.0622 342.671 11.642 343.683 12.0632L343.652 10.9953L343.638 11.0049Z" fill="white"/>
<circle cx="2" cy="9.72949" r="1" fill="white"/>
<circle cx="1" cy="8.72949" r="1" fill="white"/>
<circle cx="2" cy="7.72949" r="1" fill="white"/>
<circle cx="1" cy="6.72949" r="1" fill="white"/>
<circle cx="1" cy="7.72949" r="1" fill="white"/>
<circle cx="1" cy="9.72949" r="1" fill="white"/>
<circle cx="1" cy="10.7295" r="1" fill="white"/>
<circle cx="3" cy="9.72949" r="1" fill="white"/>
<circle cx="3" cy="7.72949" r="1" fill="white"/>
</svg>
